<?xml version="1.0" encoding="utf-8"?>
<!-- Generator: Adobe Illustrator 19.2.1, SVG Export Plug-In . SVG Version: 6.00 Build 0)  -->
<svg version="1.1" id="Layer_1" xmlns="http://www.w3.org/2000/svg" xmlns:xlink="http://www.w3.org/1999/xlink" x="0px" y="0px"
	 viewBox="0 0 48 48" style="enable-background:new 0 0 48 48;" xml:space="preserve">
<style type="text/css">
	.st0{fill:#FFFFFF;}
</style>
<g>
	<polygon class="st0" points="39.6,1 8.2,1 4.1,7.3 4.1,47 43.7,47 43.7,7.3 	"/>
	<g>
		<path d="M44.7,7.3c0-0.1,0-0.2-0.1-0.3V6.9V6.8l-4-6.3C40.3,0.2,40,0,39.6,0H8.2C7.8,0,7.5,0.2,7.3,0.5l-4,6.3v0.1V7
			c0,0.1-0.1,0.2-0.1,0.3l0,0V47c0,0.6,0.5,1,1,1h39.6c0.6,0,1-0.5,1-1L44.7,7.3L44.7,7.3z M8.7,2h30.4l2.7,4.3H6L8.7,2z M42.7,46
			H5.1V8.3h37.5L42.7,46L42.7,46z"/>
		<path d="M14.5,39.5h19.9c3.5,0,6.3-2.8,6.3-6.3V17.6c0-3.5-2.8-6.3-6.3-6.3H14.5c-3.5,0-6.3,2.8-6.3,6.3v15.5
			C8.2,36.6,11,39.5,14.5,39.5z M21,24.9l0.3,0.2c0.1,0.1,0.2,0.1,0.4,0.1H22c0.1,0,0.2,0,0.3-0.1l0.5-0.3h1.7l-0.9,0.5h-0.1h-3.4
			L21,24.9z M26.2,30.3l-1.8,1.1v-4.9l1.8-1.1V30.3z M23.1,31.9h-4.6v-5.1h4.6V31.9z M34.3,37.5H14.5c-1.9,0-3.5-1.2-4.1-2.9h28
			C37.8,36.2,36.2,37.5,34.3,37.5z M38.6,31.7l-1-1.8v-15c0.6,0.8,1,1.7,1,2.8V31.7z M36.3,13.8v15.4h-8.7v-5l0,0c0-0.1,0-0.1,0-0.2
			c0,0,0-0.1-0.1-0.1l0,0c-0.1-0.1-0.1-0.2-0.2-0.2l0,0l0,0c-0.1,0-0.2-0.1-0.3-0.1h-3.1v-1.4h2c0.4,0,0.7-0.3,0.7-0.7v-8.1h7.8
			C35,13.3,35.7,13.5,36.3,13.8z M17.2,13.3v8.1c0,0.4,0.3,0.7,0.7,0.7H20v1.8V24l-2.5,1.5c0,0,0,0-0.1,0.1c0,0,0,0-0.1,0.1
			c0,0-0.1,0.1-0.1,0.2l0,0c0,0.1,0,0.2,0,0.2l0,0v3.1h-4.4V13.7c0.5-0.2,1.1-0.4,1.7-0.4H17.2z M11.4,14.6V30l-1.2,1.6v-14
			C10.2,16.5,10.6,15.4,11.4,14.6z"/>
		<path d="M39.7,40.5H27.9c-0.2,0-0.3,0.1-0.5,0.2c-0.1,0.1-0.2,0.3-0.2,0.5v3.3c0,0.4,0.3,0.7,0.7,0.7h11.8c0.4,0,0.7-0.3,0.7-0.7
			v-3.3C40.4,40.9,40.1,40.5,39.7,40.5z M39.1,43.8H28.6v-1.9h10.5V43.8z"/>
		<ellipse cx="29.9" cy="42.9" rx="0.7" ry="0.7"/>
		<ellipse cx="31.9" cy="42.9" rx="0.7" ry="0.7"/>
		<ellipse cx="33.9" cy="42.9" rx="0.7" ry="0.7"/>
		<ellipse cx="35.9" cy="42.9" rx="0.7" ry="0.7"/>
		<ellipse cx="37.8" cy="42.9" rx="0.7" ry="0.7"/>
	</g>
</g>
</svg>
