<?xml version="1.0" encoding="utf-8"?>
<!-- Generator: Adobe Illustrator 19.2.1, SVG Export Plug-In . SVG Version: 6.00 Build 0)  -->
<svg version="1.1" id="Layer_1" xmlns="http://www.w3.org/2000/svg" xmlns:xlink="http://www.w3.org/1999/xlink" x="0px" y="0px"
	 viewBox="0 0 48 48" style="enable-background:new 0 0 48 48;" xml:space="preserve">
<style type="text/css">
	.st0{fill:#FFFFFF;}
</style>
<g>
	<path class="st0" d="M43,31.8V16.1c0-1.9-1.6-3.5-3.5-3.5H4.6c-1.9,0-3.5,1.6-3.5,3.5v15.5c0,1.9,1.6,3.5,3.5,3.5h34.9
		C41.4,35.2,43,33.7,43,31.8z"/>
	<g>
		<path d="M33.6,19.2l-11,2.6v-2.1c0-0.2-0.1-0.3-0.2-0.4c-0.2-0.1-0.3-0.1-0.5,0l-14,9.7c-0.2,0.1-0.2,0.4-0.2,0.6
			C7.7,29.9,7.8,30,8,30h0.1l11-2.6v2.1c0,0.2,0.1,0.3,0.2,0.4c0.2,0.1,0.3,0.1,0.5,0l14-9.7c0.2-0.1,0.2-0.4,0.2-0.6
			C34.1,19.2,33.8,19.1,33.6,19.2z"/>
		<path d="M47.2,16.4h-3v-0.2c0-2.6-2.1-4.6-4.6-4.6h-35C2,11.6,0,13.7,0,16.2v15.5c0,2.6,2.1,4.6,4.6,4.6h34.9
			c2.6,0,4.6-2.1,4.6-4.6v-0.2h3c0.5,0,0.9-0.4,0.9-0.9V17.3C48.1,16.8,47.7,16.4,47.2,16.4z M41.8,31.8c0,1.3-1,2.3-2.3,2.3H4.6
			c-1.3,0-2.3-1-2.3-2.3V16.1c0-1.3,1-2.3,2.3-2.3h34.9c1.3,0,2.3,1,2.3,2.3C41.8,16.1,41.8,31.8,41.8,31.8z"/>
		<circle cx="3.8" cy="32.5" r="0.7"/>
		<circle cx="6.5" cy="32.5" r="0.7"/>
		<circle cx="9.3" cy="32.5" r="0.7"/>
		<circle cx="12.1" cy="32.5" r="0.7"/>
		<circle cx="3.8" cy="26.9" r="0.7"/>
		<circle cx="6.5" cy="26.9" r="0.7"/>
		<circle cx="5.2" cy="29.7" r="0.7"/>
		<circle cx="3.8" cy="21.2" r="0.7"/>
		<circle cx="6.5" cy="21.2" r="0.7"/>
		<circle cx="9.3" cy="21.2" r="0.7"/>
		<circle cx="12.1" cy="21.2" r="0.7"/>
		<circle cx="5.2" cy="24.1" r="0.7"/>
		<circle cx="7.9" cy="24.1" r="0.7"/>
		<circle cx="10.7" cy="24.1" r="0.7"/>
		<circle cx="3.8" cy="15.7" r="0.7"/>
		<circle cx="6.5" cy="15.7" r="0.7"/>
		<circle cx="9.3" cy="15.7" r="0.7"/>
		<circle cx="12.1" cy="15.7" r="0.7"/>
		<circle cx="14.9" cy="32.5" r="0.7"/>
		<circle cx="14.9" cy="21.2" r="0.7"/>
		<circle cx="14.9" cy="15.7" r="0.7"/>
		<circle cx="5.2" cy="18.4" r="0.7"/>
		<circle cx="7.9" cy="18.4" r="0.7"/>
		<circle cx="10.7" cy="18.4" r="0.7"/>
		<circle cx="13.5" cy="18.4" r="0.7"/>
		<circle cx="17.7" cy="32.5" r="0.7"/>
		<circle cx="20.5" cy="32.5" r="0.7"/>
		<circle cx="16.3" cy="29.7" r="0.7"/>
		<circle cx="17.7" cy="15.7" r="0.7"/>
		<circle cx="20.5" cy="15.7" r="0.7"/>
		<circle cx="16.3" cy="18.4" r="0.7"/>
		<circle cx="19.1" cy="18.4" r="0.7"/>
	</g>
</g>
</svg>
