<?xml version="1.0" encoding="utf-8"?>
<!-- Generator: Adobe Illustrator 19.2.1, SVG Export Plug-In . SVG Version: 6.00 Build 0)  -->
<svg version="1.1" id="Layer_1" xmlns="http://www.w3.org/2000/svg" xmlns:xlink="http://www.w3.org/1999/xlink" x="0px" y="0px"
	 viewBox="0 0 48 48" style="enable-background:new 0 0 48 48;" xml:space="preserve">
<style type="text/css">
	.st0{fill:#FFFFFF;}
	.st1{fill:#020204;}
</style>
<g>
	<path class="st0" d="M39.7,21.2v-3.4h-0.4c-0.3-1.5-0.9-2.9-1.6-4.1c-1.2-2-2.7-3.1-4.3-4.7c-0.9-0.9-1.7-2-2.5-3
		c-2.1-2.4-4.5-6.8-8.1-4.3c-1.3,0.9-1.5,2.1-2.4,3.3c-0.7,0.9-2,1.9-2.9,2.7c-1.5,1.2-3.4,2.1-4.8,3.5c-2,1.8-3.3,4.2-3.9,6.7H8.3
		v3.5c0,0.1,0,0.1,0,0.2h0v1.2h1.4c0,0.3-0.1,0.7-0.1,1v9c0,8,6.4,14.4,14.4,14.4c8,0,14.4-6.4,14.4-14.4v-9c0-0.4,0-0.7-0.1-1h1.4
		v-1.2h0C39.7,21.4,39.7,21.3,39.7,21.2z"/>
	<g>
		<ellipse class="st1" cx="10.8" cy="20.3" rx="0.6" ry="0.6"/>
		<ellipse class="st1" cx="13.4" cy="20.3" rx="0.6" ry="0.6"/>
		<ellipse class="st1" cx="16" cy="20.3" rx="0.6" ry="0.6"/>
		<ellipse class="st1" cx="13.4" cy="15.1" rx="0.6" ry="0.6"/>
		<ellipse class="st1" cx="16" cy="15.1" rx="0.6" ry="0.6"/>
		<ellipse class="st1" cx="14.7" cy="12.6" rx="0.6" ry="0.6"/>
		<ellipse class="st1" cx="17.3" cy="12.6" rx="0.6" ry="0.6"/>
		<ellipse class="st1" cx="18.6" cy="20.3" rx="0.6" ry="0.6"/>
		<ellipse class="st1" cx="18.6" cy="10" rx="0.6" ry="0.6"/>
		<ellipse class="st1" cx="18.6" cy="15.1" rx="0.6" ry="0.6"/>
		<ellipse class="st1" cx="21.2" cy="20.3" rx="0.6" ry="0.6"/>
		<ellipse class="st1" cx="23.8" cy="20.3" rx="0.6" ry="0.6"/>
		<ellipse class="st1" cx="26.4" cy="20.3" rx="0.6" ry="0.6"/>
		<ellipse class="st1" cx="29" cy="20.3" rx="0.7" ry="0.6"/>
		<ellipse class="st1" cx="31.6" cy="20.3" rx="0.6" ry="0.6"/>
		<ellipse class="st1" cx="34.2" cy="20.3" rx="0.6" ry="0.6"/>
		<ellipse class="st1" cx="36.8" cy="20.3" rx="0.6" ry="0.6"/>
		<ellipse class="st1" cx="21.2" cy="10" rx="0.6" ry="0.6"/>
		<ellipse class="st1" cx="23.8" cy="10" rx="0.6" ry="0.6"/>
		<ellipse class="st1" cx="26.4" cy="10" rx="0.6" ry="0.6"/>
		<ellipse class="st1" cx="29" cy="10" rx="0.7" ry="0.6"/>
		<ellipse class="st1" cx="31.6" cy="10" rx="0.6" ry="0.6"/>
		<ellipse class="st1" cx="22.5" cy="7.4" rx="0.6" ry="0.6"/>
		<ellipse class="st1" cx="25.1" cy="7.4" rx="0.6" ry="0.6"/>
		<ellipse class="st1" cx="27.7" cy="7.4" rx="0.6" ry="0.6"/>
		<ellipse class="st1" cx="23.8" cy="4.8" rx="0.6" ry="0.6"/>
		<ellipse class="st1" cx="26.4" cy="4.8" rx="0.6" ry="0.6"/>
		<ellipse class="st1" cx="21.2" cy="15.1" rx="0.6" ry="0.6"/>
		<ellipse class="st1" cx="23.8" cy="15.1" rx="0.6" ry="0.6"/>
		<ellipse class="st1" cx="26.4" cy="15.1" rx="0.6" ry="0.6"/>
		<ellipse class="st1" cx="29" cy="15.1" rx="0.7" ry="0.6"/>
		<ellipse class="st1" cx="31.6" cy="15.1" rx="0.6" ry="0.6"/>
		<ellipse class="st1" cx="34.2" cy="15.1" rx="0.6" ry="0.6"/>
		<ellipse class="st1" cx="19.9" cy="12.6" rx="0.6" ry="0.6"/>
		<ellipse class="st1" cx="22.5" cy="12.6" rx="0.6" ry="0.6"/>
		<ellipse class="st1" cx="25.1" cy="12.6" rx="0.6" ry="0.6"/>
		<ellipse class="st1" cx="27.7" cy="12.6" rx="0.6" ry="0.6"/>
		<ellipse class="st1" cx="30.3" cy="12.6" rx="0.6" ry="0.6"/>
		<ellipse class="st1" cx="32.9" cy="12.6" rx="0.6" ry="0.6"/>
		<path class="st1" d="M40.6,21.3c0-0.1,0-0.1,0-0.2v-3.3c0-0.4-0.3-0.7-0.6-0.8c-0.4-1.3-0.9-2.6-1.6-3.8c-0.9-1.5-2-2.5-3-3.5
			c-0.4-0.4-0.9-0.9-1.4-1.3c-0.5-0.5-1-1.1-1.4-1.7c-0.4-0.4-0.7-0.9-1.1-1.3c-0.3-0.4-0.7-0.8-1.1-1.3C28.9,2.2,27.2,0,24.8,0
			c-0.9,0-1.7,0.3-2.6,0.9c-1,0.7-1.5,1.6-1.9,2.3c-0.2,0.4-0.4,0.8-0.7,1.1c-0.6,0.8-1.8,1.8-2.7,2.5c-0.6,0.5-1.4,1-2.1,1.5
			c-0.9,0.6-1.9,1.2-2.8,2c-1.9,1.7-3.3,4-4,6.6c-0.1,0-0.3,0.1-0.4,0.2c-0.2,0.2-0.3,0.4-0.3,0.6v3.5c0,0.1,0,0.1,0,0.2
			c0,0,0,0,0,0v1.1c0,0.5,0.4,0.9,0.9,0.9h0.4c0,0.1,0,0.1,0,0.2v4.9l0,0v4.1C8.7,41.1,15.6,48,24,48c8.4,0,15.3-6.9,15.3-15.3v-5
			c0,0,0,0,0,0v-4c0-0.1,0-0.1,0-0.2h0.4c0.5,0,0.9-0.4,0.9-0.9v-1.1c0,0,0-0.1,0-0.1C40.6,21.4,40.6,21.4,40.6,21.3z M10.4,15.6
			c0.1,0.1,0.3,0.2,0.4,0.2c0.4,0,0.6-0.3,0.6-0.6c0-0.3-0.2-0.6-0.5-0.6c0.3-0.5,0.6-0.9,0.9-1.4c0.1,0,0.2,0.1,0.3,0.1
			c0.4,0,0.6-0.3,0.6-0.6c0-0.1,0-0.2-0.1-0.3c0.2-0.2,0.3-0.4,0.5-0.5c0.7-0.6,1.4-1.1,2.2-1.6c0.1,0.3,0.3,0.5,0.6,0.5
			c0.4,0,0.7-0.3,0.7-0.6c0-0.2-0.1-0.4-0.3-0.5c0.6-0.4,1.1-0.7,1.7-1.2c0.4-0.3,0.8-0.7,1.3-1.1c0,0.1,0,0.1,0,0.2
			c0,0.4,0.3,0.6,0.6,0.6c0.4,0,0.7-0.3,0.7-0.6c0-0.4-0.3-0.6-0.7-0.6c0,0-0.1,0-0.1,0c0.5-0.4,0.9-0.9,1.2-1.3c0.1,0,0.1,0,0.2,0
			c0.4,0,0.6-0.3,0.6-0.6c0-0.2-0.1-0.3-0.2-0.4c0.1-0.1,0.1-0.2,0.2-0.3c0.3-0.5,0.5-0.9,0.8-1.2c0.2-0.1,0.4-0.2,0.4-0.4
			c0.1,0,0.1-0.1,0.2-0.1c0.5-0.3,1-0.5,1.4-0.6c-0.1,0.1-0.2,0.3-0.2,0.5c0,0.4,0.3,0.6,0.6,0.6c0.4,0,0.6-0.3,0.6-0.6
			c0-0.1,0-0.2-0.1-0.3c1,0.4,1.9,1.4,2.8,2.5c-0.1,0.1-0.1,0.2-0.1,0.4c0,0.4,0.3,0.6,0.7,0.6c0.1,0,0.2,0,0.3-0.1
			c0.3,0.4,0.6,0.8,0.9,1.1c0.1,0.1,0.2,0.2,0.3,0.3c0,0-0.1,0-0.1,0c-0.4,0-0.6,0.3-0.6,0.6c0,0.4,0.3,0.6,0.6,0.6
			c0.4,0,0.6-0.3,0.6-0.6c0.1,0.1,0.2,0.2,0.2,0.3c0.5,0.6,1,1.2,1.5,1.8c0.5,0.5,1,1,1.4,1.4c0.4,0.3,0.7,0.7,1.1,1
			c-0.2,0.1-0.4,0.3-0.4,0.6c0,0.4,0.3,0.6,0.6,0.6c0.2,0,0.4-0.1,0.5-0.3c0.3,0.4,0.6,0.8,0.9,1.2c0.1,0.2,0.2,0.3,0.3,0.5
			c-0.1-0.1-0.2-0.1-0.4-0.1c-0.4,0-0.7,0.3-0.7,0.6c0,0.4,0.3,0.6,0.7,0.6c0.3,0,0.6-0.3,0.6-0.6c0.3,0.6,0.5,1.1,0.7,1.7l-28.2,0
			C10,16.5,10.2,16,10.4,15.6z M9.2,18.7l29.7,0v3.1H9.2V18.7z M34,26.7c0,2-1.6,3.6-3.6,3.6s-3.6-1.6-3.6-3.6c0-1.4,0.8-2.6,2-3.2
			H32C33.2,24.1,34,25.3,34,26.7z M26.1,24.9C25.5,24.4,24.8,24,24,24c-0.8,0-1.6,0.3-2.1,0.9c-0.2-0.5-0.5-0.9-0.9-1.3h5.9
			C26.6,24,26.3,24.4,26.1,24.9z M16,23.6h3.2c1.2,0.6,2,1.8,2,3.2c0,2-1.6,3.6-3.6,3.6c-2,0-3.6-1.6-3.6-3.6
			C14,25.3,14.8,24.1,16,23.6z M28.2,39.1c-1.1,1.2-2.6,1.8-4.3,1.8c-1.5,0-2.9-0.5-4-1.5c-0.6-0.5-0.6-1.4-0.1-2
			c0.5-0.6,1.4-0.6,2-0.1c0.6,0.5,1.3,0.8,2.1,0.8c1.1,0,1.8-0.5,2.2-1c0.5-0.6,1.4-0.6,2,0C28.7,37.7,28.7,38.5,28.2,39.1z
			 M37.5,23.7v3.7l-4.8,8.1c-1.6-1-5.4-3.2-8.7-3.1c-3.2,0.1-7.2,2.2-8.9,3.1l-4.6-8.2v-3.6c0-0.1,0-0.1,0-0.2H14
			c-0.8,0.8-1.2,2-1.2,3.2c0,2.6,2.1,4.7,4.7,4.7c2.5,0,4.6-2,4.7-4.5c0,0,0,0,0-0.1c0-0.9,0.8-1.7,1.7-1.7c0.9,0,1.7,0.8,1.7,1.7
			c0,0,0,0,0,0.1c0.1,2.5,2.2,4.5,4.7,4.5c2.6,0,4.7-2.1,4.7-4.7c0-1.2-0.5-2.3-1.2-3.2h3.5C37.5,23.6,37.5,23.7,37.5,23.7z"/>
	</g>
</g>
</svg>
