<?xml version="1.0" encoding="utf-8"?>
<!-- Generator: Adobe Illustrator 19.2.1, SVG Export Plug-In . SVG Version: 6.00 Build 0)  -->
<svg version="1.1" id="Layer_1" xmlns="http://www.w3.org/2000/svg" xmlns:xlink="http://www.w3.org/1999/xlink" x="0px" y="0px"
	 viewBox="0 0 48 48" style="enable-background:new 0 0 48 48;" xml:space="preserve">
<style type="text/css">
	.st0{fill:#FFFFFF;}
</style>
<g>
	<path class="st0" d="M39,9.4c0.1-0.2,0.1-0.3,0.2-0.5c0.5-1.6,0.4-3.2-0.4-4.7c-0.7-1.5-2-2.5-3.6-3.1C34.7,1,34,0.9,33.4,0.9
		c-2.7,0-5,1.7-5.8,4.2c-0.1,0.2-0.1,0.3-0.1,0.5c-3.3,0.1-7.2,1.4-9.4,6.1c-3.8,8.1-4.3,11.9-6.8,14c-2.4,2-5.3,5-6.2,7.5
		c-0.1,0.1-0.1,0.2-0.1,0.3C4.1,36,9.5,39.9,17.4,43c0,1.7,1,3.2,2.7,3.7c1.6,0.5,3.2-0.2,4.2-1.4c8.6,2.4,15.8,2.5,16.6,0
		c0-0.1,0.1-0.2,0.1-0.3c0.7-2.6,0.2-6.8-0.6-9.8c-0.8-3.1,1.1-6.5,2.7-15.3C44,14.8,41.6,11.5,39,9.4z M33.4,3.8
		c0.3,0,0.7,0.1,1,0.2c0.8,0.3,1.5,0.8,1.9,1.6c0.3,0.7,0.2,2,0,2.7c-1.6-0.9-2.9-1.2-2.9-1.2S32,6.6,30.2,6.3
		C30.7,5.1,32.1,3.8,33.4,3.8z"/>
	<g>
		<path d="M34.6,3.2C34.2,3,33.8,3,33.4,3c-1.7,0-3.4,1.6-4,3c-0.1,0.3-0.1,0.5,0,0.8C29.5,7,29.8,7.2,30,7.2c1.7,0.2,2.9,0.7,3,0.7
			c0,0,1.2,0.4,2.8,1.2c0.1,0.1,0.3,0.1,0.4,0.1c0.1,0,0.2,0,0.4-0.1C36.8,9,37,8.8,37.1,8.5c0.2-0.7,0.5-2.3-0.1-3.3
			C36.5,4.2,35.7,3.5,34.6,3.2z M35.5,7c-1.1-0.5-1.9-0.7-1.9-0.7c0,0-0.8-0.3-1.9-0.5c0.5-0.5,1.2-1,1.7-1c0.2,0,0.5,0,0.7,0.1
			C34.7,5,35.1,5.4,35.4,6C35.5,6.2,35.5,6.5,35.5,7z"/>
		<path d="M43.9,20.1c0.8-4.3-0.5-8-3.8-10.9c0.6-1.8,0.4-3.7-0.4-5.3c-0.9-1.7-2.3-2.9-4.1-3.5C34.8,0.1,34.1,0,33.4,0
			c-3,0-5.7,1.9-6.7,4.8c-4.4,0.4-7.7,2.6-9.5,6.6c-1.5,3.1-2.5,5.6-3.3,7.6c-1.2,3.1-1.9,4.9-3.3,6.1c-0.9,0.8-5.3,4.5-6.5,8
			C4.1,33.1,4,33.2,4,33.3c-0.6,1.8,0.9,3.9,4.5,6.2c2.2,1.4,4.9,2.8,8,4.1c0.2,1.8,1.5,3.4,3.3,4c0.4,0.1,0.9,0.2,1.3,0.2h0
			c1.3,0,2.5-0.6,3.4-1.5c4.1,1.1,8,1.7,11,1.7c3.5,0,5.6-0.8,6.1-2.4c0-0.2,0.1-0.3,0.1-0.5c1-3.5-0.3-9-0.6-10.1
			c-0.4-1.7,0.1-3.6,0.9-6.8C42.6,26.1,43.3,23.5,43.9,20.1z M21.2,46c-0.3,0-0.6,0-0.8-0.1c-1.5-0.5-2.4-2.1-2-3.6
			c0.3-0.9,0.9-1.6,1.8-1.9c0.3-0.1,0.5-0.3,0.5-0.6l0.6-1.9l2.7,0.9l-0.5,1.7c-0.1,0.3,0,0.6,0.1,0.8c0.6,0.7,0.7,1.7,0.5,2.6
			C23.6,45.1,22.4,46,21.2,46z M25.5,44.7c0-0.1,0.1-0.2,0.1-0.3c0-0.1,0-0.2,0.1-0.3c3.4,0.9,6.5,1.4,8.6,1.4
			c1.7,0,2.7-0.4,2.9-1.1c0.3-1-0.9-2.3-3.7-3.8c-2.5-1.4-6-2.9-9.8-4.1c-5-1.6-9.7-2.6-12.6-2.6c-1.7,0-2.7,0.4-2.9,1.1
			c-0.6,1.8,3.9,4.2,8.7,6.2c-0.1,0.2-0.1,0.4-0.2,0.5c0,0,0,0,0,0c-2.8-1.1-5.3-2.4-7.2-3.7c-2.9-1.9-4-3.5-3.8-4.2
			c0.2-0.5,1.4-1.2,4.4-1.2c3.7,0,8.8,1,14.1,2.7c4.7,1.5,9,3.5,12,5.5c2.9,1.9,4,3.5,3.8,4.2c-0.2,0.5-1.4,1.2-4.4,1.2
			C32.8,46.2,29.3,45.7,25.5,44.7z M40.3,27.7c-0.9,3.5-1.4,5.6-0.9,7.7c0.5,2.1,0.9,4.5,0.9,6.5c-0.8-0.8-1.8-1.7-3.2-2.5
			c-3.2-2.1-7.6-4.1-12.5-5.7c-5.4-1.8-10.7-2.8-14.6-2.8C9,30.9,8,31,7.2,31.2c0.8-1.1,1.9-2.3,3-3.3c0.1,0.1,0.1,0.1,0.2,0.1
			c0.3,0.1,0.7,0,0.8-0.3c0.1-0.2,0-0.5-0.1-0.7c0.2-0.2,0.4-0.4,0.6-0.5c1.7-1.4,2.5-3.4,3.8-6.8c0.8-2,1.8-4.4,3.2-7.5
			c0.7-1.4,1.5-2.5,2.6-3.4c0.3,0.1,0.7,0,0.8-0.4c0-0.1,0.1-0.2,0-0.3c1.4-0.9,3.2-1.5,5.2-1.5c0.4,0,0.7-0.3,0.8-0.7
			c0-0.1,0.1-0.3,0.1-0.4c0.7-2.2,2.7-3.6,5-3.6c0.6,0,1.1,0.1,1.6,0.3c1.3,0.4,2.4,1.4,3.1,2.6c0.6,1.3,0.7,2.7,0.3,4
			c0,0.1-0.1,0.3-0.2,0.4c-0.2,0.4-0.1,0.8,0.3,1c3.2,2.5,4.4,5.7,3.7,9.6C41.5,23.1,40.9,25.7,40.3,27.7z"/>
		<ellipse transform="matrix(0.3886 -0.9214 0.9214 0.3886 -13.8139 37.2011)" cx="21.1" cy="29" rx="0.6" ry="0.6"/>
		<ellipse transform="matrix(0.3885 -0.9214 0.9214 0.3885 -8.1856 36.1416)" cx="23.1" cy="24.2" rx="0.6" ry="0.6"/>
		<ellipse transform="matrix(0.3875 -0.9219 0.9219 0.3875 -9.0493 39.2406)" cx="25" cy="26.4" rx="0.6" ry="0.6"/>
		<ellipse transform="matrix(0.3893 -0.9211 0.9211 0.3893 -3.4496 38.1139)" cx="27" cy="21.7" rx="0.6" ry="0.6"/>
		<ellipse transform="matrix(0.3885 -0.9214 0.9214 0.3885 -17.6841 32.1451)" cx="15.4" cy="29.4" rx="0.6" ry="0.6"/>
		<ellipse transform="matrix(0.3886 -0.9214 0.9214 0.3886 -14.8703 31.6125)" cx="16.4" cy="27" rx="0.6" ry="0.6"/>
		<ellipse transform="matrix(0.3876 -0.9218 0.9218 0.3876 -12.0502 31.1105)" cx="17.4" cy="24.6" rx="0.6" ry="0.6"/>
		<ellipse transform="matrix(0.3893 -0.9211 0.9211 0.3893 -9.2497 30.5273)" cx="18.4" cy="22.2" rx="0.6" ry="0.6"/>
		<ellipse transform="matrix(0.3881 -0.9216 0.9216 0.3881 -6.4246 30.0278)" cx="19.4" cy="19.9" rx="0.6" ry="0.6"/>
		<ellipse transform="matrix(0.3889 -0.9213 0.9213 0.3889 -15.7508 34.6631)" cx="18.3" cy="29.2" rx="0.6" ry="0.6"/>
		<ellipse transform="matrix(0.3875 -0.9219 0.9219 0.3875 -12.9263 34.1786)" cx="19.3" cy="26.8" rx="0.6" ry="0.6"/>
		<ellipse transform="matrix(0.3886 -0.9214 0.9214 0.3886 -10.1218 33.608)" cx="20.3" cy="24.4" rx="0.6" ry="0.6"/>
		<ellipse transform="matrix(0.3891 -0.9212 0.9212 0.3891 -7.3142 33.0615)" cx="21.3" cy="22" rx="0.6" ry="0.6"/>
		<ellipse transform="matrix(0.3879 -0.9217 0.9217 0.3879 -4.484 32.5656)" cx="22.3" cy="19.7" rx="0.6" ry="0.6"/>
		<ellipse transform="matrix(0.3888 -0.9213 0.9213 0.3888 -21.5537 27.076)" cx="9.6" cy="29.8" rx="0.6" ry="0.6"/>
		<ellipse transform="matrix(0.388 -0.9216 0.9216 0.388 -2.5494 35.0915)" cx="25.1" cy="19.5" rx="0.6" ry="0.6"/>
		<ellipse transform="matrix(0.3881 -0.9216 0.9216 0.3881 -3.61 29.4952)" cx="20.4" cy="17.5" rx="0.6" ry="0.6"/>
		<ellipse transform="matrix(0.388 -0.9216 0.9216 0.388 -19.6204 29.6328)" cx="12.5" cy="29.6" rx="0.6" ry="0.6"/>
		<ellipse transform="matrix(0.3893 -0.9211 0.9211 0.3893 -16.8071 29.0574)" cx="13.5" cy="27.2" rx="0.6" ry="0.6"/>
		<ellipse transform="matrix(0.3891 -0.9212 0.9212 0.3891 -13.9939 28.5344)" cx="14.5" cy="24.8" rx="0.6" ry="0.6"/>
		<ellipse transform="matrix(0.388 -0.9216 0.9216 0.388 -11.1744 28.0342)" cx="15.5" cy="22.4" rx="0.6" ry="0.6"/>
		<ellipse transform="matrix(0.3891 -0.9212 0.9212 0.3891 -8.369 27.4727)" cx="16.5" cy="20" rx="0.6" ry="0.6"/>
		<ellipse transform="matrix(0.389 -0.9212 0.9212 0.389 -5.5554 26.943)" cx="17.5" cy="17.7" rx="0.6" ry="0.6"/>
		<ellipse transform="matrix(0.3885 -0.9214 0.9214 0.3885 3.0694 34.0131)" cx="27.2" cy="14.7" rx="0.6" ry="0.6"/>
		<ellipse transform="matrix(0.3881 -0.9216 0.9216 0.3881 8.7086 32.9585)" cx="29.2" cy="9.9" rx="0.6" ry="0.6"/>
		<ellipse transform="matrix(0.388 -0.9216 0.9216 0.388 2.2022 37.09)" cx="29" cy="16.9" rx="0.6" ry="0.6"/>
		<ellipse transform="matrix(0.3888 -0.9213 0.9213 0.3888 7.8127 36.0052)" cx="31" cy="12.1" rx="0.6" ry="0.6"/>
		<ellipse transform="matrix(0.3877 -0.9218 0.9218 0.3877 -5.2864 41.5461)" cx="28.6" cy="24.8" rx="0.6" ry="0.6"/>
		<ellipse transform="matrix(0.3874 -0.9219 0.9219 0.3874 0.3532 40.4916)" cx="30.6" cy="20" rx="0.6" ry="0.6"/>
		<ellipse transform="matrix(0.3875 -0.9219 0.9219 0.3875 5.9801 39.4185)" cx="32.7" cy="15.2" rx="0.6" ry="0.6"/>
		<ellipse transform="matrix(0.388 -0.9216 0.9216 0.388 11.5966 38.3383)" cx="34.7" cy="10.4" rx="0.6" ry="0.6"/>
		<ellipse transform="matrix(0.3877 -0.9218 0.9218 0.3877 -0.7876 28.9741)" cx="21.4" cy="15.1" rx="0.6" ry="0.6"/>
		<ellipse transform="matrix(0.3879 -0.9217 0.9217 0.3879 2.0219 28.4345)" cx="22.4" cy="12.7" rx="0.6" ry="0.6"/>
		<ellipse transform="matrix(0.3876 -0.9218 0.9218 0.3876 4.8448 27.909)" cx="23.4" cy="10.3" rx="0.6" ry="0.6"/>
		<ellipse transform="matrix(0.3893 -0.9211 0.9211 0.3893 7.6241 27.3431)" cx="24.4" cy="7.9" rx="0.6" ry="0.6"/>
		<ellipse transform="matrix(0.3871 -0.922 0.922 0.3871 -1.6564 32.0543)" cx="23.3" cy="17.3" rx="0.6" ry="0.6"/>
		<ellipse transform="matrix(0.3892 -0.9212 0.9212 0.3892 1.1224 31.4668)" cx="24.3" cy="14.9" rx="0.6" ry="0.6"/>
		<ellipse transform="matrix(0.3895 -0.921 0.921 0.3895 3.9276 30.9281)" cx="25.3" cy="12.5" rx="0.6" ry="0.6"/>
		<ellipse transform="matrix(0.3878 -0.9217 0.9217 0.3878 6.777 30.4345)" cx="26.3" cy="10.1" rx="0.6" ry="0.6"/>
		<ellipse transform="matrix(0.388 -0.9216 0.9216 0.388 9.5873 29.8966)" cx="27.3" cy="7.7" rx="0.6" ry="0.6"/>
		<ellipse transform="matrix(0.3881 -0.9216 0.9216 0.3881 -2.7319 26.4321)" cx="18.5" cy="15.3" rx="0.6" ry="0.6"/>
		<ellipse transform="matrix(0.3892 -0.9211 0.9211 0.3892 6.652858e-002 25.8764)" cx="19.5" cy="12.9" rx="0.6" ry="0.6"/>
		<ellipse transform="matrix(0.3893 -0.9211 0.9211 0.3893 2.8777 25.3441)" cx="20.6" cy="10.5" rx="0.6" ry="0.6"/>
	</g>
</g>
</svg>
