<?xml version="1.0" encoding="utf-8"?>
<!-- Generator: Adobe Illustrator 19.2.1, SVG Export Plug-In . SVG Version: 6.00 Build 0)  -->
<svg version="1.1" id="Layer_1" xmlns="http://www.w3.org/2000/svg" xmlns:xlink="http://www.w3.org/1999/xlink" x="0px" y="0px"
	 viewBox="0 0 48 48" style="enable-background:new 0 0 48 48;" xml:space="preserve">
<style type="text/css">
	.st0{fill:#FFFFFF;}
</style>
<g>
	<g>
		<path class="st0" d="M43.5,3.7c-3,0.1-3.8-0.3-5.3-2.9c0.1,3-0.2,3.6-2.7,5.2c3-0.1,3.6,0.5,5.2,3C40.5,6,41,5.2,43.5,3.7z"/>
		<ellipse transform="matrix(0.2576 -0.9663 0.9663 0.2576 -14.9144 43.0343)" class="st0" cx="20.5" cy="31.2" rx="16" ry="16"/>
	</g>
	<g>
		<path d="M44.3,3.4c-0.1-0.3-0.4-0.6-0.8-0.6c-0.2,0-0.5,0-0.7,0c-2.1,0-2.6-0.4-4-2.5C38.7,0.1,38.3-0.1,38,0
			c-0.3,0.1-0.6,0.4-0.6,0.8c0.1,2.7-0.1,3.1-2.4,4.5c-0.3,0.2-0.4,0.6-0.3,0.9c0.1,0.3,0.4,0.6,0.8,0.6l0,0c0.2,0,0.4,0,0.5,0
			c0.6,0,1.1,0,1.5,0.1c-0.3,0.6-0.7,1.3-1.4,1.8c-0.9,0.6-2,0.7-3.3,0.3c-4.6-1.2-6.4,1.2-7.1,2.3l-4.2-1.1
			c-0.4-0.1-0.8,0.1-0.9,0.5l-1.2,3.7c-7.1,0.5-13.2,5.5-15.1,12.4C3.1,31.2,3.7,35.7,6,39.6s5.9,6.7,10.2,7.8
			c1.4,0.4,2.9,0.6,4.3,0.6c7.6,0,14.3-5.1,16.2-12.5c1.9-7-1-14.2-6.6-18.1l1.1-3.8c0.1-0.2,0-0.4-0.1-0.6
			c-0.1-0.2-0.3-0.3-0.5-0.4l-3.4-0.9c0.6-0.8,1.9-2.1,5.1-1.2c1.8,0.5,3.3,0.3,4.6-0.5c0.9-0.6,1.5-1.4,1.9-2.2
			c0.3,0.4,0.7,0.9,1.1,1.6c0.1,0.2,0.4,0.4,0.7,0.4l0,0c0.4,0,0.8-0.4,0.8-0.8c0-0.1,0-0.1,0-0.2c-0.1-2.6,0.2-3.1,2.5-4.5
			C44.2,4.1,44.4,3.8,44.3,3.4z M35.3,35.1c-1.3,4.7-4.7,8.4-9,10.2c0-0.2,0-0.3-0.1-0.5c-0.2-0.3-0.5-0.3-0.8-0.1s-0.3,0.5-0.1,0.8
			c0,0.1,0.1,0.1,0.2,0.1c-0.4,0.1-0.8,0.3-1.3,0.4c-0.2-0.1-0.4-0.1-0.6,0l-0.1,0.1c-0.9,0.2-1.9,0.3-2.8,0.3c-0.1,0-0.2,0-0.3,0
			c0,0,0-0.1-0.1-0.1C20,46,19.7,46,19.4,46.2c-0.1,0.1-0.1,0.1-0.2,0.2c-0.9-0.1-1.8-0.2-2.6-0.5c-3-0.8-5.7-2.5-7.7-4.9
			c0.2-0.2,0.2-0.5,0-0.7S8.4,40,8.2,40.1c-0.3-0.4-0.6-0.9-0.9-1.4c-0.7-1.2-1.2-2.5-1.6-3.8l0,0C6,34.7,6,34.4,5.8,34.1
			c0-0.1-0.1-0.1-0.3-0.2c-0.1-0.5-0.2-1-0.2-1.5c0,0,0,0,0.1,0c0.3-0.2,0.3-0.5,0.1-0.8c-0.1-0.1-0.2-0.1-0.3-0.2
			c0-1.4,0.1-2.8,0.5-4.2c0.1-0.4,0.2-0.7,0.3-1c0.1,0,0.3,0,0.4-0.1c0.3-0.2,0.3-0.5,0.1-0.8l-0.1-0.1c0.7-1.6,1.6-3,2.7-4.2
			c0.2,0.1,0.4,0.1,0.6,0c0.2-0.2,0.3-0.5,0.2-0.7c2.8-2.7,6.5-4.3,10.6-4.3c1.3,0,2.6,0.2,3.9,0.5C32.6,18.6,37.4,27,35.3,35.1z
			 M40,6.7c-0.6-0.7-1.3-1.1-2.3-1.3c0.7-0.6,1-1.3,1.2-2.2c0.7,0.7,1.4,1.1,2.4,1.3C40.5,5,40.1,5.7,40,6.7z"/>
		<ellipse transform="matrix(0.8137 -0.5813 0.5813 0.8137 -22.3098 20.9911)" cx="21.6" cy="45.3" rx="0.6" ry="0.6"/>
		<ellipse transform="matrix(0.8139 -0.581 0.581 0.8139 -21.1759 21.8359)" cx="23.5" cy="44" rx="0.6" ry="0.6"/>
		<ellipse transform="matrix(0.8136 -0.5814 0.5814 0.8136 -22.9293 17.1124)" cx="15.2" cy="44.3" rx="0.6" ry="0.6"/>
		<ellipse transform="matrix(0.8141 -0.5808 0.5808 0.8141 -21.7454 17.8967)" cx="17.1" cy="42.9" rx="0.6" ry="0.6"/>
		<ellipse transform="matrix(0.8138 -0.5811 0.5811 0.8138 -20.6296 18.7719)" cx="19" cy="41.6" rx="0.6" ry="0.6"/>
		<ellipse transform="matrix(0.8146 -0.5801 0.5801 0.8146 -19.5249 19.5472)" cx="20.8" cy="40.3" rx="0.6" ry="0.6"/>
		<ellipse transform="matrix(0.8133 -0.5818 0.5818 0.8133 -23.1546 18.6379)" cx="17.5" cy="45.4" rx="0.6" ry="0.6"/>
		<ellipse transform="matrix(0.8135 -0.5815 0.5815 0.8135 -22.066 19.4478)" cx="19.3" cy="44.1" rx="0.6" ry="0.6"/>
		<ellipse transform="matrix(0.8139 -0.581 0.581 0.8139 -20.9256 20.2833)" cx="21.2" cy="42.8" rx="0.6" ry="0.6"/>
		<ellipse transform="matrix(0.8144 -0.5803 0.5803 0.8144 -19.7819 21.1077)" cx="23.1" cy="41.5" rx="0.6" ry="0.6"/>
		<ellipse transform="matrix(0.8138 -0.5811 0.5811 0.8138 -22.3703 14.0288)" cx="10.7" cy="41.9" rx="0.6" ry="0.6"/>
		<ellipse transform="matrix(0.8139 -0.581 0.581 0.8139 -21.2403 14.8861)" cx="12.6" cy="40.6" rx="0.6" ry="0.6"/>
		<ellipse transform="matrix(0.8144 -0.5803 0.5803 0.8144 -20.0559 15.669)" cx="14.5" cy="39.2" rx="0.6" ry="0.6"/>
		<ellipse transform="matrix(0.8142 -0.5806 0.5806 0.8142 -18.9891 16.5057)" cx="16.3" cy="37.9" rx="0.6" ry="0.6"/>
		<ellipse transform="matrix(0.8144 -0.5802 0.5802 0.8144 -17.8543 17.3491)" cx="18.2" cy="36.6" rx="0.6" ry="0.6"/>
		<ellipse transform="matrix(0.8136 -0.5815 0.5815 0.8136 -22.6321 15.5999)" cx="13" cy="43.1" rx="0.6" ry="0.6"/>
		<ellipse transform="matrix(0.8141 -0.5808 0.5808 0.8141 -21.4462 16.3812)" cx="14.9" cy="41.7" rx="0.6" ry="0.6"/>
		<ellipse transform="matrix(0.8136 -0.5814 0.5814 0.8136 -20.3876 17.2326)" cx="16.7" cy="40.4" rx="0.6" ry="0.6"/>
		<ellipse transform="matrix(0.8138 -0.5811 0.5811 0.8138 -19.2514 18.0806)" cx="18.6" cy="39.1" rx="0.6" ry="0.6"/>
		<ellipse transform="matrix(0.8141 -0.5807 0.5807 0.8141 -18.1656 18.8864)" cx="20.4" cy="37.8" rx="0.6" ry="0.6"/>
		<ellipse transform="matrix(0.8137 -0.5813 0.5813 0.8137 -20.7005 11.8281)" cx="8.1" cy="38.2" rx="0.6" ry="0.6"/>
		<ellipse transform="matrix(0.8143 -0.5804 0.5804 0.8143 -19.5469 12.6568)" cx="10" cy="36.9" rx="0.6" ry="0.6"/>
		<ellipse transform="matrix(0.8143 -0.5805 0.5805 0.8143 -18.4358 13.4361)" cx="11.8" cy="35.5" rx="0.6" ry="0.6"/>
		<ellipse transform="matrix(0.8139 -0.581 0.581 0.8139 -17.324 14.3155)" cx="13.7" cy="34.2" rx="0.6" ry="0.6"/>
		<ellipse transform="matrix(0.8141 -0.5807 0.5807 0.8141 -16.24 15.1285)" cx="15.5" cy="32.9" rx="0.6" ry="0.6"/>
		<ellipse transform="matrix(0.8139 -0.581 0.581 0.8139 -20.0617 22.6116)" cx="25.3" cy="42.6" rx="0.6" ry="0.6"/>
		<ellipse transform="matrix(0.8143 -0.5805 0.5805 0.8143 -18.3733 20.3791)" cx="22.7" cy="38.9" rx="0.6" ry="0.6"/>
		<ellipse transform="matrix(0.8143 -0.5805 0.5805 0.8143 -16.7847 18.1864)" cx="20" cy="35.3" rx="0.6" ry="0.6"/>
		<ellipse transform="matrix(0.8142 -0.5806 0.5806 0.8142 -15.1122 15.9854)" cx="17.4" cy="31.6" rx="0.6" ry="0.6"/>
		<ellipse transform="matrix(0.8143 -0.5805 0.5805 0.8143 -20.9241 13.351)" cx="10.4" cy="39.4" rx="0.6" ry="0.6"/>
		<ellipse transform="matrix(0.8143 -0.5804 0.5804 0.8143 -19.8467 14.1709)" cx="12.2" cy="38.1" rx="0.6" ry="0.6"/>
		<ellipse transform="matrix(0.8139 -0.581 0.581 0.8139 -18.7005 15.0069)" cx="14.1" cy="36.7" rx="0.6" ry="0.6"/>
		<ellipse transform="matrix(0.8139 -0.581 0.581 0.8139 -17.623 15.8317)" cx="15.9" cy="35.4" rx="0.6" ry="0.6"/>
		<ellipse transform="matrix(0.8141 -0.5807 0.5807 0.8141 -16.4904 16.6804)" cx="17.8" cy="34.1" rx="0.6" ry="0.6"/>
		<ellipse transform="matrix(0.8135 -0.5815 0.5815 0.8135 -19.3285 11.143)" cx="7.7" cy="35.7" rx="0.6" ry="0.6"/>
		<ellipse transform="matrix(0.8138 -0.5811 0.5811 0.8138 -18.1907 11.9906)" cx="9.6" cy="34.4" rx="0.6" ry="0.6"/>
		<ellipse transform="matrix(0.8137 -0.5813 0.5813 0.8137 -17.0799 12.7738)" cx="11.4" cy="33" rx="0.6" ry="0.6"/>
		<ellipse transform="matrix(0.8136 -0.5814 0.5814 0.8136 -15.9561 13.6384)" cx="13.3" cy="31.7" rx="0.6" ry="0.6"/>
		<ellipse transform="matrix(0.8139 -0.581 0.581 0.8139 -14.8197 14.4857)" cx="15.2" cy="30.4" rx="0.6" ry="0.6"/>
		<ellipse transform="matrix(0.8135 -0.5816 0.5816 0.8135 -18.6989 21.9523)" cx="24.9" cy="40.1" rx="0.6" ry="0.6"/>
		<ellipse transform="matrix(0.8137 -0.5813 0.5813 0.8137 -20.3188 24.182)" cx="27.6" cy="43.8" rx="0.6" ry="0.6"/>
		<ellipse transform="matrix(0.8145 -0.5801 0.5801 0.8145 -16.9901 19.6694)" cx="22.3" cy="36.4" rx="0.6" ry="0.6"/>
		<ellipse transform="matrix(0.8143 -0.5805 0.5805 0.8143 -15.3231 17.4836)" cx="19.7" cy="32.7" rx="0.6" ry="0.6"/>
		<ellipse transform="matrix(0.8139 -0.581 0.581 0.8139 -13.7066 15.2612)" cx="17" cy="29" rx="0.6" ry="0.6"/>
		<ellipse transform="matrix(0.8141 -0.5808 0.5808 0.8141 -17.9309 10.4286)" cx="7.3" cy="33.2" rx="0.6" ry="0.6"/>
		<ellipse transform="matrix(0.8142 -0.5806 0.5806 0.8142 -16.7645 11.2341)" cx="9.2" cy="31.8" rx="0.6" ry="0.6"/>
		<ellipse transform="matrix(0.8139 -0.581 0.581 0.8139 -15.6974 12.0712)" cx="11" cy="30.5" rx="0.6" ry="0.6"/>
		<ellipse transform="matrix(0.8142 -0.5806 0.5806 0.8142 -14.5625 12.9191)" cx="12.9" cy="29.2" rx="0.6" ry="0.6"/>
		<ellipse transform="matrix(0.8139 -0.581 0.581 0.8139 -16.5611 9.7431)" cx="6.9" cy="30.7" rx="0.6" ry="0.6"/>
		<ellipse transform="matrix(0.8141 -0.5807 0.5807 0.8141 -15.3912 10.5463)" cx="8.8" cy="29.3" rx="0.6" ry="0.6"/>
		<ellipse transform="matrix(0.8135 -0.5815 0.5815 0.8135 -14.2816 11.4319)" cx="10.7" cy="28" rx="0.6" ry="0.6"/>
		<ellipse transform="matrix(0.8137 -0.5813 0.5813 0.8137 -13.1982 12.251)" cx="12.5" cy="26.7" rx="0.6" ry="0.6"/>
		<ellipse transform="matrix(0.8133 -0.5818 0.5818 0.8133 -15.1655 9.0246)" cx="6.5" cy="28.1" rx="0.6" ry="0.6"/>
		<ellipse transform="matrix(0.8139 -0.581 0.581 0.8139 -14.0211 9.8638)" cx="8.4" cy="26.8" rx="0.6" ry="0.6"/>
		<ellipse transform="matrix(0.8141 -0.5807 0.5807 0.8141 -12.8896 10.7163)" cx="10.3" cy="25.5" rx="0.6" ry="0.6"/>
		<ellipse transform="matrix(0.8142 -0.5805 0.5805 0.8142 -12.6356 9.1597)" cx="8" cy="24.3" rx="0.6" ry="0.6"/>
		<ellipse transform="matrix(0.8138 -0.5811 0.5811 0.8138 -11.5201 10.0363)" cx="9.9" cy="23" rx="0.6" ry="0.6"/>
		<ellipse transform="matrix(0.8132 -0.582 0.582 0.8132 -13.462 13.8285)" cx="14.8" cy="27.9" rx="0.6" ry="0.6"/>
		<ellipse transform="matrix(0.8135 -0.5815 0.5815 0.8135 -11.8247 11.5645)" cx="12.1" cy="24.2" rx="0.6" ry="0.6"/>
		<ellipse transform="matrix(0.8131 -0.5821 0.5821 0.8131 -12.0463 13.0893)" cx="14.4" cy="25.3" rx="0.6" ry="0.6"/>
		<ellipse transform="matrix(0.8138 -0.5811 0.5811 0.8138 -10.4412 10.8612)" cx="11.7" cy="21.7" rx="0.6" ry="0.6"/>
		<path d="M32.6,31c0.1,5.5-3.4,8.4-3.4,8.5c-0.2,0.2-0.2,0.5,0,0.7c0.1,0.1,0.3,0.2,0.4,0.2s0.2,0,0.3-0.1c0.2-0.1,3.9-3.2,3.8-9.3
			c-0.1-6-4.4-9.9-4.6-10.1s-0.5-0.2-0.7,0s-0.2,0.5,0,0.7C28.4,21.7,32.6,25.4,32.6,31z"/>
	</g>
</g>
</svg>
