<?xml version="1.0" encoding="utf-8"?>
<!-- Generator: Adobe Illustrator 19.2.1, SVG Export Plug-In . SVG Version: 6.00 Build 0)  -->
<svg version="1.1" id="Layer_1" xmlns="http://www.w3.org/2000/svg" xmlns:xlink="http://www.w3.org/1999/xlink" x="0px" y="0px"
	 viewBox="0 0 48 48" style="enable-background:new 0 0 48 48;" xml:space="preserve">
<style type="text/css">
	.st0{fill:#FFFFFF;}
</style>
<g>
	<path class="st0" d="M34.3,1.2H9.8v41.7h3.6l-0.1,4.5l1.3-0.8l1.1,0.8l0.1-4.5h18.5c2.2,0,3.9-1.8,3.9-3.9V5.1
		C38.2,3,36.5,1.2,34.3,1.2z"/>
	<g>
		<path d="M34.3,0.3h-1.1v0c0-0.2-0.1-0.3-0.3-0.3h-3c-0.2,0-0.3,0.1-0.3,0.3v0H9.8c-0.5,0-0.9,0.4-0.9,0.9v41.7
			c0,0.5,0.4,0.9,0.9,0.9h3l-0.1,3.6c0,0.2,0.1,0.4,0.3,0.5c0.2,0.1,0.4,0.1,0.6,0l0.9-0.6l0.8,0.6c0.1,0.1,0.2,0.1,0.4,0.1
			c0.1,0,0.2,0,0.3-0.1c0.2-0.1,0.3-0.3,0.3-0.5l0.1-3.6h13.2v0.1c0,0.2,0.1,0.3,0.3,0.3h3c0.2,0,0.3-0.1,0.3-0.3v-0.1h1.1
			c2.7,0,4.8-2.2,4.8-4.8V5.1C39.2,2.5,37,0.3,34.3,0.3z M15.1,32.6c0-0.4-0.3-0.7-0.7-0.7c-0.4,0-0.7,0.3-0.7,0.7h-3.2V17.9h0.5
			c0,0,0,0.1,0,0.1c0,0.4,0.3,0.7,0.7,0.7c0.4,0,0.7-0.3,0.7-0.7c0,0,0-0.1,0-0.1h17.1v14.7H15.1z M33.2,17.9h4.1v14.7h-4.1V17.9z
			 M34.3,2.1c1.7,0,3,1.3,3,3v11.6h-4.1V2.1H34.3z M29.6,2.1v14.6H10.7V2.1H29.6z M15.1,46.2l-0.2-0.2c-0.2-0.1-0.5-0.2-0.7,0
			l-0.3,0.2l0-2.5h1.3L15.1,46.2z M10.7,42v-8.1h18.9V42H10.7z M34.3,42h-1.1v-8.1h4.1V39C37.3,40.6,36,42,34.3,42z"/>
		<ellipse cx="11.8" cy="20.7" rx="0.7" ry="0.7"/>
		<ellipse cx="11.8" cy="23.3" rx="0.7" ry="0.7"/>
		<ellipse cx="14.5" cy="19.3" rx="0.7" ry="0.7"/>
		<ellipse cx="14.5" cy="22" rx="0.7" ry="0.7"/>
		<ellipse cx="14.5" cy="24.7" rx="0.7" ry="0.7"/>
		<ellipse cx="11.8" cy="26" rx="0.7" ry="0.7"/>
		<ellipse cx="11.8" cy="28.6" rx="0.7" ry="0.7"/>
		<ellipse cx="11.8" cy="31.3" rx="0.7" ry="0.7"/>
		<ellipse cx="14.5" cy="27.3" rx="0.7" ry="0.7"/>
		<ellipse cx="14.5" cy="30" rx="0.7" ry="0.7"/>
	</g>
</g>
</svg>
