<?xml version="1.0" encoding="utf-8"?>
<!-- Generator: Adobe Illustrator 19.2.1, SVG Export Plug-In . SVG Version: 6.00 Build 0)  -->
<svg version="1.1" id="Layer_1" xmlns="http://www.w3.org/2000/svg" xmlns:xlink="http://www.w3.org/1999/xlink" x="0px" y="0px"
	 viewBox="0 0 48 48" style="enable-background:new 0 0 48 48;" xml:space="preserve">
<style type="text/css">
	.st0{fill:#FFFFFF;}
</style>
<g>
	<path class="st0" d="M36.1,19.6l3.3-2.1L12.5,6.2L2.1,30.8c-0.2,0.4-0.2,0.9,0,1.3c0.2,0.4,0.5,0.8,0.9,1l21.4,9
		c0.9,0.4,1.9-0.1,2.3-0.9l9-21.1C35.8,19.9,36,19.7,36.1,19.6z"/>
	<g>
		<ellipse transform="matrix(0.3868 -0.9222 0.9222 0.3868 -27.1423 25.1626)" cx="5.3" cy="33" rx="0.6" ry="0.6"/>
		<ellipse transform="matrix(0.3879 -0.9217 0.9217 0.3879 -26.6612 27.7061)" cx="7.5" cy="33.9" rx="0.6" ry="0.6"/>
		<ellipse transform="matrix(0.3864 -0.9223 0.9223 0.3864 -18.3813 42.3641)" cx="22.6" cy="35" rx="0.6" ry="0.6"/>
		<ellipse transform="matrix(0.3868 -0.9222 0.9222 0.3868 -17.9083 44.9353)" cx="24.8" cy="35.9" rx="0.6" ry="0.6"/>
		<ellipse transform="matrix(0.388 -0.9217 0.9217 0.388 -17.3388 47.4427)" cx="27.1" cy="36.8" rx="0.6" ry="0.6"/>
		<ellipse transform="matrix(0.3868 -0.9222 0.9222 0.3868 -19.5438 22.2607)" cx="7" cy="25.8" rx="0.6" ry="0.6"/>
		<ellipse transform="matrix(0.3882 -0.9216 0.9216 0.3882 -19.0456 24.9153)" cx="9.2" cy="26.8" rx="0.6" ry="0.6"/>
		<ellipse transform="matrix(0.3875 -0.9219 0.9219 0.3875 -12.6367 43.9374)" cx="26.7" cy="31.5" rx="0.6" ry="0.6"/>
		<ellipse transform="matrix(0.3877 -0.9218 0.9218 0.3877 -12.1674 46.5124)" cx="28.9" cy="32.4" rx="0.6" ry="0.6"/>
		<ellipse transform="matrix(0.388 -0.9217 0.9217 0.388 -14.2619 21.2674)" cx="8.9" cy="21.4" rx="0.6" ry="0.6"/>
		<ellipse transform="matrix(0.3879 -0.9217 0.9217 0.3879 -13.7913 23.8519)" cx="11.1" cy="22.3" rx="0.6" ry="0.6"/>
		<ellipse transform="matrix(0.3879 -0.9217 0.9217 0.3879 -15.4724 43.0424)" cx="24.7" cy="33.2" rx="0.6" ry="0.6"/>
		<ellipse transform="matrix(0.3868 -0.9222 0.9222 0.3868 -14.9891 45.6738)" cx="26.8" cy="34.1" rx="0.6" ry="0.6"/>
		<ellipse transform="matrix(0.3871 -0.922 0.922 0.3871 -17.183 20.5462)" cx="6.9" cy="23.2" rx="0.6" ry="0.6"/>
		<ellipse transform="matrix(0.3884 -0.9215 0.9215 0.3884 -16.5998 23.0725)" cx="9.1" cy="24" rx="0.6" ry="0.6"/>
		<ellipse transform="matrix(0.3879 -0.9217 0.9217 0.3879 -16.1289 25.6707)" cx="11.3" cy="25" rx="0.6" ry="0.6"/>
		<ellipse transform="matrix(0.3868 -0.9222 0.9222 0.3868 -24.8042 23.3373)" cx="5.1" cy="30.3" rx="0.6" ry="0.6"/>
		<ellipse transform="matrix(0.388 -0.9217 0.9217 0.388 -24.2146 25.8662)" cx="7.4" cy="31.2" rx="0.6" ry="0.6"/>
		<ellipse transform="matrix(0.3874 -0.9219 0.9219 0.3874 -20.7466 44.0308)" cx="22.8" cy="37.6" rx="0.6" ry="0.6"/>
		<ellipse transform="matrix(0.3866 -0.9222 0.9222 0.3866 -22.3578 21.5028)" cx="5" cy="27.6" rx="0.6" ry="0.6"/>
		<ellipse transform="matrix(0.3866 -0.9222 0.9222 0.3866 -21.8841 24.0894)" cx="7.2" cy="28.5" rx="0.6" ry="0.6"/>
		<ellipse transform="matrix(0.3868 -0.9222 0.9222 0.3868 -21.3887 26.7763)" cx="9.4" cy="29.5" rx="0.6" ry="0.6"/>
		<ellipse transform="matrix(0.3885 -0.9215 0.9215 0.3885 -7.3952 42.8254)" cx="28.6" cy="27" rx="0.6" ry="0.6"/>
		<ellipse transform="matrix(0.3884 -0.9215 0.9215 0.3884 -6.9038 45.5185)" cx="30.8" cy="28" rx="0.6" ry="0.6"/>
		<ellipse transform="matrix(0.3873 -0.922 0.922 0.3873 -9.0915 20.3395)" cx="10.8" cy="17" rx="0.6" ry="0.6"/>
		<ellipse transform="matrix(0.3885 -0.9215 0.9215 0.3885 -8.5176 22.8766)" cx="13" cy="17.9" rx="0.6" ry="0.6"/>
		<ellipse transform="matrix(0.3868 -0.9222 0.9222 0.3868 -10.2861 42.1444)" cx="26.5" cy="28.8" rx="0.6" ry="0.6"/>
		<ellipse transform="matrix(0.3868 -0.9222 0.9222 0.3868 -9.7084 44.7057)" cx="28.8" cy="29.7" rx="0.6" ry="0.6"/>
		<ellipse transform="matrix(0.388 -0.9217 0.9217 0.388 -11.9242 19.4496)" cx="8.7" cy="18.7" rx="0.6" ry="0.6"/>
		<ellipse transform="matrix(0.388 -0.9217 0.9217 0.388 -11.4322 22.1423)" cx="11" cy="19.7" rx="0.6" ry="0.6"/>
		<ellipse transform="matrix(0.3874 -0.9219 0.9219 0.3874 -10.9599 24.7411)" cx="13.1" cy="20.6" rx="0.6" ry="0.6"/>
		<ellipse transform="matrix(0.3879 -0.9217 0.9217 0.3879 -2.2176 41.9018)" cx="30.4" cy="22.6" rx="0.6" ry="0.6"/>
		<ellipse transform="matrix(0.3868 -0.9222 0.9222 0.3868 -1.6156 44.5038)" cx="32.7" cy="23.5" rx="0.6" ry="0.6"/>
		<ellipse transform="matrix(0.3877 -0.9218 0.9218 0.3877 -3.8374 19.2568)" cx="12.6" cy="12.5" rx="0.6" ry="0.6"/>
		<ellipse transform="matrix(0.3868 -0.9222 0.9222 0.3868 -3.338 21.966)" cx="14.8" cy="13.5" rx="0.6" ry="0.6"/>
		<ellipse transform="matrix(0.3879 -0.9217 0.9217 0.3879 -23.7436 28.4512)" cx="9.5" cy="32.1" rx="0.6" ry="0.6"/>
		<ellipse transform="matrix(0.3875 -0.9219 0.9219 0.3875 -5.04 41.0434)" cx="28.4" cy="24.3" rx="0.6" ry="0.6"/>
		<ellipse transform="matrix(0.388 -0.9217 0.9217 0.388 -4.5568 43.7187)" cx="30.6" cy="25.3" rx="0.6" ry="0.6"/>
		<ellipse transform="matrix(0.388 -0.9217 0.9217 0.388 -6.6482 18.4864)" cx="10.6" cy="14.2" rx="0.6" ry="0.6"/>
		<ellipse transform="matrix(0.3879 -0.9217 0.9217 0.3879 -6.1761 21.0713)" cx="12.8" cy="15.2" rx="0.6" ry="0.6"/>
		<ellipse transform="matrix(0.3884 -0.9215 0.9215 0.3884 -5.7091 23.6446)" cx="15" cy="16.1" rx="0.6" ry="0.6"/>
		<ellipse transform="matrix(0.3864 -0.9223 0.9223 0.3864 0.2591 40.1136)" cx="30.3" cy="19.9" rx="0.6" ry="0.6"/>
		<ellipse transform="matrix(0.3884 -0.9215 0.9215 0.3884 0.6876 42.6324)" cx="32.5" cy="20.8" rx="0.6" ry="0.6"/>
		<ellipse transform="matrix(0.388 -0.9217 0.9217 0.388 3.0369 40.8304)" cx="32.3" cy="18.1" rx="0.6" ry="0.6"/>
		<ellipse transform="matrix(0.388 -0.9217 0.9217 0.388 3.5297 43.5223)" cx="34.5" cy="19.1" rx="0.6" ry="0.6"/>
		<ellipse transform="matrix(0.3879 -0.9217 0.9217 0.3879 5.3102 39.1198)" cx="32.1" cy="15.6" rx="0.6" ry="0.6"/>
		<ellipse transform="matrix(0.3879 -0.9217 0.9217 0.3879 5.7856 41.7081)" cx="34.3" cy="16.5" rx="0.6" ry="0.6"/>
		<ellipse transform="matrix(0.3879 -0.9217 0.9217 0.3879 6.3452 44.5128)" cx="36.7" cy="17.5" rx="0.6" ry="0.6"/>
		<ellipse transform="matrix(0.3879 -0.9217 0.9217 0.3879 0.9705 16.9231)" cx="13.2" cy="7.7" rx="0.6" ry="0.6"/>
		<ellipse transform="matrix(0.3874 -0.9219 0.9219 0.3874 1.5612 19.4971)" cx="15.5" cy="8.6" rx="0.6" ry="0.6"/>
		<ellipse transform="matrix(0.3874 -0.9219 0.9219 0.3874 2.057 22.1956)" cx="17.7" cy="9.5" rx="0.6" ry="0.6"/>
		<path d="M45.9,18.1c-1.9-3.8-6.2-8.2-14.8-7.8c-5.6,0.3-18.7-6.4-18.7-6.4c-0.5-0.2-1.1,0-1.3,0.5L9.6,8L8.3,7.4
			c-1.9-0.7-6-1-7.7,3.2c-1.8,4.2,1.3,6.9,3.2,7.8L5,18.9L0.3,30c-0.4,0.9-0.4,2,0,2.9c0.4,0.9,1.1,1.7,2,2l21.4,9
			c0.5,0.2,1,0.3,1.5,0.3c1.5,0,2.9-0.9,3.5-2.3l8.7-20.5c0.2-0.4,0.7-0.6,1.1-0.4c0.4,0.2,0.6,0.7,0.4,1.1c0,0-1.3,3-1.3,4.6
			c0,2.9,2.3,5.2,5.2,5.2l0,0c2.9,0,5.2-2.3,5.2-5.2C48,24.6,47.2,20.8,45.9,18.1z M4.5,16.5c-0.1-0.1-3.6-1.7-2.1-5.2
			c1.4-3.4,4.8-2.2,5.1-2.1l1.3,0.5l-3,7.4L4.5,16.5z M36.1,19.6c-0.2,0.1-0.3,0.3-0.4,0.5l-8.9,21.1c-0.4,0.9-1.4,1.3-2.3,0.9
			l-21.4-9c-0.4-0.2-0.8-0.5-0.9-1c-0.2-0.4-0.2-0.9,0-1.3l5-12c0,0,0,0,0-0.1c0,0,0,0,0-0.1l3.4-8.1l13.9,5.8
			c0.5,0.2,1.1,0,1.3-0.5c0.2-0.5,0-1.1-0.5-1.3L11.4,8.8l1.1-2.5l26.9,11.3L36.1,19.6z"/>
	</g>
</g>
</svg>
