<?xml version="1.0" encoding="utf-8"?>
<!-- Generator: Adobe Illustrator 19.2.1, SVG Export Plug-In . SVG Version: 6.00 Build 0)  -->
<svg version="1.1" id="Layer_1" xmlns="http://www.w3.org/2000/svg" xmlns:xlink="http://www.w3.org/1999/xlink" x="0px" y="0px"
	 viewBox="0 0 48 48" style="enable-background:new 0 0 48 48;" xml:space="preserve">
<style type="text/css">
	.st0{fill:#FFFFFF;}
</style>
<g>
	<g>
		<path class="st0" d="M5.5,23.9c-0.1,0-0.2,0-0.3,0c-0.8-0.2-1.3-1-1.1-1.7C6.2,13,14.8,3.8,27.2,3.8c2,0,4,0.3,5.9,0.7
			c0.8,0.2,1.2,1,1,1.8c-0.2,0.8-1,1.2-1.8,1c-1.7-0.4-3.4-0.7-5.2-0.7C16.3,6.7,8.8,14.8,7,22.8C6.8,23.4,6.2,23.9,5.5,23.9z"/>
	</g>
	<path d="M47.6,41L40,32.6c-0.3-0.3-0.7-0.6-1.2-0.5c-0.5,0-0.9,0.3-1.2,0.6c-2.8,3.8-5.4,6.1-10.6,6.1c-6.4,0-11-5.1-11-12.1
		c0-6.8,4.7-12,10.9-12c4.8,0,6.9,1.9,9.4,4.9c0.3,0.3,0.7,0.5,1.1,0.5c0.4,0,0.8-0.2,1.1-0.5l7.9-8.1C47,11,47,10.1,46.5,9.5
		c-5.3-6.2-11.9-9.2-20.3-9.2C11.3,0.4,0,11.7,0,26.7c0,8.6,3.4,16,9.5,20.9c0.1,0.1,0.2,0.1,0.4,0.1h33c0.1,0,0.3,0,0.4-0.1
		c1.7-1.4,3.2-2.9,4.5-4.7C48.1,42.4,48.1,41.5,47.6,41z M7,22.8c-0.2,0.7-0.8,1.1-1.4,1.1c-0.1,0-0.2,0-0.3,0
		c-0.8-0.2-1.3-1-1.1-1.7c2-9.2,10.6-18.4,23-18.4c2,0,4,0.3,5.9,0.7c0.8,0.2,1.2,1,1,1.8c-0.2,0.8-1,1.2-1.8,1
		c-1.7-0.4-3.4-0.7-5.2-0.7C16.3,6.7,8.8,14.8,7,22.8z"/>
</g>
</svg>
