<?xml version="1.0" encoding="utf-8"?>
<!-- Generator: Adobe Illustrator 19.2.1, SVG Export Plug-In . SVG Version: 6.00 Build 0)  -->
<svg version="1.1" id="Layer_1" xmlns="http://www.w3.org/2000/svg" xmlns:xlink="http://www.w3.org/1999/xlink" x="0px" y="0px"
	 viewBox="0 0 48 48" style="enable-background:new 0 0 48 48;" xml:space="preserve">
<style type="text/css">
	.st0{fill:#FFFFFF;}
</style>
<g>
	<polygon class="st0" points="46,1.6 2,1.6 2,46.3 33.4,46.3 46,33.7 	"/>
	<g>
		<path d="M21.5,26.7c1-0.9,1.5-2.1,1.5-3.5c0-3.7-3.3-5-6.2-5c-2.3,0-4.3,1-5.8,2.6c-0.2,0.2-0.1,0.4,0,0.6l2.3,2.3
			c0.1,0.1,0.2,0.1,0.3,0.1s0.2-0.1,0.3-0.2c0.8-1,1.7-1.5,2.9-1.5c1.1,0,1.8,0.5,1.8,1.3c0,0.4,0,1.5-2.5,1.5h-1.1
			c-0.2,0-0.4,0.2-0.4,0.4v3.2c0,0.2,0.2,0.4,0.4,0.4h1.4c1.8,0,2.7,0.5,2.7,1.5c0,1.1-1.1,1.5-2.2,1.5c-1.4,0-2.4-0.6-3.3-1.7
			c-0.1-0.1-0.2-0.2-0.3-0.2c-0.1,0-0.2,0-0.3,0.1l-2.3,2.3c-0.2,0.2-0.2,0.4,0,0.6c1.4,1.7,3.8,2.7,6.2,2.7c3.9,0,6.7-2.2,6.7-5.4
			C23.4,28.7,22.5,27.4,21.5,26.7z"/>
		<path d="M47,33.7L47,33.7V1.6c0-0.6-0.4-1-1-1H2c-0.6,0-1,0.4-1,1v44.7c0,0.6,0.4,1,1,1h31.4c0.1,0,0.3,0,0.4-0.1
			c0.1-0.1,0.2-0.1,0.3-0.2l12.6-12.6c0.1-0.1,0.1-0.2,0.2-0.3V34C47,33.9,47,33.8,47,33.7z M3,11.9H45v20.8l-6.5-0.1v-0.5
			c0-0.2-0.2-0.4-0.4-0.4h-3.4V18.9c0-0.2-0.2-0.4-0.4-0.4h-3.1c-0.2,0-0.3,0.1-0.4,0.2c-0.8,1.7-3,2-4,2.1c-0.2,0-0.4,0.2-0.4,0.4
			v3.1c0,0.2,0.2,0.4,0.4,0.4c1.3,0,2.5-0.3,3.6-0.7v7.7h-3.6c-0.2,0-0.4,0.2-0.4,0.4v3.2c0,0.2,0.2,0.4,0.4,0.4h5.7l-0.1,9.6H3
			V11.9z M40.7,37.6c0-0.4-0.3-0.7-0.7-0.7c-0.4,0-0.7,0.3-0.7,0.7s0.3,0.7,0.7,0.7L39,39.3c-0.1-0.1-0.3-0.2-0.5-0.2
			c-0.4,0-0.7,0.3-0.7,0.7c0,0.2,0.1,0.4,0.2,0.5l-1,1c-0.3,0.1-0.4,0.3-0.5,0.5l-2.1,2.1v-1.2c0.3-0.1,0.6-0.3,0.6-0.7
			s-0.3-0.6-0.6-0.7l0.1-6.8l9.2,0.1L40.7,37.6z"/>
		<ellipse cx="35.6" cy="35.7" rx="0.7" ry="0.7"/>
		<ellipse cx="38.5" cy="35.7" rx="0.7" ry="0.7"/>
		<ellipse cx="41.3" cy="35.7" rx="0.7" ry="0.7"/>
		<ellipse cx="37.2" cy="37.7" rx="0.7" ry="0.7"/>
		<ellipse cx="35.6" cy="39.9" rx="0.7" ry="0.7"/>
	</g>
</g>
</svg>
