<?xml version="1.0" encoding="utf-8"?>
<!-- Generator: Adobe Illustrator 19.2.1, SVG Export Plug-In . SVG Version: 6.00 Build 0)  -->
<svg version="1.1" id="Layer_1" xmlns="http://www.w3.org/2000/svg" xmlns:xlink="http://www.w3.org/1999/xlink" x="0px" y="0px"
	 viewBox="0 0 48 48" style="enable-background:new 0 0 48 48;" xml:space="preserve">
<style type="text/css">
	.st0{fill:#FFFFFF;}
</style>
<g>
	<g>
		<polygon class="st0" points="31,5.4 5.4,25.5 16.8,40.4 42.4,20.3 		"/>
		<ellipse transform="matrix(0.7945 -0.6072 0.6072 0.7945 -21.6028 10.7292)" class="st0" cx="5.1" cy="37.3" rx="1" ry="5"/>
	</g>
	<g>
		<ellipse transform="matrix(0.7886 -0.6149 0.6149 0.7886 -5.284 16.6172)" cx="21.5" cy="16" rx="0.6" ry="0.6"/>
		<ellipse transform="matrix(0.789 -0.6144 0.6144 0.789 -3.8943 17.4832)" cx="23.5" cy="14.4" rx="0.6" ry="0.6"/>
		<ellipse transform="matrix(0.7889 -0.6145 0.6145 0.7889 -2.5388 18.4239)" cx="25.5" cy="12.9" rx="0.6" ry="0.6"/>
		<ellipse transform="matrix(0.7887 -0.6148 0.6148 0.7887 -3.1895 23.9518)" cx="33.2" cy="16.6" rx="0.6" ry="0.6"/>
		<ellipse transform="matrix(0.789 -0.6144 0.6144 0.789 -2.9701 22.0481)" cx="30.6" cy="15.3" rx="0.6" ry="0.6"/>
		<ellipse transform="matrix(0.789 -0.6144 0.6144 0.789 -1.5608 23.0202)" cx="32.7" cy="13.8" rx="0.6" ry="0.6"/>
		<ellipse transform="matrix(0.7889 -0.6145 0.6145 0.7889 -1.3366 21.1386)" cx="30.1" cy="12.5" rx="0.6" ry="0.6"/>
		<ellipse transform="matrix(0.7883 -0.6152 0.6152 0.7883 -1.1419 19.3329)" cx="27.5" cy="11.3" rx="0.6" ry="0.6"/>
		<ellipse transform="matrix(0.7887 -0.6148 0.6148 0.7887 0.2451 20.2015)" cx="29.5" cy="9.7" rx="0.6" ry="0.6"/>
		<ellipse transform="matrix(0.7887 -0.6148 0.6148 0.7887 -1.7992 24.8357)" cx="35.2" cy="15" rx="0.6" ry="0.6"/>
		<ellipse transform="matrix(0.789 -0.6144 0.6144 0.789 1.664253e-002 22.0722)" cx="32.1" cy="11" rx="0.6" ry="0.6"/>
		<ellipse transform="matrix(0.7886 -0.6149 0.6149 0.7886 -5.5254 18.4145)" cx="24" cy="17.2" rx="0.6" ry="0.6"/>
		<ellipse transform="matrix(0.7887 -0.6148 0.6148 0.7887 -4.1699 19.3485)" cx="26.1" cy="15.7" rx="0.6" ry="0.6"/>
		<ellipse transform="matrix(0.7892 -0.6141 0.6141 0.7892 -2.7293 20.2397)" cx="28.1" cy="14.1" rx="0.6" ry="0.6"/>
		<ellipse transform="matrix(0.7887 -0.6148 0.6148 0.7887 -4.3581 21.1816)" cx="28.6" cy="16.9" rx="0.6" ry="0.6"/>
		<path d="M46.8,26.9h-2.3c-0.6,0-1.1,0.5-1.1,1.1v0.8h-1.3c-0.6,0-1.1,0.5-1.1,1.1v2.3h-7.8v-3.4l9.7-7.6c0.5-0.4,0.5-1,0.2-1.5
			L31.8,4.8c-0.2-0.2-0.4-0.4-0.7-0.4s-0.6,0-0.8,0.2L4.7,24.7c-0.5,0.4-0.5,1-0.2,1.5l2.1,2.7L1,31.6c-0.1,0-0.2,0.1-0.3,0.2
			c-1.3,1-0.4,2.9-0.1,3.7c0.6,1,1.4,2.3,2.4,3.6c1.3,1.7,3.7,4.5,5.5,4.5c0.4,0,0.8-0.1,1.1-0.4c0.1-0.1,0.2-0.1,0.2-0.2l4-4.8
			l2.1,2.8c0.2,0.2,0.4,0.4,0.7,0.4h0.1c0.2,0,0.5-0.1,0.7-0.2l10-7.9V35c0,1.6,1.3,3,3,3h10.8v2.3c0,0.6,0.5,1.1,1.1,1.1h1.3v0.8
			c0,0.6,0.5,1.1,1.1,1.1h2.3c0.6,0,1.1-0.5,1.1-1.1V27.9C47.9,27.4,47.4,26.9,46.8,26.9z M8.1,41.3C7.7,41.6,6,40.1,4.3,38
			c-1.7-2.2-2.7-4.2-2.2-4.6c0.4-0.3,2.2,1.2,3.8,3.4C7.6,38.9,8.6,41,8.1,41.3z M16.9,38.9L6.8,25.7l24-18.8l10.2,13.2L16.9,38.9z"
			/>
	</g>
</g>
</svg>
