<?xml version="1.0" encoding="utf-8"?>
<!-- Generator: Adobe Illustrator 19.2.1, SVG Export Plug-In . SVG Version: 6.00 Build 0)  -->
<svg version="1.1" id="Layer_1" xmlns="http://www.w3.org/2000/svg" xmlns:xlink="http://www.w3.org/1999/xlink" x="0px" y="0px"
	 viewBox="0 0 48 48" style="enable-background:new 0 0 48 48;" xml:space="preserve">
<style type="text/css">
	.st0{fill:#FFFFFF;}
</style>
<g>
	<path class="st0" d="M45.6,8L29.6,4.3c-1-0.2-2,0.4-2.3,1.4v0.2l-6.8-0.4c-1.1-0.1-2,0.7-2,1.8v0.6l-7.7,1C9.7,9,9,10,9.1,11v0.2
		l-7,2.4c-1,0.3-1.5,1.4-1.2,2.4L10,42.4c0.3,1,1.4,1.5,2.4,1.2L25.8,39l5.3-0.7c0.3,0,0.6-0.2,0.9-0.4l3.3,0.2l3.5,0.8
		c1,0.2,2-0.4,2.3-1.4l6.2-27.3C47.3,9.3,46.6,8.2,45.6,8z"/>
	<g>
		<path d="M35.3,16.4c-0.7,0.8-1.6,1.9-3.9,2.9c-4,1.8-1.5,6,1.7,4.7c-0.4,1.2-1.3,1.9-2,2.2L31,26.6l2,0.4l2,0.4l0.1-0.4
			c-0.6-0.5-1-1.5-0.9-2.8c2.4,2.6,6.4-0.3,3.5-3.6C36,18.8,35.6,17.4,35.3,16.4z"/>
		<path d="M14.5,15.1v-0.2c-0.3-0.2-0.6-0.6-0.7-1.2c0.1,0.1,0.3,0.2,0.3,0.2c0.2,0.2,0.4,0.2,0.6,0.2c0.5,0,0.8-0.5,0.8-0.9
			c0-0.5-0.5-0.8-0.9-0.8c-0.2,0-0.5,0.1-0.6,0.3c-0.1,0.1-0.2,0.2-0.3,0.3c0-0.2,0.2-0.5,0.3-0.7c0.2-0.2,0.2-0.4,0.2-0.7
			c0-0.5-0.4-0.8-0.9-0.8c-0.5,0-0.8,0.5-0.8,0.9c0,0.2,0.1,0.5,0.3,0.6c0.1,0.1,0.3,0.4,0.4,0.6c-0.1-0.1-0.3-0.1-0.3-0.2
			c-0.2-0.2-0.4-0.2-0.6-0.2c-0.5,0-0.8,0.5-0.8,0.9c0,0.5,0.5,0.8,0.9,0.8c0.2,0,0.5-0.1,0.6-0.3c0.1-0.1,0.2-0.2,0.3-0.3
			c0,0.6-0.2,1.1-0.5,1.3v0.2l0.8-0.1L14.5,15.1z"/>
		<polygon points="23.5,10.2 22.3,8 20.8,10 22,12.3 		"/>
		<path d="M6.3,14.9c-0.5,0.1-0.9,0.6-0.9,1.2c-0.4-0.4-1-0.6-1.5-0.3c-0.5,0.3-0.5,1-0.2,1.5C4.1,17.9,6.3,19,6.3,19s1-2.3,0.9-3
			C7.3,15.3,6.9,14.8,6.3,14.9z"/>
		<ellipse transform="matrix(0.2441 -0.9698 0.9698 0.2441 -7.2191 46.8679)" cx="26.5" cy="28.1" rx="0.5" ry="0.5"/>
		<ellipse transform="matrix(0.2434 -0.9699 0.9699 0.2434 -5.4325 44.9328)" cx="26.1" cy="25.9" rx="0.5" ry="0.5"/>
		<ellipse transform="matrix(0.2441 -0.9698 0.9698 0.2441 -8.0781 44.776)" cx="24.7" cy="27.6" rx="0.5" ry="0.5"/>
		<ellipse transform="matrix(0.2435 -0.9699 0.9699 0.2435 -11.4589 48.7678)" cx="25.5" cy="31.7" rx="0.5" ry="0.5"/>
		<ellipse transform="matrix(0.2441 -0.9697 0.9697 0.2441 -14.056 48.7168)" cx="24.2" cy="33.4" rx="0.5" ry="0.5"/>
		<ellipse transform="matrix(0.2441 -0.9698 0.9698 0.2441 -13.0813 50.7648)" cx="26" cy="33.8" rx="0.5" ry="0.5"/>
		<ellipse transform="matrix(0.2447 -0.9696 0.9696 0.2447 -12.1871 52.9425)" cx="27.9" cy="34.3" rx="0.5" ry="0.5"/>
		<ellipse transform="matrix(0.2444 -0.9697 0.9697 0.2444 -11.2101 54.999)" cx="29.7" cy="34.7" rx="0.5" ry="0.5"/>
		<ellipse transform="matrix(0.2447 -0.9696 0.9696 0.2447 -9.5537 53.0817)" cx="29.3" cy="32.7" rx="0.5" ry="0.5"/>
		<ellipse transform="matrix(0.2434 -0.9699 0.9699 0.2434 -10.4358 50.9253)" cx="27.4" cy="32.2" rx="0.5" ry="0.5"/>
		<ellipse transform="matrix(0.2446 -0.9696 0.9696 0.2446 -3.8423 42.8784)" cx="25.6" cy="23.9" rx="0.5" ry="0.5"/>
		<ellipse transform="matrix(0.245 -0.9695 0.9695 0.245 -10.3187 57.176)" cx="31.6" cy="35.2" rx="0.5" ry="0.5"/>
		<ellipse transform="matrix(0.2435 -0.9699 0.9699 0.2435 -12.3183 46.6743)" cx="23.8" cy="31.2" rx="0.5" ry="0.5"/>
		<ellipse transform="matrix(0.2434 -0.9699 0.9699 0.2434 -9.6817 46.8136)" cx="25.2" cy="29.6" rx="0.5" ry="0.5"/>
		
			<ellipse transform="matrix(7.359092e-002 -0.9973 0.9973 7.359092e-002 -8.8641 45.7355)" cx="20.2" cy="27.6" rx="0.5" ry="0.5"/>
		
			<ellipse transform="matrix(7.293142e-002 -0.9973 0.9973 7.293142e-002 -11.7265 46.3404)" cx="19.1" cy="29.5" rx="0.5" ry="0.5"/>
		
			<ellipse transform="matrix(7.352498e-002 -0.9973 0.9973 7.352498e-002 -17.0039 52.2529)" cx="19.6" cy="35.3" rx="0.5" ry="0.5"/>
		
			<ellipse transform="matrix(7.352498e-002 -0.9973 0.9973 7.352498e-002 -15.8048 49.5794)" cx="18.8" cy="33.3" rx="0.5" ry="0.5"/>
		
			<ellipse transform="matrix(7.352985e-002 -0.9973 0.9973 7.352985e-002 -12.9335 48.9948)" cx="19.9" cy="31.5" rx="0.5" ry="0.5"/>
		<ellipse transform="matrix(0.9901 -0.1406 0.1406 0.9901 -4.5015 2.2638)" cx="13.8" cy="33" rx="0.5" ry="0.5"/>
		<ellipse transform="matrix(0.9902 -0.1399 0.1399 0.9902 -5.2328 2.5424)" cx="15.5" cy="38.5" rx="0.5" ry="0.5"/>
		<ellipse transform="matrix(0.9901 -0.1401 0.1401 0.9901 -5.0134 2.363)" cx="14.3" cy="36.8" rx="0.5" ry="0.5"/>
		<ellipse transform="matrix(0.9901 -0.1407 0.1407 0.9901 -4.7318 2.4506)" cx="15" cy="34.7" rx="0.5" ry="0.5"/>
		<ellipse transform="matrix(0.9428 -0.3334 0.3334 0.9428 -13.0802 6.5561)" cx="12.6" cy="41.4" rx="0.5" ry="0.5"/>
		<ellipse transform="matrix(0.9427 -0.3338 0.3338 0.9427 -12.7073 5.9933)" cx="11.1" cy="40" rx="0.5" ry="0.5"/>
		<path d="M45.8,7.2L29.8,3.6c-0.2,0-0.4-0.1-0.6-0.1c-1.1,0-2,0.6-2.5,1.6l0,0l-6.2-0.3c-1.5-0.1-2.7,1-2.8,2.4l-7.1,0.9
			c-0.7,0.1-1.4,0.5-1.8,1c-0.4,0.6-0.6,1.3-0.5,2c0-0.2,0-0.3,0-0.5l-6.5,2.2c-0.7,0.2-1.2,0.7-1.5,1.4c-0.3,0.6-0.4,1.4-0.1,2.1
			l9.1,26.4c0.4,1.1,1.4,1.8,2.6,1.8c0.3,0,0.6,0,0.9-0.1l13.3-4.6l5.2-0.6c0.3,0,0.6-0.2,0.8-0.4l3.1,0.2l3.4,0.8
			c0.2,0,0.4,0.1,0.6,0.1c1.3,0,2.3-0.9,2.6-2.1l6.2-27.3C48.2,9,47.3,7.6,45.8,7.2z M12.2,42.9c-0.6,0.2-1.2-0.1-1.4-0.7L1.7,15.7
			c-0.1-0.3-0.1-0.6,0.1-0.8c0.1-0.3,0.4-0.5,0.6-0.6l6.1-2.1l3.3,26.6c0.2,1.3,1.3,2.4,2.7,2.4c0.1,0,0.2,0,0.3,0l3.6-0.4
			L12.2,42.9z M24.4,38.4l-9.9,1.2c-0.6,0.1-1.2-0.4-1.2-1L9.9,10.9c0-0.3,0-0.6,0.2-0.8c0.2-0.2,0.4-0.4,0.7-0.4l6.8-0.8l-1.5,26.4
			c-0.1,1.5,1.1,2.8,2.5,2.8L24.4,38.4L24.4,38.4z M18.8,36.5c-0.6,0-1.1-0.6-1-1.2l1.5-27.9c0-0.6,0.5-1,1.1-1l5.9,0.3l-6,26.2
			c-0.2,0.7,0,1.4,0.3,2c0.4,0.6,1,1,1.7,1.2l3.5,0.8L18.8,36.5z M46.3,10.1l-6.2,27.3c-0.1,0.6-0.7,1-1.3,0.8l-16.1-3.7
			c-0.3-0.1-0.5-0.2-0.7-0.5s-0.2-0.5-0.1-0.8l6.2-27.3C28.3,5.4,28.8,5,29.3,5c0.1,0,0.2,0,0.2,0l16.1,3.7c0.3,0.1,0.5,0.2,0.7,0.5
			C46.3,9.5,46.3,9.8,46.3,10.1z"/>
	</g>
</g>
</svg>
