<?xml version="1.0" encoding="utf-8"?>
<!-- Generator: Adobe Illustrator 19.2.1, SVG Export Plug-In . SVG Version: 6.00 Build 0)  -->
<svg version="1.1" id="Layer_1" xmlns="http://www.w3.org/2000/svg" xmlns:xlink="http://www.w3.org/1999/xlink" x="0px" y="0px"
	 viewBox="0 0 48 48" style="enable-background:new 0 0 48 48;" xml:space="preserve">
<style type="text/css">
	.st0{fill:#FFFFFF;}
</style>
<g>
	<path class="st0" d="M44.8,16.8l-4.5,3.1c0-0.1,0-0.3,0-0.4c0-4.8-4.9-4.8-4.9-4.8H14.9c0,0-4.9,0.1-4.9,4.8
		c-4.1,0-4.1-10.7-4.1-10.7c0-1.4-1.1-2.5-2.5-2.5S0.8,7.4,0.8,8.8C0.8,24,10,24,10,24v15.2l0,0c0,1.4,1.1,2.5,2.5,2.5
		s2.5-1.1,2.5-2.5c0,0,0,0,0-0.1v-8.9c0,0,0-2.1,2.1-2.1c1.1,0,4.9,0,4.9,0c2.1,0,2.1,2.1,2.1,2.1v9l0,0c0,1.4,1.1,2.5,2.5,2.5
		s2.5-1.1,2.5-2.5c0,0,0,0,0-0.1V26.9l0,0c0.3,5.7,4.1,5.7,4.1,5.7h2.2v6.5l0,0c0,1.4,1.1,2.5,2.5,2.5s2.5-1.1,2.5-2.5l0,0
		c0-0.3,0-3.1,0-6.5h0.4c0,0,4.1,0,4.1-6.3V16.8z"/>
	<g>
		<circle cx="14.1" cy="19.2" r="0.5"/>
		<circle cx="12.1" cy="19.2" r="0.5"/>
		<circle cx="16.2" cy="19.2" r="0.5"/>
		<circle cx="18.2" cy="19.2" r="0.5"/>
		<circle cx="20.3" cy="19.2" r="0.5"/>
		<circle cx="23.3" cy="17.2" r="0.5"/>
		<circle cx="13.1" cy="17.2" r="0.5"/>
		<circle cx="15.2" cy="17.2" r="0.5"/>
		<circle cx="17.2" cy="17.2" r="0.5"/>
		<circle cx="19.2" cy="17.2" r="0.5"/>
		<circle cx="21.3" cy="17.2" r="0.5"/>
		<path d="M37.1,26.8c-0.4,0-0.8,0.1-1.1,0.4c-0.3,0.3,0.6,1.2,1.1,1.2c0.5,0,1.3-0.9,1.1-1.2C37.9,26.8,37.4,26.8,37.1,26.8z"/>
		<path d="M47.4,27.6c0.3,0,0.5-0.3,0.5-0.6c0-0.3-0.3-0.5-0.6-0.5l-1.6,0.2c0-0.1,0-0.3,0-0.4v-1.6l1.4-0.5
			c0.3-0.1,0.4-0.4,0.3-0.7c-0.1-0.3-0.4-0.4-0.7-0.3l-1,0.4v-6.9c0-0.3-0.2-0.6-0.5-0.7c-0.3-0.1-0.6-0.1-0.9,0.1L41,18.3
			c-0.6-3.5-3.8-4.5-5.6-4.5H14.8c-1.8,0-5.1,1-5.6,4.6c-1.8-1.2-2.5-6.8-2.5-9.6c0-1.9-1.5-3.4-3.4-3.4C1.5,5.4,0,6.9,0,8.8
			c0,13.1,6.7,15.6,9.1,16v14.4c0,1.9,1.5,3.4,3.4,3.4s3.4-1.5,3.4-3.4v-0.1v-8.9c0-0.4,0.2-1.3,1.2-1.3H22c1.1,0,1.2,0.9,1.3,1.2v9
			c0,1.9,1.5,3.4,3.4,3.4S30,41,30,39.1V39v-7.2l0,0c1.4,1.6,3.2,1.6,3.3,1.6h1.4V39v0.1c0,1.9,1.5,3.4,3.4,3.4
			c1.9,0,3.4-1.5,3.4-3.4V39v-5.6c0.8-0.1,2.7-0.7,3.7-3l2.2,0.3h0.1c0.2,0,0.5-0.2,0.5-0.4c0-0.3-0.1-0.5-0.4-0.6l-2-0.3
			c0.2-0.5,0.3-1.1,0.4-1.8L47.4,27.6z M29.5,16.1c-0.3-0.2-0.6-0.2-0.9-0.1c-0.3,0.1-0.5,0.4-0.5,0.8v6.8l-0.7-0.3
			c-0.3-0.1-0.6,0-0.7,0.3s0,0.6,0.3,0.7l1.1,0.4c0,0,0,1.9,0,2.1l-1.6-0.2c-0.3,0-0.5,0.2-0.6,0.5c0,0.3,0.2,0.5,0.5,0.6l1.6,0.2
			v1.9L26.7,30c-0.3,0-0.5,0.3-0.4,0.6c0,0.3,0.3,0.4,0.5,0.4h0.1l1.1-0.2v8.5c0,0,0,0,0,0.1c0,0.9-0.8,1.6-1.7,1.6
			c-0.9,0-1.7-0.7-1.7-1.7v-9c0-1.2-0.8-2.9-2.9-2.9h-4.9c-2.1,0-2.9,1.7-2.9,2.9v8.9v0.1c0,0.9-0.8,1.6-1.7,1.6
			c-0.9,0-1.7-0.7-1.7-1.7V24c0-0.5-0.4-0.8-0.8-0.8c-0.1,0-8.3-0.2-8.3-14.4c0-0.9,0.7-1.7,1.7-1.7S5,7.9,5,8.8
			c0,1.2,0.2,11.5,5,11.5c0.2,0,0.4-0.1,0.6-0.2c0.2-0.2,0.3-0.4,0.3-0.6c0-3.8,3.6-4,4-4h20.7c0.4,0,4,0.1,4,3.9L38.6,20h-3.5
			L29.5,16.1z M37.8,40.9c-0.9,0-1.7-0.7-1.7-1.6v-0.1v-5.6h3.3v5.6c0,0,0,0,0,0.1C39.5,40.2,38.7,40.9,37.8,40.9z M44,26.9
			l-2.1,0.2c-0.3,0-0.5,0.3-0.5,0.6c0,0.3,0.2,0.5,0.5,0.5c0,0,0,0,0.1,0l1.9-0.2c-0.1,0.5-0.2,1-0.3,1.4L41.3,29
			c-0.3,0-0.5,0.1-0.6,0.4c0,0.3,0.1,0.5,0.4,0.6l1.9,0.3c-0.9,1.5-2.3,1.6-2.4,1.6h-7.7c-0.1,0-1.4-0.1-2.4-1.5l2.4-0.4
			c0.3,0,0.5-0.3,0.4-0.6c0-0.3-0.3-0.5-0.6-0.4l-2.5,0.4c-0.1-0.4-0.3-0.9-0.3-1.4l2,0.2c0,0,0,0,0.1,0c0.3,0,0.5-0.2,0.5-0.5
			s-0.2-0.5-0.5-0.6l-2.2-0.2c0-0.2,0-0.4,0-0.6v-1l2.8,1.1c0.1,0,0.1,0,0.2,0c0.2,0,0.4-0.1,0.5-0.3c0.1-0.3,0-0.6-0.3-0.7
			l-3.2-1.2v-5.8l4.6,3.2c0.1,0.1,0.3,0.1,0.5,0.1h4c0.2,0,0.3-0.1,0.5-0.1l4.6-3.2v5.9l-2.9,1.1c-0.3,0.1-0.4,0.4-0.3,0.7
			c0.1,0.2,0.3,0.3,0.5,0.3c0.1,0,0.1,0,0.2,0l2.6-1v0.9C44,26.6,44,26.7,44,26.9z"/>
	</g>
</g>
</svg>
