<?xml version="1.0" encoding="utf-8"?>
<!-- Generator: Adobe Illustrator 19.2.1, SVG Export Plug-In . SVG Version: 6.00 Build 0)  -->
<svg version="1.1" id="Layer_1" xmlns="http://www.w3.org/2000/svg" xmlns:xlink="http://www.w3.org/1999/xlink" x="0px" y="0px"
	 viewBox="0 0 48 48" style="enable-background:new 0 0 48 48;" xml:space="preserve">
<style type="text/css">
	.st0{fill:#FFFFFF;}
	.st1{fill:#020204;}
</style>
<g>
	<circle class="st0" cx="23.6" cy="24" r="22.6"/>
	<g>
		<path class="st1" d="M47.6,6.1L40.1,1c-0.2-0.1-0.4-0.2-0.6-0.1c-0.2,0-0.4,0.2-0.5,0.4l-2.1,3.2c-3.8-2.5-8.3-4-13.2-4
			C10.6,0.4,0,11,0,24s10.6,23.6,23.6,23.6c13,0,23.6-10.6,23.6-23.6c0-4.2-1.1-8.1-3-11.5l3.6-5.3C48.1,6.9,48,6.4,47.6,6.1z
			 M45.3,24c0,11.9-9.7,21.7-21.7,21.7c-5.7,0-10.9-2.2-14.7-5.8c0,0,0,0,0-0.1c0.1-0.4,0-0.8-0.4-0.9c-0.2-0.1-0.4-0.1-0.6,0
			C7.1,38,6.3,37,5.6,36c0.2-0.1,0.4-0.2,0.5-0.4c0.1-0.4,0-0.8-0.4-0.9c-0.3-0.1-0.6,0-0.8,0.2c-0.7-1.2-1.2-2.4-1.7-3.7
			c0-0.2,0-0.5-0.2-0.6c-0.2-0.6-0.4-1.3-0.5-2c0.2-0.1,0.4-0.2,0.5-0.4c0.1-0.4,0-0.8-0.4-0.9c-0.1,0-0.2-0.1-0.3,0
			C2.1,26.6,2,26,2,25.4c0.3,0,0.5-0.2,0.6-0.4c0.2-0.4,0-0.8-0.4-0.9C2.2,24,2.1,24,2,24c0-0.6,0-1.2,0.1-1.8
			c0.2-0.1,0.3-0.2,0.4-0.4c0.1-0.3,0-0.6-0.2-0.8c0.2-1.5,0.6-3,1.1-4.4c0.1,0.1,0.2,0.3,0.4,0.3c0.4,0.1,0.8,0,0.9-0.4
			c0.1-0.4,0-0.8-0.4-0.9c-0.2-0.1-0.3-0.1-0.5,0c0.6-1.4,1.3-2.7,2.2-3.9c0.4,0.1,0.7-0.1,0.9-0.4c0.1-0.2,0-0.5-0.1-0.7
			C7,10.1,7.4,9.7,7.8,9.2C7.9,9.4,8,9.5,8.2,9.6c0.4,0.1,0.8,0,0.9-0.4c0.1-0.3,0-0.7-0.4-0.9C9.2,7.8,9.7,7.4,10.2,7
			c0.1,0.2,0.2,0.4,0.4,0.4c0.4,0.1,0.8,0,0.9-0.4c0.1-0.3,0-0.7-0.3-0.8c0.5-0.3,1-0.7,1.5-1c0.1,0,0.1,0.1,0.2,0.1
			c0.4,0.1,0.8,0,0.9-0.4c0-0.1,0.1-0.2,0-0.4c1.3-0.6,2.6-1.2,4-1.5c-0.1,0.1-0.3,0.2-0.3,0.4c-0.1,0.4,0,0.8,0.4,0.9
			c0.4,0.1,0.8,0,0.9-0.4c0.1-0.4,0-0.8-0.4-0.9c-0.1,0-0.2-0.1-0.4,0c1.5-0.4,3-0.6,4.5-0.7c0,0,0,0.1-0.1,0.1
			c-0.1,0.4,0,0.8,0.4,0.9c0.4,0.1,0.8,0,0.9-0.4c0.1-0.2,0-0.5-0.1-0.6c4.4,0.1,8.5,1.4,11.8,3.7L22.9,25.6l-7.1-9.3
			c-0.1-0.2-0.3-0.3-0.6-0.3c-0.2,0-0.4,0-0.6,0.2l-7.1,5.8c-0.4,0.3-0.4,0.8-0.1,1.1l0,0c0,0-0.1-0.1-0.1-0.1
			c-0.4-0.1-0.8,0-0.9,0.4c-0.1,0.4,0,0.8,0.4,0.9c0.4,0.1,0.8,0,0.9-0.4c0.1-0.2,0.1-0.3,0-0.5l15.2,18.8c0.2,0.2,0.4,0.3,0.6,0.3
			c0,0,0,0,0,0c0.3,0,0.5-0.1,0.6-0.4L43,14.4C44.5,17.3,45.3,20.5,45.3,24z"/>
		<ellipse transform="matrix(0.3777 -0.9259 0.9259 0.3777 -28.6715 30.0708)" class="st1" cx="8" cy="36.4" rx="0.7" ry="0.7"/>
		<ellipse transform="matrix(0.378 -0.9258 0.9258 0.378 -28.0229 33.1838)" class="st1" cx="10.7" cy="37.4" rx="0.7" ry="0.7"/>
		<ellipse transform="matrix(0.378 -0.9258 0.9258 0.378 -23.7571 22.5309)" class="st1" cx="4.9" cy="28.9" rx="0.7" ry="0.7"/>
		<ellipse transform="matrix(0.3777 -0.9259 0.9259 0.3777 -23.112 25.6625)" class="st1" cx="7.5" cy="30" rx="0.7" ry="0.7"/>
		<ellipse transform="matrix(0.3782 -0.9257 0.9257 0.3782 -22.4633 28.7677)" class="st1" cx="10.2" cy="31.1" rx="0.7" ry="0.7"/>
		<ellipse transform="matrix(0.3775 -0.926 0.926 0.3775 -21.8178 31.9182)" class="st1" cx="12.8" cy="32.2" rx="0.7" ry="0.7"/>
		<ellipse transform="matrix(0.3788 -0.9255 0.9255 0.3788 -26.5304 24.707)" class="st1" cx="5.1" cy="32.1" rx="0.7" ry="0.7"/>
		<ellipse transform="matrix(0.3774 -0.9261 0.9261 0.3774 -25.8947 27.8797)" class="st1" cx="7.8" cy="33.2" rx="0.7" ry="0.7"/>
		<ellipse transform="matrix(0.3779 -0.9258 0.9258 0.3779 -25.244 30.984)" class="st1" cx="10.4" cy="34.3" rx="0.7" ry="0.7"/>
		<ellipse transform="matrix(0.3767 -0.9263 0.9263 0.3767 -24.5987 34.1546)" class="st1" cx="13.1" cy="35.4" rx="0.7" ry="0.7"/>
		<ellipse transform="matrix(0.3779 -0.9258 0.9258 0.3779 -30.8033 35.3908)" class="st1" cx="10.9" cy="40.6" rx="0.7" ry="0.7"/>
		<ellipse transform="matrix(0.3784 -0.9256 0.9256 0.3784 -18.1957 18.113)" class="st1" cx="4.4" cy="22.6" rx="0.7" ry="0.7"/>
		<ellipse transform="matrix(0.3774 -0.926 0.926 0.3774 -20.9813 20.3422)" class="st1" cx="4.6" cy="25.8" rx="0.7" ry="0.7"/>
		<ellipse transform="matrix(0.3781 -0.9258 0.9258 0.3781 -20.3312 23.4466)" class="st1" cx="7.3" cy="26.9" rx="0.7" ry="0.7"/>
		<ellipse transform="matrix(0.377 -0.9262 0.9262 0.377 -19.686 26.6023)" class="st1" cx="9.9" cy="27.9" rx="0.7" ry="0.7"/>
		<ellipse transform="matrix(0.3774 -0.9261 0.9261 0.3774 -11.9927 16.8503)" class="st1" cx="6.5" cy="17.3" rx="0.7" ry="0.7"/>
		<ellipse transform="matrix(0.3779 -0.9259 0.9259 0.3779 -11.3448 19.9638)" class="st1" cx="9.2" cy="18.4" rx="0.7" ry="0.7"/>
		<ellipse transform="matrix(0.377 -0.9262 0.9262 0.377 -15.4218 15.9404)" class="st1" cx="4.1" cy="19.4" rx="0.7" ry="0.7"/>
		<ellipse transform="matrix(0.3779 -0.9259 0.9259 0.3779 -14.7722 19.0441)" class="st1" cx="6.8" cy="20.5" rx="0.7" ry="0.7"/>
		<ellipse transform="matrix(0.3777 -0.9259 0.9259 0.3777 -9.2128 14.6373)" class="st1" cx="6.3" cy="14.2" rx="0.7" ry="0.7"/>
		<ellipse transform="matrix(0.3774 -0.9261 0.9261 0.3774 -8.5642 17.7675)" class="st1" cx="8.9" cy="15.3" rx="0.7" ry="0.7"/>
		<ellipse transform="matrix(0.3779 -0.9259 0.9259 0.3779 -7.9192 20.8818)" class="st1" cx="11.6" cy="16.3" rx="0.7" ry="0.7"/>
		<ellipse transform="matrix(0.3777 -0.9259 0.9259 0.3777 -5.976 30.2556)" class="st1" cx="19.5" cy="19.6" rx="0.7" ry="0.7"/>
		<ellipse transform="matrix(0.3772 -0.9261 0.9261 0.3772 -5.783 15.5657)" class="st1" cx="8.7" cy="12.1" rx="0.7" ry="0.7"/>
		<ellipse transform="matrix(0.3777 -0.9259 0.9259 0.3777 -5.1376 18.6818)" class="st1" cx="11.3" cy="13.2" rx="0.7" ry="0.7"/>
		<ellipse transform="matrix(0.3777 -0.9259 0.9259 0.3777 -4.491 21.8039)" class="st1" cx="14" cy="14.2" rx="0.7" ry="0.7"/>
		<ellipse transform="matrix(0.3777 -0.9259 0.9259 0.3777 -3.8441 24.926)" class="st1" cx="16.6" cy="15.3" rx="0.7" ry="0.7"/>
		<ellipse transform="matrix(0.3775 -0.926 0.926 0.3775 -3.1934 28.0555)" class="st1" cx="19.3" cy="16.4" rx="0.7" ry="0.7"/>
		<ellipse transform="matrix(0.3777 -0.9259 0.9259 0.3777 -2.3575 16.4748)" class="st1" cx="11.1" cy="10" rx="0.7" ry="0.7"/>
		<ellipse transform="matrix(0.3783 -0.9257 0.9257 0.3783 -1.7166 19.5889)" class="st1" cx="13.7" cy="11.1" rx="0.7" ry="0.7"/>
		<ellipse transform="matrix(0.3786 -0.9256 0.9256 0.3786 -1.0732 22.7052)" class="st1" cx="16.4" cy="12.2" rx="0.7" ry="0.7"/>
		<ellipse transform="matrix(0.3775 -0.926 0.926 0.3775 -0.4131 25.8507)" class="st1" cx="19" cy="13.2" rx="0.7" ry="0.7"/>
		<ellipse transform="matrix(0.3774 -0.9261 0.9261 0.3774 0.2363 28.9772)" class="st1" cx="21.7" cy="14.3" rx="0.7" ry="0.7"/>
		<ellipse transform="matrix(0.3769 -0.9263 0.9263 0.3769 8.5862 22.3646)" class="st1" cx="20.9" cy="4.8" rx="0.7" ry="0.7"/>
		<ellipse transform="matrix(0.3777 -0.9259 0.9259 0.3777 9.2164 25.4772)" class="st1" cx="23.6" cy="5.9" rx="0.7" ry="0.7"/>
		<ellipse transform="matrix(0.3782 -0.9257 0.9257 0.3782 12.6343 26.3893)" class="st1" cx="26" cy="3.8" rx="0.7" ry="0.7"/>
		<ellipse transform="matrix(0.3789 -0.9254 0.9254 0.3789 1.057 17.3778)" class="st1" cx="13.5" cy="7.9" rx="0.7" ry="0.7"/>
		<ellipse transform="matrix(0.3786 -0.9256 0.9256 0.3786 1.7051 20.5024)" class="st1" cx="16.1" cy="9" rx="0.7" ry="0.7"/>
		<ellipse transform="matrix(0.3784 -0.9256 0.9256 0.3784 2.3531 23.6265)" class="st1" cx="18.8" cy="10.1" rx="0.7" ry="0.7"/>
		<ellipse transform="matrix(0.378 -0.9258 0.9258 0.378 3.0061 26.7581)" class="st1" cx="21.4" cy="11.1" rx="0.7" ry="0.7"/>
		<ellipse transform="matrix(0.3772 -0.9261 0.9261 0.3772 4.5026 18.3184)" class="st1" cx="15.9" cy="5.8" rx="0.7" ry="0.7"/>
		<ellipse transform="matrix(0.3774 -0.926 0.926 0.3774 5.1481 21.4391)" class="st1" cx="18.5" cy="6.9" rx="0.7" ry="0.7"/>
		<ellipse transform="matrix(0.378 -0.9258 0.9258 0.378 5.7854 24.5542)" class="st1" cx="21.2" cy="8" rx="0.7" ry="0.7"/>
		<ellipse transform="matrix(0.3775 -0.926 0.926 0.3775 6.4427 27.686)" class="st1" cx="23.8" cy="9.1" rx="0.7" ry="0.7"/>
	</g>
</g>
</svg>
