<?xml version="1.0" encoding="utf-8"?>
<!-- Generator: Adobe Illustrator 19.2.1, SVG Export Plug-In . SVG Version: 6.00 Build 0)  -->
<svg version="1.1" id="Layer_1" xmlns="http://www.w3.org/2000/svg" xmlns:xlink="http://www.w3.org/1999/xlink" x="0px" y="0px"
	 viewBox="0 0 48 48" style="enable-background:new 0 0 48 48;" xml:space="preserve">
<style type="text/css">
	.st0{fill:#FFFFFF;}
</style>
<g>
	<path class="st0" d="M35.2,46.9c2.4-2.3,3.2-8.2,3.2-10.1v-9.9c0-1.2-1.1-2.2-2.4-2.2s-2.4,1-2.4,2.2v3.3v-6.6
		c0-1.2-1.1-2.2-2.4-2.2c-1.3,0-2.4,1-2.4,2.2v5.5v-7.7c0-1.2-1.1-2.2-2.4-2.2s-2.4,1-2.4,2.2V28V13c0-1.2-1.1-2.2-2.4-2.2
		s-2.4,1-2.4,2.2v18.6c-0.2-1.3-1-2.2-2.4-2.2c-1.6,0-2.5,1.2-2.5,2.6v4.3c0,4.4,3,9.2,5.7,10.9h15.2V46.9z"/>
	<g>
		<circle cx="29.5" cy="34.9" r="0.6"/>
		<circle cx="23.7" cy="32.6" r="0.6"/>
		<circle cx="28.3" cy="32.6" r="0.6"/>
		<circle cx="34.2" cy="44.3" r="0.6"/>
		<circle cx="33.1" cy="41.9" r="0.6"/>
		<circle cx="35.4" cy="41.9" r="0.6"/>
		<circle cx="31.9" cy="39.6" r="0.6"/>
		<circle cx="34.2" cy="39.6" r="0.6"/>
		<circle cx="35.4" cy="32.5" r="0.6"/>
		<circle cx="35.5" cy="27.7" r="0.6"/>
		<circle cx="36.6" cy="30.1" r="0.6"/>
		<circle cx="33.1" cy="37.2" r="0.6"/>
		<circle cx="35.4" cy="37.2" r="0.6"/>
		<circle cx="31.9" cy="34.8" r="0.6"/>
		<circle cx="27.1" cy="34.8" r="0.6"/>
		<circle cx="26" cy="32.5" r="0.6"/>
		<circle cx="30.7" cy="32.5" r="0.6"/>
		<circle cx="30.7" cy="37.2" r="0.6"/>
		<circle cx="33.1" cy="32.5" r="0.6"/>
		<circle cx="34.2" cy="34.8" r="0.6"/>
		<circle cx="36.6" cy="34.8" r="0.6"/>
		<path d="M36.1,23.9c-0.5,0-1,0.1-1.4,0.3v-0.4c0-1.7-1.5-3.2-3.4-3.2c-0.5,0-1,0.1-1.5,0.3c-0.3-1.4-1.7-2.5-3.3-2.5
			c-0.5,0-1,0.1-1.4,0.3V16h8.6c0.9,0,1.6-0.7,1.6-1.6c0-0.9-0.7-1.6-1.6-1.6h-8l5.7-5.7c0.6-0.6,0.6-1.6,0-2.2s-1.6-0.6-2.2,0
			l-5.5,5.5c-0.1-0.1-0.3-0.2-0.4-0.2V1.6c0-0.9-0.7-1.6-1.6-1.6s-1.6,0.7-1.6,1.6v8.6c-0.1,0.1-0.3,0.1-0.4,0.2l-5.5-5.5
			c-0.6-0.6-1.6-0.6-2.2,0s-0.6,1.6,0,2.2l5.7,5.7h-7.6c-0.9,0-1.6,0.7-1.6,1.6c0,0.9,0.7,1.6,1.6,1.6h8.3v12.6
			c-0.4-0.2-0.9-0.3-1.4-0.3c-2,0-3.5,1.5-3.5,3.6v4.3c0,4.7,3.2,9.8,6.2,11.7c0.2,0.1,0.3,0.2,0.5,0.2h15c0.3,0,0.5-0.1,0.7-0.3
			c2.7-2.6,3.5-8.8,3.5-10.8V27C39.4,25.3,37.9,23.9,36.1,23.9z M37.5,36.9c0,1.8-0.8,6.9-2.7,9.1H20.7c-2.4-1.7-5.1-6.1-5.1-9.9
			v-4.3c0-0.8,0.4-1.6,1.5-1.6c0.3,0,1.2,0,1.4,1.4c0.1,0.5,0.5,0.9,1,0.8c0.5,0,0.9-0.5,0.9-1V12.9c0-0.7,0.6-1.2,1.4-1.2
			s1.4,0.5,1.4,1.2v15.3c0,0.5,0.4,1,1,1c0.6,0,1-0.4,1-1v-6.6c0-0.7,0.6-1.2,1.4-1.2s1.4,0.5,1.4,1.2v7.7c0,0.5,0.4,1,1,1
			c0.5,0,1-0.4,1-1v-5.5c0-0.7,0.6-1.2,1.4-1.2c0.8,0,1.4,0.5,1.4,1.2v6.6c0,0.5,0.4,1,1,1c0.5,0,1-0.4,1-1V27
			c0-0.7,0.6-1.2,1.4-1.2c0.8,0,1.4,0.5,1.4,1.2V36.9z"/>
	</g>
</g>
</svg>
