<?xml version="1.0" encoding="utf-8"?>
<!-- Generator: Adobe Illustrator 19.2.1, SVG Export Plug-In . SVG Version: 6.00 Build 0)  -->
<svg version="1.1" id="Layer_1" xmlns="http://www.w3.org/2000/svg" xmlns:xlink="http://www.w3.org/1999/xlink" x="0px" y="0px"
	 viewBox="0 0 48 48" style="enable-background:new 0 0 48 48;" xml:space="preserve">
<style type="text/css">
	.st0{fill:#FFFFFF;}
</style>
<g>
	<polygon class="st0" points="22.8,25.5 7.9,4.9 40.2,4.9 25.2,25.5 	"/>
	<g>
		<path d="M41,5.4c0.2-0.3,0.2-0.7,0.1-1c-0.2-0.3-0.5-0.5-0.8-0.5h-5L37.5,1c0.2-0.3,0.2-0.7-0.1-0.9c-0.3-0.2-0.7-0.1-0.9,0.1
			l-2.8,3.7H7.9C7.5,3.9,7.2,4.1,7,4.4c-0.2,0.3-0.1,0.7,0.1,1l14.8,20.3v15v0.1c-1.5,2.8-7.2,4.9-9.3,5.4c-0.5,0.1-0.7,0.6-0.7,1
			c0.1,0.5,0.5,0.8,0.9,0.8h22.4c0.5,0,0.9-0.3,0.9-0.8c0.1-0.5-0.2-0.9-0.7-1c-2-0.6-7.5-2.6-9.1-5.2V25.8L41,5.4z M25,24.1
			c-0.8,0.6-1.5,0.4-2.1,0l-0.7-1l0,0c0.4,0,0.7-0.3,0.7-0.7c0-0.4-0.3-0.7-0.7-0.7c-0.3,0-0.6,0.2-0.6,0.5L16,14.5
			c0-0.1,0.1-0.2,0.1-0.3c0-0.4-0.3-0.7-0.7-0.7h-0.1l-1-1.4c0.2-0.1,0.4-0.3,0.4-0.6c0.5-0.2,1-0.3,1.5-0.4
			c-0.1,0.1-0.1,0.2-0.1,0.4c0,0.4,0.3,0.7,0.7,0.7s0.7-0.3,0.7-0.7c0-0.2-0.1-0.4-0.3-0.5c0.2,0,0.4-0.1,0.7-0.1c0.4,0,0.9,0,1.3,0
			c-0.2,0.1-0.3,0.3-0.3,0.6c0,0.4,0.3,0.7,0.7,0.7c0.4,0,0.7-0.3,0.7-0.7c0-0.2-0.1-0.4-0.3-0.5c0.6,0,1.2,0.1,1.8,0.2
			c-0.1,0.1-0.1,0.2-0.1,0.4c0,0.4,0.3,0.7,0.7,0.7c0.4,0,0.7-0.3,0.7-0.7c0-0.1,0-0.1,0-0.2c0.5,0.1,0.9,0.2,1.4,0.2
			c0,0.3,0.3,0.6,0.7,0.6c0.3,0,0.5-0.2,0.6-0.4c0.2,0,0.4,0.1,0.5,0.1l0.6,0.1c0.3,0,0.5,0.1,0.7,0.1l-0.9,1.2
			c-0.4-0.1-0.7-0.2-1-0.2c-0.6,0-1.2,0.2-1.6,0.6c-0.1-0.1-0.3-0.2-0.5-0.2c-0.4,0-0.7,0.3-0.7,0.7c0,0.3,0.2,0.5,0.5,0.6
			c-0.1,0.2-0.1,0.5-0.1,0.8c0,0.6,0.2,1.1,0.5,1.5l-1.3,1.7c-0.2,0.3-0.2,0.7,0.1,0.9c0.1,0.1,0.2,0.1,0.4,0.1l0,0
			c0.1,0.3,0.3,0.5,0.6,0.5c0.4,0,0.7-0.3,0.7-0.7c0-0.3-0.2-0.5-0.4-0.6l0.9-1.2c0.3,0.1,0.6,0.2,1,0.2c0.6,0,1.2-0.2,1.6-0.6
			c0.1,0.1,0.3,0.2,0.4,0.2c0.4,0,0.7-0.3,0.7-0.7c0-0.3-0.2-0.5-0.4-0.6c0.1-0.2,0.1-0.5,0.1-0.7c0-0.6-0.2-1.1-0.5-1.5l1.3-1.7
			c1,0.1,2,0.2,2.8,0.2c0.7,0,1.3-0.1,1.8-0.1L32.6,14c-0.1-0.2-0.3-0.4-0.6-0.4c-0.4,0-0.7,0.3-0.7,0.7c0,0.4,0.3,0.6,0.6,0.7
			l-1,1.4c-0.1,0-0.2-0.1-0.3-0.1c-0.4,0-0.7,0.3-0.7,0.7c0,0.2,0.1,0.3,0.2,0.4l-1.3,1.7c-0.1,0.1-0.2,0.2-0.2,0.3L25,24.1z
			 M38.4,5.8l-3.6,4.9c-0.9,0.4-2.4,0.6-4.9,0.3l4-5.3h4.5V5.8z M32.3,5.8L28.3,11c-0.4-0.1-0.9-0.1-1.4-0.2l-0.6-0.1
			c-2.8-0.5-5.7-1.1-8.6-1c-1.7,0.1-2.9,0.5-4.3,1l-0.2,0.1L9.7,5.8H32.3z"/>
		<ellipse cx="19.5" cy="16.9" rx="0.7" ry="0.7"/>
		<ellipse cx="22.2" cy="16.9" rx="0.7" ry="0.7"/>
		<ellipse cx="18.1" cy="14.2" rx="0.7" ry="0.7"/>
		<ellipse cx="20.8" cy="14.2" rx="0.7" ry="0.7"/>
		<ellipse cx="29.1" cy="14.2" rx="0.7" ry="0.7"/>
		<ellipse cx="25" cy="22.4" rx="0.7" ry="0.7"/>
		<ellipse cx="20.8" cy="19.6" rx="0.7" ry="0.7"/>
		<ellipse cx="26.3" cy="19.6" rx="0.7" ry="0.7"/>
	</g>
</g>
</svg>
