<?xml version="1.0" encoding="utf-8"?>
<!-- Generator: Adobe Illustrator 19.2.1, SVG Export Plug-In . SVG Version: 6.00 Build 0)  -->
<svg version="1.1" id="Layer_1" xmlns="http://www.w3.org/2000/svg" xmlns:xlink="http://www.w3.org/1999/xlink" x="0px" y="0px"
	 viewBox="0 0 48 48" style="enable-background:new 0 0 48 48;" xml:space="preserve">
<style type="text/css">
	.st0{fill:#FFFFFF;}
</style>
<g>
	<path class="st0" d="M13.8,21.6c1.4-2.5-3.2-6.2-3.2-6.2s-4-3-2.2-5.6c2.1-2.8,5.1-1.2,6.6,0.8c1.5,2,4.6,3.7,5.5,0.2
		c0.9-3.6-2.3-10.2,4.4-9.6s3.4,6.7,2.2,8.6c-1.1,1.9,2.3,3.3,5.3,2s4.1,0.7,3.3,2.7c-0.5,1.2-0.3,3.3,2.1,3
		c2.2-0.3,3.3,2.7,0.8,3.8c-0.8,0.4-3.1,0.5-4.9,0.3C26.3,28.6,16.7,25.7,13.8,21.6z"/>
	<g>
		<path d="M34.9,25.5v-2.5c0.2,0,0.3,0,0.5,0c0.6,0,2.6,0,3.7-0.5c1.6-0.7,2.4-2.1,2.1-3.6c-0.3-1.6-1.8-2.7-3.5-2.4
			c-0.1,0-0.2,0-0.3,0c-0.4,0-0.5-0.1-0.5-0.2c-0.2-0.3-0.2-0.8,0-1.2c0.5-1.3,0.4-2.6-0.2-3.5c-0.9-1.3-2.7-1.6-4.7-0.7
			c-0.6,0.3-1.3,0.4-2,0.4c-1.1,0-1.8-0.4-1.9-0.6c0,0,0-0.1,0.1-0.1c2-3.3,2.5-6,1.5-7.9C28.9,1.1,27.3,0.2,25,0c-0.3,0-0.7,0-1,0
			c-1.6,0-2.8,0.4-3.6,1.3c-1.4,1.5-1.2,3.7-1,5.9c0.1,1.2,0.2,2.4,0,3.3c-0.2,0.8-0.5,1.1-0.8,1.1c-0.7,0-1.7-0.8-2.5-1.8
			c-1.3-1.7-3.2-2.7-4.9-2.7c-1,0-2.4,0.4-3.7,2c-2,2.8,0.6,5.9,2.4,7.2c1.3,1.1,3.5,3.5,2.9,4.6l0,0c-0.1,0.1-0.1,0.2-0.1,0.3v0.1
			c0,0.1,0,0.1,0,0.2v22.7c0,0.4,0.2,0.8,0.6,1.1c3.1,1.7,6.6,2.6,9.9,2.6c0.2,0,0.4,0,0.6,0s0.4,0,0.7,0c3.4,0,6.8-0.9,9.9-2.6
			c0.4-0.2,0.6-0.6,0.6-1.1v-4.2c3.3-0.2,5.9-3.4,5.9-7.3C40.8,28.9,38.2,25.7,34.9,25.5z M33.9,20.4c-0.1,0-0.2,0-0.3,0l0,0
			c-0.1,0-0.1,0-0.2,0h-0.1c0,0-0.1,0-0.1,0.1c-2.6,1.4-5.6,2.2-8.6,2.2c-0.2,0-0.5,0-0.8,0c-0.2,0-0.5,0-0.7,0
			c-2.7,0-5.4-0.6-7.8-1.7c0.3-3-3.4-6.1-3.9-6.5c0,0-3-2.4-1.9-3.9c0.5-0.7,1.1-1,1.7-1c0.9,0,2.1,0.7,3,1.8c1,1.3,2.7,2.7,4.4,2.7
			c0.7,0,2.5-0.3,3.1-3c0.3-1.2,0.2-2.6,0.1-4c-0.1-1.7-0.2-3.4,0.4-4.1c0.4-0.4,1.3-0.6,2.5-0.5c1.5,0.1,2.4,0.6,2.8,1.3
			C27.8,4.4,28,6,26,9.3c-0.5,0.8-0.5,1.8-0.1,2.5c0.6,1.1,2.1,1.8,4,1.8c1,0,2-0.2,3-0.6c0.6-0.3,1-0.3,1.3-0.3
			c0.4,0,0.5,0.1,0.5,0.2c0.1,0.2,0.2,0.7,0,1.3c-0.3,0.9-0.5,2.4,0.3,3.5c0.5,0.8,1.4,1.2,2.5,1.2c0.2,0,0.4,0,0.6,0
			c0.5-0.1,0.8,0.2,0.8,0.5c0.1,0.5-0.4,0.8-0.7,0.9c-0.3,0.1-1.3,0.3-2.7,0.3C34.9,20.5,34.3,20.5,33.9,20.4z M34.9,37.7v-9.8
			c2,0.3,3.5,2.3,3.5,4.9S36.9,37.5,34.9,37.7z"/>
		<circle cx="15.3" cy="17.2" r="0.7"/>
		<circle cx="13.9" cy="14.3" r="0.7"/>
		<circle cx="12.4" cy="11.4" r="0.7"/>
		<circle cx="18.2" cy="17.2" r="0.7"/>
		<circle cx="19.7" cy="20.1" r="0.7"/>
		<circle cx="16.8" cy="20.1" r="0.7"/>
		<circle cx="22.6" cy="20.1" r="0.7"/>
		<circle cx="25.5" cy="20.1" r="0.7"/>
		<circle cx="28.3" cy="20.1" r="0.7"/>
		<circle cx="29.8" cy="17.2" r="0.7"/>
		<circle cx="31.2" cy="20.1" r="0.7"/>
		<circle cx="32.7" cy="17.2" r="0.7"/>
	</g>
</g>
</svg>
