<?xml version="1.0" encoding="utf-8"?>
<!-- Generator: Adobe Illustrator 19.2.1, SVG Export Plug-In . SVG Version: 6.00 Build 0)  -->
<svg version="1.1" id="Layer_1" xmlns="http://www.w3.org/2000/svg" xmlns:xlink="http://www.w3.org/1999/xlink" x="0px" y="0px"
	 viewBox="0 0 48 48" style="enable-background:new 0 0 48 48;" xml:space="preserve">
<style type="text/css">
	.st0{fill:#FFFFFF;}
	.st1{fill:#1A1A18;}
</style>
<g>
	<path class="st0" d="M47,25.5l-4.1-0.9l0,0c0-0.1,0-0.2,0-0.3C42.6,12.7,33,3.5,21.4,3.8c-1.9,0-3.8,0.4-5.5,0.9l-5.5-2.4l1.4,4.2
		l0,0C5.2,10.2,0.8,17.3,1,25.3c0.1,5.2,2.2,10,5.5,13.6l-0.2,6.8l4-3.5l0,0c3.5,2.3,7.7,3.7,12.2,3.6c10-0.3,18.2-7.5,20-16.9
		L47,25.5z M22.3,38.4c-2.2,0.1-4.3-0.4-6.1-1.3l3.4-2.9l-8.2-0.8c-1.8-2.3-3-5.1-3.1-8.2c-0.1-4.7,2.2-8.9,5.7-11.5l1.4,4.3l4-6.6
		c0.7-0.1,1.4-0.2,2.1-0.2c7-0.2,12.9,5,13.8,11.8l-4.4-1l3.8,7.1C33.2,34.3,28.2,38.3,22.3,38.4z"/>
	<g>
		<ellipse transform="matrix(0.1679 -0.9858 0.9858 0.1679 -24.0895 26.5709)" class="st1" cx="3.7" cy="27.6" rx="0.6" ry="0.6"/>
		<ellipse transform="matrix(0.168 -0.9858 0.9858 0.168 -22.4972 29.2767)" class="st1" cx="6.1" cy="28" rx="0.6" ry="0.6"/>
		<ellipse transform="matrix(0.168 -0.9858 0.9858 0.168 -25.9547 29.4895)" class="st1" cx="4.5" cy="30.1" rx="0.6" ry="0.6"/>
		<ellipse transform="matrix(0.1679 -0.9858 0.9858 0.1679 -24.3608 32.1981)" class="st1" cx="6.9" cy="30.5" rx="0.6" ry="0.6"/>
		<ellipse transform="matrix(0.168 -0.9858 0.9858 0.168 -20.5859 26.3299)" class="st1" cx="5.3" cy="25.4" rx="0.6" ry="0.6"/>
		<ellipse transform="matrix(0.9409 -0.3388 0.3388 0.9409 -11.0477 13.9197)" class="st1" cx="34.3" cy="38.6" rx="0.6" ry="0.6"/>
		<ellipse transform="matrix(0.9405 -0.3397 0.3397 0.9405 -10.3425 13.5468)" class="st1" cx="33.5" cy="36.3" rx="0.6" ry="0.6"/>
		<ellipse transform="matrix(0.9409 -0.3388 0.3388 0.9409 -10.2754 14.4261)" class="st1" cx="36.2" cy="36.6" rx="0.6" ry="0.6"/>
		<ellipse transform="matrix(0.9405 -0.3397 0.3397 0.9405 -9.568 14.0552)" class="st1" cx="35.4" cy="34.4" rx="0.6" ry="0.6"/>
		<ellipse transform="matrix(0.9404 -0.34 0.34 0.9404 -11.1304 13.0373)" class="st1" cx="31.6" cy="38.3" rx="0.6" ry="0.6"/>
		<ellipse transform="matrix(0.6717 -0.7408 0.7408 0.6717 3.7193 23.4223)" class="st1" cx="28.3" cy="7.5" rx="0.6" ry="0.6"/>
		<ellipse transform="matrix(0.6721 -0.7405 0.7405 0.6721 1.84 22.7901)" class="st1" cx="26.7" cy="9.3" rx="0.6" ry="0.6"/>
		<ellipse transform="matrix(0.6717 -0.7408 0.7408 0.6717 3.3927 21.271)" class="st1" cx="25.7" cy="6.8" rx="0.6" ry="0.6"/>
		<ellipse transform="matrix(0.6721 -0.7405 0.7405 0.6721 1.5144 20.6405)" class="st1" cx="24.1" cy="8.6" rx="0.6" ry="0.6"/>
		<ellipse transform="matrix(0.6718 -0.7408 0.7408 0.6718 2.1615 24.9844)" class="st1" cx="29.3" cy="10.1" rx="0.6" ry="0.6"/>
		<path class="st1" d="M48,25.3c-0.1-0.4-0.4-0.7-0.8-0.8l-3.3-0.7C43.3,12,33.3,2.5,21.4,2.8c-1.9,0-3.7,0.3-5.4,0.8l-5.2-2.3
			C10.4,1.2,10,1.3,9.7,1.5C9.4,1.8,9.3,2.2,9.4,2.6L10.5,6C4.1,10-0.2,17.2,0,25.3c0.1,5.3,2.2,10.1,5.4,13.8l-0.2,6.4
			c0,0.4,0.2,0.8,0.6,0.9c0.1,0.1,0.3,0.1,0.4,0.1c0.2,0,0.5-0.1,0.7-0.2l3.5-3c3.4,2.1,7.3,3.3,11.5,3.3c0.2,0,0.4,0,0.6,0
			c10.3-0.3,18.8-7.6,20.9-17.3l4.2-3.1C47.9,26.1,48.1,25.7,48,25.3z M6.8,31.8c-0.3,0-0.6,0.1-0.8,0.2c-0.2,0.2-0.3,0.5-0.3,0.7
			L5.6,36C3.4,32.9,2.1,29.2,2,25.3C1.8,17.7,5.9,11,12.1,7.5l0,0h0c0.5-0.2,0.8-0.7,0.6-1.3l-0.7-2l8.4,3.7l-4.7,7.7L15,13.3
			c-0.2-0.5-0.7-0.8-1.3-0.6l0,0c-0.1,0.1-0.1,0.1-0.2,0.2c-0.1,0-0.1,0.1-0.2,0.1c-3.8,2.7-6.2,7.2-6.1,12.2c0.1,2.5,0.8,4.9,2,7
			L6.8,31.8z M30.2,22.4l3.6,6.7c-1.7,4.7-6.2,8.2-11.5,8.3c-1.4,0-2.8-0.2-4.2-0.6l2.1-1.8c0.3-0.3,0.4-0.7,0.3-1.1
			c-0.1-0.4-0.5-0.7-0.9-0.7L12,32.4c-1.6-2-2.5-4.6-2.6-7.3c-0.1-3.9,1.6-7.3,4.2-9.7l1,2.9c0.1,0.4,0.5,0.6,0.8,0.7
			c0,0,0.1,0,0.1,0c0.4,0,0.7-0.2,0.9-0.5l3.8-6.2c0.5-0.1,1-0.1,1.5-0.1l0.3,0c5.8,0,10.8,4,12.2,9.4l-2.8-0.6
			c-0.4-0.1-0.8,0.1-1,0.4C30.1,21.6,30,22,30.2,22.4z M22.5,44.7c-0.2,0-0.3,0-0.5,0c-4,0-7.7-1.2-10.8-3.3l-0.1,0
			c-0.4-0.4-1-0.5-1.4-0.1l-2.3,2L7.6,34l9.5,1l-1.6,1.4c-0.4,0.4-0.5,1-0.1,1.4l0,0c0.1,0,0.2,0.1,0.2,0.1c0.1,0.1,0.2,0.1,0.3,0.1
			c1.9,0.9,3.9,1.4,6.1,1.4c0.1,0,0.2,0,0.4,0c5.6-0.1,10.3-3.4,12.7-8l1.1,2c0.1,0.3,0.4,0.4,0.7,0.5c0.1,0,0.1,0,0.2,0
			c0.2,0,0.4-0.1,0.6-0.2l3.1-2.3C38.1,39,30.9,44.5,22.5,44.7z M37.3,31.4l-4.3-8l2.2,0.5c0.5,0.1,1.1-0.2,1.2-0.8l0.1,0
			c0-0.1,0-0.2,0-0.3c0-0.1,0-0.2,0-0.3C35.3,15.5,29,9.9,21.6,10.1c-0.1,0-0.1,0-0.2,0l1.4-2.2C22.9,7.6,23,7.3,22.9,7
			c-0.1-0.3-0.3-0.5-0.6-0.6L19.2,5c0.8-0.1,1.5-0.2,2.3-0.2c0.2,0,0.3,0,0.5,0c10.7,0,19.6,8.7,19.9,19.4c0,0,0,0.1,0,0.1l0,0v0
			c-0.1,0.5,0.2,1.1,0.8,1.2l1.9,0.4L37.3,31.4z"/>
	</g>
</g>
</svg>
