<?xml version="1.0" encoding="utf-8"?>
<!-- Generator: Adobe Illustrator 19.2.1, SVG Export Plug-In . SVG Version: 6.00 Build 0)  -->
<svg version="1.1" id="Layer_1" xmlns="http://www.w3.org/2000/svg" xmlns:xlink="http://www.w3.org/1999/xlink" x="0px" y="0px"
	 viewBox="0 0 48 48" style="enable-background:new 0 0 48 48;" xml:space="preserve">
<style type="text/css">
	.st0{fill:#FFFFFF;}
	.st1{fill:#1A1A18;}
</style>
<g>
	<g>
		<path class="st0" d="M41.9,38c-7.6,8.8-8,0.8-8,0.8v-6h-4.7v-0.1l-5.2,0.1v-0.1H19h-4.9v6c0,0-0.4,8-8-0.8c0,0-0.9,9,6,9
			c0.9,0,1.6-0.1,2.3-0.3c0.8,0.2,1.7,0.3,2.6,0.3c6.9,0,6.9-8.2,6.9-8.2v0.1c0,0,0,8.2,6.9,8.2c1,0,1.8-0.1,2.7-0.4
			c0.7,0.2,1.5,0.4,2.4,0.4C42.8,46.9,41.9,38,41.9,38z"/>
		<path class="st0" d="M19.1,26.9c2.3,0,4.1-1.8,4.1-4.1c0-0.1,0-0.2-0.1-0.3c-0.1-0.1-0.2-0.1-0.3-0.1h-7.4c-0.1,0-0.2,0-0.3,0.1
			c-0.1,0.1-0.1,0.2-0.1,0.3C15,25.1,16.8,26.9,19.1,26.9z"/>
		<path class="st0" d="M29.1,26.9c2.3,0,4.1-1.8,4.1-4.1c0-0.1,0-0.2-0.1-0.3c-0.1-0.1-0.2-0.1-0.3-0.1h-7.4c-0.1,0-0.2,0-0.3,0.1
			c-0.1,0.1-0.1,0.2-0.1,0.3C25,25.1,26.8,26.9,29.1,26.9z"/>
	</g>
	<path class="st1" d="M43,37.9c0-0.4-0.3-0.8-0.7-0.9c-0.4-0.1-0.8,0-1.1,0.3c-2.9,3.4-4.4,3.8-4.9,3.8c-1.1,0-1.3-2.3-1.3-2.3v-6
		c0,0,0,0,0,0c0,0,0,0,0-0.1v-4.1c2.8-2.3,5.2-8,5.2-12.5C40.1,7.2,32.9,0,24,0S7.9,7.2,7.9,16.1c0,4.5,2.4,10.2,5.2,12.5v4.1
		c0,0,0,0,0,0c0,0,0,0,0,0l0,5.9c0,0-0.2,2.4-1.3,2.4c-0.5,0-2-0.4-4.9-3.8c-0.3-0.3-0.7-0.4-1.1-0.3C5.4,37,5.1,37.4,5,37.8
		C5,38,4.6,43,7.2,45.9c1.2,1.3,2.9,2,4.9,2c0.8,0,1.6-0.1,2.3-0.3c0,0,0,0,0,0c0.8,0.2,1.7,0.3,2.6,0.3c3.7,0,5.8-2.1,6.9-4.5
		c1.1,2.4,3.2,4.5,6.9,4.5c1,0,1.9-0.1,2.7-0.3l0,0c0.7,0.2,1.5,0.3,2.4,0.3c2,0,3.7-0.7,4.9-2C43.4,43.1,43,38.1,43,37.9z
		 M12.1,45.8c-1.4,0-2.5-0.4-3.3-1.3c-1-1-1.4-2.5-1.6-3.8c1.7,1.6,3.2,2.4,4.5,2.4h0c2.5,0,3.3-2.7,3.4-4.4v-4.9H18v4.9
		C18,39,17.9,45.8,12.1,45.8z M22.9,38.7c0,0.3-0.1,6.8-5.4,7.1c0,0,0,0,0,0c2-2.1,2.6-5.1,2.6-7.1v-4.9h2.8V38.7z M19.1,26.9
		c-2.3,0-4.1-1.8-4.1-4.1c0-0.1,0-0.2,0.1-0.3c0.1-0.1,0.2-0.1,0.3-0.1h7.4c0.1,0,0.2,0,0.3,0.1c0.1,0.1,0.1,0.2,0.1,0.3
		C23.2,25.1,21.3,26.9,19.1,26.9z M25.1,22.5c0.1-0.1,0.2-0.1,0.3-0.1h7.4c0.1,0,0.2,0,0.3,0.1c0.1,0.1,0.1,0.2,0.1,0.3
		c0,2.3-1.9,4.1-4.1,4.1c-2.3,0-4.1-1.8-4.1-4.1C24.9,22.7,25,22.6,25.1,22.5z M25,38.7L25,38.7v-4.9l2.9,0v4.9c0,2,0.6,5.1,2.6,7.1
		C25.1,45.6,25,39,25,38.7z M39.2,44.6c-0.8,0.9-1.9,1.3-3.3,1.3c-5.7,0-5.8-6.9-5.8-7.2v-4.9h2.8l0,4.9c0.1,1.6,0.9,4.4,3.4,4.4h0
		c1.3,0,2.8-0.8,4.5-2.4C40.6,42,40.2,43.5,39.2,44.6z"/>
</g>
</svg>
