<?xml version="1.0" encoding="utf-8"?>
<!-- Generator: Adobe Illustrator 19.2.1, SVG Export Plug-In . SVG Version: 6.00 Build 0)  -->
<svg version="1.1" id="Layer_1" xmlns="http://www.w3.org/2000/svg" xmlns:xlink="http://www.w3.org/1999/xlink" x="0px" y="0px"
	 viewBox="0 0 48 48" style="enable-background:new 0 0 48 48;" xml:space="preserve">
<style type="text/css">
	.st0{fill:#FFFFFF;}
</style>
<g>
	<g>
		<path class="st0" d="M40.6,14.6c-0.4,0-0.8-0.2-1-0.5c-0.2-0.3-2.4-3.1-6.5-4.9c-3.3-1.5-7.5-1.5-10.8-1.5h-0.7
			c-0.7,0-1.3-0.6-1.3-1.3s0.6-1.3,1.3-1.3h0.7c3.4,0,8,0,11.8,1.7c4.6,2,7.1,5.1,7.5,5.7c0.4,0.6,0.3,1.3-0.2,1.8
			C41.1,14.5,40.8,14.6,40.6,14.6z"/>
	</g>
	<path d="M26.1,2.1c-1,0-2.6,0-4.4,0c-0.3,0-9.7,0-10,0c-4.9,0-10.7,0-10.7,0C0.4,2.1,0,2.4,0,2.9v42.3c0,0.5,0.4,0.8,0.8,0.8
		c0,0,5.4,0,10.1,0c0.3,0,9.7,0,10,0c2,0,3.9,0,5,0c14.9,0,22-10.2,22-22.2C48.1,12.7,41.1,2.1,26.1,2.1z M23.8,34.6h-1.5h-9.6V13.4
		h9.5h1.6c8.5,0,12.4,3.3,12.4,10.4C36.2,31.2,32.3,34.6,23.8,34.6z M41.3,14.4c-0.2,0.2-0.5,0.3-0.8,0.3c-0.4,0-0.8-0.2-1-0.5
		s-2.4-3.1-6.5-4.9c-3.3-1.5-7.5-1.5-10.8-1.5h-0.7c-0.7,0-1.3-0.6-1.3-1.3s0.6-1.3,1.3-1.3h0.7c3.4,0,8,0,11.8,1.7
		c4.6,2,7.1,5.1,7.5,5.7C42,13.2,41.9,13.9,41.3,14.4z"/>
</g>
</svg>
