<?xml version="1.0" encoding="utf-8"?>
<!-- Generator: Adobe Illustrator 19.2.1, SVG Export Plug-In . SVG Version: 6.00 Build 0)  -->
<svg version="1.1" id="Layer_1" xmlns="http://www.w3.org/2000/svg" xmlns:xlink="http://www.w3.org/1999/xlink" x="0px" y="0px"
	 viewBox="0 0 48 48" style="enable-background:new 0 0 48 48;" xml:space="preserve">
<style type="text/css">
	.st0{fill:#FFFFFF;}
	.st1{fill:#1A1A18;}
</style>
<g>
	<path class="st0" d="M32.7,6.6c0-2.5-3.9-4.6-8.7-4.6s-8.7,2-8.7,4.6h0v34.7c0,2.5,3.9,4.7,8.7,4.7s8.7-2.1,8.7-4.7L32.7,6.6
		L32.7,6.6z"/>
	<g>
		<path class="st1" d="M20.9,13.5c-0.2,0.1-0.4,0.3-0.3,0.5l1.6,11.4l-2.9-0.5c-0.2,0-0.3,0-0.4,0.2c-0.1,0.1-0.1,0.3,0,0.5
			l7.4,15.4c0.1,0.2,0.2,0.3,0.4,0.3h0c0.3,0,0.5-0.2,0.5-0.5c0-0.1,0-0.1,0-0.2l-1.6-11.2l2.9,0.5c0.2,0,0.3,0,0.4-0.2
			c0.1-0.1,0.1-0.3,0-0.5l-7.4-15.4C21.4,13.5,21.2,13.4,20.9,13.5z"/>
		<circle class="st1" cx="22.6" cy="43.3" r="0.7"/>
		<circle class="st1" cx="25.3" cy="43.3" r="0.7"/>
		<circle class="st1" cx="18.4" cy="40.5" r="0.7"/>
		<circle class="st1" cx="19.8" cy="37.7" r="0.7"/>
		<circle class="st1" cx="22.6" cy="37.7" r="0.7"/>
		<circle class="st1" cx="18.4" cy="34.9" r="0.7"/>
		<circle class="st1" cx="21.2" cy="34.9" r="0.7"/>
		<circle class="st1" cx="19.8" cy="32.1" r="0.7"/>
		<circle class="st1" cx="18.4" cy="29.3" r="0.7"/>
		<circle class="st1" cx="21.2" cy="40.5" r="0.7"/>
		<circle class="st1" cx="24" cy="40.5" r="0.7"/>
		<path class="st1" d="M20.7,8.1l2.3,0c0,0,0,0,0.1,0c1.3,0,2.3-0.7,2.3-1.6c0-0.4-0.1-0.7-0.4-1c-0.4-0.4-1.1-0.7-1.9-0.7l-2.4,0
			c-1.3,0-2.3,0.7-2.3,1.6c0,0.4,0.1,0.7,0.4,1C19.2,7.8,19.9,8.1,20.7,8.1z M20.7,6.2L20.7,6.2l2.3,0c0.5,0,0.8,0.2,0.9,0.3
			c-0.1,0.1-0.4,0.2-0.9,0.2l0,0l-2.3,0c-0.5,0-0.8-0.2-0.9-0.3C19.9,6.3,20.2,6.2,20.7,6.2z"/>
		<path class="st1" d="M47.6,6.5c-0.7-1.2-2.3-1.6-3.5-0.9l-10.3,6.1l0-5.1c0-0.1,0-0.2,0-0.2c-0.2-3.1-4.5-5.5-9.8-5.5
			c-5.5,0-9.8,2.5-9.9,5.7c0,0,0,0,0,0v5.1L3.8,5.6C2.6,4.9,1.1,5.3,0.4,6.5C-0.4,7.7,0,9.3,1.2,10l2.8,1.7
			c-0.4,0.2-0.7,0.5-0.9,0.9c-0.7,1.2-0.3,2.8,0.9,3.5l1.8,1.1c-0.4,0.2-0.7,0.5-0.9,0.9c-0.7,1.2-0.3,2.8,0.9,3.5l2.8,1.7
			c-0.4,0.2-0.7,0.5-0.9,0.9c-0.7,1.2-0.3,2.8,0.9,3.5l2.1,1.2c-0.4,0.2-0.7,0.5-0.9,0.9c-0.7,1.2-0.3,2.8,0.9,3.5l3.6,2.1v6
			c0,3.3,4.3,5.8,9.9,5.8c5.5,0,9.9-2.6,9.9-5.8l0-6l3.6-2.1c1.2-0.7,1.6-2.3,0.9-3.5c-0.2-0.4-0.6-0.7-0.9-0.9l2.1-1.2
			c1.2-0.7,1.6-2.3,0.9-3.5c-0.2-0.4-0.6-0.7-0.9-0.9l2.8-1.7c1.2-0.7,1.6-2.3,0.9-3.5c-0.2-0.4-0.6-0.7-0.9-0.9l1.8-1.1
			c1.2-0.7,1.6-2.3,0.9-3.5c-0.2-0.4-0.6-0.7-0.9-0.9l2.8-1.7C48,9.3,48.4,7.7,47.6,6.5z M24,3.2c4.3,0,7.5,1.8,7.5,3.4
			s-3.2,3.4-7.5,3.4c-4.3,0-7.5-1.8-7.5-3.4S19.7,3.2,24,3.2z M31.5,41.3c0,1.7-3.2,3.5-7.6,3.5c-4.3,0-7.5-1.9-7.5-3.5V10.4
			c1.8,1.2,4.5,2,7.5,2c3.1,0,5.8-0.8,7.6-2L31.5,41.3z"/>
	</g>
</g>
</svg>
