<?xml version="1.0" encoding="utf-8"?>
<!-- Generator: Adobe Illustrator 19.2.1, SVG Export Plug-In . SVG Version: 6.00 Build 0)  -->
<svg version="1.1" id="Layer_1" xmlns="http://www.w3.org/2000/svg" xmlns:xlink="http://www.w3.org/1999/xlink" x="0px" y="0px"
	 viewBox="0 0 48 48" style="enable-background:new 0 0 48 48;" xml:space="preserve">
<style type="text/css">
	.st0{fill:#FFFFFF;}
</style>
<g>
	<polygon class="st0" points="38.3,41.9 35.1,20.6 34.3,15 32.1,1 12.5,3.9 12.5,4 12.5,4 9.7,7.4 12.7,27.1 20.1,26 23.3,47.2 
		35.5,45.3 38.3,41.9 	"/>
	<g>
		<path d="M39.3,41.8l-6.2-41C33,0.3,32.5,0,32,0L12.4,3c-0.3,0-0.5,0.2-0.6,0.4L8.9,6.8C8.8,7,8.7,7.3,8.7,7.5l3,19.7
			c0,0.1,0,0.1,0.1,0.1c0,0.1,0,0.1,0.1,0.2c0,0.1,0.1,0.1,0.1,0.2c0,0,0,0.1,0.1,0.1l0,0c0,0,0.1,0,0.1,0.1c0.1,0,0.1,0.1,0.2,0.1
			h0.1c0.1,0,0.1,0,0.2,0c0,0,0,0,0.1,0h0.1l6.5-1l3.1,20.2c0,0.1,0,0.1,0.1,0.1c0,0.1,0,0.1,0.1,0.2c0,0.1,0.1,0.1,0.1,0.2l0.1,0.1
			l0,0l0,0c0.1,0,0.1,0.1,0.2,0.1h0.1c0.1,0,0.2,0,0.3,0l0,0l0,0l0,0h0.1l12.2-1.8c0.2,0,0.4-0.2,0.6-0.3l2.8-3.4l0,0
			C39.2,42.3,39.3,42,39.3,41.8z M37.2,41.1l-10.3,1.6l-3.1-20.2c-0.1-0.5-0.5-0.8-0.9-0.8h-0.1l-6.5,1v-0.3h0.1
			c0.4,0.1,0.7-0.2,0.8-0.5c0.1-0.4-0.2-0.7-0.5-0.8c-0.2,0-0.4,0-0.5,0.1l-0.3-1.7c0.2-0.1,0.5-0.3,0.5-0.5
			c0.1-0.4-0.2-0.7-0.5-0.8c-0.1,0-0.1,0-0.2,0l-0.3-1.9c0.1-0.1,0.1-0.2,0.2-0.3c0.1-0.3-0.1-0.6-0.3-0.7l-0.4-2.3
			c0-0.1,0.1-0.1,0.1-0.2c0-0.2,0-0.4-0.2-0.6l-1.1-7.3h0.1c-0.1,0,0.1,0.1,0.2,0.2c0.3,0.1,0.6-0.1,0.7-0.4l1.8-0.3
			c-0.2,0.1-0.3,0.3-0.3,0.5c-0.1,0.4,0.2,0.7,0.5,0.8c0.4,0.1,0.7-0.2,0.8-0.5c0.1-0.4-0.2-0.7-0.5-0.8l4.2-0.6
			c0.1,0,0.2,0.1,0.2,0.1c0.3,0,0.5-0.1,0.7-0.2l9.3-1.4L37.2,41.1z M21.1,26.3l1.2-1.5l2.8,18.7L23.9,45L21.1,26.3z M14.9,25.8
			l1-1.2l4.7-0.7l-1,1.2L14.9,25.8z M11.9,6.2l2.6,17.1l-1.2,1.5L10.7,7.7L11.9,6.2z M35,44.5l-9.4,1.4l1-1.2l9.4-1.4L35,44.5z"/>
		<path d="M21.5,13.6c-0.2,0.3-0.2,0.7,0.1,0.9l1.6,1.2c0.1,0.1,0.2,0.1,0.4,0.1c0.2,0,0.4-0.1,0.5-0.3c0.2-0.3,0.2-0.7-0.1-0.9
			l-0.4-0.3l7-1.1c0.3-0.1,0.6-0.4,0.5-0.7l-0.4-3.1c0-0.3-0.4-0.6-0.7-0.5l-2.1,0.3c-0.3,0.1-0.6,0.4-0.5,0.7
			c0.1,0.3,0.4,0.6,0.7,0.5l1.5-0.2l0.3,1.8l-6.3,0.9l0.3-0.4c0.2-0.3,0.2-0.7-0.1-0.9c-0.3-0.2-0.7-0.2-0.9,0.1L21.5,13.6z"/>
		<ellipse transform="matrix(0.1927 -0.9813 0.9813 0.1927 0.4298 26.9735)" cx="16.6" cy="13.2" rx="0.7" ry="0.7"/>
		<ellipse transform="matrix(0.1925 -0.9813 0.9813 0.1925 -1.8215 30.2508)" cx="17.5" cy="16.2" rx="0.7" ry="0.7"/>
		<path d="M15.7,7.5c0-0.1,0-0.2,0-0.3c0-0.3-0.3-0.5-0.5-0.6c-0.4-0.1-0.7,0.2-0.8,0.5c0,0.1,0,0.2,0,0.3c0,0.3,0.3,0.5,0.5,0.6
			C15.2,8.1,15.6,7.8,15.7,7.5z"/>
		<ellipse transform="matrix(0.1924 -0.9813 0.9813 0.1924 6.586 23.7949)" cx="17.7" cy="7.9" rx="0.7" ry="0.7"/>
		<ellipse transform="matrix(0.1928 -0.9812 0.9812 0.1928 2.6277 23.8757)" cx="15.8" cy="10.3" rx="0.7" ry="0.7"/>
		<ellipse transform="matrix(0.1928 -0.9812 0.9812 0.1928 4.2646 26.948)" cx="18.5" cy="10.9" rx="0.7" ry="0.7"/>
		<ellipse transform="matrix(0.1926 -0.9813 0.9813 0.1926 -4.0762 33.5194)" cx="18.3" cy="19.2" rx="0.7" ry="0.7"/>
		<ellipse transform="matrix(0.1925 -0.9813 0.9813 0.1925 2.1297 30.1627)" cx="19.4" cy="13.8" rx="0.7" ry="0.7"/>
		<ellipse transform="matrix(0.193 -0.9812 0.9812 0.193 8.214 26.8586)" cx="20.4" cy="8.4" rx="0.7" ry="0.7"/>
		<ellipse transform="matrix(0.1923 -0.9813 0.9813 0.1923 10.478 23.5968)" cx="19.6" cy="5.4" rx="0.7" ry="0.7"/>
	</g>
</g>
</svg>
