<?xml version="1.0" encoding="utf-8"?>
<!-- Generator: Adobe Illustrator 19.2.1, SVG Export Plug-In . SVG Version: 6.00 Build 0)  -->
<svg version="1.1" id="Layer_1" xmlns="http://www.w3.org/2000/svg" xmlns:xlink="http://www.w3.org/1999/xlink" x="0px" y="0px"
	 viewBox="0 0 48 48" style="enable-background:new 0 0 48 48;" xml:space="preserve">
<style type="text/css">
	.st0{fill:#FFFFFF;}
</style>
<g>
	<circle class="st0" cx="24.1" cy="23.5" r="20.9"/>
	<g>
		<circle cx="20.3" cy="21.9" r="1.6"/>
		<circle cx="27.9" cy="21.9" r="1.6"/>
		<path d="M28.2,29.5c-0.7,0-1.2,0.4-1.3,1.1c-0.1,1.4-1.1,2.9-2.8,2.9c-1.5,0-2.7-1.2-2.8-2.9c0-0.7-0.6-1.2-1.3-1.1
			c-0.7,0-1.2,0.6-1.1,1.3c0.2,2.9,2.4,5.1,5.2,5.1c2.7,0,4.9-2.2,5.2-5.1C29.3,30.1,28.8,29.5,28.2,29.5z"/>
		<path d="M24.1,0C11.1,0,0.6,10.6,0.6,23.5c0,0.2,0,0.4,0,0.6v22.8c0,0.3,0.1,0.6,0.3,0.8S1.4,48,1.6,48l0,0l7.9-0.3
			c0.6,0,1-0.5,1-1l0.4-3.6c3.7,2.5,8.3,4,13.1,4s9.4-1.5,13.1-4l0.4,3.6c0,0.6,0.5,1,1,1l7.9,0.3l0,0c0.3,0,0.5-0.1,0.7-0.3
			s0.3-0.5,0.3-0.8V24.1c0-0.2,0-0.4,0-0.6C47.6,10.6,37.1,0,24.1,0z M24.1,41.7c-10,0-18.2-8.2-18.2-18.2c0-2.3,0.5-4.6,1.3-6.6
			c1.1,0,2.9,0.1,4.6,0.1c1.6,0,2.8,0,3.5-0.1c2.9-0.3,3.5-2.3,3.8-4c0.8,1.7,1.9,3.4,3.6,3.9c1.6,0.5,4.1,0.7,7.8,0.7
			c3.8,0,8-0.3,10.6-0.5c0.8,2,1.2,4.2,1.2,6.5C42.3,33.6,34.1,41.7,24.1,41.7z"/>
		<circle cx="9.7" cy="27.2" r="0.7"/>
		<circle cx="12.6" cy="27.2" r="0.7"/>
		<circle cx="11.1" cy="30" r="0.7"/>
		<circle cx="14" cy="30" r="0.7"/>
		<circle cx="35.6" cy="27.2" r="0.7"/>
		<circle cx="38.5" cy="27.2" r="0.7"/>
		<circle cx="34.2" cy="30" r="0.7"/>
		<circle cx="37.1" cy="30" r="0.7"/>
	</g>
</g>
</svg>
