<?xml version="1.0" encoding="utf-8"?>
<!-- Generator: Adobe Illustrator 19.2.1, SVG Export Plug-In . SVG Version: 6.00 Build 0)  -->
<svg version="1.1" id="Layer_1" xmlns="http://www.w3.org/2000/svg" xmlns:xlink="http://www.w3.org/1999/xlink" x="0px" y="0px"
	 viewBox="0 0 48 48" style="enable-background:new 0 0 48 48;" xml:space="preserve">
<style type="text/css">
	.st0{fill:#FFFFFF;}
</style>
<g>
	<path class="st0" d="M8.3,24.9c2-0.9,5.6-4.1,12.2-3.4c-0.3,3.9-0.4,7.7,0.2,8.5c6.7,8.7,18.8,1.1,18.8,1.1l-0.2-20.6
		c-4.6,3.2-9.6,3.1-13.4,2.4c0-3.2,0-5.9-0.1-6.5c-0.1-1.5-0.2-5.6-7.2-5c-4.7,0.4-7.2,1.5-10.3,3.5"/>
	<g>
		<path d="M40.8,10.4c0-0.5-0.3-0.9-0.7-1.2c-0.4-0.2-1-0.2-1.4,0.1c-3.2,2.2-6.9,3-11.3,2.4c0-1.9,0-4.8-0.1-5.5V6.1
			c-0.1-1-0.3-3.1-2-4.5c-1.5-1.2-3.7-1.7-6.6-1.5c-5.1,0.5-7.8,1.6-11.1,3.7L7.4,3.8c0,0-0.1,0.1-0.2,0.1C7.2,4,7.1,4,7.1,4.1
			C7.1,4.2,7,4.3,7,4.4s0,0.1,0,0.2s0,0.1,0,0.2v19.9c0,0.1,0,0.1,0,0.2v21.7C7,47.4,7.6,48,8.3,48l0,0c0.7,0,1.3-0.6,1.3-1.3v-21
			c0.2-0.1,0.5-0.3,0.7-0.4c1.9-1.1,4.6-2.6,8.7-2.6c-0.5,6.7,0.2,7.6,0.6,8.1c2.7,3.5,6.2,4.7,9.8,4.7c4.2,0,8.4-1.7,10.9-3.3
			c0.4-0.2,0.6-0.7,0.6-1.1L40.8,10.4z M21.6,27.3c0-0.9,0-2.3,0.1-4.3c0.9,0.2,1.8,0.4,2.8,0.7c0,1-0.1,1.8-0.1,2.1
			C24.2,26.2,22.9,26.7,21.6,27.3z M9.6,22.6v-17c2.7-1.6,5-2.5,9.3-2.9c2.2-0.2,3.8,0.1,4.7,0.9c0.9,0.8,1,2,1.1,2.7v0.2
			c0,0.4,0.1,2.5,0.1,6.3l0,0c0,3,0,5.8-0.1,8.1c-1.4-0.4-2.7-0.7-4-0.8c0,0,0,0-0.1,0C15.3,19.6,11.8,21.3,9.6,22.6z M22.3,29.9
			c2.8-1.1,4.4-2.2,4.7-3.3c0.3-1,0.3-8.6,0.4-12.2c4,0.5,7.6,0,10.7-1.6l0.1,17.5C36,31.6,27.6,35.5,22.3,29.9z"/>
		<circle cx="28.3" cy="26.4" r="0.8"/>
		<circle cx="31.5" cy="26.4" r="0.8"/>
		<circle cx="28.3" cy="20" r="0.8"/>
		<circle cx="31.5" cy="20" r="0.8"/>
		<circle cx="29.9" cy="23.2" r="0.8"/>
		<circle cx="33.1" cy="23.2" r="0.8"/>
		<circle cx="26.7" cy="29.6" r="0.8"/>
		<circle cx="29.9" cy="29.6" r="0.8"/>
		<circle cx="33.1" cy="29.6" r="0.8"/>
		<circle cx="29.9" cy="16.8" r="0.8"/>
		<circle cx="33.1" cy="16.8" r="0.8"/>
		<circle cx="34.7" cy="26.4" r="0.8"/>
		<circle cx="34.7" cy="20" r="0.8"/>
		<circle cx="36.3" cy="23.2" r="0.8"/>
		<circle cx="36.3" cy="29.6" r="0.8"/>
		<circle cx="36.3" cy="16.8" r="0.8"/>
	</g>
</g>
</svg>
