<?xml version="1.0" encoding="utf-8"?>
<!-- Generator: Adobe Illustrator 19.2.1, SVG Export Plug-In . SVG Version: 6.00 Build 0)  -->
<svg version="1.1" id="Layer_1" xmlns="http://www.w3.org/2000/svg" xmlns:xlink="http://www.w3.org/1999/xlink" x="0px" y="0px"
	 viewBox="0 0 48 48" style="enable-background:new 0 0 48 48;" xml:space="preserve">
<style type="text/css">
	.st0{fill:#FFFFFF;}
	.st1{fill:#141818;}
</style>
<g>
	<rect x="0.9" y="10.3" class="st0" width="46.2" height="27.4"/>
	<g>
		<path class="st1" d="M47.6,9.7c-0.2-0.2-0.4-0.3-0.6-0.3H0.9C0.4,9.5,0,9.9,0,10.3v27.4c0,0.5,0.4,0.9,0.9,0.9h46.2
			c0.5,0,0.9-0.4,0.9-0.9V10.3C47.9,10.1,47.8,9.9,47.6,9.7z M46.2,36.9H1.8v-0.5c0.3-0.1,0.6-0.4,0.6-0.7c0-0.4-0.3-0.6-0.6-0.7
			v-4.5c0.3-0.1,0.6-0.4,0.6-0.7c0-0.4-0.3-0.6-0.6-0.7v-4.5c0.3-0.1,0.6-0.3,0.6-0.7c0-0.4-0.3-0.6-0.6-0.7v-4.5
			c0.3-0.1,0.6-0.3,0.6-0.7c0-0.4-0.3-0.6-0.6-0.7v-4.5c0.3-0.1,0.6-0.3,0.6-0.7s-0.3-0.6-0.6-0.7v-0.3h44.4V36.9z"/>
		<path class="st1" d="M10.8,21.9h1.5c0.1,0,0.2-0.1,0.2-0.2v-2.5h2.8c0.1,0,0.1,0,0.1-0.1l0.1-0.1v-1.3c0-0.1-0.1-0.2-0.2-0.2h-2.8
			v-1.1h3c0.1,0,0.1,0,0.1-0.1l0.1-0.1v-1.3c0-0.1-0.1-0.2-0.2-0.2h-4.7c-0.1,0-0.1,0-0.1,0.1l-0.1,0.1v6.8
			C10.6,21.8,10.6,21.8,10.8,21.9C10.7,21.8,10.8,21.9,10.8,21.9z"/>
		<path class="st1" d="M17.3,21.9h1.5c0.1,0,0.2-0.1,0.2-0.2v-2h0.8l1.3,2.1c0,0.1,0.1,0.1,0.2,0.1h1.6l0,0c0.1,0,0.2-0.1,0.2-0.2
			s0-0.1-0.1-0.2l-1.4-2.2c0.8-0.5,1.3-1.3,1.3-2.2c0-1.5-1.1-2.4-2.8-2.4h-2.8c-0.1,0-0.2,0.1-0.2,0.2v6.8
			C17.1,21.8,17.2,21.9,17.3,21.9z M19.9,16.4c1.1,0,1.2,0.4,1.2,0.8c0,0.3-0.1,0.8-1.2,0.8H19v-1.6C19,16.4,19.9,16.4,19.9,16.4z"
			/>
		<path class="st1" d="M24.5,21.9h5c0.1,0,0.2-0.1,0.2-0.2v-1.3c0-0.1,0-0.1-0.1-0.1l-0.1-0.1h-3.4v-1.1h3.2c0.1,0,0.2-0.1,0.2-0.2
			v-1.3c0-0.1-0.1-0.2-0.2-0.2h-3.2v-0.9h3.4c0.1,0,0.2-0.1,0.2-0.2V15c0-0.1-0.1-0.2-0.2-0.2h-5c-0.1,0-0.2,0.1-0.2,0.2v6.8
			C24.3,21.8,24.4,21.9,24.5,21.9z"/>
		<path class="st1" d="M31.7,21.9h5c0.1,0,0.2-0.1,0.2-0.2v-1.3c0-0.1-0.1-0.2-0.2-0.2h-3.4v-1.1h3.2c0.1,0,0.2-0.1,0.2-0.2v-1.3
			c0-0.1-0.1-0.2-0.2-0.2h-3.2v-0.9h3.4c0.1,0,0.2-0.1,0.2-0.2V15c0-0.1,0-0.1-0.1-0.1l-0.1-0.1h-5c-0.1,0-0.2,0.1-0.2,0.2v6.8
			C31.5,21.9,31.5,21.9,31.7,21.9C31.6,21.8,31.6,21.9,31.7,21.9z"/>
		<path class="st1" d="M9.6,33.8H11c0.1,0,0.2-0.1,0.2-0.2V31h2.5v2.6c0,0.1,0.1,0.2,0.2,0.2h1.4c0.1,0,0.1,0,0.1-0.1l0.1-0.1v-6.8
			c0-0.1-0.1-0.2-0.2-0.2h-1.4c-0.1,0-0.2,0.1-0.2,0.2v2.5h-2.5v-2.5c0-0.1-0.1-0.2-0.2-0.2H9.6c-0.1,0-0.2,0.1-0.2,0.2v6.8
			C9.4,33.7,9.5,33.8,9.6,33.8z"/>
		<path class="st1" d="M20.2,33.9c1.9,0,3.1-1.2,3.1-3.3v-3.8c0-0.1-0.1-0.2-0.2-0.2h-1.4c-0.1,0-0.2,0.1-0.2,0.2v3.8
			c0,1-0.4,1.6-1.2,1.6c-1.1,0-1.2-1.1-1.2-1.5v-3.9c0-0.1-0.1-0.2-0.2-0.2h-1.4c-0.1,0-0.2,0.1-0.2,0.2v3.8
			C17.1,32.7,18.2,33.9,20.2,33.9z"/>
		<path class="st1" d="M24.4,30.2c0,2.1,1.6,3.7,3.8,3.7c1.1,0,2.2-0.4,3-1.2l0.1-0.1v-2.7c0-0.1-0.1-0.2-0.2-0.2h-2.8
			c-0.1,0-0.2,0.1-0.2,0.2v1.3c0,0.1,0.1,0.2,0.2,0.2h1.2v0.5c-0.3,0.2-0.7,0.3-1.2,0.3c-1.1,0-1.9-0.8-1.9-2c0-1.3,0.9-1.9,1.8-1.9
			c0.7,0,1.3,0.3,1.6,0.8l0.1,0.1c0.1,0,0.1,0,0.2-0.1l1-1c0.1-0.1,0.1-0.2,0-0.3c-0.7-0.9-1.7-1.4-2.9-1.4
			C25.9,26.5,24.4,28,24.4,30.2z"/>
		<path class="st1" d="M32.6,28.7c0,1.2,0.8,2,2.3,2.2l0.8,0.1c0.8,0.1,0.8,0.4,0.8,0.5c0,0.3-0.4,0.5-1,0.5c-0.9,0-1.4-0.5-1.8-0.9
			L33.6,31c-0.1,0-0.1,0-0.2,0.1l-1,1c-0.1,0.1-0.1,0.2,0,0.3c0.7,0.9,1.8,1.4,3,1.4c1.7,0,2.9-0.9,2.9-2.3c0-1.3-0.8-2.1-2.5-2.3
			l-0.7-0.1c-0.8-0.1-0.8-0.4-0.8-0.5c0-0.3,0.3-0.5,0.8-0.5c0.6,0,1.1,0.2,1.6,0.7l0.1,0.1c0.1,0,0.1,0,0.1-0.1l1-1
			c0.1-0.1,0.1-0.2,0-0.3c-0.4-0.4-1.3-1.2-2.8-1.2C33.9,26.5,32.6,27.2,32.6,28.7z"/>
		<ellipse class="st1" cx="4.6" cy="35.7" rx="0.7" ry="0.7"/>
		<ellipse class="st1" cx="7.5" cy="35.7" rx="0.7" ry="0.7"/>
		<ellipse class="st1" cx="3.1" cy="32.7" rx="0.7" ry="0.7"/>
		<ellipse class="st1" cx="3.1" cy="21" rx="0.7" ry="0.7"/>
		<ellipse class="st1" cx="3.1" cy="15.1" rx="0.7" ry="0.7"/>
		<ellipse class="st1" cx="3.1" cy="26.8" rx="0.7" ry="0.7"/>
		<ellipse class="st1" cx="6.1" cy="32.7" rx="0.7" ry="0.7"/>
		<ellipse class="st1" cx="4.6" cy="29.8" rx="0.7" ry="0.7"/>
		<ellipse class="st1" cx="7.5" cy="29.8" rx="0.7" ry="0.7"/>
		<ellipse class="st1" cx="6.1" cy="21" rx="0.7" ry="0.7"/>
		<ellipse class="st1" cx="6.1" cy="15.1" rx="0.7" ry="0.7"/>
		<ellipse class="st1" cx="4.6" cy="18.1" rx="0.7" ry="0.7"/>
		<ellipse class="st1" cx="7.5" cy="18.1" rx="0.7" ry="0.7"/>
		<ellipse class="st1" cx="6.1" cy="26.8" rx="0.7" ry="0.7"/>
		<ellipse class="st1" cx="4.6" cy="24" rx="0.7" ry="0.7"/>
		<ellipse class="st1" cx="7.5" cy="24" rx="0.7" ry="0.7"/>
		<ellipse class="st1" cx="4.6" cy="12.2" rx="0.7" ry="0.7"/>
		<ellipse class="st1" cx="7.5" cy="12.2" rx="0.7" ry="0.7"/>
	</g>
</g>
</svg>
