<?xml version="1.0" encoding="utf-8"?>
<!-- Generator: Adobe Illustrator 19.2.1, SVG Export Plug-In . SVG Version: 6.00 Build 0)  -->
<svg version="1.1" id="Layer_1" xmlns="http://www.w3.org/2000/svg" xmlns:xlink="http://www.w3.org/1999/xlink" x="0px" y="0px"
	 viewBox="0 0 48 48" style="enable-background:new 0 0 48 48;" xml:space="preserve">
<style type="text/css">
	.st0{fill:#FFFFFF;}
	.st1{fill:#1A1A18;}
</style>
<g>
	<path class="st0" d="M47.1,19.2c0-1.2-1-1.8-2.2-1.8H7.7C6.3,17.4,5,18,5,19.2v9.1c0,1.2,1.3,2.4,2.5,2.4h13.8
		c1.2,0,2.1-1.2,2.1-2.4v-6.5h5.2v6.5c0,1.2,1.1,2.4,2.3,2.4h13.8c1.2,0,2.3-1.2,2.3-2.4v-5.7c0-0.1,0-0.2,0-0.3c0-0.1,0-0.2,0-0.3
		V19.2z"/>
	<g>
		<circle class="st1" cx="7.5" cy="28.4" r="0.6"/>
		<circle class="st1" cx="9.7" cy="28.4" r="0.6"/>
		<circle class="st1" cx="11.9" cy="28.4" r="0.6"/>
		<circle class="st1" cx="14.1" cy="28.4" r="0.6"/>
		<circle class="st1" cx="16.3" cy="28.4" r="0.6"/>
		<circle class="st1" cx="18.5" cy="24" r="0.6"/>
		<circle class="st1" cx="8.6" cy="26.2" r="0.6"/>
		<circle class="st1" cx="10.8" cy="26.2" r="0.6"/>
		<circle class="st1" cx="13" cy="26.2" r="0.6"/>
		<circle class="st1" cx="15.2" cy="26.2" r="0.6"/>
		<circle class="st1" cx="17.4" cy="26.2" r="0.6"/>
		<circle class="st1" cx="19.7" cy="21.8" r="0.6"/>
		<circle class="st1" cx="18.5" cy="19.6" r="0.6"/>
		<circle class="st1" cx="20.8" cy="19.6" r="0.6"/>
		<path class="st1" d="M48,19.2c0-1.6-1.3-2.8-3.1-2.8h-44c-0.5,0-0.9,0.4-0.9,0.9V24c0,0.5,0.4,0.9,0.9,0.9h3.2v3.3
			c0,1.7,1.7,3.3,3.4,3.3h13.8c1.7,0,3-1.5,3-3.3v-5.5h3.3v5.5c0,1.7,1.6,3.3,3.3,3.3h13.8c1.7,0,3.2-1.5,3.2-3.3V19.2z M10.8,18.3
			h4.8v4.8h-4.8V18.3z M46.2,28.3c0,0.7-0.7,1.5-1.3,1.5H31c-0.7,0-1.4-0.7-1.4-1.5v-6.5c0-0.5-0.4-0.9-0.9-0.9h-5.2
			c-0.5,0-0.9,0.4-0.9,0.9v6.5c0,0.7-0.5,1.5-1.2,1.5H7.6c-0.8,0-1.6-0.8-1.6-1.5v-3.3h10.5c0.5,0,0.9-0.4,0.9-0.9v-5.7h27.5
			c0.2,0,1.3,0,1.3,0.9V28.3z"/>
	</g>
</g>
</svg>
