<?xml version="1.0" encoding="utf-8"?>
<!-- Generator: Adobe Illustrator 19.2.1, SVG Export Plug-In . SVG Version: 6.00 Build 0)  -->
<svg version="1.1" id="Layer_1" xmlns="http://www.w3.org/2000/svg" xmlns:xlink="http://www.w3.org/1999/xlink" x="0px" y="0px"
	 viewBox="0 0 48 48" style="enable-background:new 0 0 48 48;" xml:space="preserve">
<style type="text/css">
	.st0{fill:#FFFFFF;}
	.st1{fill:#020204;}
</style>
<g>
	<path class="st0" d="M37.8,38.8l-0.3-2.3l-2.6-1.8c4.7-3.4,7.8-8.9,7.8-15.2C42.7,9.3,34.3,1,24,1C13.7,1,5.3,9.3,5.3,19.6
		c0,7,3.9,13.1,9.6,16.3l-2.5-0.6l-2.2,1.4l0.1,2.2l-2.6,1.6l0.1,2.8l5.8,2.5l5.4,1.1l5.7,0.5l8.4-0.8l7.6-3.4l-0.2-2.5L37.8,38.8z"
		/>
	<g>
		<path class="st1" d="M16.4,7.2c0.3-0.1,0.5-0.5,0.3-0.8C16.6,6,16.2,5.8,15.9,6c-0.2,0.1-5.5,2.5-7.2,9.5c-1.8,6.9,2,12.7,2.1,13
			c0.1,0.2,0.3,0.3,0.5,0.3c0.1,0,0.2,0,0.4-0.1c0.3-0.2,0.4-0.6,0.2-0.9c0-0.1-3.6-5.6-2-12C11.5,9.4,16.4,7.2,16.4,7.2z"/>
		<path class="st1" d="M25.7,25.3l0.9,1l-1.3,0.3c-0.3,0.1-0.6,0.4-0.5,0.8c0.1,0.3,0.3,0.5,0.6,0.5c0,0,0.1,0,0.1,0l1.3-0.3
			l-0.4,1.2c-0.1,0.3,0.1,0.7,0.4,0.8c0.1,0,0.1,0,0.2,0c0.3,0,0.5-0.2,0.6-0.4l0.4-1.2l0.9,1c0.1,0.1,0.3,0.2,0.5,0.2
			c0.2,0,0.3-0.1,0.4-0.2c0.3-0.2,0.3-0.6,0-0.9l-0.9-1l1.3-0.3c0.3-0.1,0.6-0.4,0.5-0.8c-0.1-0.3-0.4-0.6-0.8-0.5l-1.3,0.3l0.4-1.2
			c0.1-0.3-0.1-0.7-0.4-0.8c-0.3-0.1-0.7,0.1-0.8,0.4l-0.4,1.2l-0.9-1c-0.2-0.3-0.6-0.3-0.9,0C25.5,24.6,25.5,25.1,25.7,25.3z"/>
		<path class="st1" d="M16.6,10l-0.2,0.7l-0.5-0.6c-0.2-0.2-0.5-0.2-0.7,0c-0.2,0.2-0.2,0.5,0,0.7l0.5,0.6l-0.7,0.2
			c-0.3,0.1-0.4,0.3-0.4,0.6c0,0.2,0.2,0.4,0.5,0.4c0,0,0.1,0,0.1,0l0.7-0.2L15.6,13c-0.1,0.3,0.1,0.5,0.3,0.6c0,0,0.1,0,0.1,0
			c0.2,0,0.4-0.1,0.5-0.3l0.2-0.7l0.5,0.6c0.1,0.1,0.2,0.2,0.4,0.2c0.1,0,0.2,0,0.3-0.1c0.2-0.2,0.2-0.5,0-0.7l-0.5-0.6l0.7-0.2
			c0.3-0.1,0.4-0.3,0.4-0.6c-0.1-0.3-0.3-0.4-0.6-0.4L17.3,11l0.2-0.7c0.1-0.3-0.1-0.5-0.3-0.6C16.9,9.6,16.6,9.7,16.6,10z"/>
		<path class="st1" d="M34.2,19.1c0,0,0.1,0,0.1,0l0.7-0.2l-0.2,0.7c-0.1,0.3,0.1,0.5,0.3,0.6c0,0,0.1,0,0.1,0
			c0.2,0,0.4-0.1,0.5-0.3l0.2-0.7l0.5,0.6c0.1,0.1,0.2,0.2,0.4,0.2c0.1,0,0.2,0,0.3-0.1c0.2-0.2,0.2-0.5,0-0.7l-0.5-0.6l0.7-0.2
			c0.3-0.1,0.4-0.3,0.4-0.6c-0.1-0.3-0.3-0.4-0.6-0.4l-0.7,0.2l0.2-0.7c0.1-0.3-0.1-0.5-0.3-0.6c-0.3-0.1-0.5,0.1-0.6,0.3l-0.2,0.7
			L35,16.8c-0.2-0.2-0.5-0.2-0.7,0c-0.2,0.2-0.2,0.5,0,0.7l0.5,0.6l-0.7,0.2c-0.3,0.1-0.4,0.3-0.4,0.6
			C33.7,18.9,33.9,19.1,34.2,19.1z"/>
		<path class="st1" d="M23.3,34.2c0,0.4,0.3,0.6,0.6,0.6c7.3,0,13.6-5.2,15-12.3c0.1-0.3-0.2-0.7-0.5-0.8c-0.3-0.1-0.7,0.2-0.8,0.5
			c-1.3,6.5-7,11.3-13.7,11.3C23.5,33.6,23.3,33.9,23.3,34.2z"/>
		<ellipse transform="matrix(0.7323 -0.681 0.681 0.7323 -11.3978 17.0615)" class="st1" cx="16" cy="23" rx="0.7" ry="0.7"/>
		<ellipse transform="matrix(0.732 -0.6813 0.6813 0.732 -12.2882 18.9271)" class="st1" cx="17.9" cy="25.1" rx="0.7" ry="0.7"/>
		<ellipse transform="matrix(0.7323 -0.681 0.681 0.7323 -13.1731 20.7668)" class="st1" cx="19.8" cy="27.1" rx="0.7" ry="0.7"/>
		<ellipse transform="matrix(0.7314 -0.6819 0.6819 0.7314 -5.9403 15.1475)" class="st1" cx="16.3" cy="15.1" rx="0.7" ry="0.7"/>
		<ellipse transform="matrix(0.732 -0.6813 0.6813 0.732 -6.8279 16.982)" class="st1" cx="18.2" cy="17.2" rx="0.7" ry="0.7"/>
		<ellipse transform="matrix(0.7324 -0.6809 0.6809 0.7324 -7.7155 18.8202)" class="st1" cx="20.1" cy="19.2" rx="0.7" ry="0.7"/>
		<ellipse transform="matrix(0.7321 -0.6812 0.6812 0.7321 -8.6033 20.6857)" class="st1" cx="22" cy="21.3" rx="0.7" ry="0.7"/>
		<ellipse transform="matrix(0.7314 -0.6819 0.6819 0.7314 -9.4924 22.5723)" class="st1" cx="23.9" cy="23.3" rx="0.7" ry="0.7"/>
		<ellipse transform="matrix(0.7321 -0.6812 0.6812 0.7321 -8.2254 15.1686)" class="st1" cx="15.2" cy="18" rx="0.7" ry="0.7"/>
		<ellipse transform="matrix(0.7324 -0.6808 0.6808 0.7324 -9.1123 17.0107)" class="st1" cx="17.1" cy="20.1" rx="0.7" ry="0.7"/>
		<ellipse transform="matrix(0.7321 -0.6812 0.6812 0.7321 -10.0013 18.8759)" class="st1" cx="19" cy="22.2" rx="0.7" ry="0.7"/>
		<ellipse transform="matrix(0.7316 -0.6817 0.6817 0.7316 -10.891 20.751)" class="st1" cx="20.9" cy="24.2" rx="0.7" ry="0.7"/>
		<ellipse transform="matrix(0.733 -0.6802 0.6802 0.733 -11.7719 22.5386)" class="st1" cx="22.8" cy="26.3" rx="0.7" ry="0.7"/>
		<ellipse transform="matrix(0.7316 -0.6817 0.6817 0.7316 -4.5401 16.9512)" class="st1" cx="19.3" cy="14.2" rx="0.7" ry="0.7"/>
		<ellipse transform="matrix(0.7318 -0.6815 0.6815 0.7318 -5.4295 18.7988)" class="st1" cx="21.2" cy="16.3" rx="0.7" ry="0.7"/>
		<ellipse transform="matrix(0.7319 -0.6814 0.6814 0.7319 -6.3175 20.6483)" class="st1" cx="23.1" cy="18.4" rx="0.7" ry="0.7"/>
		<ellipse transform="matrix(0.7334 -0.6798 0.6798 0.7334 -7.2095 22.4335)" class="st1" cx="25" cy="20.4" rx="0.7" ry="0.7"/>
		<ellipse transform="matrix(0.732 -0.6813 0.6813 0.732 -8.0935 24.3553)" class="st1" cx="26.9" cy="22.5" rx="0.7" ry="0.7"/>
		<ellipse transform="matrix(0.7323 -0.681 0.681 0.7323 -2.2588 16.8824)" class="st1" cx="20.3" cy="11.3" rx="0.7" ry="0.7"/>
		<ellipse transform="matrix(0.732 -0.6813 0.6813 0.732 -3.1443 18.7451)" class="st1" cx="22.3" cy="13.4" rx="0.7" ry="0.7"/>
		<ellipse transform="matrix(0.7313 -0.6821 0.6821 0.7313 -3.9339 20.6421)" class="st1" cx="24.2" cy="15.3" rx="0.7" ry="0.7"/>
		<ellipse transform="matrix(0.7318 -0.6815 0.6815 0.7318 -4.9186 22.4605)" class="st1" cx="26.1" cy="17.5" rx="0.7" ry="0.7"/>
		<ellipse transform="matrix(0.7326 -0.6807 0.6807 0.7326 -5.8117 24.2811)" class="st1" cx="28" cy="19.5" rx="0.7" ry="0.7"/>
		<ellipse transform="matrix(0.7322 -0.681 0.681 0.7322 -6.6965 26.1491)" class="st1" cx="29.9" cy="21.6" rx="0.7" ry="0.7"/>
		<ellipse transform="matrix(0.732 -0.6813 0.6813 0.732 -0.8577 18.7024)" class="st1" cx="23.3" cy="10.4" rx="0.7" ry="0.7"/>
		<ellipse transform="matrix(0.7314 -0.682 0.682 0.7314 -1.738 20.5807)" class="st1" cx="25.3" cy="12.5" rx="0.7" ry="0.7"/>
		<ellipse transform="matrix(0.7322 -0.6811 0.6811 0.7322 -2.6358 22.3999)" class="st1" cx="27.2" cy="14.6" rx="0.7" ry="0.7"/>
		<ellipse transform="matrix(0.7321 -0.6812 0.6812 0.7321 -3.5225 24.257)" class="st1" cx="29.1" cy="16.6" rx="0.7" ry="0.7"/>
		<ellipse transform="matrix(0.7321 -0.6812 0.6812 0.7321 -4.4101 26.1106)" class="st1" cx="31" cy="18.7" rx="0.7" ry="0.7"/>
		<ellipse transform="matrix(0.7324 -0.6809 0.6809 0.7324 -5.3007 27.9481)" class="st1" cx="32.9" cy="20.7" rx="0.7" ry="0.7"/>
		<ellipse transform="matrix(0.7317 -0.6817 0.6817 0.7317 -0.3424 22.3785)" class="st1" cx="28.3" cy="11.6" rx="0.7" ry="0.7"/>
		<ellipse transform="matrix(0.7328 -0.6804 0.6804 0.7328 -1.2483 24.1803)" class="st1" cx="30.2" cy="13.7" rx="0.7" ry="0.7"/>
		<ellipse transform="matrix(0.7326 -0.6807 0.6807 0.7326 -2.1323 26.045)" class="st1" cx="32.1" cy="15.7" rx="0.7" ry="0.7"/>
		<ellipse transform="matrix(0.7325 -0.6807 0.6807 0.7325 -7.5865 27.9852)" class="st1" cx="31.8" cy="23.6" rx="0.7" ry="0.7"/>
		<path class="st1" d="M41,40.3c0-0.1,0-0.2-0.1-0.2c0,0,0,0,0-0.1c-0.1-0.1-0.1-0.2-0.2-0.2l-2.2-1.2l0-2.1c0,0,0,0,0,0
			c0,0,0,0,0,0c0,0,0,0,0-0.1c0-0.1,0-0.2-0.1-0.2c0,0,0,0,0-0.1c-0.1-0.1-0.1-0.1-0.2-0.2c0,0,0,0,0,0l0,0c0,0,0,0,0,0L36.2,35
			c4.5-3.6,7.4-9.1,7.4-15.3C43.6,8.8,34.8,0,24,0C13.2,0,4.4,8.8,4.4,19.6c0,6.2,2.9,11.7,7.4,15.3l-1.8,0.9h0l0,0c0,0,0,0,0,0
			c-0.1,0-0.1,0.1-0.2,0.2c0,0,0,0,0,0.1c0,0.1-0.1,0.1-0.1,0.2c0,0,0,0,0,0.1c0,0,0,0,0,0c0,0,0,0,0,0l0,2.1L7.3,40c0,0,0,0,0,0
			c-0.1,0-0.1,0.1-0.1,0.1c0,0,0,0,0,0C7,40.2,7,40.3,7,40.4c0,0,0,0,0,0c0,0,0,0.1,0,0.1v2.7c0,0.2,0.1,0.4,0.2,0.5
			C10.6,46.4,17,48,24,48h0h0h0h0c0,0,0,0,0,0c0,0,0,0,0,0c7,0,13.4-1.6,16.8-4.2c0.2-0.1,0.3-0.3,0.2-0.5L41,40.3
			C41,40.3,41,40.3,41,40.3z M37.1,38.5c-3.5,2-8,3-13.1,3c-5.1,0-9.6-1.1-13.1-3l0-1c3.5,1.9,8.2,3,13.1,3h0c4.9,0,9.6-1.1,13.1-3
			L37.1,38.5z M10.3,39.6c3.7,2.1,8.4,3.2,13.7,3.2h0c0,0,0,0,0,0h0c5.3,0,10.1-1.1,13.7-3.2l1.3,0.7c-3.5,2-9.4,3.9-15.1,3.9
			c-5.9,0-11.8-1.8-15.2-3.7L10.3,39.6z M6.3,19.6C6.3,9.9,14.2,1.9,24,1.9c9.8,0,17.7,7.9,17.7,17.7c0,8.2-5.6,15.1-13.2,17.1
			C27.2,36.9,25.7,37,24,37c-1.7,0-3.2-0.1-4.5-0.3C11.9,34.7,6.3,27.8,6.3,19.6z M12.8,35.9c3.1,1.7,6.4,2.4,11.2,2.4h0h0h0
			c4.8,0,8.1-0.7,11.2-2.4l1.2,0.6c-3.3,1.8-7.8,2.8-12.4,2.8c-4.6,0-9.1-1-12.4-2.8L12.8,35.9z M24,46.7c-6.6,0-12.6-1.5-15.8-3.8
			v-1.3c3.5,2,9.7,3.9,15.8,3.9c6.1,0,12.2-2,15.7-4.1l0,1.5C36.5,45.3,30.6,46.7,24,46.7z"/>
	</g>
</g>
</svg>
