<?xml version="1.0" encoding="utf-8"?>
<!-- Generator: Adobe Illustrator 19.2.1, SVG Export Plug-In . SVG Version: 6.00 Build 0)  -->
<svg version="1.1" id="Layer_1" xmlns="http://www.w3.org/2000/svg" xmlns:xlink="http://www.w3.org/1999/xlink" x="0px" y="0px"
	 viewBox="0 0 48 48" style="enable-background:new 0 0 48 48;" xml:space="preserve">
<style type="text/css">
	.st0{fill:#FFFFFF;}
</style>
<g>
	<path class="st0" d="M42.7,4.5H24.8c-1.6,0-3.1,0.9-3.8,2.3h-6c0-0.2,0-0.3,0-0.5c0-1.2-0.7-2.1-1.5-2.1h-3.3c-0.8,0-1.5,1-1.5,2.1
		c0,0.2,0,0.3,0,0.5H5.4c-1.2,0-2.2,1-2.2,2.2v17.5c-0.2,0-0.4-0.1-0.5-0.1c-1.2,0-2.1,0.7-2.1,1.5v3.3c0,0.8,1,1.5,2.1,1.5
		c0.2,0,0.4,0,0.5-0.1v0.6c0,1.2,1,2.2,2.2,2.2h37.3c1.2,0,2.2-1,2.2-2.2v-7.5c1.3-0.7,2.2-2.2,2.2-3.8v-13
		C47.1,6.5,45.1,4.5,42.7,4.5z"/>
	<g>
		<path d="M16.7,20.5V10c0-0.4-0.4-0.8-0.8-0.8H6.7c-0.4,0-0.8,0.4-0.8,0.8v10.6c0,0.4,0.4,0.8,0.8,0.8h9.1
			C16.3,21.4,16.7,21,16.7,20.5z"/>
		<path d="M42.7,3.7H24.8c-1.8,0-3.3,0.9-4.3,2.3h-5c-0.1-1.3-1-2.3-2-2.3h-3.3c-1.1,0-1.9,1-2,2.3H5.4c-1.6,0-3,1.3-3,3v16.9
			C1,26,0,26.8,0,27.9v3.3c0,1.1,1,1.9,2.4,2c0,1.6,1.3,3,3,3h14.9v5.1H15c-0.2,0-0.4,0.2-0.4,0.4v2.2c0,0.2,0.2,0.4,0.4,0.4h18.3
			c0.2,0,0.4-0.2,0.4-0.4v-2.2c0-0.2-0.2-0.4-0.4-0.4h-5.7v-5.1h15.3c1.6,0,3-1.3,3-3v-7.1c1.3-0.9,2.2-2.5,2.2-4.2v-13
			C47.9,6,45.6,3.7,42.7,3.7z M1.1,31.2v-3.3c0-0.4,0.5-0.8,1.3-0.9v5.2C1.6,32.1,1.1,31.6,1.1,31.2z M10.3,4.7h3.3
			c0.4,0,0.8,0.5,0.9,1.2H9.4C9.5,5.2,9.9,4.7,10.3,4.7z M24.7,41.3h-1.7v-5.1h1.7V41.3z M44.1,33.2c0,0.7-0.5,1.3-1.2,1.3v-0.1
			c0-0.3-0.3-0.6-0.6-0.6c-0.3,0-0.6,0.3-0.6,0.6v0.1H38v-0.1c0-0.3-0.3-0.6-0.6-0.6c-0.3,0-0.6,0.3-0.6,0.6v0.1H5.4
			C4.6,34.6,4,33.9,4,33.2V9c0-0.7,0.6-1.4,1.4-1.4H20c-0.1,0.4-0.2,0.8-0.2,1.3v13c0,2.8,2.3,5.2,5.2,5.2h17.9
			c0.5,0,0.9-0.1,1.3-0.2V33.2z M46.3,21.9c0,1.9-1.6,3.5-3.5,3.5H24.9c-1.9,0-3.5-1.6-3.5-3.5v-13c0-1.9,1.6-3.5,3.5-3.5h17.9
			c1.9,0,3.5,1.6,3.5,3.5V21.9z"/>
		<path d="M40.3,7.6h-13c-1.9,0-3.5,1.6-3.5,3.5v8.4c0,1.9,1.6,3.5,3.5,3.5h13c1.9,0,3.5-1.6,3.5-3.5v-8.4
			C43.8,9.2,42.2,7.6,40.3,7.6z M42.7,19.6c0,1.3-1.1,2.4-2.4,2.4h-13c-1.3,0-2.4-1.1-2.4-2.4v-8.4c0-1.3,1.1-2.4,2.4-2.4h13
			c1.3,0,2.4,1.1,2.4,2.4V19.6z"/>
		<path d="M33.8,9.2c-3.5,0-6.3,2.8-6.3,6.3s2.8,6.3,6.3,6.3s6.3-2.8,6.3-6.3S37.2,9.2,33.8,9.2z M33.8,20.7c-2.9,0-5.2-2.3-5.2-5.2
			s2.3-5.2,5.2-5.2s5.2,2.3,5.2,5.2C39,18.3,36.7,20.7,33.8,20.7z"/>
		<circle cx="33.8" cy="15.5" r="3.9"/>
		<path d="M12.8,23.4c-2.7,0-5,2.2-5,5s2.2,5,5,5c2.7,0,5-2.2,5-5S15.5,23.4,12.8,23.4z M12.8,32.3c-2.1,0-3.9-1.7-3.9-3.9
			c0-2.1,1.7-3.9,3.9-3.9c2.1,0,3.9,1.7,3.9,3.9C16.7,30.5,14.9,32.3,12.8,32.3z"/>
		<ellipse cx="28.8" cy="6.6" rx="0.6" ry="0.6"/>
		<ellipse cx="22.8" cy="15.1" rx="0.6" ry="0.6"/>
		<ellipse cx="44.9" cy="15.1" rx="0.6" ry="0.6"/>
		<ellipse cx="22.8" cy="19.3" rx="0.6" ry="0.6"/>
		<ellipse cx="44.9" cy="19.3" rx="0.6" ry="0.6"/>
		<ellipse cx="22.8" cy="10.8" rx="0.6" ry="0.6"/>
		<ellipse cx="44.9" cy="10.8" rx="0.6" ry="0.6"/>
		<ellipse cx="33.6" cy="6.6" rx="0.6" ry="0.6"/>
		<ellipse cx="38.9" cy="6.6" rx="0.6" ry="0.6"/>
		<ellipse cx="28.8" cy="24" rx="0.6" ry="0.6"/>
		<ellipse cx="33.6" cy="24" rx="0.6" ry="0.6"/>
		<ellipse cx="38.9" cy="24" rx="0.6" ry="0.6"/>
		<ellipse cx="42.3" cy="32.1" rx="0.6" ry="0.6"/>
		<ellipse cx="39.9" cy="33.2" rx="0.6" ry="0.6"/>
		<ellipse cx="42.3" cy="29.7" rx="0.6" ry="0.6"/>
		<ellipse cx="39.9" cy="30.9" rx="0.6" ry="0.6"/>
		<ellipse cx="39.9" cy="28.5" rx="0.6" ry="0.6"/>
		<ellipse cx="37.4" cy="32.1" rx="0.6" ry="0.6"/>
		<ellipse cx="35.1" cy="33.2" rx="0.6" ry="0.6"/>
		<ellipse cx="37.4" cy="29.7" rx="0.6" ry="0.6"/>
		<ellipse cx="35.1" cy="30.9" rx="0.6" ry="0.6"/>
		<ellipse cx="35.1" cy="28.5" rx="0.6" ry="0.6"/>
	</g>
</g>
</svg>
