<?xml version="1.0" encoding="utf-8"?>
<!-- Generator: Adobe Illustrator 19.2.1, SVG Export Plug-In . SVG Version: 6.00 Build 0)  -->
<svg version="1.1" id="Layer_1" xmlns="http://www.w3.org/2000/svg" xmlns:xlink="http://www.w3.org/1999/xlink" x="0px" y="0px"
	 viewBox="0 0 48 48" style="enable-background:new 0 0 48 48;" xml:space="preserve">
<style type="text/css">
	.st0{fill:#FFFFFF;}
	.st1{fill:#1A1A18;}
</style>
<g>
	<g>
		<path class="st0" d="M22.4,7.9h3.2c0.3,0,0.6-0.2,0.6-0.5V1.4c0-0.3-0.2-0.5-0.6-0.5l-2.9,2l-0.8,4.5C21.9,7.7,22.1,7.9,22.4,7.9z
			"/>
		<path class="st0" d="M34.7,44.9l-7.2-17.7c-0.3-0.9-1.3-1.2-2-1.2c-0.7,0-2.2,0-2.9,0c-0.7,0-1.8,0.2-2,1.2l-7.2,17.7
			c-0.3,0.9,0.2,1.8,1.1,2.1s1.6-0.4,2.4-1l7.2-7.4l7.2,7.4c0.7,0.7,1.5,1.3,2.4,1C34.4,46.8,34.9,45.8,34.7,44.9z"/>
	</g>
	<g>
		<path class="st1" d="M26.4,31.2h-4.7c-0.3,0-0.5,0.2-0.5,0.5v1.9c0,0.3,0.2,0.5,0.5,0.5h4.7c0.3,0,0.5-0.2,0.5-0.5v-1.9
			C26.9,31.4,26.7,31.2,26.4,31.2z"/>
		<path class="st1" d="M35.5,44.7C35.5,44.7,35.5,44.6,35.5,44.7l-7.2-17.8C28,25.8,27,25.4,26,25.2V8.7c0.2-0.1,0.5-0.2,0.7-0.4
			C26.9,8.1,27,7.8,27,7.4V1.4C27,0.6,26.4,0,25.6,0h0c-0.2,0-0.4,0.1-0.5,0.2l-2.9,2c-0.2,0.1-0.3,0.3-0.4,0.6L21,7.3
			c0,0.1,0,0.1,0,0.2c0,0.6,0.4,1.1,1,1.3v16.5c-1,0.1-2,0.6-2.3,1.7l-7.2,17.7c0,0,0,0.1,0,0.1c-0.4,1.4,0.4,2.8,1.7,3.2
			c0.2,0.1,0.4,0.1,0.7,0.1c1.1,0,1.9-0.8,2.6-1.4l6.6-6.7l6.6,6.8c0.6,0.6,1.5,1.3,2.6,1.3c0.2,0,0.4,0,0.7-0.1
			C35.2,47.5,35.9,46.1,35.5,44.7z M23.5,3.4l1.7-1.2V7h-0.1c0,0,0,0,0,0h-2.2c0,0,0,0,0,0h0L23.5,3.4z M33.3,46.2c0,0-0.1,0-0.1,0
			c-0.4,0-1-0.5-1.3-0.8L24.6,38c-0.2-0.2-0.4-0.3-0.6-0.3c-0.2,0-0.5,0.1-0.6,0.3l-7.2,7.3c-0.4,0.4-1,0.9-1.4,0.9c0,0-0.1,0-0.1,0
			c-0.4-0.1-0.6-0.6-0.5-1l7.2-17.7c0,0,0-0.1,0-0.1c0.1-0.2,0.3-0.4,0.6-0.4v2c0,0.5,0.4,0.9,0.9,0.9l2.2,0c0.2,0,0.5-0.1,0.6-0.3
			c0.2-0.2,0.3-0.4,0.3-0.6v-2c0.3,0.1,0.6,0.2,0.6,0.4c0,0,0,0.1,0,0.1l7.2,17.7C33.9,45.6,33.7,46.1,33.3,46.2z"/>
		<circle class="st1" cx="28.5" cy="35.5" r="0.5"/>
		<circle class="st1" cx="29.5" cy="37.6" r="0.5"/>
	</g>
</g>
</svg>
