<?xml version="1.0" encoding="utf-8"?>
<!-- Generator: Adobe Illustrator 19.2.1, SVG Export Plug-In . SVG Version: 6.00 Build 0)  -->
<svg version="1.1" id="Layer_1" xmlns="http://www.w3.org/2000/svg" xmlns:xlink="http://www.w3.org/1999/xlink" x="0px" y="0px"
	 viewBox="0 0 48 48" style="enable-background:new 0 0 48 48;" xml:space="preserve">
<style type="text/css">
	.st0{fill:#FFFFFF;}
</style>
<g>
	<path d="M45.1,11.2H2.9c-1.6,0-2.9,1.3-2.9,2.9v16.3c0,1.6,1.3,2.9,2.9,2.9h4.7l2,3.1c0.2,0.3,0.4,0.4,0.7,0.4c0,0,0,0,0,0
		c0.3,0,0.6-0.2,0.7-0.4l1.9-3.1h32.2c1.6,0,2.9-1.3,2.9-2.9V14.1C48,12.5,46.7,11.2,45.1,11.2z M13.6,26.7c0.1,0.1,0.1,0.3,0,0.5
		L13,27.9c-0.1,0.1-0.1,0.1-0.2,0.1c0,0,0,0,0,0c-0.1,0-0.2,0-0.2-0.1l-6.1-5.6c-0.1-0.1-0.1-0.2-0.1-0.3c0-0.1,0-0.2,0.1-0.3
		l6.1-5.5c0.1-0.1,0.2-0.1,0.3-0.1c0.1,0,0.2,0.1,0.2,0.1l0.6,0.8c0.1,0.1,0.1,0.3,0,0.5l-4.9,4.5L13.6,26.7z M22.6,27.7
		c0,0.1,0,0.2-0.1,0.2c-0.1,0.1-0.2,0.1-0.2,0.1h0l-1.2,0c-0.2,0-0.3-0.2-0.3-0.3l0-4.8c0-0.6,0-2.3-0.7-2.3c-0.7,0-1.4,0.7-1.7,1.3
		C18,22.7,18,23.5,18,24.5l0,3.3c0,0.1,0,0.2-0.1,0.2c-0.1,0.1-0.2,0.1-0.2,0.1h0l-1.2,0c-0.2,0-0.3-0.2-0.3-0.3l0-11.4
		c0-0.1,0-0.2,0.1-0.2c0.1-0.1,0.2-0.1,0.2-0.1h0l1.2,0c0.2,0,0.3,0.2,0.3,0.3l0,3.5c0.6-0.5,1.4-0.8,2.1-0.8c0.5,0,1.2,0.1,1.7,0.7
		c0.5,0.6,0.8,1.7,0.8,3.3L22.6,27.7z M31.5,27.8c0,0.1,0,0.2-0.1,0.2c-0.1,0.1-0.2,0.1-0.2,0.1h0l-5.2,0c-0.2,0-0.3-0.2-0.3-0.3
		l0-1c0-0.1,0-0.2,0.1-0.2c0.1-0.1,0.2-0.1,0.2-0.1h0l1.7,0l0-8.4l-1.7,0.5c-0.1,0-0.2,0-0.3-0.1c-0.1-0.1-0.1-0.2-0.1-0.3l0-0.9
		c0-0.2,0.1-0.3,0.2-0.3l3.3-1c0.1,0,0.2,0,0.3,0.1c0.1,0.1,0.1,0.2,0.1,0.3l0,10.1l1.6,0c0.2,0,0.3,0.2,0.3,0.3L31.5,27.8z
		 M41.4,22.5L35.3,28c-0.1,0.1-0.1,0.1-0.2,0.1c0,0,0,0,0,0c-0.1,0-0.2-0.1-0.2-0.1l-0.6-0.8c-0.1-0.1-0.1-0.4,0-0.5l4.9-4.5
		l-4.9-4.5c-0.1-0.1-0.1-0.3,0-0.5l0.6-0.8c0.1-0.1,0.1-0.1,0.2-0.1c0.1,0,0.2,0,0.3,0.1l6.1,5.6c0.1,0.1,0.1,0.2,0.1,0.3
		C41.5,22.3,41.4,22.4,41.4,22.5z"/>
	<g>
		<path class="st0" d="M13.7,17.2L13,16.4c-0.1-0.1-0.1-0.1-0.2-0.1c-0.1,0-0.2,0-0.3,0.1l-6.1,5.5c-0.1,0.1-0.1,0.2-0.1,0.3
			c0,0.1,0,0.2,0.1,0.3l6.1,5.6c0.1,0.1,0.1,0.1,0.2,0.1c0,0,0,0,0,0c0.1,0,0.2-0.1,0.2-0.1l0.6-0.8c0.1-0.1,0.1-0.3,0-0.5l-4.9-4.5
			l4.9-4.5C13.8,17.6,13.8,17.4,13.7,17.2z"/>
		<path class="st0" d="M20.1,19c-0.8,0-1.5,0.3-2.1,0.8l0-3.5c0-0.2-0.2-0.3-0.3-0.3l-1.2,0h0c-0.1,0-0.2,0-0.2,0.1
			c-0.1,0.1-0.1,0.2-0.1,0.2l0,11.4c0,0.2,0.2,0.3,0.3,0.3l1.2,0h0c0.1,0,0.2,0,0.2-0.1c0.1-0.1,0.1-0.2,0.1-0.2l0-3.3
			c0-0.9,0-1.7,0.4-2.5c0.3-0.6,1-1.3,1.7-1.3c0.7,0,0.7,1.7,0.7,2.3l0,4.8c0,0.2,0.2,0.3,0.3,0.3l1.2,0h0c0.1,0,0.2,0,0.2-0.1
			c0.1-0.1,0.1-0.2,0.1-0.2l0-4.7c0-1.6-0.2-2.7-0.8-3.3C21.3,19.1,20.6,19,20.1,19z"/>
		<path class="st0" d="M31.2,26.4l-1.6,0l0-10.1c0-0.1-0.1-0.2-0.1-0.3c-0.1-0.1-0.2-0.1-0.3-0.1l-3.3,1c-0.1,0-0.2,0.2-0.2,0.3
			l0,0.9c0,0.1,0.1,0.2,0.1,0.3c0.1,0.1,0.2,0.1,0.3,0.1l1.7-0.5l0,8.4l-1.7,0h0c-0.1,0-0.2,0-0.2,0.1c-0.1,0.1-0.1,0.2-0.1,0.2l0,1
			c0,0.2,0.2,0.3,0.3,0.3l5.2,0h0c0.1,0,0.2,0,0.2-0.1c0.1-0.1,0.1-0.2,0.1-0.2l0-1C31.5,26.6,31.3,26.4,31.2,26.4z"/>
		<path class="st0" d="M41.4,22l-6.1-5.6c-0.1-0.1-0.2-0.1-0.3-0.1c-0.1,0-0.2,0.1-0.2,0.1l-0.6,0.8c-0.1,0.1-0.1,0.3,0,0.5l4.9,4.5
			l-4.9,4.5c-0.1,0.1-0.2,0.3,0,0.5l0.6,0.8c0.1,0.1,0.1,0.1,0.2,0.1c0,0,0,0,0,0c0.1,0,0.2,0,0.2-0.1l6.1-5.5
			c0.1-0.1,0.1-0.2,0.1-0.3C41.5,22.1,41.4,22,41.4,22z"/>
	</g>
</g>
</svg>
