<?xml version="1.0" encoding="utf-8"?>
<!-- Generator: Adobe Illustrator 19.2.1, SVG Export Plug-In . SVG Version: 6.00 Build 0)  -->
<svg version="1.1" id="Layer_1" xmlns="http://www.w3.org/2000/svg" xmlns:xlink="http://www.w3.org/1999/xlink" x="0px" y="0px"
	 viewBox="0 0 48 48" style="enable-background:new 0 0 48 48;" xml:space="preserve">
<style type="text/css">
	.st0{fill:#FFFFFF;}
</style>
<g>
	<path class="st0" d="M46.8,28.5v-2.2c0-1.1-1.3-2-2.9-2h-2.3c1.6,0,2.9-0.9,2.9-2V19c0-0.8-0.7-1.5-1.8-1.9h1
		c1.6,0,2.9-0.7,2.9-1.6v-1.7c0-0.1,0-0.2,0-0.3C45.9,7.2,36,2,24,2S2.1,7.2,1.4,13.6c0,0.1,0,0.2,0,0.3v1.7c0,0.9,1.3,1.6,2.9,1.6
		h1.2c-1,0.3-1.8,1-1.8,1.9v3.3c0,1.1,1.3,2,2.9,2H4c-1.6,0-2.9,0.9-2.9,2v2.2c0,1.1,1.3,2,2.9,2h2.5c-1.6,0-2.9,0.9-2.9,2v3.3
		c0,1.1,1.3,2,2.9,2H4c-1.6,0-2.9,1.2-2.9,2.7v2.9c0,1.5,1.3,2.7,2.9,2.7h39.6c1.6,0,2.9-1.2,2.9-2.7v-2.9c0-1.5-1.3-2.7-2.9-2.7h-2
		c1.6,0,2.9-0.9,2.9-2v-3.3c0-1.1-1.3-2-2.9-2h2.3C45.5,30.5,46.8,29.6,46.8,28.5z"/>
	<g>
		<circle cx="8.3" cy="21.9" r="0.7"/>
		<circle cx="11" cy="21.9" r="0.7"/>
		<circle cx="13.6" cy="21.9" r="0.7"/>
		<circle cx="16.2" cy="21.9" r="0.7"/>
		<circle cx="7" cy="19.3" r="0.7"/>
		<circle cx="9.7" cy="19.3" r="0.7"/>
		<circle cx="12.3" cy="19.3" r="0.7"/>
		<circle cx="14.9" cy="19.3" r="0.7"/>
		<circle cx="17.5" cy="19.3" r="0.7"/>
		<circle cx="18.8" cy="21.9" r="0.7"/>
		<circle cx="21.5" cy="21.9" r="0.7"/>
		<circle cx="24" cy="21.9" r="0.7"/>
		<circle cx="20.2" cy="19.3" r="0.7"/>
		<circle cx="22.8" cy="19.3" r="0.7"/>
		<circle cx="25.3" cy="19.3" r="0.7"/>
		<circle cx="26.6" cy="21.9" r="0.7"/>
		<circle cx="29.3" cy="21.9" r="0.7"/>
		<circle cx="31.9" cy="21.9" r="0.7"/>
		<circle cx="34.5" cy="21.9" r="0.7"/>
		<circle cx="37.1" cy="21.9" r="0.7"/>
		<circle cx="39.8" cy="21.9" r="0.7"/>
		<circle cx="41.1" cy="19.3" r="0.7"/>
		<circle cx="27.9" cy="19.3" r="0.7"/>
		<circle cx="30.6" cy="19.3" r="0.7"/>
		<circle cx="33.2" cy="19.3" r="0.7"/>
		<circle cx="35.8" cy="19.3" r="0.7"/>
		<circle cx="38.5" cy="19.3" r="0.7"/>
		<path d="M10.1,11c0.7,0.4,1.4,0.5,2,0.5c0.9,0,1.3-0.4,1.4-0.7c0.1-0.3,0.3-0.9-0.3-1.7c-0.4-0.4-0.9-0.9-1.5-1.2
			c-0.7-0.4-1.4-0.5-2-0.5c-0.9,0-1.3,0.4-1.4,0.7C8,8.4,7.9,9,8.5,9.8C8.9,10.2,9.4,10.7,10.1,11z"/>
		<path d="M18.2,11.3c0.5,0,1-0.1,1.6-0.3c1.6-0.5,2.6-1.6,2.3-2.5c-0.2-0.6-0.8-1-1.8-1c-0.5,0-1,0.1-1.6,0.3
			c-1.6,0.5-2.6,1.6-2.3,2.5C16.7,11,17.3,11.3,18.2,11.3z"/>
		<path d="M34.8,11.3c0.5,0,1-0.1,1.6-0.3c0.7-0.2,1.3-0.5,1.7-0.9c0.8-0.7,0.7-1.3,0.6-1.6c-0.2-0.6-0.8-1-1.8-1
			c-0.5,0-1,0.1-1.6,0.3C34.6,8,34,8.3,33.6,8.7c-0.8,0.7-0.7,1.3-0.6,1.6C33.2,11,33.9,11.3,34.8,11.3z"/>
		<path d="M27.1,11c0.7,0.4,1.4,0.5,2,0.5c0.9,0,1.3-0.4,1.4-0.7c0.4-0.9-0.4-2-1.9-2.8c-0.7-0.4-1.4-0.5-2-0.5
			c-0.9,0-1.3,0.4-1.4,0.7C24.7,9,25.5,10.2,27.1,11z"/>
		<path d="M45.3,23.4c0.2-0.4,0.3-0.7,0.3-1.1V19c0-0.4-0.1-0.8-0.3-1.2c1.5-0.4,2.5-1.3,2.5-2.5v-1.7c0-0.2,0-0.3-0.1-0.5
			c-0.8-7-11-12.4-23.8-12.4S1.1,6.1,0.3,13.2c0,0.2-0.1,0.3-0.1,0.5v1.7c0,1.2,1,2.1,2.6,2.5c-0.2,0.4-0.3,0.8-0.3,1.2v3.3
			c0,0.4,0.1,0.8,0.3,1.1c-1.6,0.4-2.7,1.5-2.7,3v2.2c0,1.4,1.1,2.6,2.7,3c-0.2,0.3-0.3,0.7-0.3,1.1v3.3c0,0.4,0.1,0.8,0.3,1.1
			C1.2,37.5,0,38.9,0,40.6v2.9c0,2.1,1.8,3.8,4,3.8h39.6c2.2,0,4-1.7,4-3.8v-2.9c0-1.5-0.9-2.8-2.3-3.4c0.2-0.4,0.4-0.8,0.4-1.3
			v-3.3c0-0.4-0.1-0.8-0.3-1.1c1.5-0.4,2.6-1.6,2.6-2.9v-2.2C47.9,25,46.8,23.8,45.3,23.4z M2.4,15.3v-1.6c0-0.1,0-0.1,0-0.2
			c0.4-3.6,4.2-6.7,9.7-8.7c0,0.2,0,0.3,0,0.5c0.2,0.6,0.8,1,1.8,1c0.5,0,1-0.1,1.6-0.3c0.7-0.2,1.3-0.5,1.7-0.9
			c0.8-0.7,0.7-1.3,0.6-1.6c0,0,0,0,0-0.1c1-0.2,2.1-0.3,3.2-0.4c0.1,0.2,0.2,0.5,0.4,0.7c0.4,0.4,0.9,0.9,1.5,1.2
			c0.7,0.4,1.4,0.5,2,0.5c0.9,0,1.3-0.4,1.4-0.7c0.1-0.3,0.3-0.9-0.3-1.7c0-0.1-0.1-0.1-0.2-0.2c1.6,0.2,3.2,0.4,4.7,0.6
			c-0.6,0.5-0.9,1.1-0.7,1.7C29.9,5.7,30.5,6,31.5,6c0.5,0,1-0.1,1.6-0.3c0.7-0.2,1.3-0.5,1.7-0.9c0.1-0.1,0.2-0.2,0.3-0.3
			c5.9,1.9,10.1,5.2,10.5,8.9c0,0.1,0,0.1,0,0.1v1.6c-0.1,0.2-0.7,0.5-1.8,0.5H4.2C3.1,15.7,2.5,15.4,2.4,15.3z M43.4,18.9v3.3
			c0,0.4-0.7,0.9-1.8,0.9H6.5c-1.1,0-1.8-0.6-1.8-0.9v-3.3c0-0.4,0.7-0.9,1.8-0.9h35.1C42.7,18,43.4,18.6,43.4,18.9z M45.4,40.6v2.9
			c0,0.9-0.8,1.6-1.8,1.6H4c-1,0-1.8-0.7-1.8-1.6v-2.9C2.2,39.7,3,39,4,39h2.5h35.1h2C44.6,39,45.4,39.7,45.4,40.6z M4.7,35.8v-3.3
			c0-0.4,0.7-0.9,1.8-0.9h35.1c1.1,0,1.8,0.6,1.8,0.9v3.3c0,0.4-0.7,0.9-1.8,0.9H6.5C5.4,36.8,4.7,36.2,4.7,35.8z M45.7,28.5
			c0,0.4-0.7,0.9-1.8,0.9h-2.3H6.5H4c-1.1,0-1.8-0.6-1.8-0.9v-2.2c0-0.4,0.7-0.9,1.8-0.9h2.5h35.1h2.3c1.1,0,1.8,0.6,1.8,0.9V28.5z"
			/>
		<circle cx="8.3" cy="35.5" r="0.7"/>
		<circle cx="11" cy="35.5" r="0.7"/>
		<circle cx="13.6" cy="35.5" r="0.7"/>
		<circle cx="16.2" cy="35.5" r="0.7"/>
		<circle cx="7" cy="32.9" r="0.7"/>
		<circle cx="9.7" cy="32.9" r="0.7"/>
		<circle cx="12.3" cy="32.9" r="0.7"/>
		<circle cx="14.9" cy="32.9" r="0.7"/>
		<circle cx="17.5" cy="32.9" r="0.7"/>
		<circle cx="18.8" cy="35.5" r="0.7"/>
		<circle cx="21.5" cy="35.5" r="0.7"/>
		<circle cx="24" cy="35.5" r="0.7"/>
		<circle cx="20.2" cy="32.9" r="0.7"/>
		<circle cx="22.8" cy="32.9" r="0.7"/>
		<circle cx="25.3" cy="32.9" r="0.7"/>
		<circle cx="26.6" cy="35.5" r="0.7"/>
		<circle cx="29.3" cy="35.5" r="0.7"/>
		<circle cx="31.9" cy="35.5" r="0.7"/>
		<circle cx="34.5" cy="35.5" r="0.7"/>
		<circle cx="37.1" cy="35.5" r="0.7"/>
		<circle cx="39.8" cy="35.5" r="0.7"/>
		<circle cx="41.1" cy="32.9" r="0.7"/>
		<circle cx="27.9" cy="32.9" r="0.7"/>
		<circle cx="30.6" cy="32.9" r="0.7"/>
		<circle cx="33.2" cy="32.9" r="0.7"/>
		<circle cx="35.8" cy="32.9" r="0.7"/>
		<circle cx="38.5" cy="32.9" r="0.7"/>
	</g>
</g>
</svg>
