<?xml version="1.0" encoding="utf-8"?>
<!-- Generator: Adobe Illustrator 19.2.1, SVG Export Plug-In . SVG Version: 6.00 Build 0)  -->
<svg version="1.1" id="Layer_1" xmlns="http://www.w3.org/2000/svg" xmlns:xlink="http://www.w3.org/1999/xlink" x="0px" y="0px"
	 viewBox="0 0 48 48" style="enable-background:new 0 0 48 48;" xml:space="preserve">
<style type="text/css">
	.st0{fill:#FFFFFF;}
</style>
<g>
	<path class="st0" d="M36.8,6.4c-2.3,0-3.6,1.8-3.6,4.2v8.4c-0.2-2-1.3-3.5-3.4-3.5c-2.1,0-3.3,1.5-3.6,3.6l0-0.4
		c0-2.3-1.1-4.3-3.5-4.2c-2.2,0-3.4,1.7-3.6,3.8l0-11.7c0-3.3-1.1-5.3-3.5-5.3c-2.3,0-3.6,1.8-3.6,4.2L12,18c0,0-4.2-0.5-4.2,4.1
		c0,1.5,0,8.7,0,10.8c0.1,7.5,7.7,13.9,7.7,13.9h18.2c0,0,6.6-4.3,6.6-11.2l0-23.9C40.2,8.3,39.1,6.4,36.8,6.4z"/>
	<g>
		<path d="M39.8,6.3c-0.8-0.8-1.8-1.2-3-1.2c-2.9,0-4.8,2.2-4.9,5.4v4.1c-0.6-0.3-1.4-0.5-2.1-0.5c-1.2,0-2.3,0.4-3.1,1.1
			c-0.1-0.1-0.2-0.3-0.3-0.4c-0.8-1.1-2.1-1.8-3.6-1.8h0c-0.9,0-1.6,0.2-2.3,0.6l0-7.2c0-2.4-0.6-4.2-1.7-5.3C18,0.4,17,0,15.8,0
			c0,0,0,0,0,0c-2.9,0-4.8,2.2-4.9,5.4v11.3C10.1,16.9,9,17.2,8.1,18c-1.1,0.9-1.6,2.3-1.6,4.1c0,0.4,0,1.3,0,2.3c0,2.8,0,6.9,0,8.5
			c0.1,8,7.8,14.5,8.1,14.8c0.2,0.2,0.5,0.3,0.8,0.3h18.2c0.2,0,0.5-0.1,0.7-0.2c0.3-0.2,7.2-4.7,7.2-12.2l0-23.9
			C41.5,9.2,40.9,7.4,39.8,6.3z M38.9,35.6c0,5.3-4.5,9-5.7,9.9H15.9c-1.4-1.3-6.8-6.6-6.9-12.6c0-1.6,0-5.7,0-8.5
			c0-1.1,0-1.9,0-2.4c0-1,0.3-1.7,0.7-2.2c0.3-0.3,0.7-0.4,1.1-0.5v6.6c0,0.7,0.6,1.3,1.3,1.3c0.7,0,1.3-0.6,1.3-1.3V5.5
			c0-0.7,0.2-2.9,2.3-2.9h0c0.5,0,0.9,0.1,1.3,0.5c0.6,0.6,0.9,1.9,0.9,3.5l0,11.5c0,0.2,0,0.4,0,0.6l0,3.3c0,0.7,0.6,1.3,1.3,1.3h0
			c0.7,0,1.3-0.6,1.3-1.3l0-3.8c0.1-0.9,0.5-2.4,2.3-2.4h0c0.7,0,1.2,0.2,1.6,0.7c0.4,0.5,0.6,1.3,0.6,2.2l0,0.2c0,0.3,0,0.5,0,0.8
			l0,2.3c0,0.7,0.6,1.3,1.3,1.3h0c0.7,0,1.3-0.6,1.3-1.3l0-2.9c0.1-0.9,0.6-2.3,2.3-2.3h0c0.7,0,1.2,0.2,1.6,0.7
			c0.3,0.4,0.5,0.9,0.6,1.5v3c0,0.4,0.2,0.8,0.6,1.1c0.4,0.3,0.9,0.3,1.3,0.1c0.4-0.2,0.7-0.7,0.7-1.1v-2.3c0-0.3,0-0.6,0-0.9v-8.2
			c0-0.7,0.2-2.9,2.3-2.9c0.5,0,0.9,0.1,1.3,0.5c0.6,0.6,0.9,1.9,0.9,3.5L38.9,35.6z"/>
		<circle cx="28.3" cy="29.2" r="0.8"/>
		<circle cx="20.7" cy="26.2" r="0.8"/>
		<circle cx="26.8" cy="26.2" r="0.8"/>
		<circle cx="34.4" cy="41.2" r="0.8"/>
		<circle cx="32.9" cy="38.2" r="0.8"/>
		<circle cx="35.9" cy="38.2" r="0.8"/>
		<circle cx="31.3" cy="35.1" r="0.8"/>
		<circle cx="34.4" cy="35.1" r="0.8"/>
		<circle cx="37.4" cy="35.1" r="0.8"/>
		<circle cx="35.9" cy="26" r="0.8"/>
		<circle cx="35.9" cy="20" r="0.8"/>
		<circle cx="37.4" cy="23" r="0.8"/>
		<circle cx="32.9" cy="32.1" r="0.8"/>
		<circle cx="35.9" cy="32.1" r="0.8"/>
		<circle cx="31.3" cy="29.1" r="0.8"/>
		<circle cx="25.3" cy="29.1" r="0.8"/>
		<circle cx="17.7" cy="26" r="0.8"/>
		<circle cx="23.7" cy="26" r="0.8"/>
		<circle cx="29.8" cy="26" r="0.8"/>
		<circle cx="29.8" cy="32.1" r="0.8"/>
		<circle cx="32.9" cy="26" r="0.8"/>
		<circle cx="34.4" cy="29.1" r="0.8"/>
		<circle cx="37.4" cy="29.1" r="0.8"/>
		<circle cx="35.9" cy="13.9" r="0.8"/>
		<circle cx="37.4" cy="16.9" r="0.8"/>
		<circle cx="37.4" cy="10.9" r="0.8"/>
	</g>
</g>
</svg>
