<?xml version="1.0" encoding="utf-8"?>
<!-- Generator: Adobe Illustrator 19.2.1, SVG Export Plug-In . SVG Version: 6.00 Build 0)  -->
<svg version="1.1" id="Layer_1" xmlns="http://www.w3.org/2000/svg" xmlns:xlink="http://www.w3.org/1999/xlink" x="0px" y="0px"
	 viewBox="0 0 48 48" style="enable-background:new 0 0 48 48;" xml:space="preserve">
<style type="text/css">
	.st0{fill:#1A1A18;}
</style>
<path class="st0" d="M44.4,19.8c2,0,3.6-1.6,3.6-3.6s-1.6-3.6-3.6-3.6h-5.2l1.6-5.7C41.3,5,40.2,3,38.2,2.4
	c-1.9-0.5-3.9,0.6-4.5,2.5l-2.1,7.6h-9l1.6-5.7C24.8,5,23.7,3,21.7,2.4c-1.9-0.5-3.9,0.6-4.5,2.5l-2.1,7.6H6.9c-2,0-3.6,1.6-3.6,3.6
	s1.6,3.6,3.6,3.6h6.2l-2.3,8.3H3.6c-2,0-3.6,1.6-3.6,3.6c0,2,1.6,3.6,3.6,3.6h5.2l-1.6,5.7C6.7,43,7.8,45,9.8,45.6
	c0.3,0.1,0.7,0.1,1,0.1c1.6,0,3.1-1.1,3.5-2.7l2.1-7.6h9l-1.6,5.7c-0.5,1.9,0.6,3.9,2.5,4.5c0.3,0.1,0.7,0.1,1,0.1
	c1.6,0,3.1-1.1,3.5-2.7l2.1-7.6h8.2c2,0,3.6-1.6,3.6-3.6c0-2-1.6-3.6-3.6-3.6h-6.2l2.3-8.3H44.4z M27.3,28.2h-9l2.3-8.3h9L27.3,28.2
	z"/>
</svg>
