<?xml version="1.0" encoding="utf-8"?>
<!-- Generator: Adobe Illustrator 19.2.1, SVG Export Plug-In . SVG Version: 6.00 Build 0)  -->
<svg version="1.1" id="Layer_1" xmlns="http://www.w3.org/2000/svg" xmlns:xlink="http://www.w3.org/1999/xlink" x="0px" y="0px"
	 viewBox="0 0 48 48" style="enable-background:new 0 0 48 48;" xml:space="preserve">
<style type="text/css">
	.st0{fill:#FFFFFF;}
</style>
<g>
	<g>
		<path class="st0" d="M13.5,25l-5.4,1c-2.6,0.5-3.8,5.5-2.8,11.1c1,5.8,3.9,10,6.5,9.5l5.4-1c2.6-0.5,3.8-5.5,2.8-11.1
			C18.9,28.8,16,24.5,13.5,25z"/>
		<path class="st0" d="M39.9,25.9l-5.4-1c-2.6-0.4-5.5,3.9-6.6,9.6c-1,5.8,0.2,10.7,2.8,11.1l5.4,1c2.6,0.5,5.5-3.8,6.5-9.5
			C43.6,31.4,42.4,26.4,39.9,25.9z"/>
	</g>
	<g>
		<ellipse transform="matrix(0.1731 -0.9849 0.9849 0.1731 -9.8936 64.4224)" cx="33.4" cy="38.1" rx="0.6" ry="0.6"/>
		<ellipse transform="matrix(0.1739 -0.9848 0.9848 0.1739 -11.3603 61.7013)" cx="31.1" cy="37.6" rx="0.6" ry="0.6"/>
		<ellipse transform="matrix(0.1731 -0.9849 0.9849 0.1731 -4.4682 61.3499)" cx="34.3" cy="33.3" rx="0.6" ry="0.6"/>
		<ellipse transform="matrix(0.1739 -0.9848 0.9848 0.1739 -6.0469 58.6962)" cx="32" cy="33" rx="0.6" ry="0.6"/>
		<ellipse transform="matrix(0.1733 -0.9849 0.9849 0.1733 -6.4285 64.2799)" cx="35.1" cy="36" rx="0.6" ry="0.6"/>
		<ellipse transform="matrix(0.1739 -0.9848 0.9848 0.1739 -7.9562 61.4528)" cx="32.6" cy="35.5" rx="0.6" ry="0.6"/>
		<ellipse transform="matrix(0.1745 -0.9847 0.9847 0.1745 -9.5293 58.8075)" cx="30.3" cy="35.1" rx="0.6" ry="0.6"/>
		<ellipse transform="matrix(0.9849 -0.173 0.173 0.9849 -6.3628 3.1213)" cx="14.7" cy="38.1" rx="0.6" ry="0.6"/>
		<ellipse transform="matrix(0.9848 -0.1739 0.1739 0.9848 -6.2882 3.5499)" cx="17.1" cy="37.7" rx="0.6" ry="0.6"/>
		<ellipse transform="matrix(0.9848 -0.1738 0.1738 0.9848 -5.5903 2.9301)" cx="13.9" cy="33.4" rx="0.6" ry="0.6"/>
		<ellipse transform="matrix(0.9848 -0.1737 0.1737 0.9848 -5.4854 3.3201)" cx="16.2" cy="33" rx="0.6" ry="0.6"/>
		<ellipse transform="matrix(0.9849 -0.1733 0.1733 0.9849 -6.0354 2.8225)" cx="13.1" cy="36" rx="0.6" ry="0.6"/>
		<ellipse transform="matrix(0.9848 -0.1739 0.1739 0.9848 -5.9323 3.2389)" cx="15.5" cy="35.5" rx="0.6" ry="0.6"/>
		<ellipse transform="matrix(0.9848 -0.1739 0.1739 0.9848 -5.8304 3.6312)" cx="17.8" cy="35.1" rx="0.6" ry="0.6"/>
		<path d="M45.8,30.9c0.5-1.9,0.8-3.8,0.8-5.8c0-6.3-2.6-11.8-6.7-15.9L41.1,8c0.4-0.4,0.3-1-0.1-1.4C36.4,2.4,30.4,0,24.2,0
			C18,0,12.1,2.3,7.6,6.4C7.4,6.6,7.3,6.8,7.2,7.1c0,0.3,0.1,0.5,0.3,0.7l1.1,1.2C4.3,13,1.7,18.8,1.7,25.1c0,1.9,0.2,3.7,0.7,5.4
			c-1,1.6-1.4,4.3-0.8,7.4c0.8,4.3,2.9,7.3,5.1,7.3l0,0c0.1,0,0.3,0,0.4,0L7.4,45l0,0c1.1,1.7,2.6,2.7,4,2.7c0.2,0,0.4,0,0.5,0
			l5.4-1c3.2-0.6,4.8-5.9,3.6-12.3C19.7,28,16.3,23.5,13.2,24l-5.4,1c-1.6,0.2-2.8,1.8-3.4,4.1l-0.3,0.1c-0.1,0-0.2,0-0.3,0.1
			c-0.3-1.3-0.4-2.7-0.4-4.1c0-5.8,2.4-11,6.3-14.8l0.9,1c0.4,0.4,1,0.4,1.4,0.1c3.4-3,7.7-4.6,12-4.6c4.6,0,8.9,1.7,12.3,4.9
			c0.2,0.2,0.4,0.3,0.7,0.3l0,0c0.3,0,0.5-0.1,0.7-0.3l0.9-1c3.7,3.8,6.1,8.8,6.1,14.6c0,1.4-0.2,2.9-0.4,4.2
			c-0.2-0.1-0.4-0.2-0.6-0.2l-0.3-0.1c-0.6-2.3-1.8-3.8-3.5-4.1l-5.4-1c-0.2,0-0.4,0-0.5,0c-3,0-6,4.4-7.1,10.4
			C26,41.1,27.4,46.4,30.6,47l5.4,1c0.2,0,0.4,0,0.5,0c1.5,0,2.9-1,4.1-2.7l0,0l0.3,0.1c0.1,0,0.3,0,0.4,0c2.2,0,4.3-3,5.1-7.3
			C46.9,35,46.7,32.5,45.8,30.9z M13.6,25.9c0.1,0,0.1,0,0.2,0c1.7,0,4.2,3.5,5.1,8.7c1,5.4-0.3,9.7-2,10c-0.1,0-0.1,0-0.2,0
			c-1.7,0-4.2-3.5-5.1-8.7C10.8,30.6,11.9,26.3,13.6,25.9z M8.3,26.9l2.2-0.4c-1.1,2.3-1.4,5.9-0.7,9.8s2.2,7.2,4.1,8.9l-2.3,0.4
			c-0.1,0-0.1,0-0.2,0c-1.7,0-4.2-3.5-5.1-8.7C5.4,31.6,6.6,27.2,8.3,26.9z M31.1,44.7c-0.1,0-0.1,0-0.2,0c-1.7-0.3-2.9-4.7-2-10
			c0.9-5.3,3.4-8.7,5.1-8.7c0.1,0,0.1,0,0.2,0c1.7,0.3,2.9,4.7,2,10C35.3,41.2,32.9,44.7,31.1,44.7z M41.7,37
			c-0.9,5.3-3.4,8.7-5.1,8.7c-0.1,0-0.1,0-0.2,0l-2.2-0.4c1.8-1.8,3.4-5,4.1-8.9c0.7-4,0.4-7.6-0.7-9.8l2.2,0.4
			C41.4,27.2,42.6,31.6,41.7,37z"/>
	</g>
</g>
</svg>
