<?xml version="1.0" encoding="utf-8"?>
<!-- Generator: Adobe Illustrator 19.2.1, SVG Export Plug-In . SVG Version: 6.00 Build 0)  -->
<svg version="1.1" id="Layer_1" xmlns="http://www.w3.org/2000/svg" xmlns:xlink="http://www.w3.org/1999/xlink" x="0px" y="0px"
	 viewBox="0 0 48 48" style="enable-background:new 0 0 48 48;" xml:space="preserve">
<style type="text/css">
	.st0{fill:#FFFFFF;}
</style>
<g>
	<polygon class="st0" points="34,14.2 34,9.8 30.7,9.8 30.7,5.5 27.5,5.5 27.5,1.1 21,1.1 21,5.5 17.8,5.5 17.8,9.8 14.5,9.8 
		14.5,14.2 10.4,14.2 10.4,18 10.4,18.6 10.4,46.6 19.4,46.6 29.1,46.6 38.1,46.6 38.1,18.6 38.1,18 38.1,14.2 	"/>
	<g>
		<path d="M38.1,13.2H35V9.8c0-0.6-0.5-1.1-1.1-1.1h-2.2V5.5c0-0.6-0.5-1.1-1.1-1.1h-2.2V1.1c0-0.6-0.5-1.1-1.1-1.1h-6.5
			c-0.6,0-1.1,0.5-1.1,1.1v3.4h-2.2c-0.6,0-1.1,0.5-1.1,1.1v3.4h-2.2c-0.6,0-1.1,0.5-1.1,1.1v3.4h-3.1c-0.6,0-1.1,0.5-1.1,1.1v32.4
			c0,0.6,0.5,1.1,1.1,1.1h8.9h9.7h8.9c0.6,0,1.1-0.5,1.1-1.1V14.2C39.2,13.6,38.7,13.2,38.1,13.2z M23.2,45.6h-2.8v-2.5h2.8V45.6z
			 M28,45.6h-2.8v-2.5H28V45.6z M37.1,45.6h-6.9v-3.5c0-0.6-0.5-1.1-1.1-1.1h-9.7c-0.6,0-1.1,0.5-1.1,1.1v3.5h-6.9V19.7H37
			L37.1,45.6L37.1,45.6z M37.1,17.6H11.4v-2.3h3.1c0.6,0,1.1-0.5,1.1-1.1v-3.3h2.2c0.6,0,1.1-0.5,1.1-1.1V6.5h2.2
			c0.6,0,1.1-0.5,1.1-1.1V2.1h4.4v3.4c0,0.6,0.5,1.1,1.1,1.1h2.2v3.4c0,0.6,0.5,1.1,1.1,1.1h2.2v3.4c0,0.6,0.5,1.1,1.1,1.1h3.1v2.1
			H37.1z"/>
		<path d="M29.1,25h-9.7c-0.6,0-1.1,0.5-1.1,1.1v12.1c0,0.6,0.5,1.1,1.1,1.1h9.7c0.6,0,1.1-0.5,1.1-1.1V26.1
			C30.1,25.5,29.7,25,29.1,25z M23.2,37.2h-2.8v-10h2.8V37.2z M28,37.2h-2.8v-10H28V37.2z"/>
		<path d="M25.5,9.5h-2c-0.3,0-0.6,0.3-0.6,0.6v3.4c0,0.3,0.3,0.6,0.6,0.6h2c0.3,0,0.6-0.3,0.6-0.6v-3.4C26.1,9.8,25.8,9.5,25.5,9.5
			z"/>
		<circle cx="12.9" cy="41.6" r="0.6"/>
		<circle cx="12.9" cy="31.5" r="0.6"/>
		<circle cx="12.9" cy="36.6" r="0.6"/>
		<circle cx="12.9" cy="26.5" r="0.6"/>
		<circle cx="14.1" cy="44.1" r="0.6"/>
		<circle cx="14.1" cy="34.1" r="0.6"/>
		<circle cx="14.1" cy="29" r="0.6"/>
		<circle cx="14.1" cy="39.1" r="0.6"/>
		<circle cx="14.1" cy="24" r="0.6"/>
		<circle cx="12.9" cy="21.5" r="0.6"/>
		<circle cx="16.7" cy="44.1" r="0.6"/>
		<circle cx="32.5" cy="44.1" r="0.6"/>
		<circle cx="15.4" cy="41.6" r="0.6"/>
		<circle cx="16.7" cy="34.1" r="0.6"/>
		<circle cx="16.7" cy="29" r="0.6"/>
		<circle cx="15.4" cy="31.5" r="0.6"/>
		<circle cx="16.7" cy="39.1" r="0.6"/>
		<circle cx="15.4" cy="36.6" r="0.6"/>
		<circle cx="16.7" cy="24" r="0.6"/>
		<circle cx="19.2" cy="24" r="0.6"/>
		<circle cx="21.7" cy="24" r="0.6"/>
		<circle cx="24.2" cy="24" r="0.6"/>
		<circle cx="26.7" cy="24" r="0.6"/>
		<circle cx="29.2" cy="24" r="0.6"/>
		<circle cx="15.4" cy="26.5" r="0.6"/>
		<circle cx="35.1" cy="44.1" r="0.6"/>
		<circle cx="31.7" cy="34.1" r="0.6"/>
		<circle cx="31.7" cy="29" r="0.6"/>
		<circle cx="31.7" cy="39.1" r="0.6"/>
		<circle cx="15.4" cy="21.5" r="0.6"/>
		<circle cx="17.9" cy="21.5" r="0.6"/>
		<circle cx="20.4" cy="21.5" r="0.6"/>
		<circle cx="23" cy="21.5" r="0.6"/>
		<circle cx="25.4" cy="21.5" r="0.6"/>
		<circle cx="27.9" cy="21.5" r="0.6"/>
		<circle cx="31.7" cy="24" r="0.6"/>
		<circle cx="30.5" cy="21.5" r="0.6"/>
		<circle cx="32.9" cy="41.6" r="0.6"/>
		<circle cx="35.5" cy="41.6" r="0.6"/>
		<circle cx="34.2" cy="34.1" r="0.6"/>
		<circle cx="34.2" cy="29" r="0.6"/>
		<circle cx="32.9" cy="31.5" r="0.6"/>
		<circle cx="35.5" cy="31.5" r="0.6"/>
		<circle cx="34.2" cy="39.1" r="0.6"/>
		<circle cx="32.9" cy="36.6" r="0.6"/>
		<circle cx="35.5" cy="36.6" r="0.6"/>
		<circle cx="34.2" cy="24" r="0.6"/>
		<circle cx="32.9" cy="26.5" r="0.6"/>
		<circle cx="35.5" cy="26.5" r="0.6"/>
		<circle cx="32.9" cy="21.5" r="0.6"/>
		<circle cx="35.5" cy="21.5" r="0.6"/>
	</g>
</g>
</svg>
