<?xml version="1.0" encoding="utf-8"?>
<!-- Generator: Adobe Illustrator 19.2.1, SVG Export Plug-In . SVG Version: 6.00 Build 0)  -->
<svg version="1.1" id="Layer_1" xmlns="http://www.w3.org/2000/svg" xmlns:xlink="http://www.w3.org/1999/xlink" x="0px" y="0px"
	 viewBox="0 0 48 48" style="enable-background:new 0 0 48 48;" xml:space="preserve">
<style type="text/css">
	.st0{fill:#FFFFFF;}
</style>
<g>
	<path class="st0" d="M47,38.2c0,4.9-4,8.8-8.8,8.8H9.8C5,47,1,43,1,38.2V9.8C1,5,5,1,9.8,1h28.3C43,1,47,5,47,9.8V38.2z"/>
	<g>
		<path d="M38.2,0H9.8C4.4,0,0,4.4,0,9.8v28.3C0,43.6,4.4,48,9.8,48h28.3c5.4,0,9.8-4.4,9.8-9.8V9.8C48,4.4,43.6,0,38.2,0z M6.9,2.6
			v7.6c0,0.6,0.5,1,1,1c0.6,0,1-0.5,1-1V2.1C9.2,2.1,9.5,2,9.8,2l0,0v8.2c0,0.6,0.5,1,1,1c0.6,0,1-0.5,1-1V2h0.9v8.2
			c0,0.6,0.5,1,1,1c0.6,0,1-0.5,1-1V2H38c4.5,0,8,3.5,8,7.8v4.3H29.7c-1.8-1.1-3.9-1.7-6.1-1.7s-4.3,0.6-6.1,1.7H2V9.8
			C2,6.6,4.1,3.8,6.9,2.6z M32.6,24.4c0,5-4,9-9,9s-9-4-9-9c0-2.1,0.7-4,1.9-5.5c0.8-1,1.8-1.9,3-2.5c0.1,0,0.1-0.1,0.2-0.1
			c0.2-0.1,0.4-0.2,0.7-0.3c0.1,0,0.2-0.1,0.3-0.1c0.2-0.1,0.4-0.1,0.6-0.2c0.1,0,0.2-0.1,0.3-0.1c0.2-0.1,0.5-0.1,0.7-0.1
			c0.1,0,0.2,0,0.3,0c0.3,0,0.7-0.1,1-0.1s0.7,0,1,0.1c0.1,0,0.2,0,0.3,0c0.2,0,0.5,0.1,0.7,0.1c0.1,0,0.2,0.1,0.3,0.1
			c0.2,0.1,0.4,0.1,0.7,0.2c0.1,0,0.2,0.1,0.3,0.1c0.2,0.1,0.5,0.2,0.7,0.3c0.1,0,0.1,0.1,0.2,0.1c1.2,0.6,2.2,1.5,3,2.5
			C31.9,20.4,32.6,22.3,32.6,24.4z M38.2,46H9.8c-2.8,0-5.3-1.5-6.7-3.8c0.4,0,0.7-0.3,0.7-0.7s-0.3-0.7-0.7-0.7
			c-0.2,0-0.4,0.1-0.6,0.3c-0.2-0.6-0.4-1.2-0.5-1.9c0.2-0.1,0.3-0.3,0.3-0.6S2.2,38.1,1.9,38v-4.7c0.2-0.1,0.4-0.4,0.4-0.6
			c0-0.3-0.1-0.5-0.4-0.6v-4.7c0.2-0.1,0.4-0.4,0.4-0.6c0-0.3-0.1-0.5-0.4-0.6v-4.7c0.2-0.1,0.4-0.4,0.4-0.6c0-0.3-0.1-0.5-0.4-0.6
			V19h11c-0.7,1.3-1.1,2.7-1.3,4.2c-0.2,0.1-0.4,0.4-0.4,0.7c0,0.3,0.1,0.5,0.3,0.6l0,0c0,4.5,2.5,8.4,6.2,10.5
			c-0.3,0.1-0.6,0.4-0.6,0.7c0,0.4,0.3,0.7,0.7,0.7c0.4,0,0.7-0.3,0.7-0.7c0-0.1,0-0.2-0.1-0.3c0.5,0.2,1.1,0.4,1.6,0.6
			c0.1,0.3,0.4,0.4,0.7,0.4c0.2,0,0.3-0.1,0.5-0.2c0.7,0.1,1.4,0.2,2.2,0.2c0.9,0,1.9-0.1,2.7-0.3c0.1,0.2,0.3,0.3,0.6,0.3
			c0.4,0,0.7-0.3,0.7-0.7c1.4-0.5,2.7-1.3,3.9-2.3c0.3-0.1,0.5-0.3,0.6-0.5c2.1-2.1,3.5-5.1,3.5-8.4c0.1,0,0.2,0.1,0.3,0.1
			c0.4,0,0.7-0.3,0.7-0.7c0-0.4-0.3-0.7-0.7-0.7c-0.1,0-0.3,0-0.4,0.1c-0.2-1.5-0.6-2.9-1.3-4.2h12v1.2c-0.3,0.1-0.5,0.4-0.5,0.7
			c0,0.3,0.2,0.6,0.5,0.7V26c-0.3,0.1-0.5,0.4-0.5,0.7c0,0.3,0.2,0.6,0.5,0.7v4.5c-0.3,0.1-0.5,0.4-0.5,0.7s0.2,0.6,0.5,0.7v4.5
			c-0.3,0.1-0.5,0.4-0.5,0.7s0.2,0.5,0.4,0.6c-0.1,0.7-0.3,1.3-0.5,1.9c-0.1-0.2-0.4-0.4-0.6-0.4c-0.4,0-0.7,0.3-0.7,0.7
			s0.3,0.7,0.7,0.7c0,0,0,0,0.1,0C43.4,44.5,41,46,38.2,46z"/>
		<path d="M35.8,12.1h3.8c1.1,0,2-0.9,2-2V6.2c0-1.1-0.9-2-2-2h-3.8c-1.1,0-2,0.9-2,2V10C33.7,11.2,34.7,12.1,35.8,12.1z"/>
		<ellipse cx="6.1" cy="41.5" rx="0.7" ry="0.7"/>
		<ellipse cx="9.1" cy="41.5" rx="0.7" ry="0.7"/>
		<ellipse cx="12.1" cy="41.5" rx="0.7" ry="0.7"/>
		<ellipse cx="3.1" cy="35.6" rx="0.7" ry="0.7"/>
		<ellipse cx="6.1" cy="35.6" rx="0.7" ry="0.7"/>
		<ellipse cx="9.1" cy="35.6" rx="0.7" ry="0.7"/>
		<ellipse cx="12.1" cy="35.6" rx="0.7" ry="0.7"/>
		<ellipse cx="4.6" cy="38.5" rx="0.7" ry="0.7"/>
		<ellipse cx="7.6" cy="38.5" rx="0.7" ry="0.7"/>
		<ellipse cx="10.6" cy="38.5" rx="0.7" ry="0.7"/>
		<ellipse cx="13.5" cy="38.5" rx="0.7" ry="0.7"/>
		<ellipse cx="7.6" cy="44.4" rx="0.7" ry="0.7"/>
		<ellipse cx="10.6" cy="44.4" rx="0.7" ry="0.7"/>
		<ellipse cx="13.5" cy="44.4" rx="0.7" ry="0.7"/>
		<ellipse cx="3.1" cy="29.7" rx="0.7" ry="0.7"/>
		<ellipse cx="6.1" cy="29.7" rx="0.7" ry="0.7"/>
		<ellipse cx="9.1" cy="29.7" rx="0.7" ry="0.7"/>
		<ellipse cx="12.1" cy="29.7" rx="0.7" ry="0.7"/>
		<ellipse cx="4.6" cy="32.6" rx="0.7" ry="0.7"/>
		<ellipse cx="7.6" cy="32.6" rx="0.7" ry="0.7"/>
		<ellipse cx="10.6" cy="32.6" rx="0.7" ry="0.7"/>
		<ellipse cx="13.5" cy="32.6" rx="0.7" ry="0.7"/>
		<ellipse cx="3.1" cy="23.8" rx="0.7" ry="0.7"/>
		<ellipse cx="6.1" cy="23.8" rx="0.7" ry="0.7"/>
		<ellipse cx="9.1" cy="23.8" rx="0.7" ry="0.7"/>
		<ellipse cx="15" cy="41.5" rx="0.7" ry="0.7"/>
		<ellipse cx="15" cy="35.6" rx="0.7" ry="0.7"/>
		<ellipse cx="4.6" cy="26.7" rx="0.7" ry="0.7"/>
		<ellipse cx="7.6" cy="26.7" rx="0.7" ry="0.7"/>
		<ellipse cx="10.6" cy="26.7" rx="0.7" ry="0.7"/>
		<ellipse cx="4.6" cy="20.8" rx="0.7" ry="0.7"/>
		<ellipse cx="7.6" cy="20.8" rx="0.7" ry="0.7"/>
		<ellipse cx="10.6" cy="20.8" rx="0.7" ry="0.7"/>
		<ellipse cx="18" cy="41.5" rx="0.7" ry="0.7"/>
		<ellipse cx="21" cy="41.5" rx="0.7" ry="0.7"/>
		<ellipse cx="23.9" cy="41.5" rx="0.7" ry="0.7"/>
		<ellipse cx="26.9" cy="41.5" rx="0.7" ry="0.7"/>
		<ellipse cx="29.9" cy="41.5" rx="0.7" ry="0.7"/>
		<ellipse cx="32.9" cy="41.5" rx="0.7" ry="0.7"/>
		<ellipse cx="35.8" cy="41.5" rx="0.7" ry="0.7"/>
		<ellipse cx="29.9" cy="35.6" rx="0.7" ry="0.7"/>
		<ellipse cx="32.9" cy="35.6" rx="0.7" ry="0.7"/>
		<ellipse cx="35.8" cy="35.6" rx="0.7" ry="0.7"/>
		<ellipse cx="16.5" cy="38.5" rx="0.7" ry="0.7"/>
		<ellipse cx="19.5" cy="38.5" rx="0.7" ry="0.7"/>
		<ellipse cx="22.5" cy="38.5" rx="0.7" ry="0.7"/>
		<ellipse cx="25.4" cy="38.5" rx="0.7" ry="0.7"/>
		<ellipse cx="28.4" cy="38.5" rx="0.7" ry="0.7"/>
		<ellipse cx="31.4" cy="38.5" rx="0.7" ry="0.7"/>
		<ellipse cx="34.4" cy="38.5" rx="0.7" ry="0.7"/>
		<ellipse cx="37.3" cy="38.5" rx="0.7" ry="0.7"/>
		<ellipse cx="16.5" cy="44.4" rx="0.7" ry="0.7"/>
		<ellipse cx="19.5" cy="44.4" rx="0.7" ry="0.7"/>
		<ellipse cx="22.5" cy="44.4" rx="0.7" ry="0.7"/>
		<ellipse cx="25.4" cy="44.4" rx="0.7" ry="0.7"/>
		<ellipse cx="28.4" cy="44.4" rx="0.7" ry="0.7"/>
		<ellipse cx="31.4" cy="44.4" rx="0.7" ry="0.7"/>
		<ellipse cx="34.4" cy="44.4" rx="0.7" ry="0.7"/>
		<ellipse cx="37.3" cy="44.4" rx="0.7" ry="0.7"/>
		<ellipse cx="35.8" cy="29.7" rx="0.7" ry="0.7"/>
		<ellipse cx="34.4" cy="32.6" rx="0.7" ry="0.7"/>
		<ellipse cx="37.3" cy="32.6" rx="0.7" ry="0.7"/>
		<ellipse cx="38.8" cy="41.5" rx="0.7" ry="0.7"/>
		<ellipse cx="38.8" cy="35.6" rx="0.7" ry="0.7"/>
		<ellipse cx="38.8" cy="29.7" rx="0.7" ry="0.7"/>
		<ellipse cx="38.8" cy="23.8" rx="0.7" ry="0.7"/>
		<ellipse cx="37.3" cy="26.7" rx="0.7" ry="0.7"/>
		<ellipse cx="37.3" cy="20.8" rx="0.7" ry="0.7"/>
		<ellipse cx="41.8" cy="41.5" rx="0.7" ry="0.7"/>
		<ellipse cx="41.8" cy="35.6" rx="0.7" ry="0.7"/>
		<ellipse cx="44.8" cy="35.6" rx="0.7" ry="0.7"/>
		<ellipse cx="40.3" cy="38.5" rx="0.7" ry="0.7"/>
		<ellipse cx="43.3" cy="38.5" rx="0.7" ry="0.7"/>
		<ellipse cx="40.3" cy="44.4" rx="0.7" ry="0.7"/>
		<ellipse cx="41.8" cy="29.7" rx="0.7" ry="0.7"/>
		<ellipse cx="44.8" cy="29.7" rx="0.7" ry="0.7"/>
		<ellipse cx="40.3" cy="32.6" rx="0.7" ry="0.7"/>
		<ellipse cx="43.3" cy="32.6" rx="0.7" ry="0.7"/>
		<ellipse cx="41.8" cy="23.8" rx="0.7" ry="0.7"/>
		<ellipse cx="44.8" cy="23.8" rx="0.7" ry="0.7"/>
		<ellipse cx="40.3" cy="26.7" rx="0.7" ry="0.7"/>
		<ellipse cx="43.3" cy="26.7" rx="0.7" ry="0.7"/>
		<ellipse cx="40.3" cy="20.8" rx="0.7" ry="0.7"/>
		<ellipse cx="43.3" cy="20.8" rx="0.7" ry="0.7"/>
		<circle cx="23.6" cy="24.4" r="6.3"/>
	</g>
</g>
</svg>
