<?xml version="1.0" encoding="utf-8"?>
<!-- Generator: Adobe Illustrator 19.2.1, SVG Export Plug-In . SVG Version: 6.00 Build 0)  -->
<svg version="1.1" id="Layer_1" xmlns="http://www.w3.org/2000/svg" xmlns:xlink="http://www.w3.org/1999/xlink" x="0px" y="0px"
	 viewBox="0 0 48 48" style="enable-background:new 0 0 48 48;" xml:space="preserve">
<style type="text/css">
	.st0{fill:#FFFFFF;}
	.st1{fill:#020204;}
</style>
<g>
	<path class="st0" d="M27,29.3l0.1-2.1l-0.7,0l0.4-4.1l-0.7,0l-0.4-3.4l-0.8,0.1l-0.5-3.7l-0.7,0.2l-0.9-3.3l-2.9,1.2l1.6,2.7
		l-0.9,0.2l1.3,3.1l-0.6,0.1l1.1,2.9l-0.9,0l0.8,3.8l-0.6,0l0.5,2.1c-8.9,1-15.8,8.5-15.8,17.7H42C42,38,35.5,30.6,27,29.3z"/>
	<g>
		<path class="st1" d="M43,46.8c0-9.1-6.5-16.6-15-18.4l0.1-1.3c0-0.3-0.1-0.5-0.3-0.7c-0.1-0.1-0.2-0.2-0.3-0.2l0.3-3.2
			c0-0.3-0.1-0.5-0.3-0.7c-0.1-0.1-0.3-0.2-0.5-0.3l-0.3-2.6c0-0.3-0.2-0.5-0.4-0.6c-0.2-0.1-0.4-0.2-0.6-0.2L25.4,16
			c0-0.3-0.2-0.5-0.4-0.7c-0.2-0.1-0.4-0.2-0.6-0.1l-0.1-0.3c1.4,0.2,3.1,1.1,5.3,3c0.3,0.2,0.7,0.3,1,0.1c0.3-0.1,0.5-0.5,0.6-0.8
			c0.2-2.6-2.1-4.8-3.9-6.1c2.6,0.1,6.1,0.7,6.1,0.7c0.3,0.1,0.7-0.1,0.9-0.3c0.2-0.3,0.3-0.6,0.1-0.9c-1.2-3.1-4.1-4.7-8.2-4.7
			c-0.5,0-1,0-1.4,0.1c1.5-1.5,4.6-2.4,5.9-2.7c0.4-0.1,0.7-0.4,0.7-0.8c0.1-0.4-0.1-0.8-0.5-1C29.3,0.5,27.7,0,26.1,0
			c-3.5,0-5.6,2.2-6.7,3.9c-1.2-1.6-3.2-2.5-5.8-2.5c-2.3,0-4.2,0.7-4.3,0.7c-0.4,0.1-0.7,0.6-0.6,1c0,0.4,0.4,0.8,0.8,0.8
			c3.1,0.4,4.5,1.4,5.1,2.2C5.3,6.4,5,14.3,5,14.4c0,0.4,0.3,0.8,0.7,0.9c0.4,0.1,0.8,0,1.1-0.4c1.7-2.4,3.7-3.3,5.4-3.5
			c-3.5,3.7-2.3,8.2-2.3,8.3c0.1,0.4,0.5,0.7,0.9,0.7h0c0.4,0,0.8-0.3,0.9-0.7c0.6-1.9,2.4-3.1,3.6-3.6c0.1,5.3,3,6.6,3.2,6.7
			c0.1,0.1,0.2,0.1,0.4,0.1c0.2,0,0.4-0.1,0.6-0.2c0.3-0.2,0.4-0.5,0.4-0.9c-0.2-1.8-0.1-3.1,0.2-4l0.7,1.8
			c-0.1,0.1-0.1,0.1-0.2,0.2c-0.1,0.2-0.2,0.6-0.1,0.8l0.7,1.8c-0.1,0.1-0.2,0.1-0.3,0.2c-0.2,0.2-0.2,0.5-0.2,0.8l0.6,2.9
			c-0.1,0.1-0.2,0.1-0.2,0.2c-0.2,0.2-0.3,0.5-0.2,0.8l0.3,1.1c-8.8,1.5-15.6,9.2-15.6,18.5c0,0.3,0.2,0.6,0.5,0.8
			C6.1,47.9,6.4,48,6.7,48h35.2c0.3,0,0.6-0.2,0.8-0.4C42.8,47.4,43,47.2,43,46.8z M23.3,41.3L23,39.8l3.5,0.6L26,41.7L23.3,41.3z
			 M23,37.6L22.8,36l4.1,0.4l-0.4,1.7L23,37.6z M26.4,34.2l-3.3-0.4L22.8,32l3.9,0.3L26.4,34.2z M23.3,29.8L23,28.4l3.1-0.1L26,30.1
			L23.3,29.8z M22,15.7l-0.2-0.3c0.2-0.1,0.3-0.2,0.5-0.3c0,0,0.1,0,0.1,0l0.1,0.4L22,15.7z M22.1,18l1.6-0.4l0.2,1.3l-1.3,0.2
			L22.1,18z M22.8,21.4l2.2-0.2l0.1,0.9l-2,0.1L22.8,21.4z M22.8,24.5l2.9-0.2l-0.2,1.8l-2.4,0L22.8,24.5z M23.3,43.4l2.3,0.4l0,0.1
			c-0.7,0-1.5,0-2.2,0h0L23.3,43.4z M41,45.9c-2.1-0.5-7-1.6-13.4-1.9l0.3-0.7c0.1-0.3,0.1-0.6,0-0.8c0-0.1-0.1-0.1-0.1-0.2l1-2.5
			c0.1-0.3,0.1-0.6,0-0.8c-0.1-0.2-0.2-0.3-0.4-0.3l0.6-3.1c0.1-0.3,0-0.5-0.2-0.7c-0.1-0.2-0.3-0.3-0.6-0.4l0.6-3
			c0-0.3,0-0.5-0.2-0.7c0,0-0.1,0-0.1-0.1C35.5,32.4,40.6,38.5,41,45.9z M13.6,33.8c0.1,0.1,0.2,0.3,0.3,0.3c0.4,0.1,0.8,0,0.9-0.4
			c0.1-0.3,0-0.6-0.2-0.8c0.5-0.3,1-0.7,1.6-1c0,0,0,0,0,0c0.4,0.1,0.8,0,0.9-0.4c0,0,0-0.1,0-0.1c1.1-0.5,2.2-0.9,3.4-1.1
			c0,0.1,0,0.2,0,0.4l0.4,3c-0.1,0.1-0.2,0.1-0.3,0.2c-0.2,0.2-0.3,0.5-0.2,0.8l0.5,2.7c-0.1,0-0.1,0.1-0.2,0.1
			c-0.2,0.2-0.3,0.6-0.2,0.9l0.7,3c-0.2,0.2-0.2,0.5-0.2,0.7l0.2,1.6c-1,0-2,0.1-3,0.1c0.1-0.3-0.1-0.7-0.4-0.8
			c-0.4-0.1-0.8,0-0.9,0.4c-0.1,0.2-0.1,0.4,0,0.5c-1.3,0.1-2.6,0.3-3.9,0.5c-0.1-0.1-0.2-0.3-0.3-0.3c-0.4-0.1-0.8,0-0.9,0.4
			c0,0.1,0,0.1,0,0.2c-1.3,0.2-2.5,0.5-3.7,0.8c-0.1-0.1-0.2-0.3-0.4-0.3c-0.1-0.1-0.3-0.1-0.4,0c0.1-0.6,0.2-1.3,0.3-1.9
			C7.9,43.3,8,43.2,8,43.1c0.1-0.2,0.1-0.4-0.1-0.6c0.4-1.5,1-2.9,1.8-4.2c0.2-0.1,0.3-0.2,0.4-0.4c0-0.1,0.1-0.2,0-0.3
			c0.4-0.5,0.8-1.1,1.2-1.6c0.1,0.1,0.1,0.1,0.2,0.2c0.4,0.1,0.8,0,0.9-0.4c0.1-0.3,0-0.6-0.2-0.8C12.7,34.5,13.2,34.1,13.6,33.8z"
			/>
		<ellipse transform="matrix(0.3776 -0.926 0.926 0.3776 -34.4097 36.5557)" class="st1" cx="10" cy="43.9" rx="0.7" ry="0.7"/>
		<ellipse transform="matrix(0.3778 -0.9259 0.9259 0.3778 -31.6467 34.355)" class="st1" cx="9.7" cy="40.7" rx="0.7" ry="0.7"/>
		<ellipse transform="matrix(0.3778 -0.9259 0.9259 0.3778 -31.0036 37.4585)" class="st1" cx="12.4" cy="41.8" rx="0.7" ry="0.7"/>
		<ellipse transform="matrix(0.3779 -0.9258 0.9258 0.3779 -30.3599 40.5528)" class="st1" cx="15" cy="42.9" rx="0.7" ry="0.7"/>
		<ellipse transform="matrix(0.3768 -0.9263 0.9263 0.3768 -28.2459 35.3119)" class="st1" cx="12.1" cy="38.6" rx="0.7" ry="0.7"/>
		<ellipse transform="matrix(0.3773 -0.9261 0.9261 0.3773 -27.5999 38.3942)" class="st1" cx="14.7" cy="39.7" rx="0.7" ry="0.7"/>
		<ellipse transform="matrix(0.378 -0.9258 0.9258 0.378 -26.9571 41.4637)" class="st1" cx="17.4" cy="40.8" rx="0.7" ry="0.7"/>
		<ellipse transform="matrix(0.3778 -0.9259 0.9259 0.3778 -26.3144 44.5736)" class="st1" cx="20" cy="41.9" rx="0.7" ry="0.7"/>
		<ellipse transform="matrix(0.378 -0.9258 0.9258 0.378 -24.838 36.1699)" class="st1" cx="14.5" cy="36.6" rx="0.7" ry="0.7"/>
		<ellipse transform="matrix(0.3774 -0.926 0.926 0.3774 -24.1942 39.2984)" class="st1" cx="17.1" cy="37.6" rx="0.7" ry="0.7"/>
		<ellipse transform="matrix(0.3772 -0.9261 0.9261 0.3772 -23.5501 42.4135)" class="st1" cx="19.8" cy="38.7" rx="0.7" ry="0.7"/>
		<ellipse transform="matrix(0.3779 -0.9258 0.9258 0.3779 -21.4339 37.0874)" class="st1" cx="16.9" cy="34.5" rx="0.7" ry="0.7"/>
		<ellipse transform="matrix(0.3787 -0.9255 0.9255 0.3787 -20.7955 40.156)" class="st1" cx="19.5" cy="35.6" rx="0.7" ry="0.7"/>
		<ellipse transform="matrix(0.3775 -0.926 0.926 0.3775 -18.0278 38.0155)" class="st1" cx="19.3" cy="32.4" rx="0.7" ry="0.7"/>
	</g>
</g>
</svg>
