<?xml version="1.0" encoding="utf-8"?>
<!-- Generator: Adobe Illustrator 19.2.1, SVG Export Plug-In . SVG Version: 6.00 Build 0)  -->
<svg version="1.1" id="Layer_1" xmlns="http://www.w3.org/2000/svg" xmlns:xlink="http://www.w3.org/1999/xlink" x="0px" y="0px"
	 viewBox="0 0 48 48" style="enable-background:new 0 0 48 48;" xml:space="preserve">
<style type="text/css">
	.st0{fill:#FFFFFF;}
</style>
<g>
	<rect x="0.7" y="19.6" class="st0" width="46.6" height="19.9"/>
	<g>
		<path d="M47.3,18.9H22.8c0.1-0.1,0.3-0.2,0.5-0.4c0.1-0.1,0.4-0.2,0.6-0.3c0.8-0.3,2.1-0.8,2.4-2.2c0.4-2-1.1-3-2.1-3.7
			c-0.2-0.1-0.3-0.2-0.4-0.3c-0.5-0.4-0.4-0.7-0.4-0.9c0.2-0.5,0.9-1,1.7-1c0.6,0,1.2-0.4,1.2-1.1c0-0.6-0.4-1.2-1.1-1.2
			c-1.7-0.1-3.4,1-3.9,2.5c-0.5,1.3,0,2.6,1.2,3.4c0.2,0.1,0.3,0.2,0.5,0.4c1,0.7,1.2,0.9,1.1,1.3c0,0.2-0.7,0.4-1,0.6
			c-0.3,0.1-0.6,0.3-0.9,0.4c-0.7,0.4-1.6,1.1-1.9,2.3H0.7C0.3,18.9,0,19.2,0,19.6v19.9c0,0.4,0.3,0.7,0.7,0.7h46.6
			c0.4,0,0.7-0.3,0.7-0.7V19.6C48,19.2,47.7,18.9,47.3,18.9z M46.6,38.8H1.4V20.3h45.3v18.5H46.6z"/>
		<path d="M21.2,21.2h-4.5h-4.5H7.7l0,0H2.8c-0.2,0-0.5,0.2-0.5,0.5v3.8v3.8v3.8v3.8c0,0.2,0.2,0.5,0.5,0.5h5.8H28h6.6h5.1H45
			c0.2,0,0.5-0.2,0.5-0.5v-3.8c0,0,0,0,0-0.1c0,0,0,0,0-0.1v-7.3v-0.1v-0.1v-3.8c0-0.2-0.2-0.5-0.5-0.5H34.8h-4.5h-4.5h-4.6V21.2z
			 M30.3,26h0.5v2.9h-2.1h-1.5V26H30.3z M34.8,26h0.5v2.9h-2.1h-1.5V26H34.8z M39.8,26v2.9h-2.1h-1.5V26H39.8z M44.4,26v6.8h-1.7
			v-3.4c0-0.2-0.2-0.5-0.5-0.5h-1.5V26C40.7,26,44.4,26,44.4,26z M39.6,32.8h-1.4v-2.9h2.1h1.5v2.9H39.6z M34.5,32.8h-0.9v-2.9h2.1
			h1.5v2.9H34.5z M29.1,32.8v-2.9h2.1h1.5v2.9H29.1z M28,32.8h-3.4v-2.9h2.1h1.5v2.9H28z M20.1,32.8v-2.9h2.1h1.5v2.9H20.1z
			 M15.6,32.8v-2.9h2.1h1.5v2.9H15.6z M11,32.8v-2.9h2.1h1.5v2.9H11z M8.6,32.8H3.2v-2.9h5.4h1.5v2.9H8.6z M7.7,26L7.7,26h0.5v2.9
			h-5V26H7.7z M12.2,26h0.5v2.9h-2.1H9.1V26H12.2z M16.7,26h0.5v2.9h-2.1h-1.5V26H16.7z M21.2,26h0.5v2.9h-2.1h-1.5V26H21.2z
			 M26.3,28.9h-2.1h-1.5V26h3.1h0.5V28.9z M25.3,25.1h-3.1h-0.5v-2.9h3.6V25.1z M20.8,25.1h-3.1h-0.5v-2.9h3.6V25.1z M16.3,25.1
			h-3.1h-0.5v-2.9h3.6V25.1z M11.8,25.1H8.6H8.1v-2.9h3.6L11.8,25.1L11.8,25.1z M3.2,22.1h4V25h-4C3.2,25,3.2,22.1,3.2,22.1z
			 M3.2,33.7h4.9v2.9H3.2V33.7z M9,33.7h1.5H15h4.5H24h3.4v2.9H9V33.7z M28.4,33.7h0.3h4.5h0.9v2.9h-5.7
			C28.4,36.6,28.4,33.7,28.4,33.7z M35,33.7h2.7h1.4v2.9H35V33.7z M44.4,36.6H40v-2.9h2.2h2.2V36.6z M44.4,25.1h-4.1h-4.5h-0.5v-2.9
			h9.2v2.9H44.4z M34.4,25.1h-3.1h-0.5v-2.9h3.6V25.1z M29.8,25.1h-3.1h-0.5v-2.9h3.6V25.1z"/>
	</g>
</g>
</svg>
