<?xml version="1.0" encoding="utf-8"?>
<!-- Generator: Adobe Illustrator 19.2.1, SVG Export Plug-In . SVG Version: 6.00 Build 0)  -->
<svg version="1.1" id="Layer_1" xmlns="http://www.w3.org/2000/svg" xmlns:xlink="http://www.w3.org/1999/xlink" x="0px" y="0px"
	 viewBox="0 0 48 48" style="enable-background:new 0 0 48 48;" xml:space="preserve">
<style type="text/css">
	.st0{fill:#FFFFFF;}
</style>
<g>
	<polygon class="st0" points="42.5,33.8 42.5,10 5.4,10 5.4,33.8 0.8,38 47.1,38 	"/>
	<g>
		<path d="M47.5,37.3l-4.2-3.9V10c0-0.5-0.4-0.8-0.8-0.8H5.4c-0.5,0-0.8,0.4-0.8,0.8v23.3l-4.3,3.9c-0.3,0.3-0.4,0.7-0.2,1
			c0.1,0.3,0.4,0.5,0.8,0.5h46.3l0,0c0.5,0,0.8-0.4,0.8-0.8C47.9,37.7,47.8,37.5,47.5,37.3z M6.2,10.9h35.5V33H6.2V10.9z M2.9,37.2
			l2.8-2.5h36.5l2.8,2.5H2.9z"/>
		<path d="M39.9,12.2H8.1c-0.2,0-0.3,0.1-0.3,0.3v18.8c0,0.2,0.1,0.3,0.3,0.3h31.8c0.2,0,0.3-0.1,0.3-0.3V12.5
			C40.2,12.3,40.1,12.2,39.9,12.2z M36.6,23.5c0,0.2-0.2,0.4-0.4,0.4l-2.7,0.5l1.6,2.4c0.3,0.4,0.2,0.9-0.2,1.1
			C34.8,28,34.6,28,34.4,28c-0.3,0-0.5-0.1-0.7-0.4l-1.6-2.3l-1.4,2.4c-0.1,0.2-0.3,0.2-0.4,0.2h-0.1c-0.2,0-0.4-0.2-0.4-0.4
			l-1.6-8.6c0-0.2,0-0.4,0.2-0.5c0.2-0.1,0.4-0.1,0.5,0l7.4,4.5C36.6,23.1,36.7,23.3,36.6,23.5z"/>
		<path d="M30.6,26.2l1.3-2.2c0.1-0.1,0.2-0.2,0.3-0.2l2.6-0.5L29.4,20L30.6,26.2z"/>
	</g>
</g>
</svg>
