<?xml version="1.0" encoding="utf-8"?>
<!-- Generator: Adobe Illustrator 19.2.1, SVG Export Plug-In . SVG Version: 6.00 Build 0)  -->
<svg version="1.1" id="Layer_1" xmlns="http://www.w3.org/2000/svg" xmlns:xlink="http://www.w3.org/1999/xlink" x="0px" y="0px"
	 viewBox="0 0 48 48" style="enable-background:new 0 0 48 48;" xml:space="preserve">
<style type="text/css">
	.st0{fill:#FFFFFF;}
	.st1{fill:#1A1A18;}
</style>
<g>
	<g>
		<path class="st0" d="M21,11.9l-1.3-1.6c-0.1-0.1-0.2-0.1-0.3-0.2c-0.1,0-0.2,0-0.3,0.1L6.8,21.5c-0.1,0.1-0.1,0.2-0.1,0.3
			c0,0.1,0,0.2,0.1,0.3l12.3,11.3c0.1,0.1,0.2,0.1,0.3,0.1c0,0,0,0,0,0c0.1,0,0.2-0.1,0.3-0.2l1.3-1.6c0.1-0.2,0.1-0.4,0-0.6
			l-10.1-9.3L21,12.5C21.2,12.3,21.2,12.1,21,11.9z"/>
		<path class="st0" d="M36.2,20.8c1.7-1.3,2.6-2.9,2.6-4.8c0-3.5-2.8-6.3-6.4-6.3c-3,0-5.5,1.6-6.9,4.3c-0.1,0.2,0,0.4,0.2,0.6
			l2,1.1c0.1,0.1,0.2,0.1,0.3,0c0.1,0,0.2-0.1,0.3-0.2c0.7-1.5,2.1-3,3.9-3c2,0,3.5,1.4,3.5,3.3c0,2.6-2.3,3.9-4.5,3.8
			c-0.1,0-0.2,0-0.3,0.1c-0.1,0.1-0.1,0.2-0.1,0.3v2c0,0.1,0.1,0.2,0.1,0.3c0.1,0.1,0.2,0.1,0.3,0.1c0.2,0,0.5,0,0.7,0
			c3,0,4.8,1.8,4.8,4.7c0,2.5-1.7,4.1-4.3,4.1c-2,0-3.4-1-4.4-3.3c0-0.1-0.1-0.2-0.3-0.2c-0.1,0-0.2,0-0.3,0l-2.1,1.2
			c-0.1,0.1-0.2,0.2-0.2,0.3c0,0.1,0,0.2,0,0.3c1.8,3.1,4.1,4.5,7.1,4.5c4.5,0,7.6-3,7.6-7.2C39.8,24.2,38.5,22.1,36.2,20.8z"/>
	</g>
	<path class="st1" d="M44.5,3.4h-41C1.6,3.4,0,5,0,6.9v29.8c0,2,1.6,3.6,3.5,3.6H34l2.3,3.8c0.2,0.3,0.5,0.5,0.9,0.5h0
		c0.4,0,0.7-0.2,0.9-0.5l2.4-3.8h4c1.9,0,3.5-1.6,3.5-3.6V6.9C48,5,46.4,3.4,44.5,3.4z M21,31.2c0.2,0.2,0.2,0.4,0,0.6l-1.3,1.6
		c-0.1,0.1-0.2,0.1-0.3,0.2c0,0,0,0,0,0c-0.1,0-0.2,0-0.3-0.1L6.8,22.1c-0.1-0.1-0.1-0.2-0.1-0.3c0-0.1,0-0.2,0.1-0.3l12.3-11.3
		c0.1-0.1,0.2-0.1,0.3-0.1c0.1,0,0.2,0.1,0.3,0.2l1.3,1.6c0.1,0.2,0.1,0.4,0,0.6l-10.1,9.3L21,31.2z M32.2,34c-3,0-5.2-1.4-7.1-4.5
		c-0.1-0.1-0.1-0.2,0-0.3c0-0.1,0.1-0.2,0.2-0.3l2.1-1.2c0.1-0.1,0.2-0.1,0.3,0c0.1,0,0.2,0.1,0.3,0.2c1,2.3,2.4,3.3,4.4,3.3
		c2.6,0,4.3-1.6,4.3-4.1c0-2.9-1.8-4.7-4.8-4.7c-0.2,0-0.5,0-0.7,0c-0.1,0-0.2,0-0.3-0.1c-0.1-0.1-0.1-0.2-0.1-0.3v-2
		c0-0.1,0-0.2,0.1-0.3c0.1-0.1,0.2-0.1,0.3-0.1c2.2,0.1,4.5-1.2,4.5-3.8c0-1.9-1.5-3.3-3.5-3.3c-1.8,0-3.2,1.5-3.9,3
		c0,0.1-0.1,0.2-0.3,0.2c-0.1,0-0.2,0-0.3,0l-2-1.1c-0.2-0.1-0.3-0.4-0.2-0.6c1.4-2.8,3.9-4.3,6.9-4.3c3.6,0,6.4,2.8,6.4,6.3
		c0,1.9-0.9,3.5-2.6,4.8c2.3,1.3,3.6,3.4,3.6,6C39.8,31,36.7,34,32.2,34z"/>
</g>
</svg>
