<?xml version="1.0" encoding="utf-8"?>
<!-- Generator: Adobe Illustrator 19.2.1, SVG Export Plug-In . SVG Version: 6.00 Build 0)  -->
<svg version="1.1" id="Layer_1" xmlns="http://www.w3.org/2000/svg" xmlns:xlink="http://www.w3.org/1999/xlink" x="0px" y="0px"
	 viewBox="0 0 48 48" style="enable-background:new 0 0 48 48;" xml:space="preserve">
<style type="text/css">
	.st0{fill:#FFFFFF;}
</style>
<g>
	<path class="st0" d="M40.1,25.3l4.9-3.7l-4.9-3.7l2.8-5.5l-6-1.2L37.1,5l-6,1.6L28.6,1L24,5l-4.7-4l-2.5,5.6l-6-1.6l0.2,6.2l-6,1.2
		l2.8,5.5l-4.9,3.7l4.9,3.7L5,30.7l6,1.2l-0.2,6.2l7.5-2c0.3,2.5,0.1,6.7,0.1,6.7s5.1,4,5.6,4.3c0.4-0.3,5.6-4.3,5.6-4.3
		s-0.2-4.1,0.1-6.7l7.5,1.9l-0.2-6.1l6-1.2L40.1,25.3z"/>
	<g>
		<circle cx="15.6" cy="24.5" r="0.6"/>
		<circle cx="17.9" cy="29.2" r="0.6"/>
		<circle cx="16.8" cy="26.8" r="0.6"/>
		<circle cx="19.1" cy="31.5" r="0.6"/>
		<circle cx="16.8" cy="22.1" r="0.6"/>
		<circle cx="14.4" cy="22.1" r="0.6"/>
		<circle cx="15.6" cy="19.8" r="0.6"/>
		<circle cx="14.4" cy="17.4" r="0.6"/>
		<circle cx="16.8" cy="17.4" r="0.6"/>
		<circle cx="15.6" cy="15" r="0.6"/>
		<circle cx="17.9" cy="15" r="0.6"/>
		<circle cx="19.1" cy="12.7" r="0.6"/>
		<circle cx="22.7" cy="10.3" r="0.6"/>
		<circle cx="21.5" cy="12.7" r="0.6"/>
		<path d="M45.6,20.8l-4.3-3.2l2.5-4.7c0.1-0.3,0.1-0.6,0-0.9c-0.1-0.3-0.4-0.5-0.7-0.5l-5.2-1l0.2-5.3c0-0.3-0.1-0.6-0.4-0.8
			c-0.2-0.2-0.6-0.3-0.9-0.2l-5.2,1.3l-2.2-4.9C29.3,0.3,29,0.1,28.7,0c-0.3-0.1-0.6,0-0.9,0.2L24,3.7l-4.1-3.5
			C19.7,0,19.3-0.1,19,0c-0.3,0.1-0.6,0.3-0.7,0.6l-2.2,4.9l-5.2-1.3c-0.3-0.1-0.6,0-0.9,0.2c0,0.1-0.1,0.4-0.1,0.7l0.2,5.3l-5.2,1
			c-0.3,0.1-0.6,0.3-0.7,0.5c-0.1,0.3-0.1,0.6,0,0.9l2.5,4.7l-4.3,3.2C2.2,20.9,2,21.2,2,21.5c0,0.3,0.1,0.6,0.4,0.8l4.3,3.2
			l-2.5,4.7c-0.1,0.3-0.1,0.6,0,0.9c0.1,0.3,0.4,0.5,0.7,0.5l5.2,1L9.9,38c0,0.3,0.1,0.6,0.4,0.8c0.2,0.2,0.6,0.3,0.9,0.2l6.4-1.7
			c0.1,1.9,0,4.3,0,5.4c0,0.3,0.1,0.6,0.4,0.8c0.9,0.7,5.2,4,5.6,4.3c0,0.2,0.2,0.2,0.4,0.2c0.2,0,0.4-0.1,0.5-0.2
			c0.4-0.3,4.8-3.6,5.6-4.3c0.3-0.2,0.4-0.5,0.4-0.8c-0.1-1.1-0.1-3.5,0-5.4l6.4,1.6c0.1,0,0.2,0,0.2,0l0,0c0.5,0,1-0.4,1-1
			c0-0.1,0-0.1,0-0.2l-0.1-5l5.2-1c0.3-0.1,0.6-0.3,0.7-0.5c0.1-0.3,0.1-0.6,0-0.9l-2.5-4.7l4.3-3.2c0.2-0.2,0.4-0.5,0.4-0.8
			C46,21.3,45.8,21,45.6,20.8z M24,45.8c-0.5-0.4-1.2-0.9-2.1-1.6h4.1C25.2,44.9,24.4,45.5,24,45.8z M19.5,42.3c0-0.3,0-0.6,0-1.1
			h9.1c0,0.4,0,0.8,0,1.1H19.5z M24,24.7c0.5,0.3,1.1,0.6,1.8,0.9c0.3,0.1,0.6,0.2,0.9,0.3c-0.1,0.7-0.2,1.5-0.3,2.2
			c0,0.3-0.1,0.7-0.1,1c-0.3,1.9-0.8,5.6-1.1,7.3H23c-0.3-1.7-0.8-5.4-1.1-7.3c0-0.3-0.1-0.6-0.1-1c-0.1-0.7-0.2-1.5-0.3-2.2
			c0.3-0.1,0.5-0.2,0.9-0.3C23,25.3,23.6,25,24,24.7z M23,20.8c0.1-0.6,0.5-0.9,1.1-0.9s1,0.3,1.1,0.9c0.1,0.7-0.2,1.6-1.1,2.4
			C23.2,22.4,22.8,21.5,23,20.8z M28.5,38.2c0,0.4,0,0.7,0,1.1h-9c0-0.4,0-0.7,0-1.1H28.5z M28.8,34.5c-0.1,0.4-0.2,1-0.3,1.7h-2.3
			c0.3-1.8,0.8-5.3,1-7.1c0-0.3,0.1-0.6,0.1-1c0.1-0.6,0.2-1.4,0.3-2.1c1.3,0.1,1.9-0.4,2.3-0.7c0.5-0.6,0.7-1.4,0.4-2.1
			c-0.3-0.6-0.8-1-1.5-1c-1.1,0-1.7,1.1-2.1,2.5c-0.2-0.1-0.4-0.1-0.7-0.2c-0.5-0.2-0.9-0.4-1.2-0.6c1.1-1.1,1.5-2.3,1.3-3.3
			c-0.2-1.1-1.1-1.9-2.3-1.9s-2.1,0.7-2.3,1.9c-0.2,1,0.2,2.2,1.3,3.3c-0.4,0.2-0.8,0.4-1.2,0.6c-0.2,0.1-0.5,0.2-0.7,0.2
			c-0.4-1.4-1-2.5-2.1-2.5c-0.6,0-1.2,0.4-1.5,1c-0.3,0.7-0.2,1.6,0.4,2.1c0.3,0.4,1,0.8,2.3,0.7c0.1,0.8,0.2,1.5,0.3,2.1
			c0,0.3,0.1,0.7,0.1,1c0.3,1.8,0.8,5.3,1,7.1h-2.3c-0.1-0.7-0.2-1.3-0.3-1.7c-0.4-1.3-1.8-3.3-3.3-5.4c-0.9-1.3-1.8-2.6-2.3-3.5
			c-0.8-1.4-1.1-3.1-1.1-5C12.2,14.2,17.4,9,23.8,9s11.6,5.2,11.6,11.6c0,1.9-0.4,3.6-1.1,5c-0.5,0.9-1.4,2.2-2.3,3.5
			C30.6,31.2,29.2,33.2,28.8,34.5z M28,24.9c0.2-0.9,0.5-1.5,0.9-1.5c0.2,0,0.4,0.2,0.4,0.3c0.1,0.2,0.1,0.6-0.2,0.8
			C28.9,24.8,28.5,24.9,28,24.9z M20,24.9c-0.5,0-0.9-0.1-1.2-0.4c-0.2-0.3-0.3-0.6-0.2-0.8c0-0.1,0.2-0.3,0.4-0.3
			C19.5,23.4,19.8,24,20,24.9z M39.5,24.5c-0.4,0.3-0.5,0.8-0.3,1.2l2.2,4.3l-4.7,1c-0.5,0.1-0.8,0.5-0.8,1l0.2,4.8l-5.4-1.4
			c0-0.1,0-0.2,0.1-0.3c0.3-1,1.7-3.1,3-4.9c0.9-1.4,1.8-2.6,2.4-3.6c0.9-1.7,1.4-3.7,1.4-5.9c0-7.5-6.1-13.5-13.6-13.5
			s-13.6,6.1-13.6,13.5c0,2.3,0.5,4.3,1.4,5.9c0.5,1,1.4,2.3,2.4,3.7c1.3,1.8,2.7,3.8,3,4.9c0,0.1,0.1,0.2,0.1,0.3l0,0L12,36.9
			l0.2-4.8c0-0.5-0.3-0.9-0.8-1L6.5,30l2.2-4.3c0.2-0.4,0.1-0.9-0.3-1.2l-3.9-2.9l3.9-2.9c0.4-0.3,0.5-0.8,0.3-1.2l-2.2-4.3l4.8-0.9
			c0.5-0.1,0.8-0.5,0.8-1l-0.2-4.8l4.7,1.2c0.5,0.1,0.9-0.1,1.1-0.6l2-4.4l3.7,3.1c0.4,0.3,0.9,0.3,1.3,0l3.7-3.1l2,4.4
			c0.2,0.4,0.7,0.7,1.1,0.6l4.7-1.2l-0.2,4.7c0,0.5,0.3,0.9,0.8,1l4.8,0.9l-2.2,4.3c-0.2,0.4-0.1,0.9,0.3,1.2l3.9,2.9L39.5,24.5z"/>
	</g>
</g>
</svg>
