<?xml version="1.0" encoding="utf-8"?>
<!-- Generator: Adobe Illustrator 19.2.1, SVG Export Plug-In . SVG Version: 6.00 Build 0)  -->
<svg version="1.1" id="Layer_1" xmlns="http://www.w3.org/2000/svg" xmlns:xlink="http://www.w3.org/1999/xlink" x="0px" y="0px"
	 viewBox="0 0 48 48" style="enable-background:new 0 0 48 48;" xml:space="preserve">
<style type="text/css">
	.st0{fill:#FFFFFF;}
</style>
<g>
	<path class="st0" d="M24.3,9.4h-0.4c-3.2,0-5.8,2.6-5.8,5.8v0.4c0,3.2,2.6,5.8,5.8,5.8h0.4c3.2,0,5.8-2.6,5.8-5.8v-0.4
		C30.1,12,27.5,9.4,24.3,9.4z"/>
	<path d="M24,0C15.5,0,8.6,6.9,8.6,15.4c0,14.5,14,31.4,14.5,32.2c0.2,0.3,0.5,0.4,0.9,0.4s0.7-0.2,0.9-0.4
		c0.6-0.7,14.5-17.6,14.5-32.2C39.4,6.9,32.5,0,24,0z M30.1,15.6c0,3.2-2.6,5.8-5.8,5.8h-0.4c-3.2,0-5.8-2.6-5.8-5.8v-0.4
		c0-3.2,2.6-5.8,5.8-5.8h0.4c3.2,0,5.8,2.6,5.8,5.8V15.6z"/>
</g>
</svg>
