<?xml version="1.0" encoding="utf-8"?>
<!-- Generator: Adobe Illustrator 19.2.1, SVG Export Plug-In . SVG Version: 6.00 Build 0)  -->
<svg version="1.1" id="Layer_1" xmlns="http://www.w3.org/2000/svg" xmlns:xlink="http://www.w3.org/1999/xlink" x="0px" y="0px"
	 viewBox="0 0 48 48" style="enable-background:new 0 0 48 48;" xml:space="preserve">
<style type="text/css">
	.st0{fill:#FFFFFF;}
</style>
<g>
	<g>
		<path class="st0" d="M4.2,24c-0.7,0-1.3-0.6-1.3-1.3v-17c0-0.7,0.6-1.3,1.3-1.3H9c0.7,0,1.3,0.6,1.3,1.3S9.7,7,9,7H5.5v15.7
			C5.5,23.4,4.9,24,4.2,24z"/>
	</g>
	<path d="M47,1.4H33.8c-0.3,0-0.7,0.2-0.8,0.5L24,21L15,2c-0.1-0.3-0.4-0.5-0.8-0.5H0.9C0.4,1.4,0,1.8,0,2.3v43.4
		c0,0.5,0.4,0.9,0.9,0.9h11.3c0.5,0,0.9-0.4,0.9-0.9V25.4l6.4,12.5c0.1,0.3,0.4,0.5,0.8,0.5h7.5c0.3,0,0.7-0.2,0.8-0.5l6.4-12.4
		v20.2c0,0.5,0.4,0.9,0.9,0.9h11.3c0.5,0,0.9-0.4,0.9-0.9V2.3C47.9,1.8,47.5,1.4,47,1.4z M9,6.9H5.5v15.7c0,0.7-0.6,1.3-1.3,1.3
		s-1.3-0.6-1.3-1.3v-17c0-0.7,0.6-1.3,1.3-1.3H9c0.7,0,1.3,0.6,1.3,1.3C10.3,6.4,9.7,6.9,9,6.9z"/>
</g>
</svg>
