<?xml version="1.0" encoding="utf-8"?>
<!-- Generator: Adobe Illustrator 19.2.1, SVG Export Plug-In . SVG Version: 6.00 Build 0)  -->
<svg version="1.1" id="Layer_1" xmlns="http://www.w3.org/2000/svg" xmlns:xlink="http://www.w3.org/1999/xlink" x="0px" y="0px"
	 viewBox="0 0 48 48" style="enable-background:new 0 0 48 48;" xml:space="preserve">
<style type="text/css">
	.st0{fill:#FFFFFF;}
</style>
<g>
	<g>
		<circle class="st0" cx="24" cy="24.4" r="19.2"/>
	</g>
	<g>
		<circle cx="19.5" cy="24.9" r="1.6"/>
		<circle cx="26.9" cy="24.9" r="1.6"/>
		<path d="M40.2,7.2c0.1-0.3,0-0.6-0.2-0.9c-1.9-2.6-5.9-3.8-8.9-4.4c-1.3-0.4-2.7-0.7-4-0.9c-1.2-0.6-2.6-1-4.3-1
			c-4.3,0-10,2.1-10.7,3.2C12,3.5,11.9,3.8,12,4.1C5,8.2,0.4,15.7,0.4,24.4C0.4,37.4,11,48,24,48s23.6-10.6,23.6-23.6
			C47.6,17.6,44.7,11.5,40.2,7.2z M28.8,38.3c-1.3,1.3-3,2-4.8,2c-1.7,0-3.2-0.6-4.5-1.7c-0.6-0.6-0.7-1.6-0.1-2.2
			c0.6-0.6,1.6-0.7,2.2-0.1c0.7,0.6,1.5,0.9,2.4,0.9c1.2,0,2-0.6,2.5-1.1c0.6-0.6,1.6-0.6,2.2,0C29.3,36.6,29.4,37.6,28.8,38.3z
			 M34,33.7c-0.1,0-0.2,0-0.3,0c-0.8-0.1-1.4-0.4-2.1-0.7c-0.9-0.4-1.8-0.8-3-0.8c-0.3,0-0.6,0-1,0.1c-1.5,0.3-2.7,0.8-3.6,1.6
			c-0.9-0.8-2.1-1.3-3.6-1.6c-0.3-0.1-0.7-0.1-1-0.1c-1.1,0-2.1,0.4-3,0.8c-0.7,0.3-1.4,0.6-2.2,0.7c-0.1,0-0.1,0-0.2,0
			c-1.5,0-7.3-1.6-7.3-9.3c0-3.1,0.9-6.1,2.3-8.6c0.3,0,0.7,0.1,1,0.1l0,0c2.3,0,4.4-0.9,5.9-2c-0.4,1.1-0.8,2-0.8,2
			c-0.1,0.3-0.1,0.7,0.1,1c0.2,0.3,0.5,0.5,0.9,0.5h0.3c7.3,0,12.2-2.8,14.1-4.1c3.5,4,6,4.9,9,5.9c0.3,0.1,0.5,0.2,0.8,0.3
			c0.5,1.6,0.7,3.2,0.7,4.9C41.2,32,36,33.7,34,33.7z"/>
	</g>
</g>
</svg>
