<?xml version="1.0" encoding="utf-8"?>
<!-- Generator: Adobe Illustrator 19.2.1, SVG Export Plug-In . SVG Version: 6.00 Build 0)  -->
<svg version="1.1" id="Layer_1" xmlns="http://www.w3.org/2000/svg" xmlns:xlink="http://www.w3.org/1999/xlink" x="0px" y="0px"
	 viewBox="0 0 48 48" style="enable-background:new 0 0 48 48;" xml:space="preserve">
<style type="text/css">
	.st0{fill:#FFFFFF;}
</style>
<g>
	<polygon class="st0" points="29.8,11.8 29.8,7 14,5.8 14,41 17,41.3 17,47 34,47 34,11.8 	"/>
	<g>
		<path d="M34,10.8h-3.3V7c0-0.1,0-0.2-0.1-0.3c0,0,0,0,0-0.1s-0.1-0.2-0.2-0.3l0,0l-0.1-0.1h-0.1c0,0,0,0-0.1,0
			C30.1,6.1,30,6,29.9,6l0,0l-2.7-0.2V1c0-0.3-0.2-0.6-0.4-0.8C26.5,0,26.2,0,25.9,0.1L13.6,4.9c-0.1,0-0.2,0.1-0.3,0.2l0,0l0,0
			c-0.1,0.1-0.1,0.1-0.2,0.2v0.1C13,5.5,13,5.6,13,5.8V41c0,0.1,0,0.2,0.1,0.3c0,0,0,0,0,0.1s0.1,0.2,0.2,0.3l0,0l0.1,0.1
			c0,0,0,0,0.1,0c0,0,0.1,0,0.1,0.1c0.1,0,0.1,0,0.2,0.1c0,0,0,0,0.1,0l2.1,0.2V47c0,0.1,0,0.2,0.1,0.3c0,0,0,0,0,0.1
			c0,0.1,0.1,0.2,0.2,0.3l0,0l0.1,0.1c0,0,0.1,0,0.1,0.1h0.1c0.1,0,0.2,0.1,0.3,0.1H34c0.5,0,1-0.4,1-1V11.8
			C35,11.3,34.6,10.8,34,10.8z M14.9,40.1V6.8l10.5,0.8l-8.8,3.3l0,0c0,0,0,0-0.1,0c-0.1,0-0.2,0.1-0.2,0.1s0,0.1-0.1,0.1
			c-0.1,0.1-0.1,0.1-0.1,0.2v0.1c0,0.1-0.1,0.2-0.1,0.3v28.4L14.9,40.1z M33.1,46.1H17.9V12.7h0.7c0.2,1.8,1.6,3.7,1.9,4
			c1.1,1.4,2.5,2,4,2.7c1.4,0.6,2.7,1.2,3.7,2.4c2.2,2.9,0.8,5.6-0.8,8.5c-1.4,2.6-3,5.6-0.8,8.4l-1.9-0.9c-0.3-0.2-0.7,0-0.9,0.3
			c-0.2,0.3,0,0.7,0.3,0.9l4,1.9c0.1,0,0.2,0.1,0.3,0.1s0.2,0,0.3-0.1c0.2-0.1,0.3-0.3,0.3-0.5l0.8-4.7c0.1-0.3-0.2-0.7-0.5-0.7
			c-0.3-0.1-0.7,0.2-0.7,0.5l-0.5,3c-2.2-2.2-1.2-4.3,0.5-7.5c1.6-2.9,3.4-6.3,0.6-9.8C28,19.7,26.5,19,25,18.4
			c-1.3-0.6-2.6-1.1-3.5-2.3c-0.7-0.9-1.4-2.2-1.6-3.2H33v33.2H33.1z"/>
		<ellipse transform="matrix(0.966 -0.2586 0.2586 0.966 -7.9426 5.9861)" cx="18.8" cy="33.2" rx="0.7" ry="0.7"/>
		<ellipse transform="matrix(0.9662 -0.2579 0.2579 0.9662 -10.852 7.2467)" cx="22.2" cy="45" rx="0.7" ry="0.7"/>
		<ellipse transform="matrix(0.966 -0.2586 0.2586 0.966 -10.6116 7.9208)" cx="24.8" cy="44.3" rx="0.7" ry="0.7"/>
		<ellipse transform="matrix(0.9661 -0.2581 0.2581 0.9661 -7.662 6.6208)" cx="21.4" cy="32.5" rx="0.7" ry="0.7"/>
		<ellipse transform="matrix(0.9662 -0.2579 0.2579 0.9662 -7.39 7.263)" cx="24" cy="31.8" rx="0.7" ry="0.7"/>
		<ellipse transform="matrix(0.9658 -0.2592 0.2592 0.9658 -3.5863 7.3561)" cx="26.1" cy="17.3" rx="0.7" ry="0.7"/>
		<ellipse transform="matrix(0.9659 -0.2588 0.2588 0.9659 -3.3147 7.9941)" cx="28.7" cy="16.6" rx="0.7" ry="0.7"/>
		<ellipse transform="matrix(0.966 -0.2585 0.2585 0.966 -3.0347 8.658)" cx="31.4" cy="15.9" rx="0.7" ry="0.7"/>
		<ellipse transform="matrix(0.9659 -0.259 0.259 0.9659 -10.0988 7.3355)" cx="22.8" cy="42" rx="0.7" ry="0.7"/>
		<ellipse transform="matrix(0.9657 -0.2595 0.2595 0.9657 -9.8478 8.0048)" cx="25.4" cy="41.3" rx="0.7" ry="0.7"/>
		<ellipse transform="matrix(0.966 -0.2585 0.2585 0.966 -6.1069 6.7457)" cx="22.6" cy="26.6" rx="0.7" ry="0.7"/>
		<ellipse transform="matrix(0.9661 -0.2581 0.2581 0.9661 -5.8218 7.4067)" cx="25.3" cy="25.9" rx="0.7" ry="0.7"/>
		<ellipse transform="matrix(0.966 -0.2585 0.2585 0.966 -5.5622 8.0691)" cx="27.9" cy="25.2" rx="0.7" ry="0.7"/>
		<ellipse transform="matrix(0.9661 -0.2582 0.2582 0.9661 -6.8948 6.6852)" cx="22" cy="29.6" rx="0.7" ry="0.7"/>
		<ellipse transform="matrix(0.9663 -0.2575 0.2575 0.9663 -6.6021 7.3356)" cx="24.7" cy="28.9" rx="0.7" ry="0.7"/>
		<ellipse transform="matrix(0.9662 -0.2579 0.2579 0.9662 -6.3448 7.9967)" cx="27.3" cy="28.2" rx="0.7" ry="0.7"/>
		<ellipse transform="matrix(0.9663 -0.2575 0.2575 0.9663 -2.7773 7.3554)" cx="26.7" cy="14.3" rx="0.7" ry="0.7"/>
		<ellipse transform="matrix(0.9658 -0.2593 0.2593 0.9658 -5.5943 6.1692)" cx="20.6" cy="24.3" rx="0.7" ry="0.7"/>
	</g>
</g>
</svg>
