<?xml version="1.0" encoding="utf-8"?>
<!-- Generator: Adobe Illustrator 19.2.1, SVG Export Plug-In . SVG Version: 6.00 Build 0)  -->
<svg version="1.1" id="Layer_1" xmlns="http://www.w3.org/2000/svg" xmlns:xlink="http://www.w3.org/1999/xlink" x="0px" y="0px"
	 viewBox="0 0 48 48" style="enable-background:new 0 0 48 48;" xml:space="preserve">
<style type="text/css">
	.st0{fill:#FFFFFF;}
</style>
<g>
	<path class="st0" d="M3.6,30.8c1.2,3.8,4.5,3.8,4.5,3.8L25.4,16l-4.9-4.2L3.6,30.8z"/>
	<ellipse transform="matrix(0.9759 -0.2182 0.2182 0.9759 -1.1373 6.2985)" class="st0" cx="27.9" cy="8.3" rx="7.2" ry="7.2"/>
	<ellipse cx="27.9" cy="13.7" rx="0.7" ry="0.7"/>
	<ellipse cx="23.7" cy="11" rx="0.7" ry="0.7"/>
	<ellipse cx="26.5" cy="11" rx="0.7" ry="0.7"/>
	<ellipse cx="29.2" cy="11" rx="0.7" ry="0.7"/>
	<ellipse cx="32" cy="11" rx="0.7" ry="0.7"/>
	<ellipse cx="27.9" cy="2.8" rx="0.7" ry="0.7"/>
	<ellipse cx="22.4" cy="8.3" rx="0.7" ry="0.7"/>
	<ellipse cx="25.1" cy="8.3" rx="0.7" ry="0.7"/>
	<ellipse cx="27.9" cy="8.3" rx="0.7" ry="0.7"/>
	<ellipse cx="30.6" cy="8.3" rx="0.7" ry="0.7"/>
	<ellipse cx="33.4" cy="8.3" rx="0.7" ry="0.7"/>
	<ellipse cx="23.7" cy="5.5" rx="0.7" ry="0.7"/>
	<ellipse cx="26.5" cy="5.5" rx="0.7" ry="0.7"/>
	<ellipse cx="29.2" cy="5.5" rx="0.7" ry="0.7"/>
	<ellipse cx="32" cy="5.5" rx="0.7" ry="0.7"/>
	<path d="M46.1,25.7c-0.8-1-1.9-1.8-3.4-2.5c-1.6-0.8-3.5-1-5.4-0.7c-2.1,0.4-3.8,1.5-4.8,3.1c-1.5,2.3-0.8,5.4-0.2,8.2
		c0.3,1.5,0.7,3,0.6,4c-0.1,1.2-0.5,2.5-1.2,3.6c-0.7,1.2-1.5,2.1-2.5,2.7c-1.2,0.8-2.4,1-3.6,0.6c-1-0.3-1.9-2-2.7-3.4
		c-1-1.7-2-3.5-3.6-4.5c-1.6-0.9-3.1-1.2-4.6-0.7c-2.1,0.6-3.9,2.5-5.5,5.7c-0.5,1.1-1.4,1.4-2,1.5c-1.1,0.2-2.3-0.2-3.2-1
		c-0.8-0.8-0.8-1.9-0.7-2.5c0.1-0.9,0.5-1.7,1-2.3c0.3-0.3,0.4-0.4,0.5-0.4l1.8-1.8c0.9,0.3,1.5,0.3,1.6,0.3l0,0
		c0.3,0,0.5-0.1,0.7-0.3l16.1-17.3c0,0,0,0.1,0.1,0.1c0.3,0,0.5-0.1,0.7-0.3l1.1-1.1c0.3,0,0.7,0.1,1,0.1c0.6,0,1.2-0.1,1.8-0.2
		c2.2-0.5,4-1.8,5.2-3.6c1.2-1.9,1.6-4.1,1.1-6.2c-0.4-1.8-1.4-3.5-2.9-4.7c-1.5-1.4-3.3-2-5.1-2c-0.6,0-1.2,0.1-1.8,0.2
		c-2.2,0.5-4,1.8-5.2,3.6c-1.1,1.8-1.5,3.9-1.1,6l0,0l-1,1.6c-0.2,0.2-0.2,0.5-0.1,0.8v0.1L2.8,30.1c-0.2,0.3-0.3,0.6-0.2,1
		c0.2,0.5,0.3,0.9,0.6,1.3l-1.6,2c-0.1,0.1-0.2,0.3-0.1,0.5c0,0,0,0.2,0.1,0.4c-0.8,1.1-1.3,2.4-1.5,3.7c-0.3,2.1,0.4,4.1,1.8,5.4
		c1.7,1.6,4,2.3,6.1,1.9c1.9-0.3,3.5-1.5,4.4-3.3c1.4-2.9,2.7-3.8,3.4-4c0.4-0.1,1-0.2,2,0.4c0.8,0.5,1.6,1.9,2.4,3.2
		c1.1,2,2.4,4.3,4.6,5c0.7,0.2,1.5,0.4,2.3,0.4c1.4,0,2.8-0.4,4.2-1.3c2.8-1.8,4.8-5.3,5.2-8.8c0.2-1.5-0.2-3.3-0.7-5.1
		c-0.5-2.1-1-4.5-0.3-5.6c1.2-1.8,4.1-2.1,5.9-1.2c2.2,1.1,3,2.2,3.2,4.1c0.1,0.9,0.9,1.6,1.8,1.5c0.9-0.1,1.6-0.9,1.5-1.8
		C47.6,28.2,47,26.8,46.1,25.7z M22.2,16.9c0.2,0.1,0.4,0.2,0.6,0.3L7.7,33.5c-0.7-0.1-2.1-0.6-3-2.5l14.8-16.5
		C20.2,15.4,21.1,16.3,22.2,16.9z M22.6,4.9c0.9-1.4,2.3-2.4,3.9-2.7C26.9,2.1,27.4,2,27.9,2c1.4,0,2.8,0.5,3.9,1.4
		c1.1,0.9,1.9,2.1,2.2,3.5c0.4,1.6,0.1,3.3-0.8,4.7c-0.9,1.4-2.3,2.4-3.9,2.7c-0.5,0.1-0.9,0.2-1.4,0.2c-1.4,0-2.8-0.5-3.9-1.3
		c-0.2-0.1-0.3-0.3-0.5-0.4c-0.1-0.1-0.2-0.3-0.4-0.4c-0.2-0.2-0.4-0.5-0.5-0.7c-0.4-0.6-0.7-1.3-0.8-2C21.4,8,21.7,6.3,22.6,4.9z"
		/>
</g>
</svg>
