<?xml version="1.0" encoding="utf-8"?>
<!-- Generator: Adobe Illustrator 19.2.1, SVG Export Plug-In . SVG Version: 6.00 Build 0)  -->
<svg version="1.1" id="Layer_1" xmlns="http://www.w3.org/2000/svg" xmlns:xlink="http://www.w3.org/1999/xlink" x="0px" y="0px"
	 viewBox="0 0 48 48" style="enable-background:new 0 0 48 48;" xml:space="preserve">
<style type="text/css">
	.st0{fill:#FFFFFF;}
	.st1{fill:#020204;}
</style>
<g>
	<path class="st0" d="M4,34.6c-1.1-0.7-1.5-2.3-0.7-3.4L22.4,2.1c0.7-1.1,2.3-1.5,3.4-0.7l18.2,12c1.1,0.7,1.4,2.3,0.7,3.4
		L25.6,45.9c-0.7,1.1-2.3,1.5-3.4,0.7L4,34.6z"/>
	<g>
		<path class="st1" d="M44.6,12.5l-18.2-12C25.8,0.2,25.1,0,24.5,0c-1.2,0-2.2,0.6-2.9,1.6L2.4,30.7c-0.5,0.8-0.7,1.7-0.5,2.6
			c0.2,0.9,0.7,1.7,1.5,2.2l18.2,12c0.6,0.4,1.2,0.6,1.9,0.6c1.2,0,2.2-0.6,2.9-1.6l19.1-29.1C46.6,15.7,46.2,13.6,44.6,12.5z
			 M43.9,16.2L24.8,45.4c-0.4,0.7-1.4,0.9-2,0.4l-18.2-12c-0.3-0.2-0.5-0.5-0.6-0.9c-0.1-0.4,0-0.8,0.2-1.1L23.2,2.6
			C23.5,2.2,24,2,24.5,2c0.3,0,0.6,0.1,0.8,0.2l18.2,12C44.2,14.6,44.3,15.5,43.9,16.2z"/>
		
			<rect x="10.1" y="13.6" transform="matrix(0.5489 -0.8359 0.8359 0.5489 -8.0785 30.9885)" class="st1" width="29.2" height="18.7"/>
		<ellipse transform="matrix(0.5486 -0.8361 0.8361 0.5486 -24.4058 29.5919)" class="st1" cx="15.2" cy="37.4" rx="1.4" ry="1.4"/>
	</g>
</g>
</svg>
