<?xml version="1.0" encoding="utf-8"?>
<!-- Generator: Adobe Illustrator 19.2.1, SVG Export Plug-In . SVG Version: 6.00 Build 0)  -->
<svg version="1.1" id="Layer_1" xmlns="http://www.w3.org/2000/svg" xmlns:xlink="http://www.w3.org/1999/xlink" x="0px" y="0px"
	 viewBox="0 0 48 48" style="enable-background:new 0 0 48 48;" xml:space="preserve">
<style type="text/css">
	.st0{fill:#FFFFFF;}
</style>
<g>
	<path class="st0" d="M10.9,46.8c-1.6,0-3-1.3-3-3V4.2c0-1.6,1.3-3,3-3h26.2c1.6,0,3,1.3,3,3v39.6c0,1.6-1.3,3-3,3H10.9z"/>
	<g>
		<path d="M37.1,0H10.9C8.6,0,6.7,1.9,6.7,4.2v39.6c0,2.3,1.9,4.2,4.2,4.2h26.2c2.3,0,4.2-1.9,4.2-4.2V4.2C41.3,1.9,39.4,0,37.1,0z
			 M38.8,43.8c0,0.9-0.8,1.7-1.7,1.7H10.9c-0.9,0-1.7-0.8-1.7-1.7V4.2c0-0.9,0.8-1.7,1.7-1.7h26.2c0.9,0,1.7,0.8,1.7,1.7V43.8z"/>
		<path d="M35.3,5.6H12.7c-0.3,0-0.5,0.2-0.5,0.5v32.8c0,0.3,0.2,0.5,0.5,0.5h22.5c0.3,0,0.5-0.2,0.5-0.5V6.1
			C35.7,5.9,35.5,5.6,35.3,5.6z"/>
		<circle cx="24" cy="42.1" r="1.5"/>
	</g>
</g>
</svg>
