<?xml version="1.0" encoding="utf-8"?>
<!-- Generator: Adobe Illustrator 19.2.1, SVG Export Plug-In . SVG Version: 6.00 Build 0)  -->
<svg version="1.1" id="Layer_1" xmlns="http://www.w3.org/2000/svg" xmlns:xlink="http://www.w3.org/1999/xlink" x="0px" y="0px"
	 viewBox="0 0 48 48" style="enable-background:new 0 0 48 48;" xml:space="preserve">
<style type="text/css">
	.st0{fill:#FFFFFF;}
</style>
<g>
	<path class="st0" d="M42.7,23.1c-2.9,0.7-5.1-2.2-7.1-3.8c-2.2-1.7-4.3-2.9-7.1-2.2c-1.9,0.5-3.4,1.4-4.5,2.9
		c-1-1.4-2.6-2.4-4.5-2.9c-2.8-0.7-4.9,0.5-7.1,2.2c-2,1.6-4.2,4.5-7.1,3.8c-1.3-0.3-3.6-2.1-4.5-2.9c0,0,0.4,8.2,10.1,10.5
		c7,1.7,11.5-2.1,13.1-3.9c1.7,1.8,6.1,5.6,13.1,3.9c9.6-2.3,10.1-10.5,10.1-10.5C46.3,21,43.9,22.8,42.7,23.1z"/>
	<g>
		<path d="M47.6,19.5c-0.3-0.1-0.6-0.1-0.9,0.1c-1.4,1.1-3.3,2.5-4.2,2.7c-0.2,0.1-0.5,0.1-0.7,0.1c-1.6,0-3-1.3-4.4-2.6
			c-0.5-0.4-0.9-0.8-1.4-1.2c-1.7-1.4-3.6-2.6-5.9-2.6c-0.6,0-1.2,0.1-1.8,0.2c-1.7,0.5-3.2,1.3-4.3,2.4c-1.1-1.1-2.5-1.9-4.3-2.4
			c-0.6-0.2-1.2-0.2-1.8-0.2c-2.3,0-4.2,1.3-5.9,2.6c-0.5,0.4-0.9,0.8-1.4,1.2c-1.6,1.5-3.3,2.9-5.1,2.5c-0.9-0.2-2.8-1.6-4.2-2.7
			c-0.2-0.2-0.6-0.2-0.9-0.1C0.2,19.6,0,19.9,0,20.3c0,0.1,0.6,8.9,10.7,11.3c1.2,0.3,2.5,0.4,3.7,0.4c4.7,0,7.9-2.3,9.7-4
			c1.8,1.7,5,4,9.7,4c1.2,0,2.4-0.2,3.7-0.4C47.4,29.1,48,20.4,48,20.3C48,19.9,47.8,19.6,47.6,19.5z M36.9,30
			c-1.1,0.3-2.2,0.4-3.3,0.4c-4.6,0-7.7-2.6-9.1-4.1c-0.2-0.2-0.4-0.3-0.6-0.3c-0.2,0-0.4,0.1-0.6,0.3c-1.4,1.5-4.4,4.1-9.1,4.1
			c-1.1,0-2.2-0.1-3.3-0.4c-6.1-1.5-8.3-5.4-9-7.8c1,0.7,2.3,1.5,3.1,1.7C5.5,24,5.9,24,6.2,24c2.2,0,3.9-1.6,5.5-3
			c0.4-0.4,0.9-0.8,1.3-1.1c1.7-1.4,3.2-2.3,4.9-2.3c0.5,0,0.9,0.1,1.4,0.2c1.8,0.5,3.1,1.3,4,2.5c0.2,0.2,0.4,0.3,0.7,0.3
			c0.3,0,0.5-0.1,0.7-0.3c0.9-1.2,2.2-2.1,4-2.5c0.5-0.1,1-0.2,1.4-0.2c1.7,0,3.2,0.9,4.9,2.3c0.4,0.3,0.8,0.7,1.3,1.1
			c1.5,1.4,3.3,3,5.5,3c0.4,0,0.7,0,1.1-0.1c0.9-0.2,2.1-1,3.1-1.7C45.2,24.6,43,28.5,36.9,30z"/>
		<circle cx="10.6" cy="23" r="0.5"/>
		<circle cx="12.6" cy="23" r="0.5"/>
		<circle cx="14.5" cy="23" r="0.5"/>
		<circle cx="13.5" cy="21.1" r="0.5"/>
		<circle cx="15.5" cy="21.1" r="0.5"/>
		<circle cx="17.4" cy="21.1" r="0.5"/>
		<circle cx="16.5" cy="19.2" r="0.5"/>
		<circle cx="18.4" cy="19.2" r="0.5"/>
		<circle cx="20.3" cy="19.2" r="0.5"/>
		<circle cx="37.3" cy="23" r="0.5"/>
		<circle cx="35.3" cy="23" r="0.5"/>
		<circle cx="33.4" cy="23" r="0.5"/>
		<circle cx="34.4" cy="21.1" r="0.5"/>
		<circle cx="32.4" cy="21.1" r="0.5"/>
		<circle cx="30.5" cy="21.1" r="0.5"/>
		<circle cx="31.5" cy="19.2" r="0.5"/>
		<circle cx="29.5" cy="19.2" r="0.5"/>
		<circle cx="27.6" cy="19.2" r="0.5"/>
	</g>
</g>
</svg>
