<?xml version="1.0" encoding="utf-8"?>
<!-- Generator: Adobe Illustrator 19.2.1, SVG Export Plug-In . SVG Version: 6.00 Build 0)  -->
<svg version="1.1" id="Layer_1" xmlns="http://www.w3.org/2000/svg" xmlns:xlink="http://www.w3.org/1999/xlink" x="0px" y="0px"
	 viewBox="0 0 48 48" style="enable-background:new 0 0 48 48;" xml:space="preserve">
<style type="text/css">
	.st0{fill:#FFFFFF;}
</style>
<g>
	<path class="st0" d="M41.8,37.3h5.1c0,0-3-4.1-3-28.7v-6H9.2v3.6H5.3v4.3h-4v6c0,28.6,3,28.7,3,28.7H39c0,0-0.7-0.9-1.3-4.3h5.4
		C42.9,40.9,42.4,40.2,41.8,37.3z"/>
	<g>
		<circle cx="18.9" cy="34.1" r="0.7"/>
		<circle cx="16" cy="34.1" r="0.7"/>
		<circle cx="22" cy="34.1" r="0.7"/>
		<circle cx="25" cy="34.1" r="0.7"/>
		<circle cx="28" cy="34.1" r="0.7"/>
		<circle cx="17.4" cy="31.1" r="0.7"/>
		<circle cx="14.5" cy="31.1" r="0.7"/>
		<circle cx="20.4" cy="31.1" r="0.7"/>
		<circle cx="16" cy="28.1" r="0.7"/>
		<circle cx="13" cy="28.1" r="0.7"/>
		<circle cx="14.5" cy="25.1" r="0.7"/>
		<circle cx="13" cy="22" r="0.7"/>
		<circle cx="18.9" cy="28.1" r="0.7"/>
		<path d="M38.6,7.9H14.9c-0.4,0-0.7,0.3-0.7,0.7c0,0.4,0.3,0.7,0.7,0.7h23.7c0.4,0,0.7-0.3,0.7-0.7C39.4,8.2,39,7.9,38.6,7.9z"/>
		<path d="M47.8,36.5c-0.4-0.7-2.7-6.1-2.7-27.9v-6c0-0.7-0.6-1.2-1.2-1.2H9.2C8.5,1.4,8,2,8,2.6v2.3H5.3C4.6,5,4,5.5,4,6.2v3.1H1.2
			C0.6,9.3,0,9.9,0,10.6v6c0,29.7,3.1,29.9,4.2,30h34.7l0,0c0.7,0,1.2-0.6,1.2-1.2c0-0.3-0.1-0.6-0.3-0.8c-0.1-0.2-0.4-0.9-0.8-2.3
			h3.8l0,0c0.7,0,1.2-0.6,1.2-1.2c0-0.3-0.1-0.6-0.3-0.8c-0.1-0.2-0.3-0.6-0.6-1.5h3.5l0,0c0.7,0,1.2-0.6,1.2-1.2
			C48.1,37,48,36.8,47.8,36.5z M4.7,44c-0.6-1-2.3-5.9-2.3-27.5v-4.7H4v0.4c0,29.7,3.1,29.9,4.2,30h28.3c0.2,0.7,0.3,1.4,0.5,1.8
			H4.7z M8.8,39.7c-0.6-1-2.3-5.9-2.3-27.5V7.5h1.4v1.2c0,29.7,3.1,29.9,4.2,30h28.6c0.1,0.4,0.2,0.8,0.3,1.1L8.8,39.7z M12.7,36.1
			c-0.6-1-2.3-5.9-2.3-27.5V3.9h32.2v4.7C42.6,25.6,44,33,45,36.1H12.7z"/>
	</g>
</g>
</svg>
