<?xml version="1.0" encoding="utf-8"?>
<!-- Generator: Adobe Illustrator 19.2.1, SVG Export Plug-In . SVG Version: 6.00 Build 0)  -->
<svg version="1.1" id="Layer_1" xmlns="http://www.w3.org/2000/svg" xmlns:xlink="http://www.w3.org/1999/xlink" x="0px" y="0px"
	 viewBox="0 0 48 48" style="enable-background:new 0 0 48 48;" xml:space="preserve">
<style type="text/css">
	.st0{fill:#FFFFFF;}
	.st1{fill:#020204;}
</style>
<g>
	<path class="st0" d="M32.8,25c0.5,0,1.1,0,1.7,0c1.4-0.1,2.7-0.3,3.9-0.7c1.1-0.3,2.1-0.8,3-1.3c2.4-1.4,3.9-3.5,3.8-5.7
		c-0.1-1.5-0.9-2.9-2.3-4L42.5,6l-4.9,3.8l-0.3-5.7c-0.1-1.8-1.6-3.1-3.4-3L12.4,2.2c-1.8,0.1-3.1,1.6-3,3.4L10.2,22
		c0.1,1.8,1.6,3.1,3.4,3l1.6-0.1C6.4,28.7,2.7,38.1,2.1,47l43.8,0C45.3,38.1,41.7,28.7,32.8,25z"/>
	<g>
		
			<ellipse transform="matrix(0.9985 -5.403087e-002 5.403087e-002 0.9985 -1.0478 1.4498)" class="st1" cx="26.3" cy="20.1" rx="0.5" ry="0.5"/>
		
			<ellipse transform="matrix(0.9986 -5.319516e-002 5.319516e-002 0.9986 -0.9368 1.369)" class="st1" cx="25.2" cy="18.3" rx="0.5" ry="0.5"/>
		
			<ellipse transform="matrix(0.9986 -5.333894e-002 5.333894e-002 0.9986 -0.9312 1.4729)" class="st1" cx="27.1" cy="18.2" rx="0.5" ry="0.5"/>
		
			<ellipse transform="matrix(0.9986 -5.230255e-002 5.230255e-002 0.9986 -0.9493 2.2314)" class="st1" cx="42.2" cy="19.3" rx="0.5" ry="0.5"/>
		
			<ellipse transform="matrix(0.9986 -5.230746e-002 5.230746e-002 0.9986 -0.8556 2.1747)" class="st1" cx="41.1" cy="17.4" rx="0.5" ry="0.5"/>
		
			<ellipse transform="matrix(0.9986 -5.323892e-002 5.323892e-002 0.9986 -0.8619 2.3139)" class="st1" cx="43" cy="17.3" rx="0.5" ry="0.5"/>
		
			<ellipse transform="matrix(0.9986 -5.302307e-002 5.302307e-002 0.9986 -0.8385 1.6497)" class="st1" cx="30.7" cy="16.6" rx="0.9" ry="0.9"/>
		
			<ellipse transform="matrix(0.9985 -5.390968e-002 5.390968e-002 0.9985 -0.8218 2.0492)" class="st1" cx="37.6" cy="16.3" rx="0.9" ry="0.9"/>
		<path class="st1" d="M37.7,19.4l0.1,1.2l-2.8,0.1l-0.1-1c0-0.4-0.3-0.7-0.7-0.6c-0.4,0-0.6,0.3-0.6,0.7l0.1,1l-2.8,0.1l-0.1-1.2
			c0-0.4-0.3-0.7-0.7-0.6c-0.4,0-0.6,0.3-0.6,0.7l0.1,1.8c0,0.2,0.1,0.3,0.2,0.5c0.1,0.1,0.3,0.2,0.4,0.2c0,0,0,0,0,0l8.2-0.4
			c0.2,0,0.3-0.1,0.5-0.2c0.1-0.1,0.2-0.3,0.2-0.5L39,19.3c0-0.4-0.3-0.7-0.7-0.6C37.9,18.7,37.6,19,37.7,19.4z"/>
		<path class="st1" d="M41.2,30.3c-1.1-1.4-2.3-2.6-3.6-3.6c1.1-0.2,2-0.9,2.5-1.9c0.6-0.3,1.3-0.6,1.8-0.9c2.8-1.7,4.4-4.1,4.2-6.7
			c-0.1-1.6-0.9-3.2-2.3-4.4L43.5,6c0-0.4-0.2-0.7-0.6-0.9c-0.3-0.2-0.7-0.1-1,0.1l-3.4,2.6L38.3,4c-0.1-2.3-2.1-4.1-4.4-4L12.3,1.2
			c-2.3,0.1-4.1,2.1-4,4.4l0.3,6.5l-3-2.7c-1.1-1-2.9-0.9-3.9,0.2c-1,1.1-0.9,2.9,0.2,3.9l7.1,6.4l0.1,2.1c-1.4,0.4-2.3,1.7-2.3,3.2
			c0.1,1.3,0.9,2.3,2,2.8c-0.8,0.7-1.5,1.5-2.2,2.4c-4.1,5.4-5.4,12-5.7,16.6c0,0.3,0.1,0.5,0.3,0.7C1.6,47.9,1.8,48,2.1,48l43.8,0
			c0.3,0,0.5-0.1,0.7-0.3c0.2-0.2,0.3-0.5,0.3-0.7C46.6,42.3,45.4,35.6,41.2,30.3z M27.8,26.4C26.6,26.2,25.3,26,24,26c0,0,0,0,0,0
			c-1.4,0-2.6,0.1-3.8,0.3c0.1-0.2,0.3-0.4,0.3-0.7l6.5-0.3C27.2,25.8,27.4,26.1,27.8,26.4z M41.6,8l0.3,5.4c0,0.3,0.1,0.5,0.4,0.7
			c0.8,0.7,1.8,1.8,1.9,3.3c0.1,1.8-1.1,3.5-3.3,4.8c-0.8,0.5-1.8,0.9-2.8,1.2c-1.2,0.4-2.4,0.6-3.6,0.6c-1.3,0.1-2.5,0-3.7-0.2
			c-1.1-0.2-2-0.5-2.9-0.9c-2.3-1.1-3.7-2.7-3.8-4.5c-0.1-1.5,0.8-2.7,1.5-3.5c0.2-0.2,0.3-0.5,0.3-0.8l-0.3-5.4l5.1,3.1
			c0.2,0.1,0.5,0.2,0.7,0.1c0.8-0.2,1.6-0.3,2.4-0.3c0.8,0,1.6,0,2.4,0c0.3,0,0.5,0,0.7-0.2L41.6,8z M26,6.6c0-0.4,0.3-0.7,0.7-0.7
			c0.4,0,0.7,0.3,0.7,0.7c0,0.3-0.2,0.6-0.5,0.7L26,6.7C26,6.7,26,6.7,26,6.6z M30.4,7.9c0-0.4,0.3-0.7,0.7-0.7
			c0.4,0,0.7,0.3,0.7,0.7c0,0.4-0.3,0.7-0.7,0.7C30.7,8.6,30.4,8.3,30.4,7.9z M12.5,3.1L33.9,2l0.1,0c1.2,0,2.2,0.9,2.2,2.1l0.3,5.2
			L36,9.8c-0.4,0-0.8,0-1.2,0l-0.2-3c-0.1-1.5-1.3-2.6-2.8-2.6L15.1,5c-1.5,0.1-2.7,1.4-2.6,2.9l0.6,11.6c0.1,1.5,1.3,2.6,2.8,2.6
			l7.5-0.4c0.4,0.6,1,1.2,1.7,1.7l-11.4,0.6l-0.1,0c0,0-0.1,0-0.1,0l-0.1-2.5l-2,0.1L10.4,5.5C10.3,4.3,11.2,3.2,12.5,3.1z
			 M20.9,9.3c-0.4,0-0.7-0.3-0.7-0.7c0-0.4,0.3-0.7,0.7-0.7c0.4,0,0.7,0.3,0.7,0.7C21.7,9,21.3,9.3,20.9,9.3z M21.3,16.5
			c0,0.4-0.3,0.7-0.7,0.7c-0.4,0-0.7-0.3-0.7-0.7c0-0.4,0.3-0.7,0.7-0.7C20.9,15.7,21.3,16.1,21.3,16.5z M22.3,12.3
			c0.4,0,0.7,0.3,0.7,0.7c0,0.4-0.3,0.7-0.7,0.7c-0.4,0-0.7-0.3-0.7-0.7C21.5,12.7,21.9,12.3,22.3,12.3z M16.6,12.1
			c-0.4,0-0.7-0.3-0.7-0.7c0-0.4,0.3-0.7,0.7-0.7c0.4,0,0.7,0.3,0.7,0.7C17.3,11.8,17,12.1,16.6,12.1z M17.1,18.5
			c0,0.4-0.3,0.7-0.7,0.7c-0.4,0-0.7-0.3-0.7-0.7c0-0.4,0.3-0.7,0.7-0.7C16.8,17.8,17.1,18.1,17.1,18.5z M15.6,7.6
			c0,0.4-0.3,0.7-0.7,0.7c-0.4,0-0.7-0.3-0.7-0.7c0-0.4,0.3-0.7,0.7-0.7C15.3,6.9,15.6,7.2,15.6,7.6z M3.2,46
			c0.5-4.9,2.6-15.4,11.6-19.7c0.3,0.5,0.9,1,1.4,1.2C9,30.8,5.9,38.5,5.4,46L3.2,46z M23.4,46c0.1-0.4,0.3-0.6,0.7-0.6h0
			c0.4,0,0.6,0.2,0.7,0.6L23.4,46z M26.1,46c-0.1-1.2-0.9-2-2-2h0c-1.1,0-1.9,0.8-2,2l-1.8,0c0.2-1.5,1-3.7,3.9-3.7h0
			c2.8,0,3.6,2.3,3.9,3.7L26.1,46z M29.3,46c-0.3-2.6-1.8-5.1-5.2-5.1h0c-3.4,0-4.9,2.5-5.2,5.1l-2,0c0.3-3.9,2.3-7.6,7.2-7.7
			c0,0,0,0,0,0c2.5,0,4.4,0.9,5.6,2.7c0.9,1.3,1.4,3,1.6,4.9L29.3,46z M32.5,46c-0.1-2.2-0.8-4.2-1.8-5.7C29.2,38.2,26.9,37,24,37
			c0,0,0,0,0,0c-5.9,0-8.2,4.5-8.5,9l-2.3,0c0.3-3.7,2-11.4,10.8-11.5c0,0,0,0,0,0c8.8,0,10.5,7.8,10.8,11.4L32.5,46z M36.1,46
			c-0.5-6.3-3.9-12.8-12.1-12.8c0,0,0,0,0,0c-8.2,0-11.6,6.4-12.1,12.8l-2,0c0.4-4.6,2.5-15.1,14.1-15.1h0
			c11.6,0,13.7,10.5,14.1,15.1L36.1,46z M39.5,46c-0.6-8.1-4.9-16.4-15.4-16.4h0C13.5,29.6,9.2,37.9,8.6,46H6.7
			C7.1,40.5,9.6,27.4,24,27.4c0,0,0,0,0,0c14.4,0,16.9,13.2,17.3,18.6H39.5z M42.6,46c-0.5-7.9-4-16.1-12.1-18.9
			c0.7-0.2,1.3-0.5,1.8-1.1c0.1,0,0.2,0,0.2,0c9.6,4.1,11.8,15,12.3,20L42.6,46z"/>
	</g>
</g>
</svg>
