<?xml version="1.0" encoding="utf-8"?>
<!-- Generator: Adobe Illustrator 19.2.1, SVG Export Plug-In . SVG Version: 6.00 Build 0)  -->
<svg version="1.1" id="Layer_1" xmlns="http://www.w3.org/2000/svg" xmlns:xlink="http://www.w3.org/1999/xlink" x="0px" y="0px"
	 viewBox="0 0 48 48" style="enable-background:new 0 0 48 48;" xml:space="preserve">
<style type="text/css">
	.st0{fill:#FFFFFF;}
</style>
<g>
	<path class="st0" d="M30.3,24l13.5-13.5c0,0,3.4-9.3,3.2-9.4c-0.2-0.2-9.4,3.2-9.4,3.2L24.1,17.8L10.5,4.3c0,0-9.3-3.4-9.4-3.2
		c-0.2,0.2,3.2,9.4,3.2,9.4L17.8,24L1,40.8c0.5,1.6,1.3,2.9,2.3,3.8c0.9,1,2.2,1.9,3.9,2.3l16.8-16.7L40.9,47
		c1.6-0.5,2.9-1.3,3.8-2.3c1-0.9,1.9-2.2,2.3-3.9L30.3,24z"/>
	<g>
		<ellipse transform="matrix(0.7072 -0.707 0.707 0.7072 -24.4133 19.7436)" cx="11.6" cy="39.3" rx="0.6" ry="0.6"/>
		<ellipse transform="matrix(0.7075 -0.7067 0.7067 0.7075 -22.6331 20.4858)" cx="13.4" cy="37.6" rx="0.6" ry="0.6"/>
		<ellipse transform="matrix(0.7068 -0.7074 0.7074 0.7068 -20.9479 21.2496)" cx="15.2" cy="35.9" rx="0.6" ry="0.6"/>
		<ellipse transform="matrix(0.7071 -0.7071 0.7071 0.7071 -19.2117 21.8916)" cx="16.8" cy="34.1" rx="0.6" ry="0.6"/>
		<ellipse transform="matrix(0.7071 -0.7071 0.7071 0.7071 -17.4398 22.6489)" cx="18.6" cy="32.4" rx="0.6" ry="0.6"/>
		<ellipse transform="matrix(0.7071 -0.7071 0.7071 0.7071 -15.7399 23.3772)" cx="20.3" cy="30.7" rx="0.6" ry="0.6"/>
		<ellipse transform="matrix(0.7071 -0.7071 0.7071 0.7071 -24.5872 17.7049)" cx="9.1" cy="38.5" rx="0.6" ry="0.6"/>
		<ellipse transform="matrix(0.7071 -0.7071 0.7071 0.7071 -22.7857 18.3916)" cx="10.8" cy="36.7" rx="0.6" ry="0.6"/>
		<ellipse transform="matrix(0.7071 -0.7071 0.7071 0.7071 -21.0848 19.1195)" cx="12.5" cy="35" rx="0.6" ry="0.6"/>
		<ellipse transform="matrix(0.707 -0.7072 0.7072 0.707 -19.3845 19.852)" cx="14.3" cy="33.3" rx="0.6" ry="0.6"/>
		<ellipse transform="matrix(0.707 -0.7072 0.7072 0.707 -17.6124 20.6096)" cx="16.1" cy="31.6" rx="0.6" ry="0.6"/>
		<ellipse transform="matrix(0.7072 -0.707 0.707 0.7072 -15.8821 21.2576)" cx="17.7" cy="29.8" rx="0.6" ry="0.6"/>
		<ellipse transform="matrix(0.7072 -0.707 0.707 0.7072 -14.1815 21.9856)" cx="19.5" cy="28.1" rx="0.6" ry="0.6"/>
		<ellipse transform="matrix(0.7071 -0.7071 0.7071 0.7071 -5.3322 27.6614)" cx="30.7" cy="20.3" rx="0.6" ry="0.6"/>
		<ellipse transform="matrix(0.7071 -0.7071 0.7071 0.7071 -3.6323 28.3899)" cx="32.5" cy="18.6" rx="0.6" ry="0.6"/>
		<ellipse transform="matrix(0.7068 -0.7074 0.7074 0.7068 -1.9271 29.1341)" cx="34.2" cy="16.9" rx="0.6" ry="0.6"/>
		<ellipse transform="matrix(0.7071 -0.7071 0.7071 0.7071 -0.2018 29.7761)" cx="35.8" cy="15.1" rx="0.6" ry="0.6"/>
		<ellipse transform="matrix(0.7071 -0.7071 0.7071 0.7071 -5.5046 25.6172)" cx="28.2" cy="19.5" rx="0.6" ry="0.6"/>
		<ellipse transform="matrix(0.707 -0.7072 0.7072 0.707 -3.7732 26.2789)" cx="29.8" cy="17.7" rx="0.6" ry="0.6"/>
		<ellipse transform="matrix(0.7072 -0.707 0.707 0.7072 -2.077 26.9995)" cx="31.6" cy="16" rx="0.6" ry="0.6"/>
		<ellipse transform="matrix(0.7072 -0.707 0.707 0.7072 -0.3764 27.7274)" cx="33.3" cy="14.3" rx="0.6" ry="0.6"/>
		<ellipse transform="matrix(0.7072 -0.707 0.707 0.7072 1.4243 28.4139)" cx="35" cy="12.5" rx="0.6" ry="0.6"/>
		<ellipse transform="matrix(0.7074 -0.7068 0.7068 0.7074 1.5634 30.5171)" cx="37.6" cy="13.4" rx="0.6" ry="0.6"/>
		<ellipse transform="matrix(0.7071 -0.7071 0.7071 0.7071 3.2723 31.2594)" cx="39.4" cy="11.7" rx="0.6" ry="0.6"/>
		<ellipse transform="matrix(0.7071 -0.7071 0.7071 0.7071 3.1283 29.1455)" cx="36.7" cy="10.8" rx="0.6" ry="0.6"/>
		<path d="M45.4,45.4c1.2-1.1,2.1-2.6,2.6-4.3c0.1-0.4,0-0.7-0.3-1L31.7,24l12.8-12.8c0,0,0,0,0-0.1c0.1-0.1,0.1-0.2,0.2-0.3
			c0,0,0,0,0-0.1c3.6-9.9,3.6-9.9,3-10.5C47.6,0.1,47.3,0,47,0c-0.2,0-0.7,0-9.8,3.3l-0.1,0.1c-0.1,0-0.2,0.1-0.2,0.1l0,0L24.1,16.4
			L11.2,3.5l0,0c-0.1-0.1-0.1-0.1-0.2-0.1l-0.1-0.1C1.8,0,1.3,0,1,0C0.8,0,0.5,0.1,0.3,0.3c-0.6,0.6-0.6,0.6,3,10.5c0,0,0,0,0,0.1
			s0.1,0.2,0.2,0.3c0,0,0,0,0,0.1L16.4,24L0.3,40.1c-0.3,0.3-0.4,0.6-0.3,1c0.5,1.7,1.4,3.2,2.6,4.3c1.1,1.2,2.6,2.1,4.3,2.6
			c0.1,0,0.2,0,0.3,0c0.3,0,0.5-0.1,0.7-0.3l16.1-16.1l16.1,16.1c0.2,0.2,0.5,0.3,0.7,0.3c0.1,0,0.2,0,0.3,0
			C42.8,47.5,44.3,46.6,45.4,45.4z M43.5,3.2C43.5,3.3,43.5,3.3,43.5,3.2c0.1,0.2,0.2,0.2,0.2,0.3c0.1,0.1,0.2,0.3,0.4,0.4
			c0.2,0.2,0.4,0.4,0.6,0.5c0.1,0,0.1,0.1,0.2,0.1l0,0c-0.5,1.5-1.1,3.1-1.7,4.6c-0.9-0.4-1.7-1-2.5-1.8l-0.1-0.1
			c-0.7-0.7-1.3-1.5-1.7-2.4C40.4,4.3,42.1,3.7,43.5,3.2z M37.3,6.1c0.5,1,1.2,1.9,2,2.7c0.8,0.9,1.7,1.5,2.8,2.1L30.3,22.5
			l-4.7-4.7L37.3,6.1z M10.8,6.1l31,31c-0.2,0.5-0.4,0.9-0.7,1.4l-31-31.2C10.3,6.9,10.6,6.5,10.8,6.1z M40.5,39.4
			c-0.1,0.2-0.3,0.3-0.4,0.5L39.9,40c-0.2,0.2-0.4,0.4-0.6,0.5L8.1,9.4C8.4,9.2,8.6,9,8.8,8.8C9,8.7,9.1,8.5,9.3,8.3L40.5,39.4z
			 M3.2,4.6C3.3,4.6,3.3,4.6,3.2,4.6c0.2-0.1,0.2-0.2,0.3-0.2C3.6,4.3,3.8,4.2,3.9,4c0.2-0.2,0.4-0.4,0.5-0.6c0-0.1,0.1-0.1,0.1-0.2
			l0,0C6,3.7,7.7,4.3,9.1,4.9c-0.4,0.9-1,1.7-1.8,2.5l0,0C6.6,8.2,5.8,8.8,4.9,9.1C4.3,7.7,3.7,6,3.2,4.6z M6.9,45.8
			c-1.4-0.5-2.3-1.3-2.9-1.9c-0.8-0.8-1.5-1.7-1.9-2.8l2.5-2.5c0.5,1,1.2,1.9,2,2.7c0.8,0.9,1.7,1.5,2.8,2.1L6.9,45.8z M11,41.8
			c-1-0.4-2-1-2.8-1.9L8,39.8C7.2,39,6.6,38.1,6.2,37l11.6-11.6l4.8,4.8L11,41.8z M37.1,41.8l-31-31c0.4-0.2,0.7-0.4,1.1-0.6
			l31.1,31.1C37.9,41.5,37.6,41.6,37.1,41.8z M41.4,41.4c0.9-0.8,1.5-1.7,2.1-2.8l2.5,2.5c-0.5,1.4-1.3,2.3-1.9,2.9
			c-0.8,0.8-1.7,1.5-2.8,1.9l-2.5-2.5C39.7,42.8,40.6,42.2,41.4,41.4z"/>
	</g>
</g>
</svg>
