<?xml version="1.0" encoding="utf-8"?>
<!-- Generator: Adobe Illustrator 19.2.1, SVG Export Plug-In . SVG Version: 6.00 Build 0)  -->
<svg version="1.1" id="Layer_1" xmlns="http://www.w3.org/2000/svg" xmlns:xlink="http://www.w3.org/1999/xlink" x="0px" y="0px"
	 viewBox="0 0 48 48" style="enable-background:new 0 0 48 48;" xml:space="preserve">
<style type="text/css">
	.st0{fill:#FFFFFF;}
	.st1{fill:#020204;}
</style>
<g>
	<path class="st0" d="M41.4,6.6c-4.9-4.8-10.7-6.9-13-4.6c-1.5,1.5-1.2,4.3,0.5,7.5l-7.4,7.2c-7.2-3.1-13.7,3.1-13.7,3.1
		s-2,5.7,5.6,14.1c7.1,7.9,15.5,5.9,15.5,5.9c3.2-3.7,5-7.8,1.9-13.5l7.3-7.3c3.3,1.9,6.4,2.3,8,0.7C48.4,17.3,46.3,11.5,41.4,6.6z"
		/>
	<g>
		<path class="st1" d="M42.2,5.9c-3.6-3.6-7.8-5.8-11.1-5.8c-1.4,0-2.6,0.4-3.4,1.3c-1.4,1.4-1.6,3.8-0.6,6.6
			c0.2,0.4,0.4,0.9,0.6,1.4l-6.4,6.2c-1.3-0.5-2.6-0.7-4-0.7c-5.7,0-10,4.1-10.2,4.3c-0.1,0.1-0.2,0.2-0.3,0.4
			c-0.1,0.2-1.9,5.8,4.7,13.8l-9.7,9.5c0,0-0.1,0.1-0.1,0.1L0,47.5c0,0.1,0,0.3,0.1,0.4c0.1,0.1,0.1,0.1,0.2,0.1c0,0,0.1,0,0.1,0
			l4.8-2c0,0,0.1,0,0.1-0.1l9.5-9.2c4.4,3.7,9,4.3,11.5,4.3c1.7,0,2.7-0.3,2.8-0.3c0.2-0.1,0.4-0.2,0.5-0.3c3-3.5,5.3-7.8,2.3-13.9
			l6.2-6.3c1.8,0.9,3.6,1.4,5.1,1.4c1.4,0,2.6-0.4,3.4-1.3C49.5,17.6,47.5,11.2,42.2,5.9z M29.5,12.4c-0.2,0-0.5,0-0.6,0.2
			c-0.3,0.3-0.3,0.8,0,1.1c0.3,0.3,0.8,0.3,1.1,0c0.1-0.1,0.2-0.3,0.2-0.4c0.3,0.4,0.7,0.9,1.1,1.3c-0.1,0-0.2,0.1-0.2,0.2
			c-0.3,0.3-0.3,0.8,0,1.1c0.3,0.3,0.8,0.3,1.1,0c0.1-0.1,0.1-0.1,0.1-0.2c0.1,0.1,0.1,0.1,0.2,0.2c0.3,0.3,0.7,0.6,1,0.9
			c-0.1,0-0.2,0.1-0.2,0.2c-0.3,0.3-0.3,0.8,0,1.1c0.3,0.3,0.8,0.3,1.1,0c0.1-0.1,0.2-0.2,0.2-0.3c0.6,0.4,1.1,0.9,1.7,1.2
			c-0.3-0.1-0.6,0-0.8,0.2c-0.3,0.3-0.3,0.8,0,1.1c0,0,0.1,0.1,0.2,0.1l-3.2,3.2c0-0.1-0.1-0.1-0.1-0.2c-0.3-0.3-0.8-0.3-1.1,0
			c-0.3,0.3-0.3,0.8,0,1.1c0.1,0.1,0.1,0.1,0.2,0.1l-3.2,3.2c0-0.1-0.1-0.1-0.1-0.2c-0.3-0.3-0.8-0.3-1.1,0c-0.3,0.3-0.3,0.7,0,1
			c-1.8-0.5-6.1-2.3-7.6-8.1l2.1-2c0,0.2,0.1,0.4,0.2,0.6c0.3,0.3,0.8,0.3,1.1,0c0.3-0.3,0.3-0.8,0-1.1c-0.1-0.1-0.3-0.2-0.5-0.2
			l3.5-3.4c0,0.2,0.1,0.3,0.2,0.4c0.3,0.3,0.8,0.3,1.1,0c0.3-0.3,0.3-0.8,0-1.1c-0.1-0.1-0.3-0.2-0.4-0.2l2.4-2.3
			C28.9,11.6,29.2,12,29.5,12.4z M28.3,38.8c-0.4,0.1-1.1,0.2-2,0.2c-2.6,0-7.7-0.7-12.2-5.8C8,26.3,8.5,21.4,8.7,20.3
			c0.9-0.7,4.3-3.5,8.5-3.5c0.8,0,1.5,0.1,2.3,0.3l-2.3,2.2c-0.3,0.2-0.4,0.6-0.3,1c2.1,9.1,9.9,10.3,10.2,10.4c0,0,0.1,0,0.1,0
			c0.3,0,0.5-0.1,0.7-0.3l2.4-2.4C32.3,32.3,31,35.6,28.3,38.8z M36.4,19.1c0,0-0.1-0.1-0.1-0.1C36.3,19,36.4,19.1,36.4,19.1
			L36.4,19.1z M45.3,18.9c-0.4,0.4-1.1,0.7-1.9,0.7c-2.6,0-6.4-2.1-9.6-5.2c-2.2-2.2-3.9-4.7-4.8-7.1c-0.7-2-0.7-3.7,0.1-4.5
			c0.4-0.4,1.1-0.7,1.9-0.7c2.6,0,6.4,2.1,9.6,5.2C45.5,12.1,47,17.2,45.3,18.9z"/>
		<ellipse transform="matrix(0.7083 -0.7059 0.7059 0.7083 -9.1388 21.0431)" class="st1" cx="20.9" cy="21.6" rx="0.7" ry="0.8"/>
		<ellipse transform="matrix(0.7085 -0.7057 0.7057 0.7085 -10.0231 23.1514)" class="st1" cx="23" cy="23.7" rx="0.7" ry="0.8"/>
		<ellipse transform="matrix(0.7083 -0.7059 0.7059 0.7083 -10.9083 25.2868)" class="st1" cx="25.1" cy="25.8" rx="0.7" ry="0.8"/>
		<ellipse transform="matrix(0.7086 -0.7056 0.7056 0.7086 -7.4732 22.9696)" class="st1" cx="24.1" cy="20.5" rx="0.7" ry="0.8"/>
		<ellipse transform="matrix(0.7071 -0.7071 0.7071 0.7071 -8.3526 25.1622)" class="st1" cx="26.2" cy="22.7" rx="0.7" ry="0.8"/>
		<ellipse transform="matrix(0.708 -0.7062 0.7062 0.708 -9.2407 27.2445)" class="st1" cx="28.3" cy="24.8" rx="0.7" ry="0.8"/>
		<ellipse transform="matrix(0.708 -0.7062 0.7062 0.708 -4.9185 22.8146)" class="st1" cx="25.1" cy="17.4" rx="0.7" ry="0.8"/>
		<ellipse transform="matrix(0.7074 -0.7068 0.7068 0.7074 -5.7987 24.9631)" class="st1" cx="27.3" cy="19.5" rx="0.7" ry="0.8"/>
		<ellipse transform="matrix(0.7083 -0.7059 0.7059 0.7083 -6.6907 27.0457)" class="st1" cx="29.4" cy="21.6" rx="0.7" ry="0.8"/>
		<ellipse transform="matrix(0.708 -0.7062 0.7062 0.708 -3.2507 24.7549)" class="st1" cx="28.3" cy="16.3" rx="0.7" ry="0.8"/>
		<ellipse transform="matrix(0.7086 -0.7056 0.7056 0.7086 -4.1429 26.8475)" class="st1" cx="30.4" cy="18.4" rx="0.7" ry="0.8"/>
		<ellipse transform="matrix(0.7089 -0.7053 0.7053 0.7089 -5.0312 28.9548)" class="st1" cx="32.6" cy="20.6" rx="0.7" ry="0.8"/>
	</g>
</g>
</svg>
