<?xml version="1.0" encoding="utf-8"?>
<!-- Generator: Adobe Illustrator 19.2.1, SVG Export Plug-In . SVG Version: 6.00 Build 0)  -->
<svg version="1.1" id="Layer_1" xmlns="http://www.w3.org/2000/svg" xmlns:xlink="http://www.w3.org/1999/xlink" x="0px" y="0px"
	 viewBox="0 0 48 48" style="enable-background:new 0 0 48 48;" xml:space="preserve">
<style type="text/css">
	.st0{fill:#FFFFFF;}
	.st1{fill:#1A1A18;}
</style>
<g>
	<path class="st0" d="M38.6,44.1c0,1.5-1.2,2.7-2.7,2.7H12.1c-1.5,0-2.7-1.2-2.7-2.7V3.9c0-1.5,1.2-2.7,2.7-2.7h23.8
		c1.5,0,2.7,1.2,2.7,2.7V44.1z"/>
	<g>
		<path class="st1" d="M35.9,0H12.1C10,0,8.2,1.7,8.2,3.9v40.2c0,2.1,1.7,3.9,3.9,3.9h23.8c2.1,0,3.9-1.7,3.9-3.9V3.9
			C39.8,1.7,38,0,35.9,0z M16.5,45.7h-4.3c-0.9,0-1.6-0.7-1.6-1.6V3.9c0-0.9,0.7-1.6,1.6-1.6h4.3V45.7z M37.5,44.1
			c0,0.9-0.7,1.6-1.6,1.6H20.3V2.3h15.5c0.9,0,1.6,0.7,1.6,1.6V44.1z"/>
		<path class="st1" d="M27.8,35.1c0.4,0.4,0.7,0.8,0.7,1.5c0,0.6-0.3,1.1-0.8,1.4v-2h-1.3v2.3c-0.1,0-0.2,0-0.3,0
			c-0.1,0-0.2,0-0.3,0V36h-1.3v2c-0.5-0.3-0.8-0.8-0.8-1.4c0-0.6,0.2-1,0.7-1.4l-1.1-1c-0.6,0.4-1.1,1.3-1.1,2.4
			c0,1.5,0.9,2.6,2.3,3.1v0.9h1.3v-0.7h0.3c0.1,0,0.2,0,0.3,0v0.7h1.3v-0.9c1.3-0.5,2.2-1.5,2.2-3c0-0.9-0.3-1.8-1-2.5L27.8,35.1z"
			/>
		<circle class="st1" cx="35.1" cy="31.9" r="0.7"/>
		<circle class="st1" cx="32.3" cy="31.9" r="0.7"/>
		<circle class="st1" cx="35.1" cy="37.4" r="0.7"/>
		<circle class="st1" cx="33.7" cy="40.2" r="0.7"/>
		<circle class="st1" cx="32.3" cy="37.4" r="0.7"/>
		<circle class="st1" cx="33.7" cy="34.7" r="0.7"/>
		<circle class="st1" cx="35.1" cy="26.4" r="0.7"/>
		<circle class="st1" cx="32.3" cy="26.4" r="0.7"/>
		<circle class="st1" cx="35.1" cy="21" r="0.7"/>
		<circle class="st1" cx="32.3" cy="21" r="0.7"/>
		<circle class="st1" cx="33.7" cy="14.1" r="0.7"/>
		<circle class="st1" cx="35.1" cy="11.4" r="0.7"/>
		<circle class="st1" cx="32.3" cy="11.4" r="0.7"/>
		<circle class="st1" cx="33.7" cy="8.6" r="0.7"/>
		<circle class="st1" cx="32.3" cy="5.9" r="0.7"/>
		<circle class="st1" cx="35.1" cy="5.9" r="0.7"/>
		<circle class="st1" cx="33.7" cy="23.7" r="0.7"/>
	</g>
</g>
</svg>
