<?xml version="1.0" encoding="utf-8"?>
<!-- Generator: Adobe Illustrator 19.2.1, SVG Export Plug-In . SVG Version: 6.00 Build 0)  -->
<svg version="1.1" id="Layer_1" xmlns="http://www.w3.org/2000/svg" xmlns:xlink="http://www.w3.org/1999/xlink" x="0px" y="0px"
	 viewBox="0 0 48 48" style="enable-background:new 0 0 48 48;" xml:space="preserve">
<style type="text/css">
	.st0{fill:#FFFFFF;}
</style>
<g>
	<polygon class="st0" points="47,21.4 23.9,8 0.8,21.4 0.8,21.4 0.8,25 23.9,40.1 47,25 	"/>
	<g>
		<path d="M47.8,21.4L47.8,21.4c0-0.1,0-0.2-0.1-0.3V21c0-0.1-0.1-0.1-0.1-0.2c0,0,0,0-0.1-0.1l-0.1-0.1L24.3,7.3
			c-0.3-0.2-0.6-0.2-0.8,0L0.4,20.6c-0.2,0.1-0.3,0.2-0.3,0.4l0,0C0,21.2,0,21.2,0,21.4l0,0V25c0,0.3,0.1,0.6,0.4,0.7l23.1,15
			c0.1,0.1,0.3,0.1,0.5,0.1s0.3,0,0.5-0.1l23.1-15c0.2-0.2,0.4-0.4,0.4-0.7L47.8,21.4L47.8,21.4z M23.1,38.5L1.7,24.5v-1.6
			l21.4,13.9V38.5z M23.9,35.4L2.5,21.4L23.9,9l21.4,12.4L23.9,35.4z M46.1,24.5L24.7,38.5v-1.6l21.4-13.9V24.5z"/>
		<path d="M30.8,16.1c-1.9-1.5-4.5-2.3-7.2-2.3c-0.9,0-1.8,0.1-2.6,0.3c-0.1,0-0.3,0.1-0.3,0.2c-0.1,0.1-0.1,0.3,0,0.4l2,5.7
			L17,16.1c-0.2-0.1-0.4-0.1-0.6,0c-2,1.5-3.1,3.6-3.1,5.7c0,2.2,1.1,4.2,3.1,5.7c1.9,1.5,4.5,2.3,7.2,2.3s5.3-0.8,7.2-2.3
			c2-1.5,3.1-3.6,3.1-5.7S32.8,17.6,30.8,16.1z M29.5,26.1c-3.3,2.5-8.6,2.5-11.9,0c-1.5-1.2-2.3-2.7-2.3-4.3c0-1.5,0.8-3,2.1-4.1
			l5.8,4.5c0.2,0.1,0.4,0.1,0.6,0c0.2-0.1,0.3-0.4,0.2-0.6l-2-5.9c2.7-0.4,5.5,0.3,7.5,1.8c1.5,1.2,2.3,2.7,2.3,4.3
			C31.8,23.4,31,24.9,29.5,26.1z"/>
		<path d="M20.6,23.8l-0.5-0.5c-0.1-0.1-0.3-0.1-0.4-0.1L19,23.6l-0.3-0.3c-0.1-0.1-0.3-0.1-0.4,0c-0.3,0.2-0.4,0.4-0.4,0.7
			c0,0.4,0.1,0.7,0.4,1c0.3,0.3,0.8,0.6,1.3,0.6c0.2,0,0.4-0.1,0.6-0.2c0.1-0.1,0.2-0.1,0.2-0.2c0-0.1,0-0.2-0.1-0.3l-0.2-0.2
			l0.5-0.3c0.1-0.1,0.1-0.1,0.2-0.2C20.7,24,20.6,23.9,20.6,23.8z"/>
		<path d="M27.4,24.8l-0.7-0.1l0.1-0.3c0-0.1,0-0.2,0-0.3c0-0.1-0.1-0.1-0.2-0.2c-0.7-0.1-1.4,0.3-1.6,1c-0.1,0.4-0.1,0.7,0.1,1
			s0.4,0.5,0.8,0.6c0,0,0,0,0.1,0s0.3-0.1,0.3-0.2l0.1-0.4l0.8,0.2c0.2,0,0.3-0.1,0.4-0.2l0.2-0.6c0-0.1,0-0.2,0-0.3
			C27.5,24.8,27.4,24.8,27.4,24.8z"/>
		<path d="M25.4,20l0.4,0.1l-0.2,0.5c0,0.1,0,0.2,0,0.3s0.1,0.1,0.2,0.2l0.8,0.2c0,0,0,0,0.1,0c0.1,0,0.3-0.1,0.3-0.2l0.2-0.6
			l0.5,0.1c0.2,0,0.3-0.1,0.4-0.2c0.1-0.2,0-0.5-0.1-0.7c-0.2-0.3-0.6-0.6-1.1-0.7c-0.2,0-0.3-0.1-0.5-0.1c-0.7,0-1.2,0.3-1.3,0.7
			c0,0.1,0,0.2,0,0.3C25.2,19.9,25.3,19.9,25.4,20z"/>
		<circle cx="17.1" cy="21.5" r="0.5"/>
		<circle cx="19.1" cy="21.5" r="0.5"/>
		<circle cx="21.2" cy="25.5" r="0.5"/>
		<circle cx="23.2" cy="25.5" r="0.5"/>
		<circle cx="22.2" cy="23.5" r="0.5"/>
		<circle cx="29.2" cy="21.5" r="0.5"/>
		<circle cx="28.2" cy="23.5" r="0.5"/>
		<circle cx="26.2" cy="17.6" r="0.5"/>
		<circle cx="24.2" cy="17.6" r="0.5"/>
		<circle cx="18.1" cy="19.5" r="0.5"/>
	</g>
</g>
</svg>
