<?xml version="1.0" encoding="utf-8"?>
<!-- Generator: Adobe Illustrator 19.2.1, SVG Export Plug-In . SVG Version: 6.00 Build 0)  -->
<svg version="1.1" id="Layer_1" xmlns="http://www.w3.org/2000/svg" xmlns:xlink="http://www.w3.org/1999/xlink" x="0px" y="0px"
	 viewBox="0 0 48 48" style="enable-background:new 0 0 48 48;" xml:space="preserve">
<style type="text/css">
	.st0{fill:#FFFFFF;}
</style>
<g>
	<path class="st0" d="M46.7,40.2c0,0.6-0.5,1.1-1.1,1.1H2.4c-0.6,0-1.1-0.5-1.1-1.1V7.8c0-0.6,0.5-1.1,1.1-1.1h43.2
		c0.6,0,1.1,0.5,1.1,1.1V40.2z"/>
	<g>
		<path d="M45.6,5.4H2.4C1.1,5.4,0,6.5,0,7.8v32.5c0,1.3,1.1,2.4,2.4,2.4h43.2c1.3,0,2.4-1.1,2.4-2.4V7.8C48,6.5,46.9,5.4,45.6,5.4z
			 M45.5,40.1h-43V7.9h43C45.5,7.9,45.5,40.1,45.5,40.1z"/>
		<circle cx="9.9" cy="38.9" r="0.7"/>
		<circle cx="12.8" cy="38.9" r="0.7"/>
		<circle cx="15.8" cy="38.9" r="0.7"/>
		<circle cx="18.8" cy="38.9" r="0.7"/>
		<circle cx="21.8" cy="38.9" r="0.7"/>
		<circle cx="24.7" cy="38.9" r="0.7"/>
		<circle cx="14.3" cy="36" r="0.7"/>
		<circle cx="11.4" cy="36" r="0.7"/>
		<circle cx="8.4" cy="36" r="0.7"/>
		<circle cx="6.9" cy="38.9" r="0.7"/>
		<circle cx="3.9" cy="38.9" r="0.7"/>
		<circle cx="12.8" cy="33" r="0.7"/>
		<circle cx="17.3" cy="36" r="0.7"/>
		<circle cx="20.3" cy="36" r="0.7"/>
		<circle cx="23.2" cy="36" r="0.7"/>
		<circle cx="24.7" cy="33" r="0.7"/>
		<circle cx="26.2" cy="36" r="0.7"/>
		<circle cx="27.7" cy="38.9" r="0.7"/>
		<circle cx="30.7" cy="38.9" r="0.7"/>
		<circle cx="33.7" cy="38.9" r="0.7"/>
		<circle cx="36.6" cy="38.9" r="0.7"/>
		<circle cx="29.2" cy="30" r="0.7"/>
		<circle cx="32.2" cy="30" r="0.7"/>
		<circle cx="35.2" cy="30" r="0.7"/>
		<circle cx="38.1" cy="30" r="0.7"/>
		<circle cx="39.6" cy="15" r="0.7"/>
		<circle cx="42.6" cy="15" r="0.7"/>
		<circle cx="41.1" cy="18" r="0.7"/>
		<circle cx="42.6" cy="21" r="0.7"/>
		<circle cx="39.6" cy="21" r="0.7"/>
		<circle cx="41.1" cy="24" r="0.7"/>
		<circle cx="39.6" cy="27" r="0.7"/>
		<circle cx="42.6" cy="27" r="0.7"/>
		<circle cx="41.1" cy="30" r="0.7"/>
		<circle cx="39.6" cy="33" r="0.7"/>
		<circle cx="42.6" cy="33" r="0.7"/>
		<circle cx="41.1" cy="36" r="0.7"/>
		<circle cx="39.6" cy="38.9" r="0.7"/>
		<circle cx="42.6" cy="38.9" r="0.7"/>
		<circle cx="44.1" cy="12" r="0.7"/>
		<circle cx="44.1" cy="18" r="0.7"/>
		<circle cx="44.1" cy="24" r="0.7"/>
		<circle cx="44.1" cy="30" r="0.7"/>
		<circle cx="44.1" cy="36" r="0.7"/>
		<circle cx="35.2" cy="18" r="0.7"/>
		<circle cx="35.2" cy="24" r="0.7"/>
		<circle cx="38.1" cy="24" r="0.7"/>
		<circle cx="33.7" cy="27" r="0.7"/>
		<circle cx="36.6" cy="27" r="0.7"/>
		<circle cx="29.2" cy="36" r="0.7"/>
		<circle cx="32.2" cy="36" r="0.7"/>
		<circle cx="35.2" cy="36" r="0.7"/>
		<circle cx="38.1" cy="36" r="0.7"/>
		<circle cx="27.7" cy="33" r="0.7"/>
		<circle cx="30.7" cy="33" r="0.7"/>
		<circle cx="33.7" cy="33" r="0.7"/>
		<circle cx="36.6" cy="33" r="0.7"/>
		<circle cx="38.1" cy="18" r="0.7"/>
		<circle cx="33.7" cy="21" r="0.7"/>
		<circle cx="36.6" cy="21" r="0.7"/>
		<path d="M17.4,34.4c0.1,0,0.2,0.1,0.2,0.1c0.1,0,0.2,0,0.3-0.1l14.9-10.2c0.1-0.1,0.2-0.2,0.2-0.4c0-0.2-0.1-0.3-0.2-0.4L18,12.8
			c-0.2-0.1-0.4-0.1-0.5,0c-0.2,0.1-0.3,0.3-0.3,0.4v20.6C17.1,34.1,17.2,34.3,17.4,34.4z"/>
	</g>
</g>
</svg>
