<?xml version="1.0" encoding="utf-8"?>
<!-- Generator: Adobe Illustrator 19.2.1, SVG Export Plug-In . SVG Version: 6.00 Build 0)  -->
<svg version="1.1" id="Layer_1" xmlns="http://www.w3.org/2000/svg" xmlns:xlink="http://www.w3.org/1999/xlink" x="0px" y="0px"
	 viewBox="0 0 48 48" style="enable-background:new 0 0 48 48;" xml:space="preserve">
<style type="text/css">
	.st0{fill:#FFFFFF;}
	.st1{fill:#1A1A18;}
</style>
<g>
	<path class="st0" d="M37.3,13.1h-1.9V3.7c0-1.3-1.3-2.4-2.8-2.4c-1.6,0-2.8,1.1-2.8,2.4v9.4H18.3V3.7c0-1.3-1.3-2.4-2.8-2.4
		c-1.6,0-2.8,1.1-2.8,2.4v9.4h-2v12.7h0c0,0.2,0,0.4,0,0.6c0,5.7,3.5,10.5,8.5,12.4v8h9.6v-8c5-1.9,8.5-6.8,8.5-12.4
		c0-0.2,0-0.4,0-0.6h0V13.1z"/>
	<g>
		<circle class="st1" cx="13.2" cy="25" r="0.7"/>
		<circle class="st1" cx="16.2" cy="25" r="0.7"/>
		<circle class="st1" cx="19.2" cy="25" r="0.7"/>
		<circle class="st1" cx="14.7" cy="28" r="0.7"/>
		<circle class="st1" cx="17.7" cy="28" r="0.7"/>
		<circle class="st1" cx="13.2" cy="19.1" r="0.7"/>
		<circle class="st1" cx="16.2" cy="19.1" r="0.7"/>
		<circle class="st1" cx="19.2" cy="19.1" r="0.7"/>
		<circle class="st1" cx="22.2" cy="19.1" r="0.7"/>
		<circle class="st1" cx="14.7" cy="22.1" r="0.7"/>
		<circle class="st1" cx="17.7" cy="22.1" r="0.7"/>
		<circle class="st1" cx="20.7" cy="22.1" r="0.7"/>
		<circle class="st1" cx="25.2" cy="19.1" r="0.7"/>
		<circle class="st1" cx="20.7" cy="16.1" r="0.7"/>
		<circle class="st1" cx="23.7" cy="16.1" r="0.7"/>
		<circle class="st1" cx="14.7" cy="16.1" r="0.7"/>
		<circle class="st1" cx="17.7" cy="16.1" r="0.7"/>
		<path class="st1" d="M38.6,13.1c0-0.7-0.6-1.2-1.2-1.2h-0.7V3.7c0-2-1.8-3.7-4.1-3.7c-2.2,0-4.1,1.6-4.1,3.7v8.2h-8.9V3.7
			c0-2-1.8-3.7-4.1-3.7c-2.3,0-4.1,1.6-4.1,3.7v8.2h-0.7c-0.7,0-1.2,0.6-1.2,1.2v12.7c0,0,0,0.1,0,0.1c0,0.1,0,0.3,0,0.4
			c0,5.9,3.5,10.9,8.5,13.2v7.1c0,0.7,0.6,1.2,1.2,1.2h9.6c0.7,0,1.2-0.6,1.2-1.2v-7.1c5-2.3,8.5-7.4,8.5-13.2c0-0.1,0-0.3,0-0.4
			c0,0,0-0.1,0-0.1V13.1z M31,3.7c0-0.6,0.7-1.2,1.6-1.2c0.9,0,1.6,0.5,1.6,1.2v8.2H31V3.7z M13.9,3.7c0-0.6,0.7-1.2,1.6-1.2
			c0.9,0,1.6,0.5,1.6,1.2v8.2h-3.2V3.7z M27.5,45.5h-7.1v-5c1.1,0.3,2.3,0.5,3.6,0.5c1.2,0,2.4-0.2,3.5-0.5V45.5z M36.1,25.6
			c0,0.1,0,0.2,0,0.2c0,0.2,0,0.4,0,0.5c0,6.7-5.4,12.1-12.1,12.1c-6.7,0-12.1-5.4-12.1-12.1c0-0.2,0-0.4,0-0.5c0-0.1,0-0.2,0-0.2
			V14.3h24.2V25.6z"/>
	</g>
</g>
</svg>
