<?xml version="1.0" encoding="utf-8"?>
<!-- Generator: Adobe Illustrator 19.2.1, SVG Export Plug-In . SVG Version: 6.00 Build 0)  -->
<svg version="1.1" id="Layer_1" xmlns="http://www.w3.org/2000/svg" xmlns:xlink="http://www.w3.org/1999/xlink" x="0px" y="0px"
	 viewBox="0 0 48 48" style="enable-background:new 0 0 48 48;" xml:space="preserve">
<style type="text/css">
	.st0{fill:#FFFFFF;}
	.st1{fill:#1A1A18;}
</style>
<g>
	<path class="st0" d="M45.6,12c-4.1-1.3-11.4-1.8-15.6-0.1c-0.4,1.2-1.2,2.6-2.2,4.1l-0.2-0.2c0,0-0.1-0.1-0.2,0
		c-0.1,0-0.1,0-0.1,0.1l-0.9,1.4c0,0.1,0,0.1,0,0.2c0,0,0.1,0.1,0.2,0.2c-0.5,0.6-1.1,1.1-1.6,1.7l-0.3-0.3c0,0-0.1-0.1-0.2-0.1
		c-0.1,0-0.1,0-0.2,0.1l-1,1.3c0,0.1-0.1,0.1,0,0.2c0,0,0.1,0.1,0.1,0.2c-0.5,0.4-1,0.8-1.6,1.2l-0.1-0.2c0-0.1-0.1-0.1-0.1-0.1
		c-0.1,0-0.1,0-0.2,0l-1.3,1c-0.1,0-0.1,0.1-0.1,0.2c0,0,0,0.1,0.1,0.2c-0.6,0.4-1.1,0.7-1.7,1c0,0-0.1,0-0.2,0l-1.5,0.7
		c-0.1,0-0.1,0.1-0.1,0.2c0,0,0,0,0,0c-2.3,1.1-4.9,1.8-7.6,2.2c-7.1,1-7.3,2.8-8.1,5.2c-0.5,1.7,8.7,5,14.5,5c3.2,0,23.9,0,29.1,0
		c1,0,2.1-0.7,2.3-1.6C48.4,26.2,45.6,12,45.6,12z"/>
	<g>
		<path class="st1" d="M37.8,25c0,0.1,0,0.2,0.1,0.2c0,0,0.1,0,0.1,0c0,0,0.1,0,0.1,0l1.7-0.9l1.7,0.9c0,0,0.1,0,0.1,0
			c0.1,0,0.2-0.1,0.2-0.2c0,0,0-0.1,0-0.1l-0.3-1.8l1.3-1.3c0.1-0.1,0.1-0.1,0.1-0.2c0-0.1-0.1-0.1-0.2-0.1l-1.9-0.2l-0.9-1.7
			c0-0.1-0.1-0.1-0.2-0.1c-0.1,0-0.2,0-0.2,0.1l-0.8,1.7l-1.9,0.3c-0.1,0-0.1,0.1-0.2,0.1c0,0.1,0,0.2,0.1,0.2l1.4,1.3L37.8,25z"/>
		<path class="st1" d="M46.3,11.8c-0.1-0.3-0.2-0.5-0.5-0.6C43.4,10.5,40.1,10,37,10c-2,0-5,0.2-7.3,1.2c-0.2,0.1-0.4,0.2-0.4,0.5
			c-1.7,5.1-10,13.3-20.5,14.7C2,27.3,1,29,0.2,31.7L0.1,32c-0.1,0.3-0.1,0.8,0.3,1.3c1.5,2.1,9.8,4.7,15,4.7h29.1
			c1.3,0,2.8-0.9,3-2.2C49.1,26.3,46.4,12.4,46.3,11.8z M8.4,27.9l-0.8,2.7c-1.7-0.5-3.1-1-4-1.4C4.6,28.7,6.1,28.3,8.4,27.9z
			 M14.8,36.5c-5.5-0.2-12.7-2.9-13.3-4.1l0.1-0.3c0.3-0.9,0.5-1.6,1.2-2.3c2.1,1.1,6.7,2.5,12,2.9V36.5z M39.8,18.4
			c2.3,0,4.2,1.9,4.2,4.2c0,2.3-1.9,4.2-4.2,4.2c-2.3,0-4.2-1.9-4.2-4.2C35.6,20.2,37.4,18.4,39.8,18.4z M44,12.3
			c-4.5,1.1-9.7,0.6-9.8,0.6c-0.1,0-0.3,0-0.4,0.2c-0.7,0.8-1.5,1.7-2.1,2.3c0.2-0.9,0.4-2,0.5-2.3c0.1-0.2-0.1-0.5-0.3-0.5
			c-0.4-0.1-0.7-0.2-1-0.2c1.6-0.5,3.6-0.8,6-0.8C39.4,11.5,41.9,11.8,44,12.3z M28.3,16.4l1,0.8c0.1,0,0.1,0,0.2,0l0.1,0
			c0.4,0,0.8,0.2,1.1,0.5c0.3,0.3,0.4,0.7,0.4,1.2c0,0.8-0.7,1.5-1.6,1.5l-0.1,0c-0.4,0-0.8-0.2-1.1-0.5c-0.3-0.3-0.4-0.7-0.4-1.2
			c0,0,0,0,0,0c-0.3-0.2-0.6-0.5-0.9-0.7C27.5,17.5,27.9,17,28.3,16.4z M25.3,19.8l0.8,0.9c0,0,0,0,0.1,0l0.1,0
			c0.4,0,0.8,0.2,1.1,0.5c0.3,0.3,0.4,0.7,0.4,1.2c0,0.8-0.7,1.5-1.6,1.5l-0.1,0c-0.9,0-1.6-0.8-1.5-1.7c0-0.1,0-0.1,0-0.2
			c-0.3-0.3-0.6-0.6-0.8-0.8C24.3,20.7,24.8,20.3,25.3,19.8z M22,22.5l0.8,1.3c0.7,0.2,1.3,0.9,1.2,1.6c0,0.8-0.7,1.5-1.6,1.5
			l-0.1,0c-0.4,0-0.8-0.2-1.1-0.5c-0.3-0.3-0.4-0.7-0.4-1.2c0-0.2,0.1-0.4,0.1-0.6c-0.2-0.3-0.5-0.7-0.7-1
			C20.9,23.3,21.5,22.9,22,22.5z M18.5,24.7l0.6,1.8c0.2,0.1,0.4,0.2,0.5,0.4c0.3,0.3,0.4,0.7,0.4,1.2c0,0.8-0.7,1.5-1.6,1.5l-0.1,0
			c-0.9,0-1.6-0.8-1.5-1.7c0-0.3,0.1-0.6,0.3-0.9c-0.2-0.5-0.4-1-0.5-1.4C17.3,25.3,17.9,25,18.5,24.7z M46,35.5
			c-0.1,0.5-0.9,1-1.5,1H15.7v-1.4H46C46,35.3,46,35.4,46,35.5z M46.2,34.2H15.7v-1.4c0.8,0,1.6,0.1,2.4,0.1h28.3
			C46.3,33.3,46.2,33.8,46.2,34.2z"/>
		<path class="st1" d="M18.4,28.7L18.4,28.7c0.4,0,0.7-0.3,0.7-0.7c0-0.2-0.1-0.4-0.2-0.5c-0.1-0.1-0.3-0.2-0.5-0.2h0
			c-0.4,0-0.7,0.3-0.7,0.7C17.7,28.3,18,28.6,18.4,28.7z"/>
		<path class="st1" d="M22.4,26L22.4,26c0.4,0,0.7-0.3,0.7-0.7c0-0.4-0.3-0.7-0.7-0.7h0c-0.4,0-0.7,0.3-0.7,0.7
			c0,0.2,0.1,0.4,0.2,0.5C22.1,25.9,22.2,26,22.4,26z"/>
		<path class="st1" d="M26.1,23L26.1,23c0.4,0,0.7-0.3,0.7-0.7c0-0.2-0.1-0.4-0.2-0.5c-0.1-0.1-0.3-0.2-0.5-0.2h0
			c-0.4,0-0.7,0.3-0.7,0.7C25.5,22.6,25.8,22.9,26.1,23z"/>
		<path class="st1" d="M29.5,19.5L29.5,19.5c0.4,0,0.7-0.3,0.7-0.7c0-0.2-0.1-0.4-0.2-0.5s-0.3-0.2-0.5-0.2c0,0,0,0,0,0
			c-0.4,0-0.7,0.3-0.7,0.7c0,0.2,0.1,0.4,0.2,0.5C29.1,19.5,29.3,19.5,29.5,19.5z"/>
	</g>
</g>
</svg>
