<?xml version="1.0" encoding="utf-8"?>
<!-- Generator: Adobe Illustrator 19.2.1, SVG Export Plug-In . SVG Version: 6.00 Build 0)  -->
<svg version="1.1" id="Layer_1" xmlns="http://www.w3.org/2000/svg" xmlns:xlink="http://www.w3.org/1999/xlink" x="0px" y="0px"
	 viewBox="0 0 48 48" style="enable-background:new 0 0 48 48;" xml:space="preserve">
<style type="text/css">
	.st0{fill:#FFFFFF;}
	.st1{fill:#020204;}
</style>
<g>
	<polygon class="st0" points="43.8,33.4 38.4,28.1 26.6,28.2 26.6,25.4 39.9,25.6 40.1,14.9 26.6,14.6 26.6,11.8 40.9,11.7 40.8,1 
		9.5,1.2 4.2,6.6 9.6,11.9 21.7,11.8 21.7,14.6 10.5,14.4 5,19.6 10.2,25.1 21.7,25.3 21.7,28.2 8.7,28.3 8.8,39.1 21.7,39 21.7,47 
		26.6,47 26.6,38.9 38.5,38.9 	"/>
	<g>
		<path class="st1" d="M44.5,32.7l-5.4-5.3c-0.2-0.2-0.4-0.3-0.7-0.3l-10.9,0.1v-0.8l12.4,0.2c0,0,0,0,0,0c0.5,0,1-0.4,1-1l0.2-10.8
			c0-0.3-0.1-0.5-0.3-0.7c-0.2-0.2-0.4-0.3-0.7-0.3l-12.6-0.2v-0.9l13.4-0.1c0.3,0,0.5-0.1,0.7-0.3c0.2-0.2,0.3-0.4,0.3-0.7L41.8,1
			c0-0.5-0.4-1-1-1h0L9.5,0.2C9.3,0.2,9,0.3,8.8,0.5L3.5,5.9C3.3,6.1,3.2,6.3,3.2,6.6c0,0.3,0.1,0.5,0.3,0.7l5.4,5.3
			c0.2,0.2,0.4,0.3,0.7,0.3h0l11.1-0.1v0.7l-10.3-0.2c-0.3,0-0.5,0.1-0.7,0.3l-5.5,5.3c-0.4,0.4-0.4,1,0,1.4l5.3,5.5
			c0.2,0.2,0.4,0.3,0.7,0.3l10.5,0.2v1l-12,0.1c-0.5,0-1,0.4-1,1l0.1,10.8c0,0.3,0.1,0.5,0.3,0.7c0.2,0.2,0.4,0.3,0.7,0.3h0L20.7,40
			V47c0,0.5,0.4,1,1,1h4.8c0.5,0,1-0.4,1-1v-7.1l10.9-0.1c0.3,0,0.5-0.1,0.7-0.3l5.3-5.4c0.2-0.2,0.3-0.4,0.3-0.7
			C44.8,33.2,44.7,32.9,44.5,32.7z M5.6,6.6l4.4-4.4L39.8,2l0.1,8.8L10,10.9L5.6,6.6z M22.7,12.8l2.9,0v0.9l-2.9,0V12.8z M6.3,19.7
			l4.5-4.3l28.3,0.5L39,24.6l-28.3-0.5L6.3,19.7z M22.7,26.3l2.9,0v0.9l-2.9,0V26.3z M25.6,46h-2.9V40l2.9,0V46z M38.1,37.9
			L9.8,38.1l-0.1-8.8L38,29.1l4.4,4.4L38.1,37.9z"/>
		<path class="st1" d="M18.6,16.7L18.2,17c0.2,0.2,0.5,0.6,0.7,0.8l0.4-0.3C19.1,17.2,18.8,16.9,18.6,16.7z"/>
		<polygon class="st1" points="14.1,18.6 17.4,18.7 17.4,20.9 14,20.8 14,21.7 17.3,21.8 17.3,22.1 18.3,22.1 18.4,17.9 14.1,17.8 
					"/>
		<path class="st1" d="M18.2,17.5c-0.2-0.2-0.5-0.6-0.7-0.8L17.1,17c0.2,0.2,0.5,0.6,0.7,0.8L18.2,17.5z"/>
		<path class="st1" d="M19.6,20.2c0.1,0,0.2,0,0.2-0.1l4.8,0.1l0-0.9l-5.1-0.2L19.6,20.2z"/>
		<path class="st1" d="M27.9,18c-0.4-0.2-1-0.5-1.5-0.6l-0.4,0.7c0.5,0.2,1.1,0.4,1.5,0.7L27.9,18z"/>
		<path class="st1" d="M27,19.4c-0.4-0.2-1-0.5-1.5-0.6l-0.4,0.7c0.5,0.2,1.1,0.4,1.5,0.7L27,19.4z"/>
		<path class="st1" d="M29.6,18.4c-0.9,1.8-2.3,2.7-4.1,3.2l0.6,0.9c0.1,0,0.1-0.1,0.1-0.2c1.7-0.5,3.2-1.6,4.1-3.3
			C30.2,18.9,29.8,18.6,29.6,18.4z"/>
		<path class="st1" d="M33.7,19.4c0,0,0.1-0.1,0.1-0.1L33.2,19l-0.1,0L30.8,19l0,0.7l2.1,0.1c-0.1,0.5-0.2,1.3-0.3,1.8l-2.3-0.1
			l0,0.7l4.1,0.1l0-0.7l-1.1,0C33.4,21.1,33.6,19.9,33.7,19.4z"/>
		<path class="st1" d="M14.9,3.9c-1.5,0-2.8,1.1-2.8,2.6c0,1.1,0.5,1.7,1.2,1.7c1.1,0,1.7-1,2-3.1c0.1,0,0.2,0,0.2-0.1l-0.9-0.2
			c0.1,0,0.2,0,0.4,0c1,0,1.7,0.6,1.6,1.5c0,0.9-0.5,1.5-1.9,1.8c0.3,0.3,0.4,0.6,0.6,0.8c1.6-0.4,2.3-1.1,2.3-2.6
			C17.6,4.9,16.6,3.9,14.9,3.9z M13.3,7.3C13.1,7.3,13,7,13,6.5c0-0.8,0.5-1.5,1.3-1.7C14.2,6.1,13.9,7.3,13.3,7.3z"/>
		<path class="st1" d="M22.8,7.7l-0.7,0.4c0.1,0.1,0.2,0.2,0.3,0.2c-0.2,0-0.5-0.1-0.7-0.3c0,0.4-0.1,0.4-0.2,0.4l-0.6,0
			c-0.2,0-0.3,0-0.3-0.2l0-0.3c0,0,0,0,0,0c0.2,0.1,0.4,0.2,0.5,0.4l0.6-0.5c-0.1-0.1-0.2-0.1-0.3-0.2l1.5,0l0-1.9l-3.7-0.1l0,1.9
			l1.2,0l-0.2,0.2c0.1,0,0.1,0.1,0.2,0.1l-0.6,0l0,0.5c0,0.6,0.2,0.8,1,0.8l0.8,0c0.6,0,0.8-0.2,0.9-0.8c0.3,0.3,0.6,0.5,0.7,0.8
			l0.7-0.5C23.7,8.4,23.2,8,22.8,7.7z M20.1,6.3l2,0l0,0.2l-2,0L20.1,6.3z M20.1,7.1l0-0.2l2,0l0,0.2L20.1,7.1z"/>
		<path class="st1" d="M18.2,8.6l0.7,0.5c0.4-0.3,0.7-0.6,0.9-1.1l-0.7-0.3C18.9,8.1,18.6,8.4,18.2,8.6z"/>
		<path class="st1" d="M23.9,5l-1.4,0c0.1-0.1,0.1-0.3,0.2-0.4c0.1,0,0.1,0,0.1,0l0.6,0l0-0.7l-1.9,0l0-0.3c0.1,0,0.2-0.1,0.2-0.1
			l-1.1-0.1l0,0.4l-1.9,0l0,0.7l1,0l-0.2,0c0,0.1,0.1,0.2,0.1,0.4l-1.4,0l0,0.7l5.6,0.1L23.9,5z M21.6,5l-1,0c0-0.1-0.1-0.3-0.1-0.4
			l1.3,0C21.7,4.7,21.7,4.9,21.6,5z"/>
		<path class="st1" d="M29.3,6.9l0.9,0l0-0.8L29,6l0-0.7l1.1,0l0-0.8l-1.1,0l0-0.7c0.1,0,0.2-0.1,0.2-0.1l-1.1-0.1l0,0.9l-1.1,0
			l0,0.8l1.1,0l0,0.7l-1.2,0l0,0.8l0.9,0c-0.4,0.6-1,1.2-1.7,1.5c0.2,0.2,0.5,0.5,0.6,0.7c0.5-0.3,1-0.7,1.3-1.2l0,1.5l0.9,0l0-1.6
			c0.2,0.5,0.5,0.9,0.8,1.3c0.1-0.2,0.4-0.5,0.6-0.7C30,8,29.6,7.5,29.3,6.9z"/>
		<path class="st1" d="M26.9,4.1l-2,0L24.8,8l0.8,0l0-0.5l1.2,0L26.9,4.1z M26,6.7l-0.4,0l0-1.8l0.4,0L26,6.7z"/>
		<path class="st1" d="M33.2,7.3c0-0.6,0.8-1.4,1.4-1.8c0.5-0.3,0.8-0.4,1.3-0.4l0-1c-1.1,0-3.5,0.2-4.3,0.2c-0.2,0-0.5,0-0.7,0
			L31,5.4c0.1,0,0.1-0.1,0.2-0.1c0.4,0,1.7-0.1,2.5-0.2c-0.8,0.6-1.4,1.5-1.4,2.2c0,1,0.7,1.8,2.4,2L35,8.4
			C33.8,8.3,33.2,7.9,33.2,7.3z"/>
		<path class="st1" d="M35.8,5.4l-0.4,0.3c0.2,0.2,0.5,0.6,0.7,0.8l0.4-0.3C36.3,5.9,36,5.6,35.8,5.4z"/>
		<path class="st1" d="M35,5.9l-0.4,0.3c0.2,0.2,0.5,0.6,0.7,0.8l0.4-0.3C35.6,6.5,35.3,6.1,35,5.9z"/>
		<path class="st1" d="M15.6,32.3L15.6,32.3c-0.2,0.1-0.5,0.3-0.6,0.5l0.8,0.4c0.5-0.4,1.2-0.8,2-0.9l-0.1-1
			c-0.4,0.1-0.9,0.1-1.2,0.1c-0.4,0-1.2,0-1.8,0c-0.2,0-0.4,0-0.5,0c0,0.2,0,0.7,0,0.9C14.6,32.4,15.4,32.3,15.6,32.3z"/>
		<path class="st1" d="M16.1,35.2c-0.7,0-1.4,0-1.4-0.7c0-0.2,0.2-0.5,0.4-0.7l-0.8-0.3c-0.3,0.3-0.6,0.8-0.6,1.3
			c0,0.6,0.3,1.1,1.1,1.3c0.3,0.1,0.8,0.1,1.3,0.1c0.6,0,1.3,0,1.8-0.1L18,35C17.4,35.1,16.7,35.2,16.1,35.2z"/>
		<path class="st1" d="M22,34.5c0-0.3,0.2-0.6,0.4-0.8l-0.9-0.3c-0.3,0.4-0.5,0.8-0.5,1.2c0,1.2,1.4,1.2,2.2,1.2c0.2,0,0.5,0,0.7,0
			l0-0.9c-0.3,0-0.6,0.1-0.9,0.1C22.3,34.9,22,34.8,22,34.5z"/>
		<path class="st1" d="M19.9,34.7c0-0.1,0-0.3,0-0.4c0-0.8,0.1-1.8,0.3-2.9c0.1,0,0.2-0.1,0.2-0.1l-1.2-0.2c-0.1,1-0.3,2.1-0.3,2.9
			c0,0.8,0.1,1.6,0.3,2.2l0.9-0.1c0-0.1,0-0.1,0-0.2c0-0.1,0-0.2,0-0.3c0.1-0.3,0.3-0.6,0.5-1l-0.4-0.7C20.2,34.1,20,34.6,19.9,34.7
			z"/>
		<path class="st1" d="M23.8,32.5l-0.1-0.9c-0.7,0.1-1.9,0.2-2.5,0.2l0,0.9C21.9,32.7,23.1,32.6,23.8,32.5z"/>
		<path class="st1" d="M28,33.2c-0.5,0-1,0.2-1.4,0.4c0.1-0.1,0.1-0.4,0.2-1c0.7,0,1.6-0.1,2.3-0.3l-0.1-0.9
			c-0.6,0.2-1.5,0.3-2.1,0.3c0-0.2,0-0.5,0-0.7c0.1,0,0.2-0.1,0.2-0.2l-1.1-0.1c0,0.3,0,0.7,0,1c-0.4,0-1,0-1.3,0v0.9h1.2
			c-0.1,0.9-0.3,1.6-0.5,1.8l0.9,0.4c0.4-0.6,1.1-0.8,1.5-0.8c0.5,0,0.7,0.2,0.7,0.6c0,0.6-0.9,0.9-2.6,0.9c0.1,0.2,0.2,0.6,0.3,0.8
			c2.1,0,3.2-0.5,3.2-1.8C29.4,33.6,28.8,33.2,28,33.2z"/>
		<path class="st1" d="M34.5,33.1c0.4,0,0.8-0.1,1-0.1L35.4,32c-0.3,0.1-0.6,0.1-1,0.2v-1c0.1,0,0.1-0.1,0.2-0.1l-1.1,0
			c0,0.4,0,0.8,0,1.3c-0.3,0-0.8,0-1,0c-0.1,0-0.2,0-0.3,0l0,0.8h0.8c0.1,0,0.3,0,0.5,0c0,0.4,0,0.8,0.1,1.1c-0.1,0-0.2,0-0.3,0
			c-0.6,0-1.2,0.4-1.2,1c0,0.6,0.4,1,1.2,1c0.4,0,1.1-0.1,1.2-0.8c0.2,0.1,0.4,0.3,0.6,0.5l0.5-0.9c-0.3-0.3-0.7-0.5-1.1-0.7
			C34.5,34.1,34.5,33.6,34.5,33.1z M33.3,35.5c-0.2,0-0.4-0.1-0.4-0.3c0-0.2,0.2-0.3,0.5-0.3c0.1,0,0.2,0,0.3,0.1c0,0.1,0,0.1,0,0.1
			C33.7,35.3,33.6,35.5,33.3,35.5z"/>
		<path class="st1" d="M31.2,34.7c0-0.1,0-0.1,0-0.2c0-0.8,0-1.7,0.4-3c0.1,0,0.2-0.1,0.2-0.1l-1.1-0.2c-0.2,0.9-0.3,1.8-0.3,2.7
			c0,0.8,0.1,1.9,0.2,2.4l0.9,0c0-0.1,0-0.2,0-0.2c0-0.1,0-0.2,0.1-0.4c0.1-0.3,0.3-0.8,0.5-1.1l-0.5-0.6
			C31.5,34,31.3,34.5,31.2,34.7z"/>
	</g>
</g>
</svg>
