<?xml version="1.0" encoding="utf-8"?>
<!-- Generator: Adobe Illustrator 19.2.1, SVG Export Plug-In . SVG Version: 6.00 Build 0)  -->
<svg version="1.1" id="Layer_1" xmlns="http://www.w3.org/2000/svg" xmlns:xlink="http://www.w3.org/1999/xlink" x="0px" y="0px"
	 viewBox="0 0 48 48" style="enable-background:new 0 0 48 48;" xml:space="preserve">
<style type="text/css">
	.st0{fill:#FFFFFF;}
</style>
<g>
	<g>
		<path class="st0" d="M40,16.3H8c-4,0-7.2,3.2-7.2,7.2S4,30.8,8,30.8h32c4,0,7.2-3.2,7.2-7.2S44,16.3,40,16.3z"/>
		<ellipse class="st0" cx="34.6" cy="33.1" rx="1.2" ry="0.5"/>
		<ellipse class="st0" cx="13.4" cy="33.1" rx="1.2" ry="0.5"/>
	</g>
	<g>
		<circle cx="26.1" cy="27.6" r="0.5"/>
		<circle cx="28.1" cy="27.6" r="0.5"/>
		<circle cx="27.1" cy="21.4" r="0.5"/>
		<circle cx="29.1" cy="21.4" r="0.5"/>
		<circle cx="26.1" cy="19.4" r="0.5"/>
		<circle cx="28.1" cy="19.4" r="0.5"/>
		<circle cx="27.1" cy="25.6" r="0.5"/>
		<circle cx="29.1" cy="25.6" r="0.5"/>
		<circle cx="28.1" cy="23.5" r="0.5"/>
		<circle cx="30.2" cy="23.5" r="0.5"/>
		<circle cx="32.2" cy="27.6" r="0.5"/>
		<circle cx="34.2" cy="27.6" r="0.5"/>
		<circle cx="38.3" cy="27.6" r="0.5"/>
		<circle cx="40.4" cy="27.6" r="0.5"/>
		<circle cx="33.2" cy="21.4" r="0.5"/>
		<circle cx="35.3" cy="21.4" r="0.5"/>
		<circle cx="39.3" cy="21.4" r="0.5"/>
		<circle cx="41.4" cy="21.4" r="0.5"/>
		<circle cx="32.2" cy="19.4" r="0.5"/>
		<circle cx="34.2" cy="19.4" r="0.5"/>
		<circle cx="38.3" cy="19.4" r="0.5"/>
		<circle cx="40.4" cy="19.4" r="0.5"/>
		<circle cx="33.2" cy="25.6" r="0.5"/>
		<circle cx="35.3" cy="25.6" r="0.5"/>
		<circle cx="39.3" cy="25.6" r="0.5"/>
		<circle cx="41.4" cy="25.6" r="0.5"/>
		<circle cx="34.2" cy="23.5" r="0.5"/>
		<circle cx="36.3" cy="23.5" r="0.5"/>
		<circle cx="40.4" cy="23.5" r="0.5"/>
		<circle cx="42.4" cy="23.5" r="0.5"/>
		<circle cx="7.1" cy="27.6" r="0.5"/>
		<circle cx="9.1" cy="27.6" r="0.5"/>
		<circle cx="8.1" cy="21.4" r="0.5"/>
		<circle cx="10.2" cy="21.4" r="0.5"/>
		<circle cx="7.1" cy="19.4" r="0.5"/>
		<circle cx="9.1" cy="19.4" r="0.5"/>
		<circle cx="8.1" cy="25.6" r="0.5"/>
		<circle cx="10.2" cy="25.6" r="0.5"/>
		<circle cx="9.1" cy="23.5" r="0.5"/>
		<circle cx="11.2" cy="23.5" r="0.5"/>
		<circle cx="13.2" cy="27.6" r="0.5"/>
		<circle cx="15.3" cy="27.6" r="0.5"/>
		<circle cx="19.4" cy="27.6" r="0.5"/>
		<circle cx="21.4" cy="27.6" r="0.5"/>
		<circle cx="14.3" cy="21.4" r="0.5"/>
		<circle cx="16.3" cy="21.4" r="0.5"/>
		<circle cx="20.4" cy="21.4" r="0.5"/>
		<circle cx="22.4" cy="21.4" r="0.5"/>
		<circle cx="13.2" cy="19.4" r="0.5"/>
		<circle cx="15.3" cy="19.4" r="0.5"/>
		<circle cx="19.4" cy="19.4" r="0.5"/>
		<circle cx="21.4" cy="19.4" r="0.5"/>
		<circle cx="14.3" cy="25.6" r="0.5"/>
		<circle cx="16.3" cy="25.6" r="0.5"/>
		<circle cx="20.4" cy="25.6" r="0.5"/>
		<circle cx="22.4" cy="25.6" r="0.5"/>
		<circle cx="15.3" cy="23.5" r="0.5"/>
		<circle cx="17.3" cy="23.5" r="0.5"/>
		<circle cx="21.4" cy="23.5" r="0.5"/>
		<circle cx="23.4" cy="23.5" r="0.5"/>
		<path d="M40,15.4h-2.7c-0.1-1-1.3-1.8-2.7-1.8c-1.4,0-2.6,0.8-2.7,1.8l0,0H16.1c-0.1-1-1.3-1.8-2.7-1.8s-2.6,0.8-2.7,1.8H8
			c-4.4,0-8,3.6-8,8s3.6,8,8,8h2.6v0.7v0.1c0,0,0,0,0,0.1c0,1.1,1.2,2,2.8,2c1.4,0,2.6-0.8,2.7-1.8v-0.1v-0.1l0,0c0-0.1,0-0.1,0-0.2
			v-0.7h15.5v0.6v0.1l0,0c0,1.1,1.2,2,2.8,2c1.5,0,2.8-0.9,2.8-2l0,0v-0.1v-0.6H40c4.4,0,8-3.6,8-8S44.4,15.4,40,15.4z M13.4,33.6
			c-0.7,0-1.2-0.2-1.2-0.5s0.5-0.5,1.2-0.5s1.2,0.2,1.2,0.5S14,33.6,13.4,33.6z M34.6,33.6c-0.7,0-1.2-0.2-1.2-0.5s0.5-0.5,1.2-0.5
			c0.7,0,1.2,0.2,1.2,0.5S35.2,33.6,34.6,33.6z M40,29.9H8c-3.5,0-6.3-2.8-6.3-6.3s2.8-6.3,6.3-6.3h32c3.5,0,6.3,2.8,6.3,6.3
			C46.3,27,43.5,29.9,40,29.9z"/>
	</g>
</g>
</svg>
