<?xml version="1.0" encoding="utf-8"?>
<!-- Generator: Adobe Illustrator 19.2.1, SVG Export Plug-In . SVG Version: 6.00 Build 0)  -->
<svg version="1.1" id="Layer_1" xmlns="http://www.w3.org/2000/svg" xmlns:xlink="http://www.w3.org/1999/xlink" x="0px" y="0px"
	 viewBox="0 0 48 48" style="enable-background:new 0 0 48 48;" xml:space="preserve">
<style type="text/css">
	.st0{fill:#FFFFFF;}
</style>
<g>
	<ellipse transform="matrix(0.1098 -0.994 0.994 0.1098 -2.5417 45.2637)" class="st0" cx="24" cy="24.1" rx="23" ry="23"/>
	<g>
		<path d="M26.6,0.2c-0.8-0.1-1.7-0.1-2.6-0.1C11.7,0.1,1.5,9.3,0.1,21.5C-0.6,27.7,1.3,34,5.3,39s9.7,8.1,16.1,8.8
			c0.9,0.1,1.8,0.1,2.7,0.1c12.2,0,22.5-9.2,23.8-21.4C49.3,13.6,39.8,1.7,26.6,0.2z M45.9,26.4C44.6,37.6,35.2,46,24,46
			c-0.8,0-1.6,0-2.4-0.1c-0.6-0.1-1.2-0.2-1.8-0.3c-0.1-0.3-0.4-0.5-0.8-0.4c-0.1,0-0.2,0.1-0.3,0.2c-1.2-0.3-2.3-0.7-3.4-1.1
			c0-0.1,0-0.2,0-0.3c-0.1-0.4-0.4-0.6-0.8-0.5c-0.1,0-0.3,0.1-0.3,0.2c-1.9-1-3.7-2.2-5.3-3.7c-0.1-0.3-0.3-0.4-0.5-0.5
			c-0.5-0.5-1-1-1.4-1.6c0-0.1,0-0.2,0-0.2c-0.1-0.3-0.3-0.5-0.6-0.5c-1.4-1.9-2.5-4-3.3-6.2c0.1,0,0.2,0,0.2,0
			c0.4,0,0.7-0.4,0.6-0.7c-0.1-0.4-0.4-0.6-0.8-0.5c-0.1,0-0.2,0.1-0.3,0.2c-0.4-1.3-0.6-2.7-0.7-4h0.1c0.4-0.1,0.6-0.4,0.5-0.8
			c-0.1-0.3-0.4-0.5-0.7-0.5c0-0.8,0-1.5,0.1-2.3c0,0.1,0,0.1,0,0.2c0.1,0.4,0.4,0.6,0.8,0.5c0.4-0.1,0.6-0.4,0.5-0.8
			S3,21.8,2.6,21.9c-0.3,0.1-0.4,0.3-0.5,0.5c0-0.2,0-0.4,0.1-0.6c0.3-2.7,1.1-5.2,2.2-7.5c0.2,0.2,0.4,0.3,0.6,0.2
			c0.4-0.1,0.6-0.4,0.5-0.8c-0.1-0.3-0.3-0.5-0.5-0.5c1-2,2.4-3.7,4-5.2c0.2-0.1,0.4-0.2,0.5-0.4c0.5-0.4,0.9-0.8,1.4-1.2
			c-0.1,0.1-0.1,0.3-0.1,0.5c0.1,0.4,0.4,0.6,0.8,0.5C12,7.3,12.2,7,12.1,6.6c-0.1-0.3-0.4-0.5-0.8-0.5c3.6-2.5,8-4,12.7-4
			c0.8,0,1.6,0,2.4,0.1C38.5,3.6,47.2,14.5,45.9,26.4z"/>
		<path d="M11.5,12.3c-0.1,1.1,0.7,2,1.7,2.1c3.6,0.4,7.1,1.1,10.3,2.1l8.5,3.3c2.8,1.4,5.3,3.1,7.5,4.9c0.4,0.3,0.8,0.5,1.3,0.5
			c0.5,0,1.1-0.2,1.5-0.7c0.7-0.8,0.6-2-0.2-2.7c-6.9-5.9-17.3-10-28.4-11.2C12.5,10.5,11.6,11.3,11.5,12.3z"/>
		<path d="M14.6,18.5c-0.8-0.1-1.6,0.3-1.9,1c-0.1,0.1-0.2,0.3-0.2,0.5c0,0.1,0,0.1,0,0.2c-0.1,1.1,0.7,2,1.7,2.1c0.1,0,0.1,0,0.2,0
			l0,0c0.1,0.4,0.4,0.6,0.8,0.5c0.2,0,0.4-0.2,0.4-0.4c7.1,1,13.6,3.7,17.9,7.4c0.4,0.3,0.8,0.5,1.3,0.5c0.5,0,1.1-0.2,1.5-0.7
			c0.7-0.8,0.6-2-0.2-2.7C30.8,22.5,23,19.4,14.6,18.5z"/>
		<path d="M14.8,26c-1.1-0.1-2,0.7-2.1,1.7c-0.1,1.1,0.7,2,1.7,2.1c0.2,0,0.4,0.1,0.6,0.1c-0.1,0.1-0.1,0.3-0.1,0.5
			c0.1,0.4,0.4,0.6,0.8,0.5c0.4-0.1,0.6-0.4,0.5-0.8c4.8,0.8,9.2,2.6,12.1,5.2c0.4,0.3,0.8,0.5,1.3,0.5s1.1-0.2,1.5-0.7
			c0.7-0.8,0.6-2-0.2-2.7C27,29,21.1,26.7,14.8,26z"/>
		<ellipse transform="matrix(0.9737 -0.2278 0.2278 0.9737 -9.1891 4.0168)" cx="12.8" cy="41.8" rx="0.7" ry="0.7"/>
		<ellipse transform="matrix(0.9737 -0.2278 0.2278 0.9737 -8.9845 4.5929)" cx="15.4" cy="41.2" rx="0.7" ry="0.7"/>
		<ellipse transform="matrix(0.9739 -0.2269 0.2269 0.9739 -8.7471 5.1443)" cx="18" cy="40.6" rx="0.7" ry="0.7"/>
		<ellipse transform="matrix(0.9738 -0.2275 0.2275 0.9738 -8.2533 3.0323)" cx="9" cy="37.3" rx="0.7" ry="0.7"/>
		<ellipse transform="matrix(0.9735 -0.2287 0.2287 0.9735 -8.0898 3.6319)" cx="11.6" cy="36.7" rx="0.7" ry="0.7"/>
		<ellipse transform="matrix(0.9739 -0.2269 0.2269 0.9739 -7.8248 4.1698)" cx="14.2" cy="36.1" rx="0.7" ry="0.7"/>
		<ellipse transform="matrix(0.9738 -0.2275 0.2275 0.9738 -7.6405 4.7586)" cx="16.8" cy="35.5" rx="0.7" ry="0.7"/>
		<ellipse transform="matrix(0.9738 -0.2272 0.2272 0.9738 -8.7148 3.5192)" cx="10.9" cy="39.6" rx="0.7" ry="0.7"/>
		<ellipse transform="matrix(0.9736 -0.2284 0.2284 0.9736 -8.5543 4.1206)" cx="13.5" cy="39" rx="0.7" ry="0.7"/>
		<ellipse transform="matrix(0.9734 -0.2291 0.2291 0.9734 -8.3513 4.7084)" cx="16.1" cy="38.3" rx="0.7" ry="0.7"/>
		<ellipse transform="matrix(0.9737 -0.2278 0.2278 0.9737 -8.1017 5.2519)" cx="18.7" cy="37.7" rx="0.7" ry="0.7"/>
		<ellipse transform="matrix(0.9734 -0.2291 0.2291 0.9734 -9.5089 5.1224)" cx="17.3" cy="43.5" rx="0.7" ry="0.7"/>
		<ellipse transform="matrix(0.9738 -0.2275 0.2275 0.9738 -9.242 5.6532)" cx="19.9" cy="42.9" rx="0.7" ry="0.7"/>
		<ellipse transform="matrix(0.9737 -0.2278 0.2278 0.9737 -7.3247 2.0294)" cx="5.1" cy="32.7" rx="0.7" ry="0.7"/>
		<ellipse transform="matrix(0.9735 -0.2287 0.2287 0.9735 -7.1473 2.6195)" cx="7.7" cy="32.1" rx="0.7" ry="0.7"/>
		<ellipse transform="matrix(0.9736 -0.2284 0.2284 0.9736 -6.9251 3.214)" cx="10.4" cy="31.5" rx="0.7" ry="0.7"/>
		<ellipse transform="matrix(0.9736 -0.2283 0.2283 0.9736 -6.7173 3.7892)" cx="13" cy="30.9" rx="0.7" ry="0.7"/>
		<ellipse transform="matrix(0.9737 -0.2277 0.2277 0.9737 -7.7868 2.5431)" cx="7.1" cy="35" rx="0.7" ry="0.7"/>
		<ellipse transform="matrix(0.9736 -0.2284 0.2284 0.9736 -7.605 3.1313)" cx="9.7" cy="34.4" rx="0.7" ry="0.7"/>
		<ellipse transform="matrix(0.9737 -0.2277 0.2277 0.9737 -7.3779 3.6948)" cx="12.3" cy="33.8" rx="0.7" ry="0.7"/>
		<ellipse transform="matrix(0.9738 -0.2275 0.2275 0.9738 -7.1679 4.2657)" cx="14.9" cy="33.2" rx="0.7" ry="0.7"/>
		<ellipse transform="matrix(0.9737 -0.2278 0.2278 0.9737 -6.9722 4.8487)" cx="17.5" cy="32.6" rx="0.7" ry="0.7"/>
		<ellipse transform="matrix(0.9739 -0.2272 0.2272 0.9739 -6.1571 1.6128)" cx="3.9" cy="27.6" rx="0.7" ry="0.7"/>
		<ellipse transform="matrix(0.9737 -0.2277 0.2277 0.9737 -5.966 2.1938)" cx="6.5" cy="27" rx="0.7" ry="0.7"/>
		<ellipse transform="matrix(0.9737 -0.2278 0.2278 0.9737 -5.764 2.7711)" cx="9.1" cy="26.4" rx="0.7" ry="0.7"/>
		<ellipse transform="matrix(0.9738 -0.2275 0.2275 0.9738 -5.5525 3.3417)" cx="11.7" cy="25.8" rx="0.7" ry="0.7"/>
		<ellipse transform="matrix(0.9737 -0.2278 0.2278 0.9737 -5.3474 3.9446)" cx="14.4" cy="25.1" rx="0.7" ry="0.7"/>
		<ellipse transform="matrix(0.9735 -0.2287 0.2287 0.9735 -6.6722 2.1239)" cx="5.8" cy="29.8" rx="0.7" ry="0.7"/>
		<ellipse transform="matrix(0.9738 -0.2273 0.2273 0.9738 -6.4282 2.681)" cx="8.4" cy="29.3" rx="0.7" ry="0.7"/>
		<ellipse transform="matrix(0.9738 -0.2275 0.2275 0.9738 -6.2297 3.259)" cx="11" cy="28.7" rx="0.7" ry="0.7"/>
		<ellipse transform="matrix(0.9737 -0.228 0.228 0.9737 -5.4999 1.7038)" cx="4.6" cy="24.7" rx="0.7" ry="0.7"/>
		<ellipse transform="matrix(0.9739 -0.2272 0.2272 0.9739 -5.2771 2.2701)" cx="7.2" cy="24.1" rx="0.7" ry="0.7"/>
		<ellipse transform="matrix(0.9739 -0.2272 0.2272 0.9739 -5.0733 2.8446)" cx="9.8" cy="23.5" rx="0.7" ry="0.7"/>
		<ellipse transform="matrix(0.9739 -0.2269 0.2269 0.9739 -4.8635 3.4139)" cx="12.4" cy="22.9" rx="0.7" ry="0.7"/>
		<ellipse transform="matrix(0.9738 -0.2275 0.2275 0.9738 -4.8111 1.7811)" cx="5.3" cy="21.8" rx="0.7" ry="0.7"/>
		<ellipse transform="matrix(0.9739 -0.2269 0.2269 0.9739 -4.5952 2.3488)" cx="7.9" cy="21.2" rx="0.7" ry="0.7"/>
		<ellipse transform="matrix(0.9735 -0.2287 0.2287 0.9735 -4.4244 2.9502)" cx="10.5" cy="20.6" rx="0.7" ry="0.7"/>
		<ellipse transform="matrix(0.9739 -0.2272 0.2272 0.9739 -4.3541 1.2939)" cx="3.4" cy="19.6" rx="0.7" ry="0.7"/>
		<ellipse transform="matrix(0.9736 -0.2283 0.2283 0.9736 -4.1696 1.8799)" cx="6" cy="19" rx="0.7" ry="0.7"/>
		<ellipse transform="matrix(0.9738 -0.2275 0.2275 0.9738 -3.9299 2.4391)" cx="8.6" cy="18.3" rx="0.7" ry="0.7"/>
		<ellipse transform="matrix(0.9738 -0.2275 0.2275 0.9738 -3.7257 3.0145)" cx="11.2" cy="17.7" rx="0.7" ry="0.7"/>
		<ellipse transform="matrix(0.9735 -0.2286 0.2286 0.9735 -3.5367 3.6095)" cx="13.8" cy="17.1" rx="0.7" ry="0.7"/>
		<ellipse transform="matrix(0.9738 -0.2272 0.2272 0.9738 -2.1219 2.1164)" cx="8.1" cy="10.3" rx="0.7" ry="0.7"/>
		<ellipse transform="matrix(0.9736 -0.2284 0.2284 0.9736 -1.9268 2.7066)" cx="10.7" cy="9.7" rx="0.7" ry="0.7"/>
		<ellipse transform="matrix(0.9736 -0.2284 0.2284 0.9736 -3.697 1.386)" cx="4.1" cy="16.7" rx="0.7" ry="0.7"/>
		<ellipse transform="matrix(0.9737 -0.228 0.228 0.9737 -3.4857 1.9595)" cx="6.7" cy="16.1" rx="0.7" ry="0.7"/>
		<ellipse transform="matrix(0.9734 -0.229 0.229 0.9734 -3.294 2.5491)" cx="9.3" cy="15.5" rx="0.7" ry="0.7"/>
		<ellipse transform="matrix(0.9734 -0.229 0.229 0.9734 -3.0665 3.1203)" cx="11.9" cy="14.8" rx="0.7" ry="0.7"/>
		<ellipse transform="matrix(0.9737 -0.2278 0.2278 0.9737 -2.8049 2.04)" cx="7.4" cy="13.2" rx="0.7" ry="0.7"/>
		<ellipse transform="matrix(0.9737 -0.2278 0.2278 0.9737 -2.6004 2.6161)" cx="10" cy="12.6" rx="0.7" ry="0.7"/>
	</g>
</g>
</svg>
