<?xml version="1.0" encoding="utf-8"?>
<!-- Generator: Adobe Illustrator 19.2.1, SVG Export Plug-In . SVG Version: 6.00 Build 0)  -->
<svg version="1.1" id="Layer_1" xmlns="http://www.w3.org/2000/svg" xmlns:xlink="http://www.w3.org/1999/xlink" x="0px" y="0px"
	 viewBox="0 0 48 48" style="enable-background:new 0 0 48 48;" xml:space="preserve">
<style type="text/css">
	.st0{fill:#FFFFFF;}
</style>
<g>
	<path class="st0" d="M45.8,31.5l0.6-5.7c0,0-7.4,2.5-12.4,3.2c-0.1,0-0.1,0-0.2,0c0.1-0.6,0.2-1.2,0.1-1.8c-0.1-1.4-0.4-7.4-0.5-9
		c0-0.2,0-0.4,0-0.4h-0.1c-0.6-5.7-8-9.8-16.8-9.3C7.6,9,0.5,14.2,0.9,20c0,0.1,0,0.3,0,0.4C1,21.7,1.3,27.2,1.4,29
		c0.3,5.9,7.2,9.8,16.4,10.4c3.9,0.3,10.3,0,16.8-0.8c5-0.6,12.4-2.8,12.4-2.8L45.8,31.5z M17.2,18.7c4.4,0,8,1.3,8,3
		c0,1.6-3.6,3-8,3s-8-1.3-8-3C9.1,20,12.7,18.7,17.2,18.7z"/>
	<g>
		<circle cx="5.1" cy="29.5" r="0.6"/>
		<circle cx="7.4" cy="34.1" r="0.6"/>
		<circle cx="7.4" cy="29.5" r="0.6"/>
		<circle cx="4.2" cy="31.8" r="0.6"/>
		<circle cx="6.3" cy="31.8" r="0.6"/>
		<circle cx="3.3" cy="27.5" r="0.6"/>
		<circle cx="9.7" cy="34.1" r="0.6"/>
		<circle cx="12" cy="34.1" r="0.6"/>
		<circle cx="14.3" cy="34.1" r="0.6"/>
		<circle cx="16.6" cy="34.1" r="0.6"/>
		<circle cx="18.9" cy="34.1" r="0.6"/>
		<circle cx="21.2" cy="34.1" r="0.6"/>
		<circle cx="23.4" cy="34.1" r="0.6"/>
		<circle cx="13.1" cy="36.4" r="0.6"/>
		<circle cx="15.4" cy="36.4" r="0.6"/>
		<circle cx="17.7" cy="36.4" r="0.6"/>
		<circle cx="20" cy="36.4" r="0.6"/>
		<circle cx="22.3" cy="36.4" r="0.6"/>
		<circle cx="24.6" cy="36.4" r="0.6"/>
		<circle cx="25.8" cy="34.1" r="0.6"/>
		<circle cx="8.6" cy="31.8" r="0.6"/>
		<circle cx="10.9" cy="31.8" r="0.6"/>
		<circle cx="13.1" cy="31.8" r="0.6"/>
		<circle cx="15.4" cy="31.8" r="0.6"/>
		<circle cx="17.7" cy="31.8" r="0.6"/>
		<circle cx="20" cy="31.8" r="0.6"/>
		<circle cx="22.3" cy="31.8" r="0.6"/>
		<circle cx="24.6" cy="31.8" r="0.6"/>
		<circle cx="28.1" cy="34.1" r="0.6"/>
		<circle cx="30.4" cy="34.1" r="0.6"/>
		<circle cx="32.7" cy="34.1" r="0.6"/>
		<circle cx="35" cy="34.1" r="0.6"/>
		<circle cx="37.3" cy="34.1" r="0.6"/>
		<circle cx="39.6" cy="34.1" r="0.6"/>
		<circle cx="41.9" cy="34.1" r="0.6"/>
		<circle cx="27" cy="36.4" r="0.6"/>
		<circle cx="29.3" cy="36.4" r="0.6"/>
		<circle cx="31.6" cy="36.4" r="0.6"/>
		<circle cx="44.1" cy="34.1" r="0.6"/>
		<circle cx="44.1" cy="29.5" r="0.6"/>
		<circle cx="27" cy="31.8" r="0.6"/>
		<circle cx="29.3" cy="31.8" r="0.6"/>
		<circle cx="31.6" cy="31.8" r="0.6"/>
		<circle cx="33.8" cy="31.8" r="0.6"/>
		<circle cx="36.1" cy="31.8" r="0.6"/>
		<circle cx="38.4" cy="31.8" r="0.6"/>
		<circle cx="40.7" cy="31.8" r="0.6"/>
		<circle cx="43" cy="31.8" r="0.6"/>
		<path d="M6.4,20.4c0,0.1,0.1,0.3,0.1,0.4s0.1,0.2,0.1,0.3c0.1,0.1,0.1,0.3,0.2,0.4c0.1,0.1,0.1,0.2,0.2,0.3
			c0.1,0.1,0.2,0.2,0.3,0.4c0.1,0.1,0.1,0.1,0.2,0.2l0,0c1.8,2,5.2,3.3,9.2,3.3l0,0c0.3,0,0.7,0,1,0c4.9-0.3,8.8-2.3,10.2-5v-0.1
			c0.1-0.1,0.1-0.3,0.2-0.4c0-0.1,0-0.1,0.1-0.2c0.1-0.2,0.1-0.4,0.2-0.5c0-0.1,0.1-0.3,0.1-0.4s0-0.1,0-0.2c0-0.2,0-0.4,0-0.6
			c-0.2-3.8-5.3-6.6-11.5-6.2c-2.9,0.2-5.6,1-7.6,2.3c-2.2,1.4-3.3,3.3-3.2,5.2c0,0.2,0.1,0.5,0.1,0.7C6.4,20.2,6.4,20.3,6.4,20.4z
			 M16.6,20.6c2.8-0.2,5.5,0.2,7.9,1c-1.6,1.1-4.1,2-6.8,2.1c-0.3,0-0.6,0-0.9,0l0,0c-2.7,0-5.2-0.7-6.7-1.7
			C12,21.2,14.3,20.8,16.6,20.6z"/>
		<path d="M48,35.5l-1.2-4.1l0.6-5.5c0-0.3-0.1-0.6-0.4-0.8c-0.3-0.2-0.6-0.3-0.9-0.2c-0.1,0-6.3,2.3-11.1,2.9c0.3,0-0.4,0.1,0,0
			c0-0.2,0-0.5,0-0.7c-0.1-1.4-0.4-7.1-0.5-8.8c0,0,0-0.3-0.1-0.4c0,0.1,0,0.1,0,0.2C34.1,11.8,26.3,7,16.5,7.6
			C12,7.9,7.8,9.3,4.7,11.5c-3.2,2.4-4.9,5.4-4.7,8.6c0,0.2,0,0.5,0.1,0.7c0.1,1.7,0.3,6.6,0.4,8.3c0.3,6.2,7.1,10.6,17.2,11.3
			c1,0.1,2.2,0.1,3.5,0.1l0,0c3.9,0,8.7-0.3,13.5-0.9c5-0.6,12.3-2.8,12.6-2.9C47.8,36.5,48.1,36,48,35.5z M33.1,27.2
			c0,0.3,0,0.6,0,0.9c-2.3,0.3-4.6,0.5-6.9,0.6c1.3-0.6,2.5-1.2,3.5-2c1.3-1,2.4-2,3.1-3.2l0,0C33,25.2,33,26.6,33.1,27.2z
			 M1.9,20.6c0,0.1,0,0.2,0.1,0.3c-0.1-0.2-0.1-0.4-0.1-0.6v-0.2c0-0.1,0-0.1,0-0.2c-0.1-2.5,1.3-4.9,4-6.9
			c2.8-2.1,6.7-3.3,10.8-3.6c0.5,0,0.9,0,1.4,0c7.9,0,14.2,3.9,14.5,8.8c0.1,2.5-1.3,5-4,7c-2.8,2.1-6.6,3.3-10.8,3.6
			c-6.4-0.5-10.9-1.8-13.5-4c-1.2-1.1-2-2.4-2.3-3.8c0,0.2,0.1,0.5,0.2,0.7C2,21.3,1.9,20.9,1.9,20.6z M34.5,37.7
			c-4.7,0.6-9.4,0.9-13.3,0.9c-1.2,0-2.4,0-3.3-0.1C8.7,37.8,2.6,34.1,2.3,29c0-0.7-0.1-2.1-0.2-3.6c2.7,3,7.9,4.7,15.5,5.3
			c4.3,0.3,10.5,0,16.4-0.8c3.7-0.5,8.7-2,11.1-2.7l-0.5,4.2c0,0.1,0,0.3,0,0.4l1,3.4C43.7,35.7,38.4,37.2,34.5,37.7z"/>
	</g>
</g>
</svg>
