<?xml version="1.0" encoding="utf-8"?>
<!-- Generator: Adobe Illustrator 19.2.1, SVG Export Plug-In . SVG Version: 6.00 Build 0)  -->
<svg version="1.1" id="Layer_1" xmlns="http://www.w3.org/2000/svg" xmlns:xlink="http://www.w3.org/1999/xlink" x="0px" y="0px"
	 viewBox="0 0 48 48" style="enable-background:new 0 0 48 48;" xml:space="preserve">
<style type="text/css">
	.st0{fill:#FFFFFF;}
	.st1{fill:#1A1A18;}
</style>
<g>
	<path class="st0" d="M47.2,30.5c0,0-8.7-7.8-8.7-17.4c0,5.2-3.3,7.7-7.3,7.7S24,18.3,24,13.1c0,5.2-3.3,7.7-7.3,7.7
		c-4,0-7.3-2.4-7.3-7.7c0,9.6-8.7,17.4-8.7,17.4h1.8l-1.7,6.1h46.3l-1.7-6.1H47.2z"/>
	<g>
		<path class="st1" d="M48,30.8c0.1-0.3,0-0.6-0.2-0.8c-0.1-0.1-8.4-7.7-8.4-16.9c0-0.2-0.1-0.3-0.2-0.4l2.2-0.6
			c0.1,0,0.2-0.2,0.2-0.3c0-0.1-0.1-0.3-0.2-0.3l-2.7-0.8c-0.1,0-0.2,0-0.3,0c-0.1,0.1-0.1,0.1-0.1,0.2v1.4
			c-0.3,0.1-0.5,0.4-0.5,0.7c0,4.3-2.4,6.9-6.5,6.9c-4.1,0-6.5-2.6-6.5-6.9c0-0.2-0.1-0.3-0.1-0.4l2.2-0.6c0.1,0,0.2-0.2,0.2-0.3
			c0-0.1-0.1-0.3-0.2-0.3l-2.7-0.8c-0.1,0-0.2,0-0.3,0c-0.1,0.1-0.1,0.1-0.1,0.2v1.4c-0.3,0.1-0.5,0.4-0.5,0.7
			c0,4.3-2.4,6.9-6.5,6.9c-4.1,0-6.5-2.6-6.5-6.9c0-0.2-0.1-0.3-0.1-0.4l2.2-0.6c0.1,0,0.2-0.2,0.2-0.3c0-0.1-0.1-0.3-0.2-0.3
			l-2.7-0.8c-0.1,0-0.2,0-0.3,0c-0.1,0.1-0.1,0.1-0.1,0.2v1.4c-0.3,0.1-0.4,0.4-0.4,0.7c0,9.2-8.3,16.8-8.4,16.9
			C0,30.2-0.1,30.5,0,30.8c0.1,0.3,0.4,0.5,0.7,0.5h0.8l-1.4,5.1c-0.1,0.2,0,0.5,0.1,0.7c0.1,0.2,0.4,0.3,0.6,0.3h46.3
			c0.2,0,0.5-0.1,0.6-0.3c0.1-0.2,0.2-0.4,0.1-0.7l-1.4-5.1h0.8C47.6,31.3,47.8,31.1,48,30.8z M44.9,29.1c0.2,0.2,0.4,0.5,0.6,0.6
			h-0.6V29.1z M42,25.4c0.6,0.9,1.2,1.7,1.7,2.4v2H42V25.4z M39.1,19.7c0.5,1.4,1.1,2.7,1.8,3.9v6.2h-1.8V19.7z M36.2,20.1
			c0.7-0.5,1.3-1.1,1.7-1.8v11.5h-1.7V20.1z M33.3,21.3c0.6-0.1,1.3-0.3,1.8-0.6v9h-1.8V21.3z M30.4,21.4c0.1,0,0.2,0,0.4,0
			c0,0,0,0,0,0c0,0.2,0.2,0.5,0.5,0.5c0.2,0,0.5-0.2,0.5-0.5c0,0,0,0,0,0c0.2,0,0.3,0,0.5,0v8.3h-1.7V21.4z M27.5,20.7
			c0.6,0.3,1.2,0.5,1.8,0.6v8.5h-1.8V20.7z M24.6,18.2c0.5,0.7,1.1,1.3,1.7,1.8v9.7h-1.7V18.2z M21.7,20c0.7-0.5,1.3-1.2,1.8-1.9
			v11.6h-1.8V20z M18.8,21.3c0.2,0,0.4-0.1,0.6-0.2c-0.2,0.1-0.3,0.2-0.3,0.4c0,0.2,0.2,0.5,0.5,0.5c0.2,0,0.5-0.2,0.5-0.5
			c0-0.2-0.2-0.5-0.5-0.5c0,0,0,0-0.1,0c0.4-0.1,0.7-0.2,1-0.4v9.1h-1.7V21.3z M15.9,21.5c0.3,0,0.6,0,0.9,0c0.3,0,0.6,0,1,0v8.3
			h-1.8V21.5z M13,20.7c0.3,0.1,0.5,0.2,0.8,0.3c-0.2,0-0.4,0.2-0.4,0.4c0,0.2,0.2,0.5,0.5,0.5c0.2,0,0.5-0.2,0.5-0.5
			c0-0.2-0.1-0.3-0.2-0.4c0.2,0.1,0.4,0.1,0.7,0.2v8.5H13V20.7z M10.1,18.3c0.5,0.7,1.1,1.4,1.8,1.9v9.6h-1.8V18.3z M7.2,23.5
			c0.3-0.5,0.5-1,0.8-1.5c0,0,0.1,0,0.1,0c0.2,0,0.5-0.2,0.5-0.5c0-0.1-0.1-0.3-0.2-0.4c0.2-0.5,0.4-1,0.6-1.5v10H7.2V23.5z
			 M4.3,27.8c0.6-0.7,1.2-1.6,1.8-2.5v4.4H4.3V27.8z M3.1,29.1v0.6H2.6C2.7,29.6,2.9,29.3,3.1,29.1z M46.2,35.9H1.8l1.3-4.6h41.7
			L46.2,35.9z"/>
		<circle class="st1" cx="31.2" cy="28.7" r="0.5"/>
		<circle class="st1" cx="31.2" cy="25.1" r="0.5"/>
		<circle class="st1" cx="25.5" cy="28.7" r="0.5"/>
		<circle class="st1" cx="25.5" cy="25.1" r="0.5"/>
		<circle class="st1" cx="25.5" cy="21.5" r="0.5"/>
		<circle class="st1" cx="19.6" cy="28.7" r="0.5"/>
		<circle class="st1" cx="19.6" cy="25.1" r="0.5"/>
		<circle class="st1" cx="13.8" cy="28.7" r="0.5"/>
		<circle class="st1" cx="13.8" cy="25.1" r="0.5"/>
		<circle class="st1" cx="8.1" cy="28.7" r="0.5"/>
		<circle class="st1" cx="8.1" cy="25.1" r="0.5"/>
		<circle class="st1" cx="37" cy="28.7" r="0.5"/>
		<circle class="st1" cx="37" cy="25.1" r="0.5"/>
		<circle class="st1" cx="37" cy="21.5" r="0.5"/>
		<circle class="st1" cx="42.8" cy="28.7" r="0.5"/>
	</g>
</g>
</svg>
