<?xml version="1.0" encoding="utf-8"?>
<!-- Generator: Adobe Illustrator 19.2.1, SVG Export Plug-In . SVG Version: 6.00 Build 0)  -->
<svg version="1.1" id="Layer_1" xmlns="http://www.w3.org/2000/svg" xmlns:xlink="http://www.w3.org/1999/xlink" x="0px" y="0px"
	 viewBox="0 0 48 48" style="enable-background:new 0 0 48 48;" xml:space="preserve">
<style type="text/css">
	.st0{fill:#FFFFFF;}
	.st1{fill:#020204;}
</style>
<g>
	<path class="st0" d="M47.2,33c0,0-21-17-23.2-25.9C21.7,16,0.8,33,0.8,33h2.6L1,44.3H47L44.7,33H47.2z"/>
	<g>
		<path class="st1" d="M47.7,32.4C47.5,32.2,28.8,17,25.2,8.2l5.9-1.7c0.3-0.1,0.6-0.4,0.6-0.8c0-0.4-0.2-0.7-0.6-0.8l-7.2-2.1
			c-0.2-0.1-0.5,0-0.7,0.1c-0.2,0.2-0.3,0.4-0.3,0.6v4.1c0,0,0,0,0,0.1C19.6,16.6,0.5,32.2,0.3,32.4C0,32.6-0.1,32.9,0,33.3
			s0.4,0.5,0.7,0.5h1.7L0.2,44.2c-0.1,0.2,0,0.5,0.2,0.7C0.5,45,0.7,45.1,1,45.1H47c0.2,0,0.5-0.1,0.6-0.3c0.2-0.2,0.2-0.4,0.2-0.7
			l-2.3-10.4h1.7c0.3,0,0.6-0.2,0.7-0.5C48.1,32.9,48,32.6,47.7,32.4z M24,14.3l2,17.9h-4.2L24,14.3z M20.7,32.2H16L22.9,14
			L20.7,32.2z M25,13.8l7,18.4H27L25,13.8z M26.8,15.6c3.1,5.2,8,12.6,12.5,16.6h-6.2L26.8,15.6z M14.9,32.2h-6
			c4.4-4,9.2-11.3,12.3-16.5L14.9,32.2z M45,32.2h-4.1c-4.4-3.6-9.6-11.4-13-16.9C33.2,22,41.4,29.2,45,32.2z M20.3,15
			c-3.3,5.5-8.6,13.5-13.1,17.2H3C6.6,29.2,15,21.8,20.3,15z M7.3,43.5C7.3,43.5,7.4,43.5,7.3,43.5c0.2-0.4,0-0.7-0.3-0.9
			c-0.3-0.1-0.7,0-0.8,0.3c-0.1,0.2,0,0.4,0.1,0.5H3.5c-0.1-0.1-0.1-0.1-0.2-0.2c-0.2-0.1-0.5,0-0.7,0.2H2L2.5,41
			c0.2,0,0.3-0.2,0.4-0.3C3,40.4,3,40.2,2.8,40l0.8-3.7c0.1,0.1,0.1,0.1,0.2,0.2c0.3,0.1,0.6,0,0.8-0.3c0.1-0.3,0-0.6-0.3-0.8
			c-0.2-0.1-0.3-0.1-0.5,0l0.3-1.5h1.4c0,0,0,0-0.1,0.1c-0.1,0.3,0,0.6,0.3,0.8c0.3,0.1,0.7,0,0.8-0.3c0.1-0.2,0-0.4-0.1-0.5h3.3
			c0,0,0.1,0.1,0.1,0.1c0.2,0.1,0.4,0,0.6-0.1h33.4l2.1,9.6H7.3z"/>
		<ellipse transform="matrix(0.3875 -0.9219 0.9219 0.3875 -35.8548 29.8718)" class="st1" cx="4.6" cy="41.9" rx="0.6" ry="0.6"/>
		<ellipse transform="matrix(0.3868 -0.9222 0.9222 0.3868 -33.0412 30.6998)" class="st1" cx="6.6" cy="40.2" rx="0.6" ry="0.6"/>
		<ellipse transform="matrix(0.3883 -0.9215 0.9215 0.3883 -32.8385 33.5291)" class="st1" cx="8.8" cy="41.5" rx="0.6" ry="0.6"/>
		<ellipse transform="matrix(0.3883 -0.9215 0.9215 0.3883 -27.481 32.1384)" class="st1" cx="10.5" cy="36.8" rx="0.6" ry="0.6"/>
		<ellipse transform="matrix(0.3876 -0.9218 0.9218 0.3876 -27.2042 35.1567)" class="st1" cx="12.9" cy="38.1" rx="0.6" ry="0.6"/>
		<ellipse transform="matrix(0.3878 -0.9217 0.9217 0.3878 -30.3034 31.3653)" class="st1" cx="8.5" cy="38.5" rx="0.6" ry="0.6"/>
		<ellipse transform="matrix(0.3878 -0.9218 0.9218 0.3878 -30.0236 34.3519)" class="st1" cx="10.8" cy="39.8" rx="0.6" ry="0.6"/>
		<ellipse transform="matrix(0.3882 -0.9216 0.9216 0.3882 -24.6633 32.9418)" class="st1" cx="12.5" cy="35" rx="0.6" ry="0.6"/>
		<ellipse transform="matrix(0.3863 -0.9224 0.9224 0.3863 -24.384 36.0084)" class="st1" cx="14.9" cy="36.3" rx="0.6" ry="0.6"/>
		<ellipse transform="matrix(0.3868 -0.9222 0.9222 0.3868 -21.6472 36.482)" class="st1" cx="16.6" cy="34.5" rx="0.6" ry="0.6"/>
		<ellipse transform="matrix(0.3878 -0.9218 0.9218 0.3878 -30.19 28.5618)" class="st1" cx="6.4" cy="37" rx="0.6" ry="0.6"/>
		<ellipse transform="matrix(0.387 -0.9221 0.9221 0.387 -33.0193 27.798)" class="st1" cx="4.4" cy="38.7" rx="0.6" ry="0.6"/>
		<ellipse transform="matrix(0.388 -0.9217 0.9217 0.388 -27.3692 29.3511)" class="st1" cx="8.4" cy="35.3" rx="0.6" ry="0.6"/>
	</g>
</g>
</svg>
