<?xml version="1.0" encoding="utf-8"?>
<!-- Generator: Adobe Illustrator 19.2.1, SVG Export Plug-In . SVG Version: 6.00 Build 0)  -->
<svg version="1.1" id="Layer_1" xmlns="http://www.w3.org/2000/svg" xmlns:xlink="http://www.w3.org/1999/xlink" x="0px" y="0px"
	 viewBox="0 0 48 48" style="enable-background:new 0 0 48 48;" xml:space="preserve">
<style type="text/css">
	.st0{fill:#FFFFFF;}
	.st1{fill:#020204;}
</style>
<g>
	<path class="st0" d="M15.9,13.3c0,0-10.9,12.8-9.3,22.4c1.6,9.7,12.3,11.9,18.2,11.2c5.9-0.7,12.5-1.4,16-10.1
		C44.2,28.1,36.8,7.3,25,1c0,0,5.7,11.6-6.2,19.1C18.8,20.1,16.5,18.2,15.9,13.3z"/>
	<g>
		<path class="st1" d="M25.4,0.1c-0.4-0.2-0.8-0.1-1.1,0.2C24,0.6,23.9,1,24.1,1.4c0,0,1.3,2.7,1.3,6.3c-0.1,4.5-2.2,8.3-6.4,11.1
			c-0.6-0.8-1.7-2.6-2.1-5.7c0-0.4-0.3-0.7-0.7-0.8c-0.4-0.1-0.8,0-1,0.3c-0.5,0.5-11.2,13.2-9.5,23.2C7,44.2,15.1,48,22.6,48
			c0.8,0,1.6,0,2.3-0.1l0.3,0c6-0.7,12.8-1.6,16.4-10.7C45.4,27.7,37.5,6.6,25.4,0.1z M34,43.6c-0.1-0.1-0.2-0.1-0.3-0.1
			c-0.4,0-0.6,0.3-0.7,0.6c-0.6,0.3-1.2,0.5-1.8,0.7c0.2-0.1,0.4-0.3,0.4-0.6c0-0.4-0.3-0.7-0.7-0.7c-0.4,0-0.7,0.3-0.7,0.7
			c0,0.4,0.3,0.7,0.7,0.7c0,0,0,0,0.1,0c-1.9,0.6-4,0.8-6,1.1l-0.3,0c-0.6,0.1-1.3,0.1-2,0.1c-3.2,0-5.8-0.6-7.9-1.6
			c0.1-0.1,0.1-0.2,0.1-0.3c0-0.4-0.3-0.7-0.7-0.7c-0.3,0-0.5,0.2-0.6,0.4c-1.1-0.7-2.1-1.5-2.9-2.3c0,0,0-0.1,0-0.1
			c0-0.4-0.3-0.7-0.7-0.7c0,0,0,0,0,0c-0.4-0.5-0.7-1-1-1.5C9,39,9.1,38.8,9.1,38.6c0-0.4-0.3-0.7-0.7-0.7c-0.1,0-0.2,0-0.2,0
			c-0.2-0.6-0.4-1.2-0.6-1.8c0.1-0.1,0.1-0.2,0.1-0.3c0-0.2-0.1-0.4-0.2-0.5c-1-7.1,5.1-16.1,7.8-19.8c1,3.7,2.8,5.2,2.9,5.3
			c0.3,0.3,0.8,0.3,1.1,0.1c3.3-2.1,5.3-4.5,6.5-6.9c0.1,0.2,0.3,0.4,0.6,0.4c0.4,0,0.7-0.3,0.7-0.7c0-0.4-0.3-0.7-0.7-0.7
			c-0.1,0-0.1,0-0.2,0c1.5-3.8,1.1-7.4,0.5-9.8c6.9,5,12.1,15.2,13.5,23.6c-0.4,0-0.7,0.3-0.7,0.7c0,0.4,0.3,0.7,0.7,0.7
			c0.1,0,0.1,0,0.2,0c0.3,2.7,0.3,5.1-0.3,7.1c-0.1,0.1-0.2,0.3-0.2,0.5c0,0.1,0,0.1,0,0.2c-0.1,0.2-0.1,0.3-0.2,0.5
			c-0.2,0.5-0.4,1-0.7,1.5c-0.3,0.1-0.6,0.3-0.6,0.7c0,0.1,0,0.2,0.1,0.3C37.3,41.1,35.7,42.6,34,43.6z"/>
		<ellipse class="st1" cx="12.6" cy="33.1" rx="0.7" ry="0.7"/>
		<ellipse class="st1" cx="9.5" cy="33.1" rx="0.7" ry="0.7"/>
		<ellipse class="st1" cx="18.2" cy="33.1" rx="0.7" ry="0.7"/>
		<ellipse class="st1" cx="14" cy="24.7" rx="0.7" ry="0.7"/>
		<ellipse class="st1" cx="16.8" cy="24.7" rx="0.7" ry="0.7"/>
		<ellipse class="st1" cx="12.6" cy="21.9" rx="0.7" ry="0.7"/>
		<ellipse class="st1" cx="18.2" cy="21.9" rx="0.7" ry="0.7"/>
		<ellipse class="st1" cx="14" cy="30.3" rx="0.7" ry="0.7"/>
		<ellipse class="st1" cx="16.8" cy="30.3" rx="0.7" ry="0.7"/>
		<ellipse class="st1" cx="9.8" cy="27.5" rx="0.7" ry="0.7"/>
		<ellipse class="st1" cx="12.6" cy="27.5" rx="0.7" ry="0.7"/>
		<ellipse class="st1" cx="15.4" cy="27.5" rx="0.7" ry="0.7"/>
		<ellipse class="st1" cx="18.2" cy="27.5" rx="0.7" ry="0.7"/>
		<ellipse class="st1" cx="21" cy="27.5" rx="0.7" ry="0.7"/>
		<ellipse class="st1" cx="20.9" cy="33.1" rx="0.7" ry="0.7"/>
		<ellipse class="st1" cx="26.6" cy="33.1" rx="0.7" ry="0.7"/>
		<ellipse class="st1" cx="22.3" cy="24.7" rx="0.7" ry="0.7"/>
		<ellipse class="st1" cx="25.2" cy="24.7" rx="0.7" ry="0.7"/>
		<ellipse class="st1" cx="20.9" cy="21.9" rx="0.7" ry="0.7"/>
		<ellipse class="st1" cx="26.6" cy="21.9" rx="0.7" ry="0.7"/>
		<ellipse class="st1" cx="22.3" cy="30.3" rx="0.7" ry="0.7"/>
		<ellipse class="st1" cx="25.2" cy="30.3" rx="0.7" ry="0.7"/>
		<ellipse class="st1" cx="23.7" cy="27.5" rx="0.7" ry="0.7"/>
		<ellipse class="st1" cx="26.6" cy="27.5" rx="0.7" ry="0.7"/>
		<ellipse class="st1" cx="29.4" cy="27.5" rx="0.7" ry="0.7"/>
		<ellipse class="st1" cx="29.2" cy="33.1" rx="0.7" ry="0.7"/>
		<ellipse class="st1" cx="34.8" cy="33.1" rx="0.7" ry="0.7"/>
		<ellipse class="st1" cx="30.6" cy="24.7" rx="0.7" ry="0.7"/>
		<ellipse class="st1" cx="33.4" cy="24.7" rx="0.7" ry="0.7"/>
		<ellipse class="st1" cx="29.2" cy="21.9" rx="0.7" ry="0.7"/>
		<ellipse class="st1" cx="34.8" cy="21.9" rx="0.7" ry="0.7"/>
		<ellipse class="st1" cx="30.6" cy="30.3" rx="0.7" ry="0.7"/>
		<ellipse class="st1" cx="33.4" cy="30.3" rx="0.7" ry="0.7"/>
		<ellipse class="st1" cx="32" cy="27.5" rx="0.7" ry="0.7"/>
		<ellipse class="st1" cx="34.8" cy="27.5" rx="0.7" ry="0.7"/>
		<ellipse class="st1" cx="37.6" cy="27.5" rx="0.7" ry="0.7"/>
		<ellipse class="st1" cx="37.5" cy="33.1" rx="0.7" ry="0.7"/>
		<ellipse class="st1" cx="38.9" cy="24.7" rx="0.7" ry="0.7"/>
		<ellipse class="st1" cx="37.5" cy="21.9" rx="0.7" ry="0.7"/>
		<ellipse class="st1" cx="15.3" cy="19.3" rx="0.7" ry="0.7"/>
		<ellipse class="st1" cx="23.6" cy="19.3" rx="0.7" ry="0.7"/>
		<ellipse class="st1" cx="31.9" cy="19.3" rx="0.7" ry="0.7"/>
		<ellipse class="st1" cx="38.9" cy="30.3" rx="0.7" ry="0.7"/>
		<ellipse class="st1" cx="16.8" cy="44.2" rx="0.7" ry="0.7"/>
		<ellipse class="st1" cx="19.6" cy="44.2" rx="0.7" ry="0.7"/>
		<ellipse class="st1" cx="12.6" cy="41.4" rx="0.7" ry="0.7"/>
		<ellipse class="st1" cx="15.4" cy="41.4" rx="0.7" ry="0.7"/>
		<ellipse class="st1" cx="18.2" cy="41.4" rx="0.7" ry="0.7"/>
		<ellipse class="st1" cx="30.6" cy="16.5" rx="0.7" ry="0.7"/>
		<ellipse class="st1" cx="34.7" cy="16.5" rx="0.7" ry="0.7"/>
		<ellipse class="st1" cx="30.7" cy="10.2" rx="0.7" ry="0.7"/>
		<ellipse class="st1" cx="22.4" cy="44.2" rx="0.7" ry="0.7"/>
		<ellipse class="st1" cx="25.2" cy="44.2" rx="0.7" ry="0.7"/>
		<ellipse class="st1" cx="28" cy="44.2" rx="0.7" ry="0.7"/>
		<ellipse class="st1" cx="21" cy="41.4" rx="0.7" ry="0.7"/>
		<ellipse class="st1" cx="23.8" cy="41.4" rx="0.7" ry="0.7"/>
		<ellipse class="st1" cx="26.6" cy="41.4" rx="0.7" ry="0.7"/>
		<ellipse class="st1" cx="29.5" cy="41.4" rx="0.7" ry="0.7"/>
		<ellipse class="st1" cx="32.3" cy="41.4" rx="0.7" ry="0.7"/>
		<ellipse class="st1" cx="35.1" cy="41.4" rx="0.7" ry="0.7"/>
		<ellipse class="st1" cx="11.2" cy="38.6" rx="0.7" ry="0.7"/>
		<ellipse class="st1" cx="14" cy="38.6" rx="0.7" ry="0.7"/>
		<ellipse class="st1" cx="16.8" cy="38.6" rx="0.7" ry="0.7"/>
		<ellipse class="st1" cx="9.8" cy="35.8" rx="0.7" ry="0.7"/>
		<ellipse class="st1" cx="12.6" cy="35.8" rx="0.7" ry="0.7"/>
		<ellipse class="st1" cx="15.4" cy="35.8" rx="0.7" ry="0.7"/>
		<ellipse class="st1" cx="18.2" cy="35.8" rx="0.7" ry="0.7"/>
		<ellipse class="st1" cx="19.6" cy="38.6" rx="0.7" ry="0.7"/>
		<ellipse class="st1" cx="22.4" cy="38.6" rx="0.7" ry="0.7"/>
		<ellipse class="st1" cx="25.2" cy="38.6" rx="0.7" ry="0.7"/>
		<ellipse class="st1" cx="28" cy="38.6" rx="0.7" ry="0.7"/>
		<ellipse class="st1" cx="30.9" cy="38.6" rx="0.7" ry="0.7"/>
		<ellipse class="st1" cx="33.7" cy="38.6" rx="0.7" ry="0.7"/>
		<ellipse class="st1" cx="36.5" cy="38.6" rx="0.7" ry="0.7"/>
		<ellipse class="st1" cx="21" cy="35.8" rx="0.7" ry="0.7"/>
		<ellipse class="st1" cx="23.8" cy="35.8" rx="0.7" ry="0.7"/>
		<ellipse class="st1" cx="26.6" cy="35.8" rx="0.7" ry="0.7"/>
		<ellipse class="st1" cx="29.5" cy="35.8" rx="0.7" ry="0.7"/>
		<ellipse class="st1" cx="32.3" cy="35.8" rx="0.7" ry="0.7"/>
		<ellipse class="st1" cx="35.1" cy="35.8" rx="0.7" ry="0.7"/>
		<ellipse class="st1" cx="37.9" cy="35.8" rx="0.7" ry="0.7"/>
	</g>
</g>
</svg>
