<?xml version="1.0" encoding="utf-8"?>
<!-- Generator: Adobe Illustrator 19.2.1, SVG Export Plug-In . SVG Version: 6.00 Build 0)  -->
<svg version="1.1" id="Layer_1" xmlns="http://www.w3.org/2000/svg" xmlns:xlink="http://www.w3.org/1999/xlink" x="0px" y="0px"
	 viewBox="0 0 48 48" style="enable-background:new 0 0 48 48;" xml:space="preserve">
<style type="text/css">
	.st0{fill:#FFFFFF;}
	.st1{fill:#1A1A18;}
</style>
<g>
	<path class="st0" d="M19.2,38.3h9.6c0,0,18.2-8.9,18.2-14.8L44.2,9.7c-1.9,0.5-9,2.9-20.2,2.9c-11.1,0-18.3-2.4-20.2-2.9L1,23.5
		C1,29.4,19.2,38.3,19.2,38.3z"/>
	<g>
		<path class="st1" d="M48,23.3C48,23.3,48,23.3,48,23.3L45.1,9.5c-0.1-0.3-0.2-0.5-0.4-0.6c-0.2-0.1-0.5-0.2-0.7-0.1
			c-0.2,0.1-0.5,0.1-0.9,0.2c-2.8,0.8-9.3,2.6-19,2.6C14.3,11.7,7.8,9.8,5,9C4.6,8.9,4.3,8.8,4.1,8.8c-0.2-0.1-0.5,0-0.7,0.1
			C3.1,9,3,9.3,2.9,9.5L0.1,23.1C0,23.2,0,23.4,0,23.5c0,0.1,0,0.1,0,0.2c0.3,6.2,16.7,14.5,18.7,15.5c0,0,0.1,0,0.1,0.1
			c0.1,0,0.2,0,0.3,0.1c0,0,0,0,0,0c0,0,0,0,0,0l0,0h9.6c0,0,0,0,0,0c0,0,0,0,0,0c0,0,0,0,0,0c0.1,0,0.2,0,0.3-0.1
			c0,0,0.1,0,0.1-0.1c2-1,18.5-9.2,18.7-15.5c0,0,0-0.1,0-0.1C48,23.5,48,23.4,48,23.3z M44.1,14.1l1.7,8.4
			c-4.3-0.1-7.5,0.6-9.9,1.7c-0.3-2.9-1.7-6.2-2.6-7.8c4.9-0.6,8.3-1.6,10.2-2.1C43.8,14.2,44,14.1,44.1,14.1z M4.6,10.9
			c2.9,0.8,9.6,2.7,19.5,2.7c9.8,0,16.5-1.8,19.5-2.7l0.3,1.4c-0.2,0.1-0.4,0.1-0.7,0.2c-2.8,0.8-9.3,2.6-19,2.6
			c-9.7,0-16.2-1.8-19-2.6c-0.3-0.1-0.5-0.1-0.7-0.2L4.6,10.9z M3.9,14.1c0.2,0,0.4,0.1,0.6,0.2c1.8,0.5,5.3,1.5,10.2,2.1
			c-0.9,1.6-2.3,4.9-2.6,7.8c-2.4-1.1-5.6-1.8-9.9-1.7L3.9,14.1z M2.1,24.4c6.7-0.2,10.5,1.8,12.4,3.7c2.2,2.1,3.4,4.9,3.7,8.6
			C11.9,33.5,3.4,28,2.1,24.4z M27.9,37.3h-7.8c-0.2-4.5-1.6-8.1-4.3-10.6c-0.5-0.5-1.2-1-1.9-1.5c0-3,2-7.3,2.8-8.5
			c0,0,0-0.1,0-0.1c2.2,0.2,4.7,0.4,7.3,0.4c2.7,0,5.1-0.1,7.3-0.4c0,0,0,0.1,0,0.1c0.8,1.2,2.7,5.5,2.8,8.5c-0.8,0.5-1.4,1-1.9,1.5
			C29.5,29.2,28.1,32.8,27.9,37.3z M29.8,36.7c0.3-3.7,1.5-6.6,3.7-8.6c2-1.8,5.7-3.9,12.4-3.7C44.6,28,36.1,33.5,29.8,36.7z"/>
		<path class="st1" d="M28.9,19.2c-0.1-0.1-0.3-0.2-0.5-0.2h-8.9c-0.2,0-0.3,0.1-0.5,0.2l-2.2,2.9c-0.2,0.2-0.2,0.5,0,0.7l6.7,7.2
			c0.1,0.1,0.3,0.2,0.4,0.2c0.2,0,0.3-0.1,0.4-0.2l6.7-7.2c0.2-0.2,0.2-0.5,0-0.7L28.9,19.2z M25.8,20.1
			C25.8,20.1,25.8,20.1,25.8,20.1c-0.1,0-0.1,0.1-0.2,0.1c-0.1,0-0.1,0-0.2-0.1H25.8z M24,28.8l-1.4-1.5c0,0,0-0.1,0.1-0.1
			c0,0,0.1,0,0.2,0.1c0.1,0.1,0.2,0.1,0.4,0.2c0.1,0.1,0.3,0.1,0.5,0.2c0.2,0.1,0.5,0.1,0.8,0.1h0c0.2,0,0.3,0,0.5,0L24,28.8z
			 M24.9,26c-0.2,0.1-0.4,0.1-0.7,0.1h0c-0.5,0-0.9-0.1-1.3-0.3c-0.3-0.2-0.5-0.5-0.6-1c0-0.1-0.1-0.2-0.2-0.2l-1,0.1
			c-0.1,0-0.1,0-0.1,0.1c0,0,0,0.1,0,0.1l0.1,0.9L18,22.4l1.8-2.3h1.6c-0.1,0.1-0.2,0.2-0.3,0.3c-0.2,0.2-0.4,0.5-0.4,0.8
			c-0.1,0.3-0.1,0.6,0,0.9c0,0.3,0.1,0.6,0.2,0.9c0.1,0.3,0.2,0.5,0.4,0.7c0.2,0.2,0.4,0.4,0.6,0.6c0.2,0.2,0.5,0.3,0.9,0.4
			c0.3,0.1,0.6,0.2,0.9,0.2c0.3,0.1,0.6,0.1,0.8,0.2c0.2,0.1,0.4,0.1,0.5,0.2c0.1,0.1,0.1,0.1,0.1,0.3C25.1,25.9,24.9,25.9,24.9,26z
			 M27.1,25.5c0-0.1,0.1-0.2,0.1-0.3c0.1-0.6,0-1.2-0.2-1.6c-0.2-0.4-0.6-0.7-1.1-0.9c-0.3-0.1-0.7-0.2-1.1-0.3
			c-0.4-0.1-0.7-0.1-1-0.2c-0.3-0.1-0.5-0.1-0.7-0.2c-0.2-0.1-0.2-0.2-0.2-0.3c0-0.1,0-0.1,0-0.2c0-0.1,0.1-0.1,0.2-0.1
			c0.1,0,0.2-0.1,0.3-0.1c0.4,0,0.8,0,1.2,0c0.2,0,0.4,0.1,0.6,0.2c0.2,0.1,0.3,0.2,0.4,0.4c0.1,0.1,0.2,0.3,0.2,0.6
			c0,0.1,0.1,0.2,0.2,0.2l1.1-0.1c0.1,0,0.2-0.1,0.2-0.2l0.3-2.3h0.8l1.8,2.3L27.1,25.5z"/>
		<circle class="st1" cx="6.7" cy="28.2" r="0.6"/>
		<circle class="st1" cx="9" cy="28.2" r="0.6"/>
		<circle class="st1" cx="11.3" cy="28.2" r="0.6"/>
		<circle class="st1" cx="10.2" cy="30.4" r="0.6"/>
		<circle class="st1" cx="12.4" cy="30.4" r="0.6"/>
		<circle class="st1" cx="5.6" cy="25.9" r="0.6"/>
		<circle class="st1" cx="7.9" cy="25.9" r="0.6"/>
		<circle class="st1" cx="13.6" cy="32.7" r="0.6"/>
		<circle class="st1" cx="15.8" cy="32.7" r="0.6"/>
		<ellipse transform="matrix(0.9938 -0.1114 0.1114 0.9938 -3.2987 1.8272)" class="st1" cx="14.7" cy="30.4" rx="0.6" ry="0.6"/>
		<circle class="st1" cx="17" cy="35" r="0.6"/>
		<circle class="st1" cx="41.4" cy="28.2" r="0.6"/>
		<circle class="st1" cx="39.2" cy="28.2" r="0.6"/>
		<circle class="st1" cx="36.9" cy="28.2" r="0.6"/>
		<circle class="st1" cx="38" cy="30.4" r="0.6"/>
		<circle class="st1" cx="35.8" cy="30.4" r="0.6"/>
		<circle class="st1" cx="42.6" cy="25.9" r="0.6"/>
		<circle class="st1" cx="40.3" cy="25.9" r="0.6"/>
		<circle class="st1" cx="34.6" cy="32.7" r="0.6"/>
		<circle class="st1" cx="32.3" cy="32.7" r="0.6"/>
		<circle class="st1" cx="33.5" cy="30.4" r="0.6"/>
		<circle class="st1" cx="31.2" cy="35" r="0.6"/>
	</g>
</g>
</svg>
