<?xml version="1.0" encoding="utf-8"?>
<!-- Generator: Adobe Illustrator 19.2.1, SVG Export Plug-In . SVG Version: 6.00 Build 0)  -->
<svg version="1.1" id="Layer_1" xmlns="http://www.w3.org/2000/svg" xmlns:xlink="http://www.w3.org/1999/xlink" x="0px" y="0px"
	 viewBox="0 0 48 48" style="enable-background:new 0 0 48 48;" xml:space="preserve">
<style type="text/css">
	.st0{fill:#FFFFFF;}
</style>
<g>
	<path class="st0" d="M46.3,13.5l-6.5-9.8c-0.9-1.4-2.7-1.8-4.1-0.9l-25,15.5c-0.1,0.1-0.3,0.2-0.4,0.3l-9.2,5.8l5.6,3.5l-5.6,3.6
		L6.7,35l-5.6,3.6l5.6,3.5l-5.6,3.5h11.2l0,0H34l0.1-21.1l11.1-7C46.8,16.7,47.2,14.8,46.3,13.5z"/>
	<g>
		<circle cx="20.5" cy="19" r="1.5"/>
		<circle cx="15.2" cy="43.1" r="0.7"/>
		<circle cx="18.2" cy="43.1" r="0.7"/>
		<circle cx="21.2" cy="43.1" r="0.7"/>
		<circle cx="24.1" cy="43.1" r="0.7"/>
		<circle cx="27.1" cy="43.1" r="0.7"/>
		<circle cx="30" cy="43.1" r="0.7"/>
		<circle cx="31.5" cy="40.2" r="0.7"/>
		<circle cx="15.2" cy="37.2" r="0.7"/>
		<circle cx="18.2" cy="37.2" r="0.7"/>
		<circle cx="21.2" cy="37.2" r="0.7"/>
		<circle cx="24.1" cy="37.2" r="0.7"/>
		<circle cx="27.1" cy="37.2" r="0.7"/>
		<circle cx="16.7" cy="40.2" r="0.7"/>
		<circle cx="19.7" cy="40.2" r="0.7"/>
		<circle cx="22.6" cy="40.2" r="0.7"/>
		<circle cx="25.6" cy="40.2" r="0.7"/>
		<circle cx="28.6" cy="40.2" r="0.7"/>
		<circle cx="15.2" cy="31.3" r="0.7"/>
		<circle cx="16.7" cy="34.3" r="0.7"/>
		<circle cx="19.7" cy="34.3" r="0.7"/>
		<path d="M47.3,12.8L40.9,3c-0.8-1.2-2.1-2-3.6-2c-0.8,0-1.6,0.2-2.2,0.6L18.6,12l-5-10c-0.3-0.5-0.8-0.8-1.4-0.6
			c-0.6,0.1-0.9,0.6-0.9,1.2v14.1h0.1L0.6,23.3C0.2,23.6,0,24,0,24.4c0,0.4,0.2,0.8,0.6,1l4,2.5l-4,2.5C0.2,30.6,0,31,0,31.4
			s0.2,0.8,0.6,1l4,2.5l-4,2.5C0.2,37.6,0,38,0,38.4c0,0.4,0.2,0.8,0.6,1l4,2.5l-3.9,2.5C0.2,45,0,45.6,0.1,46.1
			C0.3,46.6,0.7,47,1.3,47h32.9c0.7,0,1.2-0.6,1.2-1.2l0.1-20.5l10.6-6.7c0.9-0.6,1.6-1.5,1.8-2.6C48.1,14.9,47.9,13.7,47.3,12.8z
			 M11.3,44.5H5.5l2-1.3c0.4-0.2,0.6-0.6,0.6-1c0-0.4-0.2-0.8-0.6-1l-4-2.5l4-2.5c0.4-0.2,0.6-0.6,0.6-1s-0.2-0.8-0.6-1l-4-2.5
			l4-2.5c0.4-0.2,0.6-0.6,0.6-1c0-0.4-0.2-0.8-0.6-1l-4-2.5l7.7-4.9v0.8l0,0v23.9H11.3z M45.5,15.4c-0.1,0.4-0.4,0.8-0.8,1.1
			l-11.1,7c-0.4,0.2-0.6,0.6-0.6,1v20H13.7V17.9L36.4,3.8c0.8-0.5,1.9-0.3,2.4,0.5l3,4.6l-8.5,5.4c-0.6,0.4-0.7,1.1-0.4,1.7
			c0.2,0.4,0.6,0.6,1,0.6c0.2,0,0.5-0.1,0.7-0.2l8.6-5.5l2.1,3.2C45.5,14.5,45.6,15,45.5,15.4z"/>
	</g>
</g>
</svg>
