<?xml version="1.0" encoding="utf-8"?>
<!-- Generator: Adobe Illustrator 19.2.1, SVG Export Plug-In . SVG Version: 6.00 Build 0)  -->
<svg version="1.1" id="Layer_1" xmlns="http://www.w3.org/2000/svg" xmlns:xlink="http://www.w3.org/1999/xlink" x="0px" y="0px"
	 viewBox="0 0 48 48" style="enable-background:new 0 0 48 48;" xml:space="preserve">
<style type="text/css">
	.st0{fill:#FFFFFF;}
	.st1{fill:#020204;}
</style>
<g>
	<path class="st0" d="M46.1,25.9c0-0.3,0-0.5,0-0.8c0-10.1-8.2-18.4-18.4-18.4c-5.4,0-10.3,2.3-13.6,6.1l-11.5-2L0.8,29.2l9.6,2
		c2.5,7.2,9.3,12.3,17.3,12.3c7.1,0,13.2-4,16.3-9.8c0.6,0,1.3-0.2,1.9-1.1C47.9,30,47.2,27.3,46.1,25.9z"/>
	<g>
		<ellipse class="st1" cx="33.7" cy="35.1" rx="0.6" ry="0.6"/>
		<ellipse class="st1" cx="35" cy="32.5" rx="0.6" ry="0.6"/>
		<ellipse class="st1" cx="36.3" cy="35.1" rx="0.6" ry="0.6"/>
		<path class="st1" d="M47.5,26.7c-0.2-0.4-0.4-0.7-0.6-1c0-0.2,0-0.3,0-0.5c0-6.3-3-11.8-7.7-15.4c0.8,0.4,1.3,0.8,1.3,0.8
			c0.2,0.1,0.4,0.2,0.6,0.2c0.2,0,0.5-0.1,0.7-0.3c0.3-0.3,0.4-0.8,0.1-1.2C39.3,5.8,32.5,5,31,4.9c-1.1-0.8-2.6-1.2-4.5-1.2
			c-3.8,0-8.9,1.9-9.5,2.9c-0.2,0.3-0.2,0.7,0,1c0.1,0.2,0.4,0.5,1,0.5c0.1,0,0.2,0,0.3,0c0.2,0,0.5,0,0.8-0.1
			c-1.3,0.7-2.6,1.5-3.7,2.5c-0.1,0-0.5,0.3-0.5,0.5c-0.3,0.3-0.7,0.7-1,1L2.8,10c-0.2,0-0.5,0-0.7,0.2c-0.2,0.1-0.3,0.4-0.3,0.6
			L0,29.1C0,29.6,0.2,30,0.7,30l9.1,1.9c2.7,7.3,9.7,12.4,18,12.4c7.2,0,13.5-4,16.8-9.9c0.6-0.1,1.4-0.5,2.1-1.4
			C48.1,31.1,48.4,28.8,47.5,26.7z M33.6,15.5c2,2.4,3.7,3.5,5.3,4.3c-1.6,0.1-3.1,0.1-4.3,0c-1.1-0.5-2.3-0.8-3.4-0.9l-1.3-1.4
			C31.6,16.7,32.8,16,33.6,15.5z M9,17.7L4.5,12l20.2,3.5l-6,3.4c-0.2,0.1-0.3,0.4-0.3,0.7l4.2,13.2l-19.8-4L9,18.4
			C9.2,18.2,9.1,17.9,9,17.7z M23.1,30.9l-3.6-11.2l5.7-3.2L23.1,30.9z M27,16.9l2.9,3.2l-1.7,10l-3.5,2.1L27,16.9z M31.8,20
			c1.2,0.2,2.4,0.6,3.3,1.3c0.9,0.7,1.4,1.6,1.5,2.8c0.2,1.7-0.1,3-0.9,4c-1,1.2-2.9,1.9-5.6,2.1L31.8,20z M3.3,12.3l4.6,5.8
			L1.8,28.3L3.3,12.3z M45.3,32.1c-0.4,0.5-0.8,0.8-1.2,0.8c0,0,0,0,0,0c-0.3,0-0.6-0.2-0.6-0.2c-0.1-0.1-0.3-0.2-0.6-0.2
			c-0.5,0-0.8,0.4-0.8,0.8c0,0.2,0,0.6,0.8,0.9c-3.1,5.1-8.6,8.5-15,8.5c-7.1,0-13.2-4.3-16-10.3l11.4,2.3c0.1,0.1,0.3,0.1,0.4,0.1
			c0.2,0,0.3,0,0.5-0.1l5.5-3.2c0,0,0-0.1,0.1-0.1c3.3-0.2,5.6-1.1,6.9-2.6c0.1-0.2,0.3-0.3,0.4-0.5c2,0,3.7-0.3,5.1-0.5
			c0,0.1,0,0.2,0.1,0.3c0.1,0.5,0.6,0.7,1,0.6c0.5-0.1,0.7-0.6,0.6-1c-0.1-0.4,0-1.4,0.4-1.8c0.1-0.1,0.3-0.2,0.5-0.2
			c0.3,0,1,0.6,1.5,1.6C46.3,28,46.8,29.9,45.3,32.1z"/>
	</g>
</g>
</svg>
