<?xml version="1.0" encoding="utf-8"?>
<!-- Generator: Adobe Illustrator 19.2.1, SVG Export Plug-In . SVG Version: 6.00 Build 0)  -->
<svg version="1.1" id="Layer_1" xmlns="http://www.w3.org/2000/svg" xmlns:xlink="http://www.w3.org/1999/xlink" x="0px" y="0px"
	 viewBox="0 0 48 48" style="enable-background:new 0 0 48 48;" xml:space="preserve">
<style type="text/css">
	.st0{fill:#FFFFFF;}
	.st1{fill:#1A1A18;}
</style>
<g>
	<path class="st0" d="M45.9,18.4c1,1.9,1.5,3.9,1.4,5.6l0,0c0.1,1.7-0.4,3.7-1.4,5.6l-34.7,0l-5.5-4l-2.2,0v-3.1l2.2,0l5.5-4.1
		L45.9,18.4z"/>
	<g>
		<path class="st1" d="M48,24c0.1-2-0.5-4.1-1.5-6c-0.1-0.2-0.3-0.4-0.6-0.4l-34.7,0h0c-0.1,0-0.3,0-0.4,0.1l-5.3,4l-2,0
			c-0.3,0-0.5,0.2-0.6,0.5H1.3c-0.1,0-0.2,0.1-0.3,0.2l-1,2.9c0,0.1,0,0.2,0,0.2c0.1,0.1,0.1,0.1,0.2,0.1H3c0,0.4,0.3,0.6,0.7,0.6
			l2,0l5.3,3.9c0.1,0.1,0.3,0.1,0.4,0.1h0l34.7,0c0.2,0,0.5-0.1,0.6-0.4C47.6,28.1,48.1,26,48,24z M8.5,26.8l-2.3-1.7
			C6.1,25,6,25,5.8,25l-1.5,0v-1.8l1.5,0c0.1,0,0.3-0.1,0.4-0.1l2.3-1.8c0.3,0.9,0.5,1.8,0.5,2.8C9.1,25,8.9,26,8.5,26.8z
			 M11.1,28.7l-1.4-1c0.5-1.1,0.8-2.4,0.7-3.6c0-1.3-0.2-2.6-0.7-3.7l1.4-1.1c0.7,1.4,1,3,0.9,4.7C12.1,25.7,11.8,27.2,11.1,28.7z
			 M42.8,28.9l-30.3,0c0.7-1.6,1-3.2,0.9-4.9c0.1-1.7-0.3-3.5-0.9-5l30.3,0c0.8,1.5,1.1,3.2,1.1,5C43.9,25.8,43.5,27.4,42.8,28.9z
			 M45.5,28.9l-1.2,0c0.7-1.6,1-3.2,0.9-4.9c0.1-1.7-0.3-3.4-0.9-5l1.2,0c0.8,1.6,1.2,3.3,1.1,5C46.7,25.6,46.3,27.4,45.5,28.9z"/>
		<circle class="st1" cx="14.3" cy="28.2" r="0.4"/>
		<circle class="st1" cx="14.3" cy="25" r="0.4"/>
		<circle class="st1" cx="15.1" cy="26.6" r="0.4"/>
		<circle class="st1" cx="15.9" cy="28.2" r="0.4"/>
		<circle class="st1" cx="15.9" cy="25" r="0.4"/>
		<circle class="st1" cx="17.6" cy="28.2" r="0.4"/>
		<circle class="st1" cx="19.2" cy="28.2" r="0.4"/>
		<circle class="st1" cx="20.8" cy="28.2" r="0.4"/>
		<circle class="st1" cx="22.5" cy="28.2" r="0.4"/>
		<circle class="st1" cx="24.1" cy="28.2" r="0.4"/>
		<circle class="st1" cx="25.8" cy="28.2" r="0.4"/>
		<circle class="st1" cx="27.4" cy="28.2" r="0.4"/>
		<circle class="st1" cx="17.6" cy="25" r="0.4"/>
		<circle class="st1" cx="19.2" cy="25" r="0.4"/>
		<circle class="st1" cx="20.8" cy="25" r="0.4"/>
		<circle class="st1" cx="22.5" cy="25" r="0.4"/>
		<circle class="st1" cx="24.1" cy="25" r="0.4"/>
		<circle class="st1" cx="25.8" cy="25" r="0.4"/>
		<circle class="st1" cx="27.4" cy="25" r="0.4"/>
		<circle class="st1" cx="16.8" cy="26.6" r="0.4"/>
		<circle class="st1" cx="18.4" cy="26.6" r="0.4"/>
		<circle class="st1" cx="20" cy="26.6" r="0.4"/>
		<circle class="st1" cx="21.7" cy="26.6" r="0.4"/>
		<circle class="st1" cx="23.3" cy="26.6" r="0.4"/>
		<circle class="st1" cx="24.9" cy="26.6" r="0.4"/>
		<circle class="st1" cx="26.6" cy="26.6" r="0.4"/>
		<circle class="st1" cx="28.2" cy="26.6" r="0.4"/>
		<circle class="st1" cx="29" cy="28.2" r="0.4"/>
		<circle class="st1" cx="29" cy="25" r="0.4"/>
		<circle class="st1" cx="30.7" cy="28.2" r="0.4"/>
		<circle class="st1" cx="32.3" cy="28.2" r="0.4"/>
		<circle class="st1" cx="33.9" cy="28.2" r="0.4"/>
		<circle class="st1" cx="35.6" cy="28.2" r="0.4"/>
		<circle class="st1" cx="37.2" cy="28.2" r="0.4"/>
		<circle class="st1" cx="38.8" cy="28.2" r="0.4"/>
		<circle class="st1" cx="40.5" cy="28.2" r="0.4"/>
		<circle class="st1" cx="30.7" cy="25" r="0.4"/>
		<circle class="st1" cx="32.3" cy="25" r="0.4"/>
		<circle class="st1" cx="33.9" cy="25" r="0.4"/>
		<circle class="st1" cx="35.6" cy="25" r="0.4"/>
		<circle class="st1" cx="37.2" cy="25" r="0.4"/>
		<circle class="st1" cx="38.8" cy="25" r="0.4"/>
		<circle class="st1" cx="40.5" cy="25" r="0.4"/>
		<circle class="st1" cx="29.8" cy="26.6" r="0.4"/>
		<circle class="st1" cx="31.5" cy="26.6" r="0.4"/>
		<circle class="st1" cx="33.1" cy="26.6" r="0.4"/>
		<circle class="st1" cx="34.8" cy="26.6" r="0.4"/>
		<circle class="st1" cx="36.4" cy="26.6" r="0.4"/>
		<circle class="st1" cx="38" cy="26.6" r="0.4"/>
		<circle class="st1" cx="39.7" cy="26.6" r="0.4"/>
		<circle class="st1" cx="41.3" cy="26.6" r="0.4"/>
		<circle class="st1" cx="42.1" cy="28.2" r="0.4"/>
		<circle class="st1" cx="42.1" cy="25" r="0.4"/>
	</g>
</g>
</svg>
