<?xml version="1.0" encoding="utf-8"?>
<!-- Generator: Adobe Illustrator 19.2.1, SVG Export Plug-In . SVG Version: 6.00 Build 0)  -->
<svg version="1.1" id="Layer_1" xmlns="http://www.w3.org/2000/svg" xmlns:xlink="http://www.w3.org/1999/xlink" x="0px" y="0px"
	 viewBox="0 0 48 48" style="enable-background:new 0 0 48 48;" xml:space="preserve">
<style type="text/css">
	.st0{fill:#FFFFFF;}
	.st1{fill:#1A1A18;}
</style>
<g>
	<path class="st0" d="M46.7,41c0,0.6-0.5,1.2-1.2,1.2h-43c-0.7,0-1.2-0.5-1.2-1.2V7c0-0.6,0.5-1.2,1.2-1.2h43c0.7,0,1.2,0.5,1.2,1.2
		V41z"/>
	<g>
		<path class="st1" d="M45.5,4.6h-43C1.1,4.6,0,5.6,0,6.9v34c0,1.4,1.1,2.5,2.5,2.5h43c1.4,0,2.5-1.1,2.5-2.5v-34
			C48,5.6,46.9,4.6,45.5,4.6z M45.4,40.9H2.6V7.1h42.8C45.4,7.1,45.4,40.9,45.4,40.9z"/>
		<circle class="st1" cx="19.1" cy="39.7" r="0.8"/>
		<circle class="st1" cx="22.2" cy="39.7" r="0.8"/>
		<circle class="st1" cx="25.3" cy="39.7" r="0.8"/>
		<circle class="st1" cx="28.5" cy="39.7" r="0.8"/>
		<circle class="st1" cx="31.6" cy="39.7" r="0.8"/>
		<circle class="st1" cx="34.7" cy="39.7" r="0.8"/>
		<circle class="st1" cx="23.8" cy="36.5" r="0.8"/>
		<circle class="st1" cx="20.6" cy="36.5" r="0.8"/>
		<circle class="st1" cx="19.1" cy="33.4" r="0.8"/>
		<circle class="st1" cx="17.5" cy="36.5" r="0.8"/>
		<circle class="st1" cx="16" cy="39.7" r="0.8"/>
		<circle class="st1" cx="12.8" cy="39.7" r="0.8"/>
		<circle class="st1" cx="28.5" cy="33.4" r="0.8"/>
		<circle class="st1" cx="31.6" cy="33.4" r="0.8"/>
		<circle class="st1" cx="30" cy="30.3" r="0.8"/>
		<circle class="st1" cx="41" cy="14.6" r="0.8"/>
		<circle class="st1" cx="42.6" cy="11.4" r="0.8"/>
		<circle class="st1" cx="33.2" cy="30.3" r="0.8"/>
		<circle class="st1" cx="36.3" cy="30.3" r="0.8"/>
		<circle class="st1" cx="37.9" cy="27.2" r="0.8"/>
		<circle class="st1" cx="41" cy="27.2" r="0.8"/>
		<circle class="st1" cx="34.7" cy="27.2" r="0.8"/>
		<circle class="st1" cx="31.6" cy="27.2" r="0.8"/>
		<circle class="st1" cx="36.3" cy="24" r="0.8"/>
		<circle class="st1" cx="39.4" cy="24" r="0.8"/>
		<circle class="st1" cx="42.6" cy="24" r="0.8"/>
		<circle class="st1" cx="41" cy="20.9" r="0.8"/>
		<circle class="st1" cx="37.9" cy="20.9" r="0.8"/>
		<circle class="st1" cx="42.6" cy="17.8" r="0.8"/>
		<circle class="st1" cx="44.1" cy="14.6" r="0.8"/>
		<circle class="st1" cx="26.9" cy="36.5" r="0.8"/>
		<circle class="st1" cx="30" cy="36.5" r="0.8"/>
		<circle class="st1" cx="33.2" cy="36.5" r="0.8"/>
		<circle class="st1" cx="34.7" cy="33.4" r="0.8"/>
		<circle class="st1" cx="36.3" cy="36.5" r="0.8"/>
		<circle class="st1" cx="37.9" cy="39.7" r="0.8"/>
		<circle class="st1" cx="41" cy="39.7" r="0.8"/>
		<circle class="st1" cx="44.1" cy="39.7" r="0.8"/>
		<circle class="st1" cx="39.4" cy="30.3" r="0.8"/>
		<circle class="st1" cx="42.6" cy="30.3" r="0.8"/>
		<circle class="st1" cx="44.1" cy="27.2" r="0.8"/>
		<circle class="st1" cx="39.4" cy="36.5" r="0.8"/>
		<circle class="st1" cx="42.6" cy="36.5" r="0.8"/>
		<circle class="st1" cx="37.9" cy="33.4" r="0.8"/>
		<circle class="st1" cx="41" cy="33.4" r="0.8"/>
		<circle class="st1" cx="44.1" cy="33.4" r="0.8"/>
		<circle class="st1" cx="44.1" cy="20.9" r="0.8"/>
		<circle class="st1" cx="24" cy="32.3" r="3.1"/>
		<path class="st1" d="M30.2,25.6C28.6,24,26.4,23,24,23c-2.3,0-4.5,0.9-6.2,2.6c-0.2,0.2-0.2,0.5,0,0.7l2.2,2.2
			c0.2,0.2,0.5,0.2,0.7,0c0.9-0.9,2-1.3,3.2-1.3s2.4,0.5,3.2,1.4c0.1,0.1,0.2,0.2,0.4,0.2l0,0c0.1,0,0.3-0.1,0.4-0.2l2.2-2.2
			C30.4,26.2,30.4,25.8,30.2,25.6z"/>
		<path class="st1" d="M24,17c-4,0-7.7,1.5-10.5,4.4c-0.1,0.1-0.2,0.2-0.2,0.4s0.1,0.3,0.2,0.4l2.2,2.2c0.2,0.2,0.5,0.2,0.7,0
			c2-2,4.7-3.1,7.6-3.1s5.6,1.1,7.6,3.2c0.1,0.1,0.2,0.2,0.4,0.2l0,0c0.1,0,0.3-0.1,0.4-0.2l2.2-2.2c0.2-0.2,0.2-0.5,0-0.7
			C31.7,18.5,28,17,24,17z"/>
		<path class="st1" d="M11.3,19.9c0.2,0.2,0.5,0.2,0.7,0c3.2-3.2,7.4-5,11.9-5s8.7,1.8,11.9,5c0.1,0.1,0.2,0.2,0.4,0.2l0,0
			c0.1,0,0.3-0.1,0.4-0.2l2.2-2.2c0.2-0.2,0.2-0.5,0-0.7c-4-4-9.2-6.2-14.8-6.2s-10.9,2.2-14.8,6.2C9.1,17.1,9,17.2,9,17.4
			c0,0.1,0.1,0.3,0.2,0.4L11.3,19.9z"/>
	</g>
</g>
</svg>
