<?xml version="1.0" encoding="utf-8"?>
<!-- Generator: Adobe Illustrator 19.2.1, SVG Export Plug-In . SVG Version: 6.00 Build 0)  -->
<svg version="1.1" id="Layer_1" xmlns="http://www.w3.org/2000/svg" xmlns:xlink="http://www.w3.org/1999/xlink" x="0px" y="0px"
	 viewBox="0 0 48 48" style="enable-background:new 0 0 48 48;" xml:space="preserve">
<style type="text/css">
	.st0{fill:#FFFFFF;}
	.st1{fill:#1A1A18;}
</style>
<g>
	<path class="st0" d="M36.1,17.7l0.2-2.1l-13.3-2.3c-0.2-0.2-0.4-0.3-0.6-0.4L16.6,0.7l-1.9,0.8l4.7,12.7c-0.1,0.2-0.1,0.4-0.1,0.6
		c0,0,0,0.1,0,0.1l-7.7,11.2l1.7,1.3l6.6-8L19,47.3l4.9,0l-1.1-30.6h-0.1c0,0,0,0,0,0L36.1,17.7z"/>
	<g>
		<circle class="st1" cx="21" cy="45.8" r="0.4"/>
		<circle class="st1" cx="21.9" cy="44" r="0.4"/>
		<circle class="st1" cx="21" cy="42.3" r="0.4"/>
		<circle class="st1" cx="21.9" cy="40.6" r="0.4"/>
		<circle class="st1" cx="21" cy="38.9" r="0.4"/>
		<path class="st1" d="M36.5,14.9l-13.4-2.3L17.3,0.4c-0.2-0.3-0.6-0.5-0.9-0.3l-1.9,0.8C14,1,13.9,1.4,14,1.8l4.7,12.8L11,25.8
			c-0.2,0.3-0.1,0.8,0.2,1l1.7,1.2c0.1,0.1,0.3,0.1,0.4,0.1c0.2,0,0.4-0.1,0.6-0.3l5.3-6.4l-0.8,25h-3.6c-0.4,0-0.7,0.3-0.7,0.7
			c0,0.4,0.3,0.7,0.7,0.7H24h0h4.3c0.4,0,0.7-0.3,0.7-0.7c0-0.4-0.3-0.7-0.7-0.7h-3.6l-1-29.1l12.4,0.9c0,0,0,0,0.1,0
			c0.4,0,0.7-0.3,0.7-0.6l0.2-2.1C37.1,15.3,36.9,15,36.5,14.9z M15.6,1.9l0.7-0.3l5.1,10.6c-0.7,0-1.3,0.3-1.7,0.7L15.6,1.9z
			 M13.2,26.5L12.6,26l6.6-9.7c0.3,0.5,0.9,0.9,1.5,1.1L13.2,26.5z M19.8,46.6l0.9-26.8l1.5-1.8l1,28.6L19.8,46.6z M21.5,16.7
			c-1,0-1.8-0.8-1.8-1.8c0-1,0.8-1.8,1.8-1.8c1,0,1.8,0.8,1.8,1.8C23.3,15.9,22.5,16.7,21.5,16.7z M35.5,16.9l-11.6-0.9
			c0.2-0.4,0.3-0.7,0.3-1.2c0-0.2,0-0.5-0.1-0.7l11.5,2L35.5,16.9z"/>
	</g>
</g>
</svg>
