<?xml version="1.0" encoding="utf-8"?>
<!-- Generator: Adobe Illustrator 19.2.1, SVG Export Plug-In . SVG Version: 6.00 Build 0)  -->
<svg version="1.1" id="Layer_1" xmlns="http://www.w3.org/2000/svg" xmlns:xlink="http://www.w3.org/1999/xlink" x="0px" y="0px"
	 viewBox="0 0 48 48" style="enable-background:new 0 0 48 48;" xml:space="preserve">
<path d="M37.2,24l10.3-10.3c0.2-0.2,0.4-0.5,0.4-0.9c0-0.3-0.1-0.6-0.4-0.9L36,0.4C35.8,0.2,35.4,0,35.1,0c-0.3,0-0.6,0.1-0.9,0.4
	L24,10.7L13.7,0.4c-0.5-0.5-1.3-0.5-1.7,0L0.4,12c-0.5,0.5-0.5,1.3,0,1.7L10.7,24L0.4,34.3c-0.5,0.5-0.5,1.3,0,1.7L12,47.6
	c0.2,0.2,0.5,0.4,0.9,0.4c0.3,0,0.6-0.1,0.9-0.4L24,37.2l10.3,10.3c0.2,0.2,0.5,0.4,0.9,0.4c0.3,0,0.6-0.1,0.9-0.4l11.6-11.6
	c0.5-0.5,0.5-1.3,0-1.7L37.2,24z"/>
</svg>
